<?xml version="1.0" encoding="UTF-8" standalone="no"?>
<!DOCTYPE svg PUBLIC "-//W3C//DTD SVG 1.1//EN"
 "http://www.w3.org/Graphics/SVG/1.1/DTD/svg11.dtd">
<!-- Generated by graphviz version 2.43.0 (0)
 -->
<!-- Title: %3 Pages: 1 -->
<svg width="2567pt" height="475pt"
 viewBox="0.00 0.00 2567.21 475.44" xmlns="http://www.w3.org/2000/svg" xmlns:xlink="http://www.w3.org/1999/xlink">
<g id="graph0" class="graph" transform="scale(1 1) rotate(0) translate(4 471.44)">
<title>%3</title>
<polygon fill="white" stroke="transparent" points="-4,4 -4,-471.44 2563.21,-471.44 2563.21,4 -4,4"/>
<!-- fake -->
<g id="node1" class="node">
<title>fake</title>
</g>
<!-- 0 -->
<g id="node2" class="node">
<title>0</title>
<ellipse fill="none" stroke="black" cx="1834.21" cy="-376.44" rx="27" ry="18"/>
<text text-anchor="middle" x="1834.21" y="-372.74" font-family="Times,serif" font-size="14.00">0</text>
</g>
<!-- fake&#45;&gt;0 -->
<g id="edge1" class="edge">
<title>fake&#45;&gt;0</title>
<path fill="none" stroke="black" stroke-width="2" d="M1834.21,-431.25C1834.21,-423.23 1834.21,-413.49 1834.21,-404.51"/>
<polygon fill="black" stroke="black" stroke-width="2" points="1837.71,-404.47 1834.21,-394.47 1830.71,-404.47 1837.71,-404.47"/>
</g>
<!-- 0&#45;&gt;0 -->
<g id="edge23" class="edge">
<title>0&#45;&gt;0</title>
<path fill="none" stroke="black" d="M1859.65,-383.13C1870.24,-383.59 1879.21,-381.36 1879.21,-376.44 1879.21,-373.21 1875.35,-371.14 1869.7,-370.23"/>
<polygon fill="black" stroke="black" points="1869.81,-366.73 1859.65,-369.75 1869.48,-373.72 1869.81,-366.73"/>
<text text-anchor="middle" x="1886.21" y="-372.74" font-family="Times,serif" font-size="14.00">{}</text>
</g>
<!-- 1 -->
<g id="node3" class="node">
<title>1</title>
<ellipse fill="none" stroke="black" cx="1495.21" cy="-289.44" rx="27" ry="18"/>
<text text-anchor="middle" x="1495.21" y="-285.74" font-family="Times,serif" font-size="14.00">1</text>
</g>
<!-- 0&#45;&gt;1 -->
<g id="edge18" class="edge">
<title>0&#45;&gt;1</title>
<path fill="none" stroke="black" d="M1807.14,-375.83C1701.39,-377.08 1320.26,-378.86 1284.21,-340.44 1279.65,-335.58 1279.9,-330.52 1284.21,-325.44 1306.05,-299.68 1403.36,-292.86 1457.88,-291.06"/>
<polygon fill="black" stroke="black" points="1458.28,-294.55 1468.18,-290.77 1458.08,-287.56 1458.28,-294.55"/>
<text text-anchor="middle" x="1307.71" y="-329.24" font-family="Times,serif" font-size="14.00">{c0, c3}</text>
</g>
<!-- 0&#45;&gt;1 -->
<g id="edge19" class="edge">
<title>0&#45;&gt;1</title>
<path fill="none" stroke="black" d="M1807.01,-375.56C1710,-375.71 1385.15,-373.71 1354.21,-340.44 1322.2,-306 1405.97,-295.27 1457.78,-291.93"/>
<polygon fill="black" stroke="black" points="1458.2,-295.41 1467.98,-291.34 1457.8,-288.43 1458.2,-295.41"/>
<text text-anchor="middle" x="1398.21" y="-329.24" font-family="Times,serif" font-size="14.00">{c0, c1, c2, c3}</text>
</g>
<!-- 0&#45;&gt;1 -->
<g id="edge20" class="edge">
<title>0&#45;&gt;1</title>
<path fill="none" stroke="black" d="M1807.29,-374.93C1726.16,-373.11 1488.16,-365.67 1465.21,-340.44 1457.26,-331.69 1462.8,-320.52 1471.19,-310.96"/>
<polygon fill="black" stroke="black" points="1473.8,-313.29 1478.32,-303.71 1468.81,-308.38 1473.8,-313.29"/>
<text text-anchor="middle" x="1498.71" y="-329.24" font-family="Times,serif" font-size="14.00">{c0, c1, c2}</text>
</g>
<!-- 0&#45;&gt;1 -->
<g id="edge21" class="edge">
<title>0&#45;&gt;1</title>
<path fill="none" stroke="black" d="M1807.34,-373.99C1746.54,-370.41 1600.21,-359.98 1555.21,-340.44 1546.95,-336.85 1531.09,-323.51 1517.75,-311.51"/>
<polygon fill="black" stroke="black" points="1520.01,-308.84 1510.27,-304.68 1515.3,-314.01 1520.01,-308.84"/>
<text text-anchor="middle" x="1578.71" y="-329.24" font-family="Times,serif" font-size="14.00">{c0, c2}</text>
</g>
<!-- 0&#45;&gt;1 -->
<g id="edge22" class="edge">
<title>0&#45;&gt;1</title>
<path fill="none" stroke="black" d="M1807.22,-374.44C1766.47,-372.16 1687.42,-364.7 1625.21,-340.44 1613.84,-336 1613.22,-330.71 1602.21,-325.44 1578.93,-314.28 1551.19,-305.32 1529.79,-299.26"/>
<polygon fill="black" stroke="black" points="1530.71,-295.88 1520.14,-296.6 1528.85,-302.63 1530.71,-295.88"/>
<text text-anchor="middle" x="1648.71" y="-329.24" font-family="Times,serif" font-size="14.00">{c0, c1}</text>
</g>
<!-- 0&#45;&gt;1 -->
<g id="edge24" class="edge">
<title>0&#45;&gt;1</title>
<path fill="none" stroke="black" d="M1808.01,-371.51C1779.42,-366.62 1732.72,-356.84 1695.21,-340.44 1684.03,-335.55 1683.51,-330.04 1672.21,-325.44 1626,-306.63 1568.77,-297.68 1532.13,-293.6"/>
<polygon fill="black" stroke="black" points="1532.22,-290.09 1521.91,-292.53 1531.49,-297.05 1532.22,-290.09"/>
<text text-anchor="middle" x="1728.71" y="-329.24" font-family="Times,serif" font-size="14.00">{c0, c2, c3}</text>
</g>
<!-- 0&#45;&gt;1 -->
<g id="edge25" class="edge">
<title>0&#45;&gt;1</title>
<path fill="none" stroke="black" d="M1816.32,-362.7C1795.99,-348.27 1765.23,-326.6 1762.21,-325.44 1684.49,-295.41 1585.58,-290.23 1532.65,-289.85"/>
<polygon fill="black" stroke="black" points="1532.39,-286.35 1522.39,-289.84 1532.38,-293.35 1532.39,-286.35"/>
<text text-anchor="middle" x="1796.71" y="-329.24" font-family="Times,serif" font-size="14.00">{c0}</text>
</g>
<!-- 0&#45;&gt;1 -->
<g id="edge26" class="edge">
<title>0&#45;&gt;1</title>
<path fill="none" stroke="black" d="M1831.22,-358.3C1828.33,-347.11 1822.76,-333.18 1812.21,-325.44 1768.6,-293.43 1606.9,-289.9 1532.77,-290.01"/>
<polygon fill="black" stroke="black" points="1532.48,-286.51 1522.49,-290.05 1532.51,-293.51 1532.48,-286.51"/>
<text text-anchor="middle" x="1857.71" y="-329.24" font-family="Times,serif" font-size="14.00">{c0, c1, c3}</text>
</g>
<!-- 2 -->
<g id="node4" class="node">
<title>2</title>
<ellipse fill="none" stroke="black" cx="1484.21" cy="-24.44" rx="27" ry="18"/>
<text text-anchor="middle" x="1484.21" y="-20.74" font-family="Times,serif" font-size="14.00">2</text>
</g>
<!-- 0&#45;&gt;2 -->
<g id="edge27" class="edge">
<title>0&#45;&gt;2</title>
<path fill="none" stroke="black" d="M1858.53,-368.21C1871.89,-362.85 1887.32,-354.07 1895.21,-340.44 1898.55,-334.67 1896.94,-331.88 1895.21,-325.44 1871.97,-239.1 1851.41,-220.17 1794.21,-151.44 1753.22,-102.18 1738.69,-88.3 1679.21,-64.44 1626.56,-43.32 1561.16,-33.25 1521.07,-28.74"/>
<polygon fill="black" stroke="black" points="1521.27,-25.24 1510.96,-27.66 1520.53,-32.2 1521.27,-25.24"/>
<text text-anchor="middle" x="1872.71" y="-198.74" font-family="Times,serif" font-size="14.00">{c2, c3}</text>
</g>
<!-- 0&#45;&gt;2 -->
<g id="edge28" class="edge">
<title>0&#45;&gt;2</title>
<path fill="none" stroke="black" d="M1859.01,-368.83C1892.27,-358.3 1947.21,-334.26 1947.21,-290.44 1947.21,-290.44 1947.21,-290.44 1947.21,-114.44 1947.21,-27.99 1632.03,-23.61 1521.76,-24.72"/>
<polygon fill="black" stroke="black" points="1521.4,-21.22 1511.45,-24.85 1521.49,-28.22 1521.4,-21.22"/>
<text text-anchor="middle" x="1970.71" y="-198.74" font-family="Times,serif" font-size="14.00">{c1, c3}</text>
</g>
<!-- 0&#45;&gt;2 -->
<g id="edge29" class="edge">
<title>0&#45;&gt;2</title>
<path fill="none" stroke="black" d="M1861.46,-375.6C1915.32,-374.34 2030.21,-363.13 2030.21,-290.44 2030.21,-290.44 2030.21,-290.44 2030.21,-114.44 2030.21,-62.35 1974.49,-78.06 1924.21,-64.44 1848.56,-43.94 1613.2,-31.31 1521.4,-27.06"/>
<polygon fill="black" stroke="black" points="1521.34,-23.55 1511.19,-26.59 1521.02,-30.54 1521.34,-23.55"/>
<text text-anchor="middle" x="2043.71" y="-198.74" font-family="Times,serif" font-size="14.00">{c2}</text>
</g>
<!-- 0&#45;&gt;2 -->
<g id="edge30" class="edge">
<title>0&#45;&gt;2</title>
<path fill="none" stroke="black" d="M1861.26,-374.3C1899.3,-371.86 1970.12,-364.23 2025.21,-340.44 2059.65,-325.57 2093.21,-327.95 2093.21,-290.44 2093.21,-290.44 2093.21,-290.44 2093.21,-114.44 2093.21,-59.52 2033.46,-77.89 1980.21,-64.44 1893.25,-42.46 1620.95,-30.48 1521.25,-26.73"/>
<polygon fill="black" stroke="black" points="1521.18,-23.23 1511.06,-26.36 1520.93,-30.22 1521.18,-23.23"/>
<text text-anchor="middle" x="2116.71" y="-198.74" font-family="Times,serif" font-size="14.00">{c1, c2}</text>
</g>
<!-- 0&#45;&gt;2 -->
<g id="edge31" class="edge">
<title>0&#45;&gt;2</title>
<path fill="none" stroke="black" d="M1861.33,-374.5C1942.22,-370.99 2176.21,-355.21 2176.21,-290.44 2176.21,-290.44 2176.21,-290.44 2176.21,-114.44 2176.21,-47.82 1665.18,-29.97 1521.43,-26.27"/>
<polygon fill="black" stroke="black" points="1521.42,-22.77 1511.34,-26.02 1521.25,-29.77 1521.42,-22.77"/>
<text text-anchor="middle" x="2189.71" y="-198.74" font-family="Times,serif" font-size="14.00">{c1}</text>
</g>
<!-- 0&#45;&gt;2 -->
<g id="edge32" class="edge">
<title>0&#45;&gt;2</title>
<path fill="none" stroke="black" d="M1861.41,-375.54C1952.22,-375.17 2239.21,-367.85 2239.21,-290.44 2239.21,-290.44 2239.21,-290.44 2239.21,-114.44 2239.21,-41.37 1674.32,-28.12 1521.78,-25.87"/>
<polygon fill="black" stroke="black" points="1521.58,-22.37 1511.53,-25.73 1521.48,-29.37 1521.58,-22.37"/>
<text text-anchor="middle" x="2272.71" y="-198.74" font-family="Times,serif" font-size="14.00">{c1, c2, c3}</text>
</g>
<!-- 0&#45;&gt;2 -->
<g id="edge33" class="edge">
<title>0&#45;&gt;2</title>
<path fill="none" stroke="black" d="M1861.35,-375.53C1924.27,-375.18 2084.62,-371.07 2214.21,-340.44 2273.65,-326.39 2342.21,-351.51 2342.21,-290.44 2342.21,-290.44 2342.21,-290.44 2342.21,-114.44 2342.21,-30.64 1686.27,-25.34 1521.44,-25.33"/>
<polygon fill="black" stroke="black" points="1521.3,-21.83 1511.31,-25.34 1521.31,-28.83 1521.3,-21.83"/>
<text text-anchor="middle" x="2355.71" y="-198.74" font-family="Times,serif" font-size="14.00">{c3}</text>
</g>
<!-- 1&#45;&gt;1 -->
<g id="edge7" class="edge">
<title>1&#45;&gt;1</title>
<path fill="none" stroke="black" d="M1519.74,-297.19C1530.72,-297.93 1540.21,-295.35 1540.21,-289.44 1540.21,-285.47 1535.93,-283 1529.79,-282.03"/>
<polygon fill="black" stroke="black" points="1529.86,-278.53 1519.74,-281.69 1529.62,-285.53 1529.86,-278.53"/>
<text text-anchor="middle" x="1547.21" y="-285.74" font-family="Times,serif" font-size="14.00">{}</text>
</g>
<!-- 1&#45;&gt;2 -->
<g id="edge11" class="edge">
<title>1&#45;&gt;2</title>
<path fill="none" stroke="black" d="M1491.05,-271.61C1488.49,-261.84 1484.99,-249.34 1481.21,-238.44 1469.85,-205.69 1458.01,-200.43 1451.21,-166.44 1449.9,-159.9 1447.54,-157 1451.21,-151.44 1462.39,-134.48 1482.03,-150.39 1493.21,-133.44 1509.18,-109.22 1502.65,-75 1494.93,-51.61"/>
<polygon fill="black" stroke="black" points="1498.16,-50.24 1491.49,-42 1491.56,-52.6 1498.16,-50.24"/>
<text text-anchor="middle" x="1474.71" y="-155.24" font-family="Times,serif" font-size="14.00">{c2, c3}</text>
</g>
<!-- 1&#45;&gt;2 -->
<g id="edge12" class="edge">
<title>1&#45;&gt;2</title>
<path fill="none" stroke="black" d="M1498.4,-271.49C1506.67,-226.13 1527.25,-102.77 1514.21,-64.44 1512.2,-58.53 1508.9,-52.82 1505.2,-47.68"/>
<polygon fill="black" stroke="black" points="1507.74,-45.25 1498.77,-39.62 1502.27,-49.61 1507.74,-45.25"/>
<text text-anchor="middle" x="1538.71" y="-155.24" font-family="Times,serif" font-size="14.00">{c0, c3}</text>
</g>
<!-- 1&#45;&gt;2 -->
<g id="edge13" class="edge">
<title>1&#45;&gt;2</title>
<path fill="none" stroke="black" d="M1510.47,-274.26C1534.17,-250.46 1576.16,-200.26 1566.21,-151.44 1557.82,-110.27 1553.95,-98.41 1529.21,-64.44 1523.87,-57.11 1516.91,-50.23 1510.07,-44.34"/>
<polygon fill="black" stroke="black" points="1512.15,-41.53 1502.19,-37.93 1507.73,-46.96 1512.15,-41.53"/>
<text text-anchor="middle" x="1580.71" y="-155.24" font-family="Times,serif" font-size="14.00">{c0}</text>
</g>
<!-- 1&#45;&gt;2 -->
<g id="edge14" class="edge">
<title>1&#45;&gt;2</title>
<path fill="none" stroke="black" d="M1515.58,-277.35C1525.99,-271.12 1538.49,-262.73 1548.21,-253.44 1584.71,-218.55 1610.17,-200.49 1598.21,-151.44 1587.65,-108.11 1580.38,-95.33 1548.21,-64.44 1538.46,-55.08 1526.08,-46.89 1514.81,-40.46"/>
<polygon fill="black" stroke="black" points="1516.15,-37.21 1505.69,-35.5 1512.8,-43.35 1516.15,-37.21"/>
<text text-anchor="middle" x="1633.71" y="-155.24" font-family="Times,serif" font-size="14.00">{c0, c2, c3}</text>
</g>
<!-- 1&#45;&gt;2 -->
<g id="edge15" class="edge">
<title>1&#45;&gt;2</title>
<path fill="none" stroke="black" d="M1520.19,-282.09C1576.09,-266.48 1703.9,-222.28 1671.21,-151.44 1642.16,-88.49 1563.81,-52.33 1518.27,-36.03"/>
<polygon fill="black" stroke="black" points="1519.13,-32.62 1508.54,-32.66 1516.85,-39.24 1519.13,-32.62"/>
<text text-anchor="middle" x="1688.71" y="-155.24" font-family="Times,serif" font-size="14.00">{c2}</text>
</g>
<!-- 1&#45;&gt;2 -->
<g id="edge16" class="edge">
<title>1&#45;&gt;2</title>
<path fill="none" stroke="black" d="M1521.19,-284.19C1584.16,-272.52 1737.52,-235.09 1706.21,-151.44 1677.68,-75.21 1575.82,-43.5 1520.54,-31.67"/>
<polygon fill="black" stroke="black" points="1520.96,-28.19 1510.46,-29.63 1519.56,-35.05 1520.96,-28.19"/>
<text text-anchor="middle" x="1722.71" y="-155.24" font-family="Times,serif" font-size="14.00">{c3}</text>
</g>
<!-- 1&#45;&gt;2 -->
<g id="edge17" class="edge">
<title>1&#45;&gt;2</title>
<path fill="none" stroke="black" d="M1521.91,-285.81C1592.09,-277.54 1774.11,-246.71 1740.21,-151.44 1708.81,-63.2 1584.16,-36.57 1521.13,-28.68"/>
<polygon fill="black" stroke="black" points="1521.17,-25.16 1510.83,-27.49 1520.37,-32.12 1521.17,-25.16"/>
<text text-anchor="middle" x="1766.71" y="-155.24" font-family="Times,serif" font-size="14.00">{c0, c2}</text>
</g>
<!-- 3 -->
<g id="node5" class="node">
<title>3</title>
<ellipse fill="none" stroke="black" cx="1037.21" cy="-202.44" rx="27" ry="18"/>
<text text-anchor="middle" x="1037.21" y="-198.74" font-family="Times,serif" font-size="14.00">3</text>
</g>
<!-- 1&#45;&gt;3 -->
<g id="edge2" class="edge">
<title>1&#45;&gt;3</title>
<path fill="none" stroke="black" d="M1468.26,-287.97C1350.29,-285.78 884.31,-275.74 863.21,-253.44 822.27,-210.17 937.33,-203.56 999.84,-203.05"/>
<polygon fill="black" stroke="black" points="1000.13,-206.55 1010.12,-203.02 1000.1,-199.55 1000.13,-206.55"/>
<text text-anchor="middle" x="886.71" y="-242.24" font-family="Times,serif" font-size="14.00">{c1, c3}</text>
</g>
<!-- 1&#45;&gt;3 -->
<g id="edge3" class="edge">
<title>1&#45;&gt;3</title>
<path fill="none" stroke="black" d="M1467.98,-287.77C1358.02,-284.93 951.72,-273.14 933.21,-253.44 910.1,-228.85 962.43,-214.97 1000.93,-208.35"/>
<polygon fill="black" stroke="black" points="1001.54,-211.8 1010.85,-206.75 1000.42,-204.89 1001.54,-211.8"/>
<text text-anchor="middle" x="966.71" y="-242.24" font-family="Times,serif" font-size="14.00">{c0, c1, c2}</text>
</g>
<!-- 1&#45;&gt;3 -->
<g id="edge4" class="edge">
<title>1&#45;&gt;3</title>
<path fill="none" stroke="black" d="M1468.13,-288.52C1372.33,-288.55 1053.58,-286.14 1023.21,-253.44 1016.9,-246.65 1017.92,-237.25 1021.4,-228.43"/>
<polygon fill="black" stroke="black" points="1024.64,-229.76 1025.9,-219.24 1018.36,-226.68 1024.64,-229.76"/>
<text text-anchor="middle" x="1046.71" y="-242.24" font-family="Times,serif" font-size="14.00">{c1, c2}</text>
</g>
<!-- 1&#45;&gt;3 -->
<g id="edge5" class="edge">
<title>1&#45;&gt;3</title>
<path fill="none" stroke="black" d="M1468.04,-288.29C1389.07,-287.5 1160.9,-282.68 1093.21,-253.44 1085.38,-250.06 1070.93,-237.07 1058.67,-225.18"/>
<polygon fill="black" stroke="black" points="1060.97,-222.54 1051.39,-218.02 1056.06,-227.53 1060.97,-222.54"/>
<text text-anchor="middle" x="1126.71" y="-242.24" font-family="Times,serif" font-size="14.00">{c1, c2, c3}</text>
</g>
<!-- 1&#45;&gt;3 -->
<g id="edge6" class="edge">
<title>1&#45;&gt;3</title>
<path fill="none" stroke="black" d="M1468.3,-287.02C1402.59,-283.3 1235.54,-272.23 1183.21,-253.44 1171.73,-249.31 1171.32,-243.5 1160.21,-238.44 1131.98,-225.57 1097.92,-216.32 1072.8,-210.58"/>
<polygon fill="black" stroke="black" points="1073.49,-207.15 1062.97,-208.4 1071.98,-213.98 1073.49,-207.15"/>
<text text-anchor="middle" x="1216.71" y="-242.24" font-family="Times,serif" font-size="14.00">{c0, c1, c3}</text>
</g>
<!-- 1&#45;&gt;3 -->
<g id="edge8" class="edge">
<title>1&#45;&gt;3</title>
<path fill="none" stroke="black" d="M1468.31,-287.81C1425.59,-286.02 1340.22,-279.21 1273.21,-253.44 1261.82,-249.06 1261.59,-242.86 1250.21,-238.44 1191.47,-215.63 1118.01,-207.69 1074.5,-204.92"/>
<polygon fill="black" stroke="black" points="1074.56,-201.42 1064.38,-204.33 1074.16,-208.4 1074.56,-201.42"/>
<text text-anchor="middle" x="1286.71" y="-242.24" font-family="Times,serif" font-size="14.00">{c1}</text>
</g>
<!-- 1&#45;&gt;3 -->
<g id="edge9" class="edge">
<title>1&#45;&gt;3</title>
<path fill="none" stroke="black" d="M1468.37,-286.13C1433.74,-282.45 1372.13,-273.51 1323.21,-253.44 1311.92,-248.81 1311.65,-242.68 1300.21,-238.44 1223.44,-209.97 1126.48,-204.16 1074.39,-203.27"/>
<polygon fill="black" stroke="black" points="1074.32,-199.77 1064.28,-203.15 1074.24,-206.77 1074.32,-199.77"/>
<text text-anchor="middle" x="1367.21" y="-242.24" font-family="Times,serif" font-size="14.00">{c0, c1, c2, c3}</text>
</g>
<!-- 1&#45;&gt;3 -->
<g id="edge10" class="edge">
<title>1&#45;&gt;3</title>
<path fill="none" stroke="black" d="M1474.99,-277.22C1463.03,-270.49 1447.64,-261.66 1434.21,-253.44 1423.8,-247.07 1422.73,-242.46 1411.21,-238.44 1349.64,-216.96 1156.03,-207.68 1074.25,-204.65"/>
<polygon fill="black" stroke="black" points="1074.28,-201.15 1064.16,-204.28 1074.03,-208.14 1074.28,-201.15"/>
<text text-anchor="middle" x="1457.71" y="-242.24" font-family="Times,serif" font-size="14.00">{c0, c1}</text>
</g>
<!-- 2&#45;&gt;2 -->
<g id="edge82" class="edge">
<title>2&#45;&gt;2</title>
<path fill="none" stroke="black" d="M1511.45,-25.94C1521.23,-25.97 1529.21,-25.47 1529.21,-24.44 1529.21,-23.81 1526.25,-23.38 1521.72,-23.15"/>
<polygon fill="black" stroke="black" points="1521.52,-19.64 1511.45,-22.94 1521.38,-26.64 1521.52,-19.64"/>
<text text-anchor="middle" x="1552.71" y="-20.74" font-family="Times,serif" font-size="14.00">{c2, c3}</text>
</g>
<!-- 2&#45;&gt;2 -->
<g id="edge83" class="edge">
<title>2&#45;&gt;2</title>
<path fill="none" stroke="black" d="M1511.1,-26.86C1539.53,-28.12 1576.21,-27.31 1576.21,-24.44 1576.21,-21.9 1547.63,-20.97 1521.37,-21.66"/>
<polygon fill="black" stroke="black" points="1520.98,-18.17 1511.1,-22.01 1521.22,-25.16 1520.98,-18.17"/>
<text text-anchor="middle" x="1599.71" y="-20.74" font-family="Times,serif" font-size="14.00">{c0, c3}</text>
</g>
<!-- 2&#45;&gt;2 -->
<g id="edge84" class="edge">
<title>2&#45;&gt;2</title>
<path fill="none" stroke="black" d="M1511.11,-27.46C1553.82,-30.17 1623.21,-29.16 1623.21,-24.44 1623.21,-20.08 1563.99,-18.89 1521.29,-20.87"/>
<polygon fill="black" stroke="black" points="1520.91,-17.38 1511.11,-21.42 1521.29,-24.37 1520.91,-17.38"/>
<text text-anchor="middle" x="1636.71" y="-20.74" font-family="Times,serif" font-size="14.00">{c0}</text>
</g>
<!-- 2&#45;&gt;2 -->
<g id="edge85" class="edge">
<title>2&#45;&gt;2</title>
<path fill="none" stroke="black" d="M1510.7,-28.01C1561.14,-32.17 1650.21,-30.99 1650.21,-24.44 1650.21,-18.31 1572.25,-16.88 1520.9,-20.13"/>
<polygon fill="black" stroke="black" points="1520.42,-16.66 1510.7,-20.87 1520.92,-23.64 1520.42,-16.66"/>
<text text-anchor="middle" x="1683.71" y="-20.74" font-family="Times,serif" font-size="14.00">{c0, c1, c2}</text>
</g>
<!-- 2&#45;&gt;2 -->
<g id="edge86" class="edge">
<title>2&#45;&gt;2</title>
<path fill="none" stroke="black" d="M1510.68,-28.23C1576.53,-34.22 1717.21,-32.95 1717.21,-24.44 1717.21,-16.34 1589.93,-14.8 1520.84,-19.82"/>
<polygon fill="black" stroke="black" points="1520.37,-16.35 1510.68,-20.65 1520.93,-23.33 1520.37,-16.35"/>
<text text-anchor="middle" x="1750.71" y="-20.74" font-family="Times,serif" font-size="14.00">{c0, c1, c3}</text>
</g>
<!-- 2&#45;&gt;2 -->
<g id="edge87" class="edge">
<title>2&#45;&gt;2</title>
<path fill="none" stroke="black" d="M1510.55,-28.43C1589.85,-36.25 1784.21,-34.92 1784.21,-24.44 1784.21,-14.38 1605.1,-12.75 1520.61,-19.55"/>
<polygon fill="black" stroke="black" points="1520.2,-16.08 1510.55,-20.45 1520.82,-23.05 1520.2,-16.08"/>
<text text-anchor="middle" x="1807.71" y="-20.74" font-family="Times,serif" font-size="14.00">{c0, c1}</text>
</g>
<!-- 2&#45;&gt;2 -->
<g id="edge88" class="edge">
<title>2&#45;&gt;2</title>
<path fill="none" stroke="black" d="M1510.48,-28.69C1598.99,-38.26 1831.21,-36.84 1831.21,-24.44 1831.21,-12.49 1615.47,-10.74 1520.62,-19.19"/>
<polygon fill="black" stroke="black" points="1520.09,-15.73 1510.48,-20.19 1520.77,-22.7 1520.09,-15.73"/>
<text text-anchor="middle" x="1864.71" y="-20.74" font-family="Times,serif" font-size="14.00">{c0, c2, c3}</text>
</g>
<!-- 2&#45;&gt;2 -->
<g id="edge89" class="edge">
<title>2&#45;&gt;2</title>
<path fill="none" stroke="black" d="M1510.5,-28.86C1610.67,-40.27 1898.21,-38.8 1898.21,-24.44 1898.21,-10.54 1628.9,-8.72 1520.75,-18.96"/>
<polygon fill="black" stroke="black" points="1520.09,-15.51 1510.5,-20.02 1520.81,-22.47 1520.09,-15.51"/>
<text text-anchor="middle" x="1921.71" y="-20.74" font-family="Times,serif" font-size="14.00">{c1, c3}</text>
</g>
<!-- 2&#45;&gt;2 -->
<g id="edge90" class="edge">
<title>2&#45;&gt;2</title>
<path fill="none" stroke="black" d="M1510.51,-29.07C1619.04,-42.28 1945.21,-40.73 1945.21,-24.44 1945.21,-8.62 1637.87,-6.7 1520.59,-18.69"/>
<polygon fill="black" stroke="black" points="1520.06,-15.22 1510.51,-19.81 1520.84,-22.18 1520.06,-15.22"/>
<text text-anchor="middle" x="1958.71" y="-20.74" font-family="Times,serif" font-size="14.00">{c2}</text>
</g>
<!-- 2&#45;&gt;2 -->
<g id="edge91" class="edge">
<title>2&#45;&gt;2</title>
<path fill="none" stroke="black" d="M1510.36,-29.3C1624.37,-44.28 1972.21,-42.66 1972.21,-24.44 1972.21,-6.73 1643.8,-4.7 1520.6,-18.35"/>
<polygon fill="black" stroke="black" points="1519.87,-14.91 1510.36,-19.58 1520.71,-21.86 1519.87,-14.91"/>
<text text-anchor="middle" x="1995.71" y="-20.74" font-family="Times,serif" font-size="14.00">{c1, c2}</text>
</g>
<!-- 2&#45;&gt;2 -->
<g id="edge92" class="edge">
<title>2&#45;&gt;2</title>
<path fill="none" stroke="black" d="M1510.36,-29.46C1632.41,-46.29 2019.21,-44.61 2019.21,-24.44 2019.21,-4.8 1652.54,-2.69 1520.56,-18.12"/>
<polygon fill="black" stroke="black" points="1519.84,-14.69 1510.36,-19.42 1520.72,-21.63 1519.84,-14.69"/>
<text text-anchor="middle" x="2032.71" y="-20.74" font-family="Times,serif" font-size="14.00">{c1}</text>
</g>
<!-- 2&#45;&gt;2 -->
<g id="edge93" class="edge">
<title>2&#45;&gt;2</title>
<path fill="none" stroke="black" d="M1510.1,-29.62C1637.43,-48.29 2046.21,-46.56 2046.21,-24.44 2046.21,-2.88 1657.93,-0.69 1520.33,-17.87"/>
<polygon fill="black" stroke="black" points="1519.54,-14.45 1510.1,-19.25 1520.48,-21.38 1519.54,-14.45"/>
<text text-anchor="middle" x="2079.71" y="-20.74" font-family="Times,serif" font-size="14.00">{c1, c2, c3}</text>
</g>
<!-- 2&#45;&gt;2 -->
<g id="edge94" class="edge">
<title>2&#45;&gt;2</title>
<path fill="none" stroke="black" d="M1510.26,-29.73C1647.7,-50.3 2113.21,-48.53 2113.21,-24.44 2113.21,-0.91 1669.26,1.33 1520.45,-17.74"/>
<polygon fill="black" stroke="black" points="1519.68,-14.31 1510.26,-19.14 1520.64,-21.24 1519.68,-14.31"/>
<text text-anchor="middle" x="2157.21" y="-20.74" font-family="Times,serif" font-size="14.00">{c0, c1, c2, c3}</text>
</g>
<!-- 2&#45;&gt;2 -->
<g id="edge95" class="edge">
<title>2&#45;&gt;2</title>
<path fill="none" stroke="black" d="M1510.36,-29.79C1659.61,-52.31 2201.21,-50.52 2201.21,-24.44 2201.21,1.09 1682.63,3.34 1520.51,-17.67"/>
<polygon fill="black" stroke="black" points="1519.78,-14.24 1510.36,-19.09 1520.75,-21.17 1519.78,-14.24"/>
<text text-anchor="middle" x="2214.71" y="-20.74" font-family="Times,serif" font-size="14.00">{c3}</text>
</g>
<!-- 2&#45;&gt;2 -->
<g id="edge96" class="edge">
<title>2&#45;&gt;2</title>
<path fill="none" stroke="black" d="M1510.32,-29.94C1664.85,-54.31 2228.21,-52.48 2228.21,-24.44 2228.21,3.02 1687.72,5.35 1520.34,-17.47"/>
<polygon fill="black" stroke="black" points="1519.71,-14.02 1510.32,-18.94 1520.72,-20.95 1519.71,-14.02"/>
<text text-anchor="middle" x="2235.21" y="-20.74" font-family="Times,serif" font-size="14.00">{}</text>
</g>
<!-- 2&#45;&gt;2 -->
<g id="edge97" class="edge">
<title>2&#45;&gt;2</title>
<path fill="none" stroke="black" d="M1510.07,-30.06C1668.77,-56.31 2246.21,-54.44 2246.21,-24.44 2246.21,4.96 1691.66,7.35 1520.1,-17.27"/>
<polygon fill="black" stroke="black" points="1519.42,-13.83 1510.07,-18.81 1520.49,-20.75 1519.42,-13.83"/>
<text text-anchor="middle" x="2269.71" y="-20.74" font-family="Times,serif" font-size="14.00">{c0, c2}</text>
</g>
<!-- 3&#45;&gt;2 -->
<g id="edge59" class="edge">
<title>3&#45;&gt;2</title>
<path fill="none" stroke="black" d="M1035.62,-184.27C1033.92,-173.9 1030.43,-160.9 1023.21,-151.44 1013.78,-139.08 1000.87,-146.97 993.21,-133.44 985.33,-119.52 983.23,-109.95 993.21,-97.44 1015.67,-69.29 1038.48,-92.05 1072.21,-79.44 1085.43,-74.49 1086.65,-68.35 1100.21,-64.44 1210.23,-32.7 1243.49,-59.79 1357.21,-46.44 1388.23,-42.8 1423.23,-36.87 1448.62,-32.24"/>
<polygon fill="black" stroke="black" points="1449.33,-35.67 1458.53,-30.41 1448.06,-28.79 1449.33,-35.67"/>
<text text-anchor="middle" x="1016.71" y="-111.74" font-family="Times,serif" font-size="14.00">{c0, c3}</text>
</g>
<!-- 3&#45;&gt;2 -->
<g id="edge60" class="edge">
<title>3&#45;&gt;2</title>
<path fill="none" stroke="black" d="M1040.25,-184.37C1044.87,-162.35 1055.42,-123.77 1076.21,-97.44 1084.35,-87.14 1112.81,-68.76 1125.21,-64.44 1222.88,-30.43 1254.54,-58.89 1357.21,-46.44 1388.21,-42.68 1423.21,-36.77 1448.61,-32.17"/>
<polygon fill="black" stroke="black" points="1449.32,-35.6 1458.52,-30.36 1448.05,-28.72 1449.32,-35.6"/>
<text text-anchor="middle" x="1089.71" y="-111.74" font-family="Times,serif" font-size="14.00">{c0}</text>
</g>
<!-- 3&#45;&gt;2 -->
<g id="edge61" class="edge">
<title>3&#45;&gt;2</title>
<path fill="none" stroke="black" d="M1051.39,-186.84C1078.82,-158.62 1136.68,-99.19 1139.21,-97.44 1221.06,-40.86 1258.74,-60.77 1357.21,-46.44 1388.12,-41.94 1423.12,-36.1 1448.55,-31.71"/>
<polygon fill="black" stroke="black" points="1449.22,-35.15 1458.47,-29.99 1448.02,-28.25 1449.22,-35.15"/>
<text text-anchor="middle" x="1172.71" y="-111.74" font-family="Times,serif" font-size="14.00">{c0, c1, c3}</text>
</g>
<!-- 3&#45;&gt;2 -->
<g id="edge62" class="edge">
<title>3&#45;&gt;2</title>
<path fill="none" stroke="black" d="M1061.93,-194.91C1096.24,-185.11 1159.38,-164.39 1206.21,-133.44 1225.09,-120.96 1224.38,-111.36 1242.21,-97.44 1264.68,-79.9 1270.66,-74.83 1297.21,-64.44 1324.27,-53.85 1401.91,-39.48 1448.21,-31.47"/>
<polygon fill="black" stroke="black" points="1448.87,-34.91 1458.14,-29.77 1447.69,-28.01 1448.87,-34.91"/>
<text text-anchor="middle" x="1265.71" y="-111.74" font-family="Times,serif" font-size="14.00">{c0, c1}</text>
</g>
<!-- 3&#45;&gt;2 -->
<g id="edge63" class="edge">
<title>3&#45;&gt;2</title>
<path fill="none" stroke="black" d="M1062.52,-195.21C1090.06,-188.38 1135.35,-176.97 1174.21,-166.44 1225.53,-152.52 1243.4,-160.43 1289.21,-133.44 1308.71,-121.95 1307.38,-111.36 1325.21,-97.44 1347.68,-79.9 1354.54,-76.83 1380.21,-64.44 1403.05,-53.42 1429.86,-43.43 1450.54,-36.32"/>
<polygon fill="black" stroke="black" points="1451.8,-39.59 1460.16,-33.07 1449.56,-32.96 1451.8,-39.59"/>
<text text-anchor="middle" x="1348.71" y="-111.74" font-family="Times,serif" font-size="14.00">{c1, c3}</text>
</g>
<!-- 3&#45;&gt;2 -->
<g id="edge64" class="edge">
<title>3&#45;&gt;2</title>
<path fill="none" stroke="black" d="M1064.25,-201.3C1123.71,-199.89 1268.75,-190.38 1372.21,-133.44 1392.03,-122.53 1392,-113.22 1408.21,-97.44 1425.96,-80.17 1446.34,-60.88 1461.53,-46.62"/>
<polygon fill="black" stroke="black" points="1464.05,-49.06 1468.96,-39.66 1459.27,-43.95 1464.05,-49.06"/>
<text text-anchor="middle" x="1421.71" y="-111.74" font-family="Times,serif" font-size="14.00">{c1}</text>
</g>
<!-- 3&#45;&gt;2 -->
<g id="edge65" class="edge">
<title>3&#45;&gt;2</title>
<path fill="none" stroke="black" d="M1064.07,-200.43C1144.21,-196.89 1379.58,-182.43 1435.21,-133.44 1459.28,-112.25 1472.2,-76.86 1478.63,-52.4"/>
<polygon fill="black" stroke="black" points="1482.03,-53.21 1481,-42.66 1475.23,-51.55 1482.03,-53.21"/>
<text text-anchor="middle" x="1475.71" y="-111.74" font-family="Times,serif" font-size="14.00">{c3}</text>
</g>
<!-- 3&#45;&gt;3 -->
<g id="edge58" class="edge">
<title>3&#45;&gt;3</title>
<path fill="none" stroke="black" d="M1061.74,-210.19C1072.72,-210.93 1082.21,-208.35 1082.21,-202.44 1082.21,-198.47 1077.93,-196 1071.79,-195.03"/>
<polygon fill="black" stroke="black" points="1071.86,-191.53 1061.74,-194.69 1071.62,-198.53 1071.86,-191.53"/>
<text text-anchor="middle" x="1089.21" y="-198.74" font-family="Times,serif" font-size="14.00">{}</text>
</g>
<!-- 4 -->
<g id="node6" class="node">
<title>4</title>
<ellipse fill="none" stroke="black" cx="644.21" cy="-115.44" rx="27" ry="18"/>
<text text-anchor="middle" x="644.21" y="-111.74" font-family="Times,serif" font-size="14.00">4</text>
</g>
<!-- 3&#45;&gt;4 -->
<g id="edge50" class="edge">
<title>3&#45;&gt;4</title>
<path fill="none" stroke="black" d="M1010.26,-200.97C892.29,-198.78 426.31,-188.74 405.21,-166.44 400.63,-161.6 400.85,-156.48 405.21,-151.44 430.82,-121.81 546.29,-116.78 606.86,-116.23"/>
<polygon fill="black" stroke="black" points="607.17,-119.73 617.15,-116.18 607.13,-112.73 607.17,-119.73"/>
<text text-anchor="middle" x="428.71" y="-155.24" font-family="Times,serif" font-size="14.00">{c1, c2}</text>
</g>
<!-- 3&#45;&gt;4 -->
<g id="edge51" class="edge">
<title>3&#45;&gt;4</title>
<path fill="none" stroke="black" d="M1009.98,-200.77C900.02,-197.93 493.72,-186.14 475.21,-166.44 435.7,-124.39 546.12,-117.16 607.01,-116.27"/>
<polygon fill="black" stroke="black" points="607.07,-119.77 617.04,-116.17 607.01,-112.77 607.07,-119.77"/>
<text text-anchor="middle" x="498.71" y="-155.24" font-family="Times,serif" font-size="14.00">{c2, c3}</text>
</g>
<!-- 3&#45;&gt;4 -->
<g id="edge52" class="edge">
<title>3&#45;&gt;4</title>
<path fill="none" stroke="black" d="M1010.01,-201.61C911.43,-201.96 577.02,-200.59 545.21,-166.44 523.44,-143.06 571.46,-128.99 607.96,-121.97"/>
<polygon fill="black" stroke="black" points="608.67,-125.4 617.89,-120.18 607.42,-118.51 608.67,-125.4"/>
<text text-anchor="middle" x="589.21" y="-155.24" font-family="Times,serif" font-size="14.00">{c0, c1, c2, c3}</text>
</g>
<!-- 3&#45;&gt;4 -->
<g id="edge53" class="edge">
<title>3&#45;&gt;4</title>
<path fill="none" stroke="black" d="M1010.26,-200.75C927.8,-198.4 682.89,-189.53 656.21,-166.44 649.68,-160.79 646.38,-152.28 644.79,-143.87"/>
<polygon fill="black" stroke="black" points="648.25,-143.38 643.6,-133.86 641.3,-144.2 648.25,-143.38"/>
<text text-anchor="middle" x="689.71" y="-155.24" font-family="Times,serif" font-size="14.00">{c0, c1, c2}</text>
</g>
<!-- 3&#45;&gt;4 -->
<g id="edge54" class="edge">
<title>3&#45;&gt;4</title>
<path fill="none" stroke="black" d="M1010.19,-202.22C957.65,-202.87 838.74,-200.09 746.21,-166.44 734.74,-162.27 733.94,-157.26 723.21,-151.44 708.22,-143.3 690.95,-135.48 676.39,-129.31"/>
<polygon fill="black" stroke="black" points="677.38,-125.93 666.8,-125.31 674.69,-132.39 677.38,-125.93"/>
<text text-anchor="middle" x="769.71" y="-155.24" font-family="Times,serif" font-size="14.00">{c0, c2}</text>
</g>
<!-- 3&#45;&gt;4 -->
<g id="edge55" class="edge">
<title>3&#45;&gt;4</title>
<path fill="none" stroke="black" d="M1010.08,-200.77C967.44,-198.93 882.73,-192.05 816.21,-166.44 804.82,-162.05 804.43,-156.24 793.21,-151.44 756.45,-135.71 711.42,-126.38 680.54,-121.36"/>
<polygon fill="black" stroke="black" points="681.07,-117.9 670.65,-119.82 679.99,-124.81 681.07,-117.9"/>
<text text-anchor="middle" x="849.71" y="-155.24" font-family="Times,serif" font-size="14.00">{c0, c2, c3}</text>
</g>
<!-- 3&#45;&gt;4 -->
<g id="edge56" class="edge">
<title>3&#45;&gt;4</title>
<path fill="none" stroke="black" d="M1011.28,-197.03C984.25,-191.86 941.04,-181.97 906.21,-166.44 895.07,-161.47 894.63,-155.76 883.21,-151.44 815.2,-125.71 729.68,-118.78 681.57,-116.98"/>
<polygon fill="black" stroke="black" points="681.42,-113.48 671.32,-116.66 681.2,-120.47 681.42,-113.48"/>
<text text-anchor="middle" x="919.71" y="-155.24" font-family="Times,serif" font-size="14.00">{c2}</text>
</g>
<!-- 3&#45;&gt;4 -->
<g id="edge57" class="edge">
<title>3&#45;&gt;4</title>
<path fill="none" stroke="black" d="M1014.38,-192.78C997.88,-186.24 975.24,-176.66 956.21,-166.44 945.46,-160.66 944.68,-155.61 933.21,-151.44 847.11,-120.08 738,-115.59 681.67,-115.63"/>
<polygon fill="black" stroke="black" points="681.43,-112.13 671.45,-115.69 681.47,-119.13 681.43,-112.13"/>
<text text-anchor="middle" x="989.71" y="-155.24" font-family="Times,serif" font-size="14.00">{c1, c2, c3}</text>
</g>
<!-- 4&#45;&gt;2 -->
<g id="edge75" class="edge">
<title>4&#45;&gt;2</title>
<path fill="none" stroke="black" d="M639.17,-97.3C637.12,-86.4 636.88,-72.81 645.21,-64.44 659.16,-50.41 1337.52,-48.31 1357.21,-46.44 1388.3,-43.49 1423.29,-37.5 1448.66,-32.67"/>
<polygon fill="black" stroke="black" points="1449.41,-36.09 1458.56,-30.75 1448.08,-29.22 1449.41,-36.09"/>
<text text-anchor="middle" x="658.71" y="-68.24" font-family="Times,serif" font-size="14.00">{c0}</text>
</g>
<!-- 4&#45;&gt;2 -->
<g id="edge76" class="edge">
<title>4&#45;&gt;2</title>
<path fill="none" stroke="black" d="M655.14,-98.59C664.3,-86.78 678.55,-71.51 695.21,-64.44 762.95,-35.69 1283.96,-53.46 1357.21,-46.44 1388.3,-43.46 1423.29,-37.48 1448.66,-32.65"/>
<polygon fill="black" stroke="black" points="1449.41,-36.07 1458.56,-30.74 1448.08,-29.2 1449.41,-36.07"/>
<text text-anchor="middle" x="728.71" y="-68.24" font-family="Times,serif" font-size="14.00">{c0, c1, c2}</text>
</g>
<!-- 4&#45;&gt;2 -->
<g id="edge77" class="edge">
<title>4&#45;&gt;2</title>
<path fill="none" stroke="black" d="M669.84,-109.1C694.28,-103.49 731.76,-93.52 762.21,-79.44 773.29,-74.32 773.57,-68.1 785.21,-64.44 845.87,-45.36 1293.93,-52.64 1357.21,-46.44 1388.29,-43.39 1423.28,-37.42 1448.66,-32.61"/>
<polygon fill="black" stroke="black" points="1449.4,-36.03 1458.56,-30.71 1448.08,-29.16 1449.4,-36.03"/>
<text text-anchor="middle" x="808.71" y="-68.24" font-family="Times,serif" font-size="14.00">{c0, c1}</text>
</g>
<!-- 4&#45;&gt;2 -->
<g id="edge78" class="edge">
<title>4&#45;&gt;2</title>
<path fill="none" stroke="black" d="M670.97,-112.77C708.28,-109.7 777.51,-101.35 832.21,-79.44 843.54,-74.9 843.58,-68.13 855.21,-64.44 961.62,-30.72 1246.14,-57.57 1357.21,-46.44 1388.29,-43.33 1423.28,-37.35 1448.65,-32.57"/>
<polygon fill="black" stroke="black" points="1449.39,-35.99 1458.56,-30.67 1448.08,-29.12 1449.39,-35.99"/>
<text text-anchor="middle" x="868.71" y="-68.24" font-family="Times,serif" font-size="14.00">{c2}</text>
</g>
<!-- 4&#45;&gt;2 -->
<g id="edge79" class="edge">
<title>4&#45;&gt;2</title>
<path fill="none" stroke="black" d="M671.2,-114.2C716.34,-112.99 809.37,-107.02 882.21,-79.44 893.62,-75.12 893.58,-68.15 905.21,-64.44 1000.98,-33.88 1257.21,-56.66 1357.21,-46.44 1388.28,-43.26 1423.27,-37.3 1448.65,-32.53"/>
<polygon fill="black" stroke="black" points="1449.39,-35.96 1458.55,-30.64 1448.07,-29.08 1449.39,-35.96"/>
<text text-anchor="middle" x="928.71" y="-68.24" font-family="Times,serif" font-size="14.00">{c1, c2}</text>
</g>
<!-- 4&#45;&gt;2 -->
<g id="edge80" class="edge">
<title>4&#45;&gt;2</title>
<path fill="none" stroke="black" d="M671.26,-112.97C736.45,-109.16 900.69,-97.98 952.21,-79.44 963.69,-75.31 963.6,-68.19 975.21,-64.44 1056.08,-38.31 1272.7,-55.39 1357.21,-46.44 1388.27,-43.15 1423.26,-37.19 1448.64,-32.46"/>
<polygon fill="black" stroke="black" points="1449.37,-35.89 1458.55,-30.59 1448.07,-29.01 1449.37,-35.89"/>
<text text-anchor="middle" x="988.71" y="-68.24" font-family="Times,serif" font-size="14.00">{c1}</text>
</g>
<!-- 4&#45;&gt;2 -->
<g id="edge81" class="edge">
<title>4&#45;&gt;2</title>
<path fill="none" stroke="black" d="M671.31,-113.46C743.85,-110.57 941.08,-100.9 1002.21,-79.44 1013.73,-75.4 1013.61,-68.23 1025.21,-64.44 1095.44,-41.48 1283.76,-54.48 1357.21,-46.44 1388.26,-43.04 1423.25,-37.09 1448.63,-32.4"/>
<polygon fill="black" stroke="black" points="1449.36,-35.82 1458.54,-30.53 1448.07,-28.94 1449.36,-35.82"/>
<text text-anchor="middle" x="1048.71" y="-68.24" font-family="Times,serif" font-size="14.00">{c0, c2}</text>
</g>
<!-- 4&#45;&gt;4 -->
<g id="edge73" class="edge">
<title>4&#45;&gt;4</title>
<path fill="none" stroke="black" d="M668.74,-123.19C679.72,-123.93 689.21,-121.35 689.21,-115.44 689.21,-111.47 684.93,-109 678.79,-108.03"/>
<polygon fill="black" stroke="black" points="678.86,-104.53 668.74,-107.69 678.62,-111.53 678.86,-104.53"/>
<text text-anchor="middle" x="696.21" y="-111.74" font-family="Times,serif" font-size="14.00">{}</text>
</g>
<!-- 5 -->
<g id="node7" class="node">
<title>5</title>
<ellipse fill="none" stroke="black" cx="278.21" cy="-24.44" rx="18" ry="18"/>
<ellipse fill="none" stroke="black" cx="278.21" cy="-24.44" rx="22" ry="22"/>
<text text-anchor="middle" x="278.21" y="-20.74" font-family="Times,serif" font-size="14.00">5</text>
</g>
<!-- 4&#45;&gt;5 -->
<g id="edge66" class="edge">
<title>4&#45;&gt;5</title>
<path fill="none" stroke="black" d="M616.92,-113.98C497.45,-111.85 25.58,-102.01 4.21,-79.44 -29.93,-43.38 166.04,-30.45 245.69,-26.73"/>
<polygon fill="black" stroke="black" points="246.29,-30.2 256.13,-26.26 245.98,-23.21 246.29,-30.2"/>
<text text-anchor="middle" x="37.71" y="-68.24" font-family="Times,serif" font-size="14.00">{c0, c2, c3}</text>
</g>
<!-- 4&#45;&gt;5 -->
<g id="edge67" class="edge">
<title>4&#45;&gt;5</title>
<path fill="none" stroke="black" d="M617.14,-114.83C511.39,-116.08 130.26,-117.86 94.21,-79.44 49.53,-31.82 181.34,-25.47 245.42,-25.11"/>
<polygon fill="black" stroke="black" points="245.81,-28.6 255.81,-25.09 245.81,-21.6 245.81,-28.6"/>
<text text-anchor="middle" x="127.71" y="-68.24" font-family="Times,serif" font-size="14.00">{c1, c2, c3}</text>
</g>
<!-- 4&#45;&gt;5 -->
<g id="edge68" class="edge">
<title>4&#45;&gt;5</title>
<path fill="none" stroke="black" d="M617.17,-114.47C523.02,-114.29 213.71,-111.27 184.21,-79.44 162.32,-55.82 211.69,-39.65 246.84,-31.52"/>
<polygon fill="black" stroke="black" points="247.73,-34.91 256.75,-29.35 246.23,-28.07 247.73,-34.91"/>
<text text-anchor="middle" x="197.71" y="-68.24" font-family="Times,serif" font-size="14.00">{c3}</text>
</g>
<!-- 4&#45;&gt;5 -->
<g id="edge69" class="edge">
<title>4&#45;&gt;5</title>
<path fill="none" stroke="black" d="M617.12,-114.2C529.83,-113.15 260.09,-107.62 234.21,-79.44 223.03,-67.26 236.33,-52.7 251.16,-41.76"/>
<polygon fill="black" stroke="black" points="253.15,-44.64 259.41,-36.1 249.19,-38.87 253.15,-44.64"/>
<text text-anchor="middle" x="267.71" y="-68.24" font-family="Times,serif" font-size="14.00">{c0, c1, c3}</text>
</g>
<!-- 4&#45;&gt;5 -->
<g id="edge70" class="edge">
<title>4&#45;&gt;5</title>
<path fill="none" stroke="black" d="M617.2,-114.02C549.58,-112.57 374.83,-106.25 324.21,-79.44 312.39,-73.18 302.32,-62.51 294.65,-52.31"/>
<polygon fill="black" stroke="black" points="297.39,-50.12 288.77,-43.95 291.66,-54.14 297.39,-50.12"/>
<text text-anchor="middle" x="347.71" y="-68.24" font-family="Times,serif" font-size="14.00">{c0, c3}</text>
</g>
<!-- 4&#45;&gt;5 -->
<g id="edge71" class="edge">
<title>4&#45;&gt;5</title>
<path fill="none" stroke="black" d="M617,-114.46C570.03,-113.67 471.37,-108.35 394.21,-79.44 382.78,-75.16 381.99,-70.16 371.21,-64.44 350.76,-53.59 326.62,-43.55 308.06,-36.37"/>
<polygon fill="black" stroke="black" points="309.24,-33.07 298.65,-32.79 306.75,-39.61 309.24,-33.07"/>
<text text-anchor="middle" x="417.71" y="-68.24" font-family="Times,serif" font-size="14.00">{c1, c3}</text>
</g>
<!-- 4&#45;&gt;5 -->
<g id="edge72" class="edge">
<title>4&#45;&gt;5</title>
<path fill="none" stroke="black" d="M617.37,-112.46C581.37,-109.08 515.99,-100.42 464.21,-79.44 452.9,-74.86 452.42,-69.26 441.21,-64.44 397.8,-45.76 343.86,-35.08 310.23,-29.77"/>
<polygon fill="black" stroke="black" points="310.47,-26.27 300.06,-28.24 309.42,-33.19 310.47,-26.27"/>
<text text-anchor="middle" x="508.21" y="-68.24" font-family="Times,serif" font-size="14.00">{c0, c1, c2, c3}</text>
</g>
<!-- 4&#45;&gt;5 -->
<g id="edge74" class="edge">
<title>4&#45;&gt;5</title>
<path fill="none" stroke="black" d="M622.75,-104.3C608.97,-97.61 590.8,-88.44 575.21,-79.44 564.64,-73.34 563.63,-68.73 552.21,-64.44 468.9,-33.11 362.69,-26.7 310.35,-25.55"/>
<polygon fill="black" stroke="black" points="310.38,-22.05 300.32,-25.38 310.26,-29.05 310.38,-22.05"/>
<text text-anchor="middle" x="598.71" y="-68.24" font-family="Times,serif" font-size="14.00">{c2, c3}</text>
</g>
<!-- 5&#45;&gt;5 -->
<g id="edge34" class="edge">
<title>5&#45;&gt;5</title>
<path fill="none" stroke="black" d="M300.42,-25.92C310.01,-26.04 318.21,-25.55 318.21,-24.44 318.21,-23.76 315.16,-23.32 310.62,-23.1"/>
<polygon fill="black" stroke="black" points="310.47,-19.59 300.42,-22.96 310.37,-26.59 310.47,-19.59"/>
<text text-anchor="middle" x="331.71" y="-20.74" font-family="Times,serif" font-size="14.00">{c1}</text>
</g>
<!-- 5&#45;&gt;5 -->
<g id="edge35" class="edge">
<title>5&#45;&gt;5</title>
<path fill="none" stroke="black" d="M300.24,-26.9C321.12,-28.1 345.21,-27.28 345.21,-24.44 345.21,-22.06 328.38,-21.1 310.66,-21.55"/>
<polygon fill="black" stroke="black" points="310.09,-18.07 300.24,-21.97 310.38,-25.06 310.09,-18.07"/>
<text text-anchor="middle" x="368.71" y="-20.74" font-family="Times,serif" font-size="14.00">{c0, c1}</text>
</g>
<!-- 5&#45;&gt;5 -->
<g id="edge36" class="edge">
<title>5&#45;&gt;5</title>
<path fill="none" stroke="black" d="M300.21,-27.35C335.91,-30.19 392.21,-29.22 392.21,-24.44 392.21,-20.09 345.57,-18.89 310.28,-20.85"/>
<polygon fill="black" stroke="black" points="309.96,-17.37 300.21,-21.53 310.43,-24.35 309.96,-17.37"/>
<text text-anchor="middle" x="399.21" y="-20.74" font-family="Times,serif" font-size="14.00">{}</text>
</g>
<!-- 5&#45;&gt;5 -->
<g id="edge37" class="edge">
<title>5&#45;&gt;5</title>
<path fill="none" stroke="black" d="M299.94,-27.89C341.5,-32.2 410.21,-31.05 410.21,-24.44 410.21,-18.35 351.82,-16.89 310.13,-20.08"/>
<polygon fill="black" stroke="black" points="309.59,-16.62 299.94,-20.99 310.21,-23.59 309.59,-16.62"/>
<text text-anchor="middle" x="443.71" y="-20.74" font-family="Times,serif" font-size="14.00">{c1, c2, c3}</text>
</g>
<!-- 5&#45;&gt;5 -->
<g id="edge38" class="edge">
<title>5&#45;&gt;5</title>
<path fill="none" stroke="black" d="M300.15,-28.02C357.27,-34.25 477.21,-33.05 477.21,-24.44 477.21,-16.31 370.47,-14.79 310.43,-19.87"/>
<polygon fill="black" stroke="black" points="309.77,-16.42 300.15,-20.86 310.44,-23.38 309.77,-16.42"/>
<text text-anchor="middle" x="510.71" y="-20.74" font-family="Times,serif" font-size="14.00">{c0, c1, c3}</text>
</g>
<!-- 5&#45;&gt;5 -->
<g id="edge39" class="edge">
<title>5&#45;&gt;5</title>
<path fill="none" stroke="black" d="M300.19,-28.16C370.67,-36.27 544.21,-35.03 544.21,-24.44 544.21,-14.32 385.91,-12.73 310.28,-19.68"/>
<polygon fill="black" stroke="black" points="309.78,-16.21 300.19,-20.71 310.49,-23.18 309.78,-16.21"/>
<text text-anchor="middle" x="557.71" y="-20.74" font-family="Times,serif" font-size="14.00">{c3}</text>
</g>
<!-- 5&#45;&gt;5 -->
<g id="edge40" class="edge">
<title>5&#45;&gt;5</title>
<path fill="none" stroke="black" d="M300.04,-28.43C376.66,-38.28 571.21,-36.95 571.21,-24.44 571.21,-12.44 392.29,-10.73 310.04,-19.29"/>
<polygon fill="black" stroke="black" points="309.57,-15.82 300.04,-20.44 310.38,-22.77 309.57,-15.82"/>
<text text-anchor="middle" x="615.21" y="-20.74" font-family="Times,serif" font-size="14.00">{c0, c1, c2, c3}</text>
</g>
<!-- 5&#45;&gt;5 -->
<g id="edge41" class="edge">
<title>5&#45;&gt;5</title>
<path fill="none" stroke="black" d="M300.12,-28.48C391.17,-40.3 659.21,-38.95 659.21,-24.44 659.21,-10.42 409.18,-8.68 310.05,-19.23"/>
<polygon fill="black" stroke="black" points="309.64,-15.76 300.12,-20.4 310.46,-22.71 309.64,-15.76"/>
<text text-anchor="middle" x="682.71" y="-20.74" font-family="Times,serif" font-size="14.00">{c0, c3}</text>
</g>
<!-- 5&#45;&gt;5 -->
<g id="edge42" class="edge">
<title>5&#45;&gt;5</title>
<path fill="none" stroke="black" d="M300.04,-28.64C399.2,-42.31 706.21,-40.91 706.21,-24.44 706.21,-8.5 418.67,-6.67 310.26,-18.97"/>
<polygon fill="black" stroke="black" points="309.53,-15.53 300.04,-20.24 310.4,-22.48 309.53,-15.53"/>
<text text-anchor="middle" x="729.71" y="-20.74" font-family="Times,serif" font-size="14.00">{c1, c3}</text>
</g>
<!-- 5&#45;&gt;5 -->
<g id="edge43" class="edge">
<title>5&#45;&gt;5</title>
<path fill="none" stroke="black" d="M299.87,-28.76C406.75,-44.32 753.21,-42.88 753.21,-24.44 753.21,-6.54 426.76,-4.66 309.86,-18.79"/>
<polygon fill="black" stroke="black" points="309.32,-15.34 299.87,-20.12 310.24,-22.27 309.32,-15.34"/>
<text text-anchor="middle" x="776.71" y="-20.74" font-family="Times,serif" font-size="14.00">{c2, c3}</text>
</g>
<!-- 5&#45;&gt;5 -->
<g id="edge44" class="edge">
<title>5&#45;&gt;5</title>
<path fill="none" stroke="black" d="M300.04,-28.92C414.86,-46.32 800.21,-44.83 800.21,-24.44 800.21,-4.61 435.65,-2.65 310.05,-18.57"/>
<polygon fill="black" stroke="black" points="309.47,-15.12 300.04,-19.96 310.43,-22.06 309.47,-15.12"/>
<text text-anchor="middle" x="823.71" y="-20.74" font-family="Times,serif" font-size="14.00">{c1, c2}</text>
</g>
<!-- 5&#45;&gt;5 -->
<g id="edge45" class="edge">
<title>5&#45;&gt;5</title>
<path fill="none" stroke="black" d="M299.95,-29.02C422.2,-48.33 847.21,-46.8 847.21,-24.44 847.21,-2.67 444.32,-0.65 310.23,-18.37"/>
<polygon fill="black" stroke="black" points="309.34,-14.96 299.95,-19.85 310.34,-21.89 309.34,-14.96"/>
<text text-anchor="middle" x="860.71" y="-20.74" font-family="Times,serif" font-size="14.00">{c0}</text>
</g>
<!-- 5&#45;&gt;5 -->
<g id="edge46" class="edge">
<title>5&#45;&gt;5</title>
<path fill="none" stroke="black" d="M299.76,-29.14C427.25,-50.33 874.21,-48.76 874.21,-24.44 874.21,-0.71 448.81,1.36 309.66,-18.22"/>
<polygon fill="black" stroke="black" points="309.12,-14.77 299.76,-19.74 310.17,-21.69 309.12,-14.77"/>
<text text-anchor="middle" x="897.71" y="-20.74" font-family="Times,serif" font-size="14.00">{c0, c2}</text>
</g>
<!-- 5&#45;&gt;5 -->
<g id="edge47" class="edge">
<title>5&#45;&gt;5</title>
<path fill="none" stroke="black" d="M300.06,-29.29C435.34,-52.33 921.21,-50.72 921.21,-24.44 921.21,1.22 457.85,3.37 310.14,-18.01"/>
<polygon fill="black" stroke="black" points="309.4,-14.58 300.06,-19.59 310.48,-21.5 309.4,-14.58"/>
<text text-anchor="middle" x="934.71" y="-20.74" font-family="Times,serif" font-size="14.00">{c2}</text>
</g>
<!-- 5&#45;&gt;5 -->
<g id="edge48" class="edge">
<title>5&#45;&gt;5</title>
<path fill="none" stroke="black" d="M300.01,-29.4C440.69,-54.34 948.21,-52.68 948.21,-24.44 948.21,3.17 463.23,5.37 310.03,-17.83"/>
<polygon fill="black" stroke="black" points="309.31,-14.41 300.01,-19.47 310.44,-21.31 309.31,-14.41"/>
<text text-anchor="middle" x="981.71" y="-20.74" font-family="Times,serif" font-size="14.00">{c0, c2, c3}</text>
</g>
<!-- 5&#45;&gt;5 -->
<g id="edge49" class="edge">
<title>5&#45;&gt;5</title>
<path fill="none" stroke="black" d="M299.73,-29.4C448.96,-56.34 1015.21,-54.69 1015.21,-24.44 1015.21,5.16 473.03,7.38 309.92,-17.78"/>
<polygon fill="black" stroke="black" points="309.02,-14.38 299.73,-19.48 310.17,-21.28 309.02,-14.38"/>
<text text-anchor="middle" x="1048.71" y="-20.74" font-family="Times,serif" font-size="14.00">{c0, c1, c2}</text>
</g>
</g>
</svg>
