<?xml version="1.0" encoding="UTF-8" standalone="no"?>
<!DOCTYPE svg PUBLIC "-//W3C//DTD SVG 1.1//EN"
 "http://www.w3.org/Graphics/SVG/1.1/DTD/svg11.dtd">
<!-- Generated by graphviz version 2.43.0 (0)
 -->
<!-- Title: %3 Pages: 1 -->
<svg width="2542pt" height="475pt"
 viewBox="0.00 0.00 2541.73 475.44" xmlns="http://www.w3.org/2000/svg" xmlns:xlink="http://www.w3.org/1999/xlink">
<g id="graph0" class="graph" transform="scale(1 1) rotate(0) translate(4 471.44)">
<title>%3</title>
<polygon fill="white" stroke="transparent" points="-4,4 -4,-471.44 2537.73,-471.44 2537.73,4 -4,4"/>
<!-- fake -->
<g id="node1" class="node">
<title>fake</title>
</g>
<!-- 0 -->
<g id="node2" class="node">
<title>0</title>
<ellipse fill="none" stroke="black" cx="1846.73" cy="-376.44" rx="27" ry="18"/>
<text text-anchor="middle" x="1846.73" y="-372.74" font-family="Times,serif" font-size="14.00">0</text>
</g>
<!-- fake&#45;&gt;0 -->
<g id="edge1" class="edge">
<title>fake&#45;&gt;0</title>
<path fill="none" stroke="black" stroke-width="2" d="M1846.73,-431.25C1846.73,-423.23 1846.73,-413.49 1846.73,-404.51"/>
<polygon fill="black" stroke="black" stroke-width="2" points="1850.23,-404.47 1846.73,-394.47 1843.23,-404.47 1850.23,-404.47"/>
</g>
<!-- 0&#45;&gt;0 -->
<g id="edge53" class="edge">
<title>0&#45;&gt;0</title>
<path fill="none" stroke="black" d="M1872.17,-383.13C1882.76,-383.59 1891.73,-381.36 1891.73,-376.44 1891.73,-373.21 1887.86,-371.14 1882.22,-370.23"/>
<polygon fill="black" stroke="black" points="1882.33,-366.73 1872.17,-369.75 1881.99,-373.72 1882.33,-366.73"/>
<text text-anchor="middle" x="1898.73" y="-372.74" font-family="Times,serif" font-size="14.00">{}</text>
</g>
<!-- 1 -->
<g id="node3" class="node">
<title>1</title>
<ellipse fill="none" stroke="black" cx="1485.73" cy="-289.44" rx="27" ry="18"/>
<text text-anchor="middle" x="1485.73" y="-285.74" font-family="Times,serif" font-size="14.00">1</text>
</g>
<!-- 0&#45;&gt;1 -->
<g id="edge50" class="edge">
<title>0&#45;&gt;1</title>
<path fill="none" stroke="black" d="M1819.66,-375.83C1713.91,-377.08 1332.78,-378.86 1296.73,-340.44 1292.17,-335.58 1292.47,-330.56 1296.73,-325.44 1315.66,-302.69 1399.09,-294.66 1448.56,-291.88"/>
<polygon fill="black" stroke="black" points="1448.76,-295.37 1458.56,-291.36 1448.39,-288.38 1448.76,-295.37"/>
<text text-anchor="middle" x="1310.23" y="-329.24" font-family="Times,serif" font-size="14.00">{c3}</text>
</g>
<!-- 0&#45;&gt;1 -->
<g id="edge51" class="edge">
<title>0&#45;&gt;1</title>
<path fill="none" stroke="black" d="M1819.43,-375.65C1719.69,-376.12 1379.11,-375.16 1346.73,-340.44 1315.07,-306.48 1397.69,-295.55 1448.8,-292.06"/>
<polygon fill="black" stroke="black" points="1449.1,-295.54 1458.87,-291.43 1448.67,-288.56 1449.1,-295.54"/>
<text text-anchor="middle" x="1370.23" y="-329.24" font-family="Times,serif" font-size="14.00">{c1, c3}</text>
</g>
<!-- 0&#45;&gt;1 -->
<g id="edge52" class="edge">
<title>0&#45;&gt;1</title>
<path fill="none" stroke="black" d="M1819.59,-375.31C1729.43,-374.62 1444.05,-370.07 1416.73,-340.44 1401.77,-324.21 1427.68,-309.92 1451.91,-300.81"/>
<polygon fill="black" stroke="black" points="1453.1,-304.1 1461.37,-297.47 1450.77,-297.5 1453.1,-304.1"/>
<text text-anchor="middle" x="1440.23" y="-329.24" font-family="Times,serif" font-size="14.00">{c0, c3}</text>
</g>
<!-- 0&#45;&gt;1 -->
<g id="edge54" class="edge">
<title>0&#45;&gt;1</title>
<path fill="none" stroke="black" d="M1819.64,-374.83C1739.75,-372.78 1509.26,-364.77 1486.73,-340.44 1481.09,-334.35 1479.52,-325.83 1479.77,-317.55"/>
<polygon fill="black" stroke="black" points="1483.28,-317.71 1480.89,-307.39 1476.32,-316.94 1483.28,-317.71"/>
<text text-anchor="middle" x="1520.23" y="-329.24" font-family="Times,serif" font-size="14.00">{c0, c2, c3}</text>
</g>
<!-- 0&#45;&gt;1 -->
<g id="edge55" class="edge">
<title>0&#45;&gt;1</title>
<path fill="none" stroke="black" d="M1819.73,-375.86C1770.04,-375.79 1661.43,-371.68 1576.73,-340.44 1565.28,-336.22 1564.28,-331.57 1553.73,-325.44 1541.68,-318.44 1528.09,-311.29 1516.23,-305.3"/>
<polygon fill="black" stroke="black" points="1517.67,-302.11 1507.16,-300.77 1514.54,-308.37 1517.67,-302.11"/>
<text text-anchor="middle" x="1620.73" y="-329.24" font-family="Times,serif" font-size="14.00">{c0, c1, c2, c3}</text>
</g>
<!-- 0&#45;&gt;1 -->
<g id="edge56" class="edge">
<title>0&#45;&gt;1</title>
<path fill="none" stroke="black" d="M1820.24,-372.57C1787.94,-368.42 1732.17,-359.09 1687.73,-340.44 1676.48,-335.72 1676.04,-330.03 1664.73,-325.44 1617.86,-306.42 1559.79,-297.51 1522.75,-293.5"/>
<polygon fill="black" stroke="black" points="1522.72,-289.98 1512.42,-292.45 1522.02,-296.94 1522.72,-289.98"/>
<text text-anchor="middle" x="1711.23" y="-329.24" font-family="Times,serif" font-size="14.00">{c2, c3}</text>
</g>
<!-- 0&#45;&gt;1 -->
<g id="edge57" class="edge">
<title>0&#45;&gt;1</title>
<path fill="none" stroke="black" d="M1823.11,-367.63C1804.83,-361.24 1779.12,-351.48 1757.73,-340.44 1746.88,-334.84 1746.16,-329.72 1734.73,-325.44 1663.14,-298.59 1572.95,-292.1 1523.13,-290.67"/>
<polygon fill="black" stroke="black" points="1522.91,-287.17 1512.84,-290.44 1522.75,-294.17 1522.91,-287.17"/>
<text text-anchor="middle" x="1791.23" y="-329.24" font-family="Times,serif" font-size="14.00">{c0, c1, c3}</text>
</g>
<!-- 0&#45;&gt;1 -->
<g id="edge58" class="edge">
<title>0&#45;&gt;1</title>
<path fill="none" stroke="black" d="M1843.76,-358.27C1840.87,-347.07 1835.31,-333.14 1824.73,-325.44 1777.46,-291 1601.02,-288.88 1523.11,-289.7"/>
<polygon fill="black" stroke="black" points="1522.75,-286.2 1512.79,-289.83 1522.84,-293.2 1522.75,-286.2"/>
<text text-anchor="middle" x="1870.23" y="-329.24" font-family="Times,serif" font-size="14.00">{c1, c2, c3}</text>
</g>
<!-- 2 -->
<g id="node4" class="node">
<title>2</title>
<ellipse fill="none" stroke="black" cx="1458.73" cy="-24.44" rx="27" ry="18"/>
<text text-anchor="middle" x="1458.73" y="-20.74" font-family="Times,serif" font-size="14.00">2</text>
</g>
<!-- 0&#45;&gt;2 -->
<g id="edge59" class="edge">
<title>0&#45;&gt;2</title>
<path fill="none" stroke="black" d="M1871.04,-368.21C1884.41,-362.85 1899.83,-354.07 1907.73,-340.44 1911.07,-334.67 1909.28,-331.92 1907.73,-325.44 1887.62,-241.14 1874.96,-218.22 1819.73,-151.44 1776.36,-99 1757.69,-87.68 1693.73,-64.44 1626.51,-40.02 1542.88,-30.79 1495.68,-27.38"/>
<polygon fill="black" stroke="black" points="1495.83,-23.88 1485.61,-26.7 1495.36,-30.87 1495.83,-23.88"/>
<text text-anchor="middle" x="1883.23" y="-198.74" font-family="Times,serif" font-size="14.00">{c1}</text>
</g>
<!-- 0&#45;&gt;2 -->
<g id="edge60" class="edge">
<title>0&#45;&gt;2</title>
<path fill="none" stroke="black" d="M1871.01,-368.15C1902.58,-356.99 1953.73,-332.43 1953.73,-290.44 1953.73,-290.44 1953.73,-290.44 1953.73,-114.44 1953.73,-67.92 1610.74,-37.18 1495.78,-28.18"/>
<polygon fill="black" stroke="black" points="1495.93,-24.68 1485.69,-27.4 1495.39,-31.66 1495.93,-24.68"/>
<text text-anchor="middle" x="1987.23" y="-198.74" font-family="Times,serif" font-size="14.00">{c0, c1, c2}</text>
</g>
<!-- 0&#45;&gt;2 -->
<g id="edge61" class="edge">
<title>0&#45;&gt;2</title>
<path fill="none" stroke="black" d="M1873.75,-376.32C1930.47,-376.62 2056.73,-368.51 2056.73,-290.44 2056.73,-290.44 2056.73,-290.44 2056.73,-114.44 2056.73,-57.46 1626.48,-33.11 1495.87,-27.03"/>
<polygon fill="black" stroke="black" points="1495.73,-23.52 1485.59,-26.56 1495.42,-30.51 1495.73,-23.52"/>
<text text-anchor="middle" x="2070.23" y="-198.74" font-family="Times,serif" font-size="14.00">{c2}</text>
</g>
<!-- 0&#45;&gt;2 -->
<g id="edge62" class="edge">
<title>0&#45;&gt;2</title>
<path fill="none" stroke="black" d="M1873.69,-374.94C1914.33,-373.31 1993,-366.68 2053.73,-340.44 2087.51,-325.84 2119.73,-327.24 2119.73,-290.44 2119.73,-290.44 2119.73,-290.44 2119.73,-114.44 2119.73,-51.03 1635.8,-30.97 1496.08,-26.5"/>
<polygon fill="black" stroke="black" points="1495.98,-23 1485.87,-26.19 1495.76,-30 1495.98,-23"/>
<text text-anchor="middle" x="2133.23" y="-198.74" font-family="Times,serif" font-size="14.00">{c0}</text>
</g>
<!-- 0&#45;&gt;2 -->
<g id="edge63" class="edge">
<title>0&#45;&gt;2</title>
<path fill="none" stroke="black" d="M1873.66,-374.39C1953.39,-370.58 2182.73,-354.07 2182.73,-290.44 2182.73,-290.44 2182.73,-290.44 2182.73,-114.44 2182.73,-44.56 1644.5,-29.02 1496.18,-26.06"/>
<polygon fill="black" stroke="black" points="1495.85,-22.56 1485.79,-25.86 1495.72,-29.55 1495.85,-22.56"/>
<text text-anchor="middle" x="2206.23" y="-198.74" font-family="Times,serif" font-size="14.00">{c0, c1}</text>
</g>
<!-- 0&#45;&gt;2 -->
<g id="edge64" class="edge">
<title>0&#45;&gt;2</title>
<path fill="none" stroke="black" d="M1873.9,-375.73C1966.75,-376.01 2265.73,-370.69 2265.73,-290.44 2265.73,-290.44 2265.73,-290.44 2265.73,-114.44 2265.73,-35.99 1655.38,-26.68 1496.28,-25.58"/>
<polygon fill="black" stroke="black" points="1496.06,-22.08 1486.04,-25.52 1496.02,-29.08 1496.06,-22.08"/>
<text text-anchor="middle" x="2289.23" y="-198.74" font-family="Times,serif" font-size="14.00">{c1, c2}</text>
</g>
<!-- 0&#45;&gt;2 -->
<g id="edge65" class="edge">
<title>0&#45;&gt;2</title>
<path fill="none" stroke="black" d="M1873.88,-376.12C1938.36,-377.08 2105.27,-375.63 2238.73,-340.44 2290.66,-326.75 2348.73,-344.14 2348.73,-290.44 2348.73,-290.44 2348.73,-290.44 2348.73,-114.44 2348.73,-27.31 1664.66,-24.55 1495.98,-25.19"/>
<polygon fill="black" stroke="black" points="1495.83,-21.69 1485.85,-25.24 1495.87,-28.69 1495.83,-21.69"/>
<text text-anchor="middle" x="2372.23" y="-198.74" font-family="Times,serif" font-size="14.00">{c0, c2}</text>
</g>
<!-- 1&#45;&gt;1 -->
<g id="edge68" class="edge">
<title>1&#45;&gt;1</title>
<path fill="none" stroke="black" d="M1510.26,-297.19C1521.24,-297.93 1530.73,-295.35 1530.73,-289.44 1530.73,-285.47 1526.44,-283 1520.3,-282.03"/>
<polygon fill="black" stroke="black" points="1520.38,-278.53 1510.26,-281.69 1520.13,-285.53 1520.38,-278.53"/>
<text text-anchor="middle" x="1537.73" y="-285.74" font-family="Times,serif" font-size="14.00">{}</text>
</g>
<!-- 1&#45;&gt;2 -->
<g id="edge75" class="edge">
<title>1&#45;&gt;2</title>
<path fill="none" stroke="black" d="M1484.18,-271.3C1483.26,-261.64 1482.03,-249.35 1480.73,-238.44 1476.11,-199.79 1449.3,-183.93 1470.73,-151.44 1481.91,-134.48 1501.55,-150.39 1512.73,-133.44 1521.54,-120.08 1517.79,-112.62 1512.73,-97.44 1506.39,-78.41 1492.83,-60.36 1480.88,-47.1"/>
<polygon fill="black" stroke="black" points="1483.13,-44.38 1473.74,-39.49 1478.03,-49.17 1483.13,-44.38"/>
<text text-anchor="middle" x="1484.23" y="-155.24" font-family="Times,serif" font-size="14.00">{c3}</text>
</g>
<!-- 1&#45;&gt;2 -->
<g id="edge76" class="edge">
<title>1&#45;&gt;2</title>
<path fill="none" stroke="black" d="M1490.74,-271.38C1492.38,-265.69 1494.17,-259.3 1495.73,-253.44 1507.7,-208.32 1505.64,-195.61 1520.73,-151.44 1523.56,-143.15 1526.91,-142 1528.73,-133.44 1532.05,-117.79 1532.12,-113.08 1528.73,-97.44 1525.32,-81.69 1523.99,-76.86 1513.73,-64.44 1506.5,-55.68 1496.85,-47.96 1487.66,-41.75"/>
<polygon fill="black" stroke="black" points="1489.39,-38.7 1479.07,-36.27 1485.62,-44.6 1489.39,-38.7"/>
<text text-anchor="middle" x="1554.23" y="-155.24" font-family="Times,serif" font-size="14.00">{c0, c1, c3}</text>
</g>
<!-- 1&#45;&gt;2 -->
<g id="edge77" class="edge">
<title>1&#45;&gt;2</title>
<path fill="none" stroke="black" d="M1505.21,-276.94C1539.06,-255.29 1603.7,-205.78 1587.73,-151.44 1574.76,-107.32 1565.54,-95.61 1531.73,-64.44 1520,-53.62 1504.71,-44.85 1491.15,-38.39"/>
<polygon fill="black" stroke="black" points="1492.22,-35.03 1481.67,-34.09 1489.33,-41.41 1492.22,-35.03"/>
<text text-anchor="middle" x="1603.23" y="-155.24" font-family="Times,serif" font-size="14.00">{c1}</text>
</g>
<!-- 1&#45;&gt;2 -->
<g id="edge78" class="edge">
<title>1&#45;&gt;2</title>
<path fill="none" stroke="black" d="M1508.85,-279.91C1524.03,-273.75 1543.93,-264.57 1559.73,-253.44 1602.91,-223.02 1635.37,-202.19 1620.73,-151.44 1607.12,-104.29 1593.73,-91.41 1552.73,-64.44 1534.21,-52.26 1511.27,-42.65 1492.68,-36.02"/>
<polygon fill="black" stroke="black" points="1493.73,-32.68 1483.14,-32.73 1491.46,-39.3 1493.73,-32.68"/>
<text text-anchor="middle" x="1637.23" y="-155.24" font-family="Times,serif" font-size="14.00">{c0}</text>
</g>
<!-- 1&#45;&gt;2 -->
<g id="edge79" class="edge">
<title>1&#45;&gt;2</title>
<path fill="none" stroke="black" d="M1510.39,-281.96C1530.77,-276.06 1560.09,-266.32 1583.73,-253.44 1632.23,-227.02 1671.07,-204.2 1654.73,-151.44 1639.36,-101.83 1622.34,-89.27 1576.73,-64.44 1550.53,-50.18 1518.21,-39.95 1494.03,-33.55"/>
<polygon fill="black" stroke="black" points="1494.76,-30.12 1484.2,-31.04 1493.03,-36.91 1494.76,-30.12"/>
<text text-anchor="middle" x="1681.23" y="-155.24" font-family="Times,serif" font-size="14.00">{c0, c1}</text>
</g>
<!-- 1&#45;&gt;2 -->
<g id="edge80" class="edge">
<title>1&#45;&gt;2</title>
<path fill="none" stroke="black" d="M1512.2,-284.62C1578.92,-273.67 1746.09,-237.26 1708.73,-151.44 1672.5,-68.2 1556.05,-39.35 1495.73,-29.84"/>
<polygon fill="black" stroke="black" points="1495.9,-26.32 1485.5,-28.32 1494.88,-33.25 1495.9,-26.32"/>
<text text-anchor="middle" x="1736.23" y="-155.24" font-family="Times,serif" font-size="14.00">{c0, c3}</text>
</g>
<!-- 1&#45;&gt;2 -->
<g id="edge81" class="edge">
<title>1&#45;&gt;2</title>
<path fill="none" stroke="black" d="M1512.46,-286.76C1591.05,-280.64 1812.84,-254.1 1763.73,-151.44 1715.99,-51.65 1566.75,-30.71 1496.29,-26.45"/>
<polygon fill="black" stroke="black" points="1496.25,-22.94 1486.08,-25.91 1495.88,-29.93 1496.25,-22.94"/>
<text text-anchor="middle" x="1792.23" y="-155.24" font-family="Times,serif" font-size="14.00">{c1, c3}</text>
</g>
<!-- 3 -->
<g id="node5" class="node">
<title>3</title>
<ellipse fill="none" stroke="black" cx="1038.73" cy="-202.44" rx="27" ry="18"/>
<text text-anchor="middle" x="1038.73" y="-198.74" font-family="Times,serif" font-size="14.00">3</text>
</g>
<!-- 1&#45;&gt;3 -->
<g id="edge66" class="edge">
<title>1&#45;&gt;3</title>
<path fill="none" stroke="black" d="M1458.77,-287.95C1341.84,-285.68 883.5,-275.41 862.73,-253.44 821.28,-209.6 938.21,-203.29 1001.33,-202.95"/>
<polygon fill="black" stroke="black" points="1001.33,-206.45 1011.33,-202.94 1001.33,-199.45 1001.33,-206.45"/>
<text text-anchor="middle" x="886.23" y="-242.24" font-family="Times,serif" font-size="14.00">{c0, c2}</text>
</g>
<!-- 1&#45;&gt;3 -->
<g id="edge67" class="edge">
<title>1&#45;&gt;3</title>
<path fill="none" stroke="black" d="M1458.51,-288.84C1352.19,-290.13 968.98,-292.06 932.73,-253.44 909.21,-228.38 962.87,-214.62 1002.1,-208.16"/>
<polygon fill="black" stroke="black" points="1002.86,-211.59 1012.21,-206.6 1001.79,-204.67 1002.86,-211.59"/>
<text text-anchor="middle" x="956.23" y="-242.24" font-family="Times,serif" font-size="14.00">{c1, c2}</text>
</g>
<!-- 1&#45;&gt;3 -->
<g id="edge69" class="edge">
<title>1&#45;&gt;3</title>
<path fill="none" stroke="black" d="M1458.69,-288.57C1361.49,-288.78 1033.9,-286.95 1002.73,-253.44 993.73,-243.77 1001.79,-231.79 1012.55,-221.98"/>
<polygon fill="black" stroke="black" points="1014.79,-224.67 1020.25,-215.6 1010.32,-219.29 1014.79,-224.67"/>
<text text-anchor="middle" x="1016.23" y="-242.24" font-family="Times,serif" font-size="14.00">{c2}</text>
</g>
<!-- 1&#45;&gt;3 -->
<g id="edge70" class="edge">
<title>1&#45;&gt;3</title>
<path fill="none" stroke="black" d="M1458.69,-288.02C1368.82,-286.4 1084.05,-279.25 1052.73,-253.44 1045.9,-247.81 1042.25,-239.16 1040.35,-230.62"/>
<polygon fill="black" stroke="black" points="1043.77,-229.83 1038.79,-220.47 1036.85,-230.89 1043.77,-229.83"/>
<text text-anchor="middle" x="1086.23" y="-242.24" font-family="Times,serif" font-size="14.00">{c0, c1, c2}</text>
</g>
<!-- 1&#45;&gt;3 -->
<g id="edge71" class="edge">
<title>1&#45;&gt;3</title>
<path fill="none" stroke="black" d="M1458.75,-287.33C1388.44,-284.18 1201,-274.04 1142.73,-253.44 1131.22,-249.37 1130.48,-244.21 1119.73,-238.44 1104.12,-230.05 1086.08,-222.1 1070.99,-215.9"/>
<polygon fill="black" stroke="black" points="1072.14,-212.59 1061.56,-212.09 1069.52,-219.08 1072.14,-212.59"/>
<text text-anchor="middle" x="1176.23" y="-242.24" font-family="Times,serif" font-size="14.00">{c0, c2, c3}</text>
</g>
<!-- 1&#45;&gt;3 -->
<g id="edge72" class="edge">
<title>1&#45;&gt;3</title>
<path fill="none" stroke="black" d="M1458.57,-288.53C1411.19,-287.85 1311.02,-282.7 1232.73,-253.44 1221.3,-249.17 1221.02,-243.08 1209.73,-238.44 1165.66,-220.33 1111.22,-211.26 1075.77,-206.96"/>
<polygon fill="black" stroke="black" points="1075.74,-203.44 1065.41,-205.77 1074.95,-210.39 1075.74,-203.44"/>
<text text-anchor="middle" x="1256.23" y="-242.24" font-family="Times,serif" font-size="14.00">{c2, c3}</text>
</g>
<!-- 1&#45;&gt;3 -->
<g id="edge73" class="edge">
<title>1&#45;&gt;3</title>
<path fill="none" stroke="black" d="M1459.06,-286.59C1422.6,-283.34 1355.67,-274.8 1302.73,-253.44 1291.41,-248.87 1291.15,-242.75 1279.73,-238.44 1210.82,-212.42 1124.09,-205.6 1075.7,-203.91"/>
<polygon fill="black" stroke="black" points="1075.79,-200.41 1065.69,-203.61 1075.59,-207.4 1075.79,-200.41"/>
<text text-anchor="middle" x="1346.73" y="-242.24" font-family="Times,serif" font-size="14.00">{c0, c1, c2, c3}</text>
</g>
<!-- 1&#45;&gt;3 -->
<g id="edge74" class="edge">
<title>1&#45;&gt;3</title>
<path fill="none" stroke="black" d="M1463.94,-278.72C1449.47,-272.05 1430.18,-262.75 1413.73,-253.44 1403.11,-247.43 1402.24,-242.49 1390.73,-238.44 1333.4,-218.26 1154.28,-208.36 1075.99,-204.91"/>
<polygon fill="black" stroke="black" points="1075.77,-201.4 1065.63,-204.46 1075.47,-208.39 1075.77,-201.4"/>
<text text-anchor="middle" x="1447.23" y="-242.24" font-family="Times,serif" font-size="14.00">{c1, c2, c3}</text>
</g>
<!-- 2&#45;&gt;2 -->
<g id="edge82" class="edge">
<title>2&#45;&gt;2</title>
<path fill="none" stroke="black" d="M1485.97,-25.94C1495.75,-25.97 1503.73,-25.47 1503.73,-24.44 1503.73,-23.81 1500.77,-23.38 1496.24,-23.15"/>
<polygon fill="black" stroke="black" points="1496.04,-19.64 1485.97,-22.94 1495.9,-26.64 1496.04,-19.64"/>
<text text-anchor="middle" x="1517.23" y="-20.74" font-family="Times,serif" font-size="14.00">{c3}</text>
</g>
<!-- 2&#45;&gt;2 -->
<g id="edge83" class="edge">
<title>2&#45;&gt;2</title>
<path fill="none" stroke="black" d="M1485.48,-27.05C1507.17,-28.03 1530.73,-27.16 1530.73,-24.44 1530.73,-22.14 1513.96,-21.17 1495.69,-21.5"/>
<polygon fill="black" stroke="black" points="1495.36,-18.01 1485.48,-21.83 1495.59,-25.01 1495.36,-18.01"/>
<text text-anchor="middle" x="1564.23" y="-20.74" font-family="Times,serif" font-size="14.00">{c0, c1, c3}</text>
</g>
<!-- 2&#45;&gt;2 -->
<g id="edge84" class="edge">
<title>2&#45;&gt;2</title>
<path fill="none" stroke="black" d="M1485.63,-27.46C1528.34,-30.17 1597.73,-29.16 1597.73,-24.44 1597.73,-20.08 1538.51,-18.89 1495.81,-20.87"/>
<polygon fill="black" stroke="black" points="1495.42,-17.38 1485.63,-21.42 1495.8,-24.37 1495.42,-17.38"/>
<text text-anchor="middle" x="1611.23" y="-20.74" font-family="Times,serif" font-size="14.00">{c1}</text>
</g>
<!-- 2&#45;&gt;2 -->
<g id="edge85" class="edge">
<title>2&#45;&gt;2</title>
<path fill="none" stroke="black" d="M1485.21,-28.01C1535.66,-32.17 1624.73,-30.99 1624.73,-24.44 1624.73,-18.31 1546.77,-16.88 1495.41,-20.13"/>
<polygon fill="black" stroke="black" points="1494.93,-16.66 1485.21,-20.87 1495.44,-23.64 1494.93,-16.66"/>
<text text-anchor="middle" x="1658.23" y="-20.74" font-family="Times,serif" font-size="14.00">{c0, c1, c2}</text>
</g>
<!-- 2&#45;&gt;2 -->
<g id="edge86" class="edge">
<title>2&#45;&gt;2</title>
<path fill="none" stroke="black" d="M1485.2,-28.23C1551.05,-34.22 1691.73,-32.95 1691.73,-24.44 1691.73,-16.34 1564.45,-14.8 1495.36,-19.82"/>
<polygon fill="black" stroke="black" points="1494.88,-16.35 1485.2,-20.65 1495.45,-23.33 1494.88,-16.35"/>
<text text-anchor="middle" x="1725.23" y="-20.74" font-family="Times,serif" font-size="14.00">{c1, c2, c3}</text>
</g>
<!-- 2&#45;&gt;2 -->
<g id="edge87" class="edge">
<title>2&#45;&gt;2</title>
<path fill="none" stroke="black" d="M1485.07,-28.43C1564.36,-36.25 1758.73,-34.92 1758.73,-24.44 1758.73,-14.38 1579.62,-12.75 1495.13,-19.55"/>
<polygon fill="black" stroke="black" points="1494.72,-16.08 1485.07,-20.45 1495.34,-23.05 1494.72,-16.08"/>
<text text-anchor="middle" x="1802.73" y="-20.74" font-family="Times,serif" font-size="14.00">{c0, c1, c2, c3}</text>
</g>
<!-- 2&#45;&gt;2 -->
<g id="edge88" class="edge">
<title>2&#45;&gt;2</title>
<path fill="none" stroke="black" d="M1485.22,-28.56C1580,-38.27 1846.73,-36.89 1846.73,-24.44 1846.73,-12.4 1597.42,-10.71 1495.22,-19.39"/>
<polygon fill="black" stroke="black" points="1494.86,-15.9 1485.22,-20.32 1495.5,-22.87 1494.86,-15.9"/>
<text text-anchor="middle" x="1860.23" y="-20.74" font-family="Times,serif" font-size="14.00">{c2}</text>
</g>
<!-- 2&#45;&gt;2 -->
<g id="edge89" class="edge">
<title>2&#45;&gt;2</title>
<path fill="none" stroke="black" d="M1485.05,-28.86C1585.38,-40.27 1873.73,-38.8 1873.73,-24.44 1873.73,-10.54 1603.67,-8.72 1495.32,-18.96"/>
<polygon fill="black" stroke="black" points="1494.63,-15.51 1485.05,-20.02 1495.35,-22.47 1494.63,-15.51"/>
<text text-anchor="middle" x="1887.23" y="-20.74" font-family="Times,serif" font-size="14.00">{c0}</text>
</g>
<!-- 2&#45;&gt;2 -->
<g id="edge90" class="edge">
<title>2&#45;&gt;2</title>
<path fill="none" stroke="black" d="M1484.89,-29.11C1590.8,-42.27 1900.73,-40.72 1900.73,-24.44 1900.73,-8.65 1609.28,-6.71 1495.06,-18.61"/>
<polygon fill="black" stroke="black" points="1494.43,-15.16 1484.89,-19.77 1495.22,-22.11 1494.43,-15.16"/>
<text text-anchor="middle" x="1924.23" y="-20.74" font-family="Times,serif" font-size="14.00">{c0, c1}</text>
</g>
<!-- 2&#45;&gt;2 -->
<g id="edge91" class="edge">
<title>2&#45;&gt;2</title>
<path fill="none" stroke="black" d="M1484.9,-29.3C1599.06,-44.28 1947.73,-42.66 1947.73,-24.44 1947.73,-6.73 1618.53,-4.7 1495.15,-18.35"/>
<polygon fill="black" stroke="black" points="1494.41,-14.91 1484.9,-19.58 1495.25,-21.86 1494.41,-14.91"/>
<text text-anchor="middle" x="1971.23" y="-20.74" font-family="Times,serif" font-size="14.00">{c1, c2}</text>
</g>
<!-- 2&#45;&gt;2 -->
<g id="edge92" class="edge">
<title>2&#45;&gt;2</title>
<path fill="none" stroke="black" d="M1484.9,-29.46C1607.09,-46.29 1994.73,-44.61 1994.73,-24.44 1994.73,-4.8 1627.26,-2.69 1495.11,-18.12"/>
<polygon fill="black" stroke="black" points="1494.38,-14.69 1484.9,-19.42 1495.26,-21.63 1494.38,-14.69"/>
<text text-anchor="middle" x="2018.23" y="-20.74" font-family="Times,serif" font-size="14.00">{c2, c3}</text>
</g>
<!-- 2&#45;&gt;2 -->
<g id="edge93" class="edge">
<title>2&#45;&gt;2</title>
<path fill="none" stroke="black" d="M1484.98,-29.62C1615.1,-48.29 2041.73,-46.56 2041.73,-24.44 2041.73,-2.85 1635.68,-0.68 1495.03,-17.92"/>
<polygon fill="black" stroke="black" points="1494.44,-14.47 1484.98,-19.25 1495.35,-21.41 1494.44,-14.47"/>
<text text-anchor="middle" x="2065.23" y="-20.74" font-family="Times,serif" font-size="14.00">{c0, c3}</text>
</g>
<!-- 2&#45;&gt;2 -->
<g id="edge94" class="edge">
<title>2&#45;&gt;2</title>
<path fill="none" stroke="black" d="M1484.79,-29.73C1622.36,-50.3 2088.73,-48.53 2088.73,-24.44 2088.73,-0.91 1643.96,1.33 1494.99,-17.74"/>
<polygon fill="black" stroke="black" points="1494.22,-14.31 1484.79,-19.14 1495.18,-21.24 1494.22,-14.31"/>
<text text-anchor="middle" x="2095.73" y="-20.74" font-family="Times,serif" font-size="14.00">{}</text>
</g>
<!-- 2&#45;&gt;2 -->
<g id="edge95" class="edge">
<title>2&#45;&gt;2</title>
<path fill="none" stroke="black" d="M1484.84,-29.93C1627.03,-52.3 2106.73,-50.47 2106.73,-24.44 2106.73,1.01 1648.34,3.33 1494.93,-17.48"/>
<polygon fill="black" stroke="black" points="1494.23,-14.04 1484.84,-18.95 1495.24,-20.97 1494.23,-14.04"/>
<text text-anchor="middle" x="2130.23" y="-20.74" font-family="Times,serif" font-size="14.00">{c0, c2}</text>
</g>
<!-- 2&#45;&gt;2 -->
<g id="edge96" class="edge">
<title>2&#45;&gt;2</title>
<path fill="none" stroke="black" d="M1484.71,-30.02C1634.26,-54.31 2153.73,-52.45 2153.73,-24.44 2153.73,2.97 1656.34,5.34 1494.85,-17.33"/>
<polygon fill="black" stroke="black" points="1494.07,-13.91 1484.71,-18.86 1495.12,-20.83 1494.07,-13.91"/>
<text text-anchor="middle" x="2187.23" y="-20.74" font-family="Times,serif" font-size="14.00">{c0, c2, c3}</text>
</g>
<!-- 2&#45;&gt;2 -->
<g id="edge97" class="edge">
<title>2&#45;&gt;2</title>
<path fill="none" stroke="black" d="M1484.59,-30.06C1643.29,-56.31 2220.73,-54.44 2220.73,-24.44 2220.73,4.96 1666.18,7.35 1494.62,-17.27"/>
<polygon fill="black" stroke="black" points="1493.94,-13.83 1484.59,-18.81 1495.01,-20.75 1493.94,-13.83"/>
<text text-anchor="middle" x="2244.23" y="-20.74" font-family="Times,serif" font-size="14.00">{c1, c3}</text>
</g>
<!-- 3&#45;&gt;2 -->
<g id="edge43" class="edge">
<title>3&#45;&gt;2</title>
<path fill="none" stroke="black" d="M1035.02,-184.44C1032.62,-174.61 1029.12,-162.11 1024.73,-151.44 1021.25,-142.97 1017.02,-142.3 1014.73,-133.44 1010.72,-117.95 1005.24,-110.32 1014.73,-97.44 1030.74,-75.71 1047.83,-89.86 1072.73,-79.44 1085.75,-73.99 1087.15,-68.29 1100.73,-64.44 1226.24,-28.81 1265.53,-70.68 1393.73,-46.44 1404.48,-44.41 1415.92,-41.11 1426.16,-37.73"/>
<polygon fill="black" stroke="black" points="1427.62,-40.93 1435.93,-34.36 1425.34,-34.31 1427.62,-40.93"/>
<text text-anchor="middle" x="1028.23" y="-111.74" font-family="Times,serif" font-size="14.00">{c3}</text>
</g>
<!-- 3&#45;&gt;2 -->
<g id="edge44" class="edge">
<title>3&#45;&gt;2</title>
<path fill="none" stroke="black" d="M1041.81,-184.4C1046.47,-162.42 1057.06,-123.87 1077.73,-97.44 1085.7,-87.24 1113.5,-68.69 1125.73,-64.44 1238.48,-25.23 1276.49,-68.96 1393.73,-46.44 1404.47,-44.38 1415.91,-41.07 1426.15,-37.69"/>
<polygon fill="black" stroke="black" points="1427.61,-40.89 1435.92,-34.33 1425.33,-34.27 1427.61,-40.89"/>
<text text-anchor="middle" x="1091.23" y="-111.74" font-family="Times,serif" font-size="14.00">{c2}</text>
</g>
<!-- 3&#45;&gt;2 -->
<g id="edge45" class="edge">
<title>3&#45;&gt;2</title>
<path fill="none" stroke="black" d="M1052.9,-186.85C1076.7,-162.37 1123.75,-114.08 1140.73,-97.44 1155.99,-82.47 1156.2,-73.14 1175.73,-64.44 1220.13,-44.65 1346.06,-55.97 1393.73,-46.44 1404.46,-44.29 1415.89,-40.97 1426.13,-37.59"/>
<polygon fill="black" stroke="black" points="1427.58,-40.79 1435.91,-34.24 1425.31,-34.17 1427.58,-40.79"/>
<text text-anchor="middle" x="1154.23" y="-111.74" font-family="Times,serif" font-size="14.00">{c0}</text>
</g>
<!-- 3&#45;&gt;2 -->
<g id="edge46" class="edge">
<title>3&#45;&gt;2</title>
<path fill="none" stroke="black" d="M1061.37,-192.01C1088.1,-180.33 1133.29,-158.83 1167.73,-133.44 1185.94,-120.01 1185.89,-111.36 1203.73,-97.44 1226.2,-79.9 1231.82,-73.85 1258.73,-64.44 1315.87,-44.45 1334.69,-59.8 1393.73,-46.44 1404.31,-44.04 1415.63,-40.68 1425.81,-37.34"/>
<polygon fill="black" stroke="black" points="1427.19,-40.57 1435.54,-34.05 1424.95,-33.94 1427.19,-40.57"/>
<text text-anchor="middle" x="1227.23" y="-111.74" font-family="Times,serif" font-size="14.00">{c2, c3}</text>
</g>
<!-- 3&#45;&gt;2 -->
<g id="edge47" class="edge">
<title>3&#45;&gt;2</title>
<path fill="none" stroke="black" d="M1064.86,-197.18C1106.61,-189.51 1189.85,-170.59 1250.73,-133.44 1270.04,-121.65 1268.89,-111.36 1286.73,-97.44 1309.2,-79.9 1315.83,-76.35 1341.73,-64.44 1349.52,-60.86 1393.36,-46.49 1425.09,-36.24"/>
<polygon fill="black" stroke="black" points="1426.46,-39.47 1434.91,-33.07 1424.31,-32.81 1426.46,-39.47"/>
<text text-anchor="middle" x="1310.23" y="-111.74" font-family="Times,serif" font-size="14.00">{c0, c3}</text>
</g>
<!-- 3&#45;&gt;2 -->
<g id="edge48" class="edge">
<title>3&#45;&gt;2</title>
<path fill="none" stroke="black" d="M1065.89,-200.44C1120.3,-197.36 1245.03,-184.79 1333.73,-133.44 1353.31,-122.1 1352.91,-112.58 1369.73,-97.44 1390.42,-78.82 1415.12,-59.02 1433.24,-44.9"/>
<polygon fill="black" stroke="black" points="1435.79,-47.35 1441.56,-38.46 1431.51,-41.81 1435.79,-47.35"/>
<text text-anchor="middle" x="1393.23" y="-111.74" font-family="Times,serif" font-size="14.00">{c0, c2}</text>
</g>
<!-- 3&#45;&gt;2 -->
<g id="edge49" class="edge">
<title>3&#45;&gt;2</title>
<path fill="none" stroke="black" d="M1065.63,-200.18C1143.09,-196.01 1364.5,-180.18 1416.73,-133.44 1439.97,-112.64 1450.47,-77.41 1455.13,-52.87"/>
<polygon fill="black" stroke="black" points="1458.62,-53.2 1456.84,-42.76 1451.72,-52.03 1458.62,-53.2"/>
<text text-anchor="middle" x="1475.23" y="-111.74" font-family="Times,serif" font-size="14.00">{c0, c2, c3}</text>
</g>
<!-- 3&#45;&gt;3 -->
<g id="edge36" class="edge">
<title>3&#45;&gt;3</title>
<path fill="none" stroke="black" d="M1063.26,-210.19C1074.24,-210.93 1083.73,-208.35 1083.73,-202.44 1083.73,-198.47 1079.44,-196 1073.3,-195.03"/>
<polygon fill="black" stroke="black" points="1073.38,-191.53 1063.26,-194.69 1073.13,-198.53 1073.38,-191.53"/>
<text text-anchor="middle" x="1090.73" y="-198.74" font-family="Times,serif" font-size="14.00">{}</text>
</g>
<!-- 4 -->
<g id="node6" class="node">
<title>4</title>
<ellipse fill="none" stroke="black" cx="644.73" cy="-115.44" rx="27" ry="18"/>
<text text-anchor="middle" x="644.73" y="-111.74" font-family="Times,serif" font-size="14.00">4</text>
</g>
<!-- 3&#45;&gt;4 -->
<g id="edge34" class="edge">
<title>3&#45;&gt;4</title>
<path fill="none" stroke="black" d="M1011.78,-200.97C893.8,-198.78 427.83,-188.74 406.73,-166.44 402.15,-161.6 402.37,-156.48 406.73,-151.44 432.16,-121.99 546.64,-116.87 607.08,-116.26"/>
<polygon fill="black" stroke="black" points="607.37,-119.76 617.35,-116.2 607.33,-112.76 607.37,-119.76"/>
<text text-anchor="middle" x="440.23" y="-155.24" font-family="Times,serif" font-size="14.00">{c0, c1, c3}</text>
</g>
<!-- 3&#45;&gt;4 -->
<g id="edge35" class="edge">
<title>3&#45;&gt;4</title>
<path fill="none" stroke="black" d="M1011.69,-201.8C906.99,-202.93 532.2,-204.27 496.73,-166.44 462.73,-130.18 553.27,-120.21 607.46,-117.47"/>
<polygon fill="black" stroke="black" points="607.93,-120.95 617.76,-117.02 607.62,-113.96 607.93,-120.95"/>
<text text-anchor="middle" x="530.23" y="-155.24" font-family="Times,serif" font-size="14.00">{c0, c1, c2}</text>
</g>
<!-- 3&#45;&gt;4 -->
<g id="edge37" class="edge">
<title>3&#45;&gt;4</title>
<path fill="none" stroke="black" d="M1011.51,-201.43C918.23,-201.11 615.63,-197.67 586.73,-166.44 574.02,-152.71 592.81,-138.97 612.3,-129.37"/>
<polygon fill="black" stroke="black" points="613.88,-132.5 621.5,-125.14 610.95,-126.14 613.88,-132.5"/>
<text text-anchor="middle" x="610.23" y="-155.24" font-family="Times,serif" font-size="14.00">{c0, c1}</text>
</g>
<!-- 3&#45;&gt;4 -->
<g id="edge38" class="edge">
<title>3&#45;&gt;4</title>
<path fill="none" stroke="black" d="M1011.71,-200.76C929.03,-198.42 683.48,-189.59 656.73,-166.44 650.2,-160.79 646.89,-152.28 645.3,-143.87"/>
<polygon fill="black" stroke="black" points="648.77,-143.38 644.11,-133.86 641.82,-144.2 648.77,-143.38"/>
<text text-anchor="middle" x="680.23" y="-155.24" font-family="Times,serif" font-size="14.00">{c1, c3}</text>
</g>
<!-- 3&#45;&gt;4 -->
<g id="edge39" class="edge">
<title>3&#45;&gt;4</title>
<path fill="none" stroke="black" d="M1011.82,-200.02C946.11,-196.3 779.05,-185.23 726.73,-166.44 715.24,-162.31 714.09,-157.89 703.73,-151.44 693.92,-145.34 683.07,-138.83 673.38,-133.11"/>
<polygon fill="black" stroke="black" points="674.92,-129.95 664.52,-127.9 671.37,-135.98 674.92,-129.95"/>
<text text-anchor="middle" x="750.23" y="-155.24" font-family="Times,serif" font-size="14.00">{c1, c2}</text>
</g>
<!-- 3&#45;&gt;4 -->
<g id="edge40" class="edge">
<title>3&#45;&gt;4</title>
<path fill="none" stroke="black" d="M1011.65,-201.29C965.89,-200.22 871,-194.46 796.73,-166.44 785.31,-162.13 784.86,-156.43 773.73,-151.44 743.63,-137.95 707.19,-128.65 680.73,-123.04"/>
<polygon fill="black" stroke="black" points="681.25,-119.58 670.75,-121.01 679.85,-126.44 681.25,-119.58"/>
<text text-anchor="middle" x="810.23" y="-155.24" font-family="Times,serif" font-size="14.00">{c1}</text>
</g>
<!-- 3&#45;&gt;4 -->
<g id="edge41" class="edge">
<title>3&#45;&gt;4</title>
<path fill="none" stroke="black" d="M1011.72,-199.89C973.7,-196.96 902.76,-188.76 846.73,-166.44 835.39,-161.92 835.04,-156.03 823.73,-151.44 776.86,-132.42 718.79,-123.51 681.75,-119.5"/>
<polygon fill="black" stroke="black" points="681.72,-115.98 671.42,-118.45 681.02,-122.94 681.72,-115.98"/>
<text text-anchor="middle" x="880.23" y="-155.24" font-family="Times,serif" font-size="14.00">{c1, c2, c3}</text>
</g>
<!-- 3&#45;&gt;4 -->
<g id="edge42" class="edge">
<title>3&#45;&gt;4</title>
<path fill="none" stroke="black" d="M1014.15,-194.86C993.05,-188.79 962.13,-178.84 936.73,-166.44 925.76,-161.08 925.18,-155.67 913.73,-151.44 834.99,-122.37 735.51,-116.81 682.33,-116.12"/>
<polygon fill="black" stroke="black" points="682.04,-112.62 672.02,-116.04 681.99,-119.62 682.04,-112.62"/>
<text text-anchor="middle" x="980.73" y="-155.24" font-family="Times,serif" font-size="14.00">{c0, c1, c2, c3}</text>
</g>
<!-- 4&#45;&gt;2 -->
<g id="edge11" class="edge">
<title>4&#45;&gt;2</title>
<path fill="none" stroke="black" d="M639.69,-97.29C637.63,-86.39 637.4,-72.81 645.73,-64.44 675.06,-34.99 1352.75,-53.4 1393.73,-46.44 1404.71,-44.57 1416.39,-41.25 1426.78,-37.78"/>
<polygon fill="black" stroke="black" points="1427.98,-41.07 1436.27,-34.47 1425.67,-34.46 1427.98,-41.07"/>
<text text-anchor="middle" x="659.23" y="-68.24" font-family="Times,serif" font-size="14.00">{c3}</text>
</g>
<!-- 4&#45;&gt;2 -->
<g id="edge12" class="edge">
<title>4&#45;&gt;2</title>
<path fill="none" stroke="black" d="M655.65,-98.59C664.81,-86.77 679.06,-71.5 695.73,-64.44 767.17,-34.18 1317.25,-59.5 1393.73,-46.44 1404.71,-44.56 1416.39,-41.23 1426.77,-37.77"/>
<polygon fill="black" stroke="black" points="1427.98,-41.06 1436.27,-34.46 1425.67,-34.45 1427.98,-41.06"/>
<text text-anchor="middle" x="709.23" y="-68.24" font-family="Times,serif" font-size="14.00">{c1}</text>
</g>
<!-- 4&#45;&gt;2 -->
<g id="edge13" class="edge">
<title>4&#45;&gt;2</title>
<path fill="none" stroke="black" d="M667.37,-105.39C683.18,-98.8 704.62,-89.33 722.73,-79.44 733.44,-73.59 734.08,-68.08 745.73,-64.44 814.48,-42.96 1322.74,-58.63 1393.73,-46.44 1404.71,-44.55 1416.39,-41.22 1426.77,-37.76"/>
<polygon fill="black" stroke="black" points="1427.98,-41.05 1436.27,-34.44 1425.67,-34.44 1427.98,-41.05"/>
<text text-anchor="middle" x="779.23" y="-68.24" font-family="Times,serif" font-size="14.00">{c1, c2, c3}</text>
</g>
<!-- 4&#45;&gt;2 -->
<g id="edge14" class="edge">
<title>4&#45;&gt;2</title>
<path fill="none" stroke="black" d="M671.23,-111.99C705.12,-108.18 765.09,-99.11 812.73,-79.44 824.01,-74.78 824.09,-68.1 835.73,-64.44 954.06,-27.17 1271.5,-67.72 1393.73,-46.44 1404.62,-44.54 1416.2,-41.24 1426.52,-37.81"/>
<polygon fill="black" stroke="black" points="1427.67,-41.12 1435.96,-34.53 1425.37,-34.51 1427.67,-41.12"/>
<text text-anchor="middle" x="849.23" y="-68.24" font-family="Times,serif" font-size="14.00">{c2}</text>
</g>
<!-- 4&#45;&gt;2 -->
<g id="edge15" class="edge">
<title>4&#45;&gt;2</title>
<path fill="none" stroke="black" d="M671.84,-113.69C714.01,-111.74 797.29,-104.71 862.73,-79.44 874.11,-75.04 874.09,-68.12 885.73,-64.44 993.42,-30.34 1282.47,-65.99 1393.73,-46.44 1404.62,-44.53 1416.19,-41.22 1426.51,-37.79"/>
<polygon fill="black" stroke="black" points="1427.66,-41.1 1435.96,-34.51 1425.36,-34.49 1427.66,-41.1"/>
<text text-anchor="middle" x="909.23" y="-68.24" font-family="Times,serif" font-size="14.00">{c1, c2}</text>
</g>
<!-- 4&#45;&gt;2 -->
<g id="edge16" class="edge">
<title>4&#45;&gt;2</title>
<path fill="none" stroke="black" d="M671.88,-115.17C724.08,-115.71 841.39,-112.72 932.73,-79.44 944.2,-75.26 944.1,-68.16 955.73,-64.44 1048.52,-34.77 1297.83,-63.57 1393.73,-46.44 1404.61,-44.49 1416.18,-41.18 1426.51,-37.76"/>
<polygon fill="black" stroke="black" points="1427.65,-41.06 1435.95,-34.48 1425.36,-34.45 1427.65,-41.06"/>
<text text-anchor="middle" x="979.23" y="-68.24" font-family="Times,serif" font-size="14.00">{c2, c3}</text>
</g>
<!-- 4&#45;&gt;2 -->
<g id="edge17" class="edge">
<title>4&#45;&gt;2</title>
<path fill="none" stroke="black" d="M671.83,-113.46C744.36,-110.57 941.6,-100.9 1002.73,-79.44 1014.24,-75.4 1014.12,-68.2 1025.73,-64.44 1103.62,-39.2 1313.19,-61.15 1393.73,-46.44 1404.49,-44.47 1415.94,-41.2 1426.18,-37.81"/>
<polygon fill="black" stroke="black" points="1427.64,-41.01 1435.94,-34.43 1425.35,-34.39 1427.64,-41.01"/>
<text text-anchor="middle" x="1049.23" y="-68.24" font-family="Times,serif" font-size="14.00">{c1, c3}</text>
</g>
<!-- 4&#45;&gt;4 -->
<g id="edge2" class="edge">
<title>4&#45;&gt;4</title>
<path fill="none" stroke="black" d="M669.26,-123.19C680.24,-123.93 689.73,-121.35 689.73,-115.44 689.73,-111.47 685.44,-109 679.3,-108.03"/>
<polygon fill="black" stroke="black" points="679.38,-104.53 669.26,-107.69 679.13,-111.53 679.38,-104.53"/>
<text text-anchor="middle" x="696.73" y="-111.74" font-family="Times,serif" font-size="14.00">{}</text>
</g>
<!-- 5 -->
<g id="node7" class="node">
<title>5</title>
<ellipse fill="none" stroke="black" cx="314.73" cy="-24.44" rx="18" ry="18"/>
<ellipse fill="none" stroke="black" cx="314.73" cy="-24.44" rx="22" ry="22"/>
<text text-anchor="middle" x="314.73" y="-20.74" font-family="Times,serif" font-size="14.00">5</text>
</g>
<!-- 4&#45;&gt;5 -->
<g id="edge3" class="edge">
<title>4&#45;&gt;5</title>
<path fill="none" stroke="black" d="M617.44,-113.98C497.97,-111.85 26.1,-102.01 4.73,-79.44 -34.44,-38.07 195.95,-28.27 282.69,-26.05"/>
<polygon fill="black" stroke="black" points="282.85,-29.55 292.77,-25.81 282.69,-22.55 282.85,-29.55"/>
<text text-anchor="middle" x="48.73" y="-68.24" font-family="Times,serif" font-size="14.00">{c0, c1, c2, c3}</text>
</g>
<!-- 4&#45;&gt;5 -->
<g id="edge4" class="edge">
<title>4&#45;&gt;5</title>
<path fill="none" stroke="black" d="M617.64,-114.76C514.48,-115.68 150.24,-116.31 115.73,-79.44 111.17,-74.57 111.49,-69.59 115.73,-64.44 136.46,-39.25 231.46,-30.09 282.34,-26.96"/>
<polygon fill="black" stroke="black" points="282.7,-30.44 292.48,-26.37 282.3,-23.45 282.7,-30.44"/>
<text text-anchor="middle" x="139.23" y="-68.24" font-family="Times,serif" font-size="14.00">{c0, c3}</text>
</g>
<!-- 4&#45;&gt;5 -->
<g id="edge5" class="edge">
<title>4&#45;&gt;5</title>
<path fill="none" stroke="black" d="M617.74,-114.46C523.8,-114.27 215.16,-111.2 185.73,-79.44 155.35,-46.66 235.36,-33.1 282.71,-28.07"/>
<polygon fill="black" stroke="black" points="283.22,-31.53 292.83,-27.07 282.54,-24.57 283.22,-31.53"/>
<text text-anchor="middle" x="219.23" y="-68.24" font-family="Times,serif" font-size="14.00">{c0, c2, c3}</text>
</g>
<!-- 4&#45;&gt;5 -->
<g id="edge6" class="edge">
<title>4&#45;&gt;5</title>
<path fill="none" stroke="black" d="M617.81,-113.93C536.67,-112.11 298.68,-104.67 275.73,-79.44 265.55,-68.25 275.96,-54.39 288.58,-43.51"/>
<polygon fill="black" stroke="black" points="290.9,-46.14 296.55,-37.18 286.55,-40.66 290.9,-46.14"/>
<text text-anchor="middle" x="299.23" y="-68.24" font-family="Times,serif" font-size="14.00">{c0, c2}</text>
</g>
<!-- 4&#45;&gt;5 -->
<g id="edge7" class="edge">
<title>4&#45;&gt;5</title>
<path fill="none" stroke="black" d="M617.76,-114.32C552.87,-113.56 390.12,-108.72 345.73,-79.44 336.79,-73.55 330.13,-64.14 325.33,-54.81"/>
<polygon fill="black" stroke="black" points="328.47,-53.27 321.12,-45.64 322.11,-56.19 328.47,-53.27"/>
<text text-anchor="middle" x="379.23" y="-68.24" font-family="Times,serif" font-size="14.00">{c0, c1, c3}</text>
</g>
<!-- 4&#45;&gt;5 -->
<g id="edge8" class="edge">
<title>4&#45;&gt;5</title>
<path fill="none" stroke="black" d="M617.74,-113.44C576.99,-111.16 497.94,-103.7 435.73,-79.44 424.36,-75 423.56,-70.06 412.73,-64.44 390.86,-53.1 364.9,-42.91 345.2,-35.79"/>
<polygon fill="black" stroke="black" points="346.12,-32.4 335.53,-32.35 343.78,-39 346.12,-32.4"/>
<text text-anchor="middle" x="449.23" y="-68.24" font-family="Times,serif" font-size="14.00">{c0}</text>
</g>
<!-- 4&#45;&gt;5 -->
<g id="edge9" class="edge">
<title>4&#45;&gt;5</title>
<path fill="none" stroke="black" d="M618.24,-111.57C585.94,-107.42 530.17,-98.09 485.73,-79.44 474.48,-74.72 473.88,-69.39 462.73,-64.44 424.49,-47.47 377.31,-36.62 346.65,-30.78"/>
<polygon fill="black" stroke="black" points="347,-27.29 336.53,-28.93 345.74,-34.17 347,-27.29"/>
<text text-anchor="middle" x="519.23" y="-68.24" font-family="Times,serif" font-size="14.00">{c0, c1, c2}</text>
</g>
<!-- 4&#45;&gt;5 -->
<g id="edge10" class="edge">
<title>4&#45;&gt;5</title>
<path fill="none" stroke="black" d="M623.27,-104.3C609.49,-97.61 591.32,-88.44 575.73,-79.44 565.16,-73.34 564.11,-68.85 552.73,-64.44 482.65,-37.25 393.83,-29.01 347,-26.52"/>
<polygon fill="black" stroke="black" points="347.01,-23.02 336.85,-26.04 346.68,-30.01 347.01,-23.02"/>
<text text-anchor="middle" x="599.23" y="-68.24" font-family="Times,serif" font-size="14.00">{c0, c1}</text>
</g>
<!-- 5&#45;&gt;5 -->
<g id="edge18" class="edge">
<title>5&#45;&gt;5</title>
<path fill="none" stroke="black" d="M336.94,-25.92C346.52,-26.04 354.73,-25.55 354.73,-24.44 354.73,-23.76 351.68,-23.32 347.13,-23.1"/>
<polygon fill="black" stroke="black" points="346.99,-19.59 336.94,-22.96 346.89,-26.59 346.99,-19.59"/>
<text text-anchor="middle" x="368.23" y="-20.74" font-family="Times,serif" font-size="14.00">{c1}</text>
</g>
<!-- 5&#45;&gt;5 -->
<g id="edge19" class="edge">
<title>5&#45;&gt;5</title>
<path fill="none" stroke="black" d="M336.76,-26.9C357.64,-28.1 381.73,-27.28 381.73,-24.44 381.73,-22.06 364.89,-21.1 347.17,-21.55"/>
<polygon fill="black" stroke="black" points="346.61,-18.07 336.76,-21.97 346.9,-25.06 346.61,-18.07"/>
<text text-anchor="middle" x="415.23" y="-20.74" font-family="Times,serif" font-size="14.00">{c1, c2, c3}</text>
</g>
<!-- 5&#45;&gt;5 -->
<g id="edge20" class="edge">
<title>5&#45;&gt;5</title>
<path fill="none" stroke="black" d="M336.79,-27.2C377.34,-30.22 448.73,-29.3 448.73,-24.44 448.73,-19.96 388.06,-18.82 346.81,-21.04"/>
<polygon fill="black" stroke="black" points="346.55,-17.55 336.79,-21.67 347,-24.53 346.55,-17.55"/>
<text text-anchor="middle" x="462.23" y="-20.74" font-family="Times,serif" font-size="14.00">{c2}</text>
</g>
<!-- 5&#45;&gt;5 -->
<g id="edge21" class="edge">
<title>5&#45;&gt;5</title>
<path fill="none" stroke="black" d="M336.75,-27.7C384.69,-32.23 475.73,-31.14 475.73,-24.44 475.73,-18.18 396.38,-16.82 346.83,-20.35"/>
<polygon fill="black" stroke="black" points="346.43,-16.87 336.75,-21.18 347,-23.85 346.43,-16.87"/>
<text text-anchor="middle" x="519.73" y="-20.74" font-family="Times,serif" font-size="14.00">{c0, c1, c2, c3}</text>
</g>
<!-- 5&#45;&gt;5 -->
<g id="edge22" class="edge">
<title>5&#45;&gt;5</title>
<path fill="none" stroke="black" d="M336.59,-27.76C402.39,-34.28 563.73,-33.17 563.73,-24.44 563.73,-16.13 417.76,-14.73 346.88,-20.21"/>
<polygon fill="black" stroke="black" points="346.24,-16.76 336.59,-21.11 346.85,-23.73 346.24,-16.76"/>
<text text-anchor="middle" x="577.23" y="-20.74" font-family="Times,serif" font-size="14.00">{c0}</text>
</g>
<!-- 5&#45;&gt;5 -->
<g id="edge23" class="edge">
<title>5&#45;&gt;5</title>
<path fill="none" stroke="black" d="M336.61,-28.11C408.59,-36.28 590.73,-35.06 590.73,-24.44 590.73,-14.3 424.59,-12.73 346.95,-19.72"/>
<polygon fill="black" stroke="black" points="346.2,-16.28 336.61,-20.77 346.91,-23.25 346.2,-16.28"/>
<text text-anchor="middle" x="614.23" y="-20.74" font-family="Times,serif" font-size="14.00">{c2, c3}</text>
</g>
<!-- 5&#45;&gt;5 -->
<g id="edge24" class="edge">
<title>5&#45;&gt;5</title>
<path fill="none" stroke="black" d="M336.44,-28.3C417.31,-38.29 637.73,-37 637.73,-24.44 637.73,-12.37 434.19,-10.7 346.54,-19.45"/>
<polygon fill="black" stroke="black" points="346,-15.99 336.44,-20.57 346.77,-22.95 346,-15.99"/>
<text text-anchor="middle" x="644.73" y="-20.74" font-family="Times,serif" font-size="14.00">{}</text>
</g>
<!-- 5&#45;&gt;5 -->
<g id="edge25" class="edge">
<title>5&#45;&gt;5</title>
<path fill="none" stroke="black" d="M336.49,-28.59C422.12,-40.29 655.73,-38.91 655.73,-24.44 655.73,-10.51 439.14,-8.71 346.62,-19.04"/>
<polygon fill="black" stroke="black" points="345.99,-15.59 336.49,-20.28 346.85,-22.53 345.99,-15.59"/>
<text text-anchor="middle" x="689.23" y="-20.74" font-family="Times,serif" font-size="14.00">{c0, c2, c3}</text>
</g>
<!-- 5&#45;&gt;5 -->
<g id="edge26" class="edge">
<title>5&#45;&gt;5</title>
<path fill="none" stroke="black" d="M336.46,-28.68C433.08,-42.31 722.73,-40.89 722.73,-24.44 722.73,-8.52 451.45,-6.68 346.39,-18.93"/>
<polygon fill="black" stroke="black" points="345.94,-15.46 336.46,-20.2 346.83,-22.4 345.94,-15.46"/>
<text text-anchor="middle" x="746.23" y="-20.74" font-family="Times,serif" font-size="14.00">{c0, c2}</text>
</g>
<!-- 5&#45;&gt;5 -->
<g id="edge27" class="edge">
<title>5&#45;&gt;5</title>
<path fill="none" stroke="black" d="M336.37,-28.81C440.97,-44.31 769.73,-42.86 769.73,-24.44 769.73,-6.58 460.57,-4.67 346.47,-18.71"/>
<polygon fill="black" stroke="black" points="345.81,-15.26 336.37,-20.07 346.75,-22.2 345.81,-15.26"/>
<text text-anchor="middle" x="783.23" y="-20.74" font-family="Times,serif" font-size="14.00">{c3}</text>
</g>
<!-- 5&#45;&gt;5 -->
<g id="edge28" class="edge">
<title>5&#45;&gt;5</title>
<path fill="none" stroke="black" d="M336.29,-28.97C446.47,-46.32 796.73,-44.81 796.73,-24.44 796.73,-4.65 466.03,-2.66 346.22,-18.48"/>
<polygon fill="black" stroke="black" points="345.69,-15.02 336.29,-19.9 346.69,-21.94 345.69,-15.02"/>
<text text-anchor="middle" x="820.23" y="-20.74" font-family="Times,serif" font-size="14.00">{c1, c3}</text>
</g>
<!-- 5&#45;&gt;5 -->
<g id="edge29" class="edge">
<title>5&#45;&gt;5</title>
<path fill="none" stroke="black" d="M336.3,-29.08C454.26,-48.32 843.73,-46.77 843.73,-24.44 843.73,-2.71 475.26,-0.65 346.57,-18.26"/>
<polygon fill="black" stroke="black" points="345.67,-14.86 336.3,-19.79 346.71,-21.78 345.67,-14.86"/>
<text text-anchor="middle" x="877.23" y="-20.74" font-family="Times,serif" font-size="14.00">{c0, c1, c3}</text>
</g>
<!-- 5&#45;&gt;5 -->
<g id="edge30" class="edge">
<title>5&#45;&gt;5</title>
<path fill="none" stroke="black" d="M336.28,-29.14C463.77,-50.33 910.73,-48.76 910.73,-24.44 910.73,-0.71 485.33,1.36 346.18,-18.22"/>
<polygon fill="black" stroke="black" points="345.64,-14.77 336.28,-19.74 346.69,-21.69 345.64,-14.77"/>
<text text-anchor="middle" x="944.23" y="-20.74" font-family="Times,serif" font-size="14.00">{c0, c1, c2}</text>
</g>
<!-- 5&#45;&gt;5 -->
<g id="edge31" class="edge">
<title>5&#45;&gt;5</title>
<path fill="none" stroke="black" d="M336.37,-29.22C473.19,-52.34 977.73,-50.74 977.73,-24.44 977.73,1.25 496.56,3.37 346.58,-18.08"/>
<polygon fill="black" stroke="black" points="345.71,-14.67 336.37,-19.66 346.79,-21.59 345.71,-14.67"/>
<text text-anchor="middle" x="1001.23" y="-20.74" font-family="Times,serif" font-size="14.00">{c0, c1}</text>
</g>
<!-- 5&#45;&gt;5 -->
<g id="edge32" class="edge">
<title>5&#45;&gt;5</title>
<path fill="none" stroke="black" d="M336.47,-29.33C480.63,-54.34 1024.73,-52.71 1024.73,-24.44 1024.73,3.2 504.8,5.37 346.78,-17.91"/>
<polygon fill="black" stroke="black" points="345.79,-14.52 336.47,-19.55 346.9,-21.43 345.79,-14.52"/>
<text text-anchor="middle" x="1048.23" y="-20.74" font-family="Times,serif" font-size="14.00">{c1, c2}</text>
</g>
<!-- 5&#45;&gt;5 -->
<g id="edge33" class="edge">
<title>5&#45;&gt;5</title>
<path fill="none" stroke="black" d="M336.42,-29.4C487.6,-56.34 1071.73,-54.69 1071.73,-24.44 1071.73,5.16 512.43,7.38 346.76,-17.78"/>
<polygon fill="black" stroke="black" points="345.72,-14.4 336.42,-19.48 346.86,-21.31 345.72,-14.4"/>
<text text-anchor="middle" x="1095.23" y="-20.74" font-family="Times,serif" font-size="14.00">{c0, c3}</text>
</g>
</g>
</svg>
