<?xml version="1.0" encoding="UTF-8" standalone="no"?>
<!DOCTYPE svg PUBLIC "-//W3C//DTD SVG 1.1//EN"
 "http://www.w3.org/Graphics/SVG/1.1/DTD/svg11.dtd">
<!-- Generated by graphviz version 2.43.0 (0)
 -->
<!-- Title: %3 Pages: 1 -->
<svg width="999pt" height="386pt"
 viewBox="0.00 0.00 998.95 386.00" xmlns="http://www.w3.org/2000/svg" xmlns:xlink="http://www.w3.org/1999/xlink">
<g id="graph0" class="graph" transform="scale(1 1) rotate(0) translate(4 382)">
<title>%3</title>
<polygon fill="white" stroke="transparent" points="-4,4 -4,-382 994.95,-382 994.95,4 -4,4"/>
<!-- fake -->
<g id="node1" class="node">
<title>fake</title>
</g>
<!-- 0 -->
<g id="node2" class="node">
<title>0</title>
<ellipse fill="none" stroke="black" cx="540.95" cy="-287" rx="27" ry="18"/>
<text text-anchor="middle" x="540.95" y="-283.3" font-family="Times,serif" font-size="14.00">0</text>
</g>
<!-- fake&#45;&gt;0 -->
<g id="edge1" class="edge">
<title>fake&#45;&gt;0</title>
<path fill="none" stroke="black" stroke-width="2" d="M540.95,-341.81C540.95,-333.79 540.95,-324.05 540.95,-315.07"/>
<polygon fill="black" stroke="black" stroke-width="2" points="544.45,-315.03 540.95,-305.03 537.45,-315.03 544.45,-315.03"/>
</g>
<!-- 0&#45;&gt;0 -->
<g id="edge5" class="edge">
<title>0&#45;&gt;0</title>
<path fill="none" stroke="black" d="M566.39,-293.69C576.98,-294.15 585.95,-291.92 585.95,-287 585.95,-283.77 582.09,-281.7 576.44,-280.79"/>
<polygon fill="black" stroke="black" points="576.55,-277.29 566.39,-280.31 576.21,-284.28 576.55,-277.29"/>
<text text-anchor="middle" x="592.95" y="-283.3" font-family="Times,serif" font-size="14.00">{}</text>
</g>
<!-- 1 -->
<g id="node3" class="node">
<title>1</title>
<ellipse fill="none" stroke="black" cx="410.95" cy="-200" rx="27" ry="18"/>
<text text-anchor="middle" x="410.95" y="-196.3" font-family="Times,serif" font-size="14.00">1</text>
</g>
<!-- 0&#45;&gt;1 -->
<g id="edge2" class="edge">
<title>0&#45;&gt;1</title>
<path fill="none" stroke="black" d="M513.8,-285.31C464.95,-283.43 365.31,-276.49 343.95,-251 330.33,-234.74 354.09,-220.76 376.99,-211.74"/>
<polygon fill="black" stroke="black" points="378.46,-214.93 386.64,-208.19 376.05,-208.36 378.46,-214.93"/>
<text text-anchor="middle" x="374.45" y="-239.8" font-family="Times,serif" font-size="14.00">{t0, t1, t2}</text>
</g>
<!-- 0&#45;&gt;1 -->
<g id="edge3" class="edge">
<title>0&#45;&gt;1</title>
<path fill="none" stroke="black" d="M514.17,-284.49C488.8,-281.66 451.21,-273.63 427.95,-251 421.69,-244.91 417.73,-236.43 415.24,-228.18"/>
<polygon fill="black" stroke="black" points="418.62,-227.29 412.85,-218.41 411.82,-228.95 418.62,-227.29"/>
<text text-anchor="middle" x="440.45" y="-239.8" font-family="Times,serif" font-size="14.00">{t0}</text>
</g>
<!-- 0&#45;&gt;1 -->
<g id="edge4" class="edge">
<title>0&#45;&gt;1</title>
<path fill="none" stroke="black" d="M519.67,-275.64C506.73,-269.08 490.04,-260.13 475.95,-251 461.77,-241.82 446.78,-230.41 434.77,-220.81"/>
<polygon fill="black" stroke="black" points="436.95,-218.07 426.98,-214.5 432.55,-223.51 436.95,-218.07"/>
<text text-anchor="middle" x="497.45" y="-239.8" font-family="Times,serif" font-size="14.00">{t0, t1}</text>
</g>
<!-- 0&#45;&gt;1 -->
<g id="edge6" class="edge">
<title>0&#45;&gt;1</title>
<path fill="none" stroke="black" d="M537.29,-269.04C534.13,-258.22 528.52,-244.65 518.95,-236 499.29,-218.24 470.5,-209.48 447.59,-205.17"/>
<polygon fill="black" stroke="black" points="447.97,-201.68 437.53,-203.48 446.82,-208.58 447.97,-201.68"/>
<text text-anchor="middle" x="550.45" y="-239.8" font-family="Times,serif" font-size="14.00">{t0, t2}</text>
</g>
<!-- 2 -->
<g id="node4" class="node">
<title>2</title>
<ellipse fill="none" stroke="black" cx="540.95" cy="-22" rx="27" ry="18"/>
<text text-anchor="middle" x="540.95" y="-18.3" font-family="Times,serif" font-size="14.00">2</text>
</g>
<!-- 0&#45;&gt;2 -->
<g id="edge7" class="edge">
<title>0&#45;&gt;2</title>
<path fill="none" stroke="black" d="M558.59,-273.35C565.36,-267.42 572.33,-259.73 575.95,-251 578.5,-244.84 576.21,-242.66 575.95,-236 573.5,-173.19 576.58,-156.77 564.95,-95 562.11,-79.94 559.76,-76.55 554.95,-62 553.58,-57.85 552.07,-53.47 550.56,-49.21"/>
<polygon fill="black" stroke="black" points="553.8,-47.87 547.13,-39.64 547.21,-50.23 553.8,-47.87"/>
<text text-anchor="middle" x="585.45" y="-152.8" font-family="Times,serif" font-size="14.00">{t1}</text>
</g>
<!-- 0&#45;&gt;2 -->
<g id="edge8" class="edge">
<title>0&#45;&gt;2</title>
<path fill="none" stroke="black" d="M562.5,-275.8C572.47,-269.96 583.51,-261.65 589.95,-251 613.57,-211.94 609.72,-193.98 601.95,-149 594.96,-108.55 590.59,-98.04 570.95,-62 567.96,-56.52 564.24,-51 560.44,-45.89"/>
<polygon fill="black" stroke="black" points="563.02,-43.51 554.1,-37.79 557.51,-47.82 563.02,-43.51"/>
<text text-anchor="middle" x="625.45" y="-152.8" font-family="Times,serif" font-size="14.00">{t1, t2}</text>
</g>
<!-- 0&#45;&gt;2 -->
<g id="edge9" class="edge">
<title>0&#45;&gt;2</title>
<path fill="none" stroke="black" d="M564.28,-277.79C578.05,-272.01 595.05,-263.13 606.95,-251 641.52,-215.75 666.17,-195.97 650.95,-149 636.18,-103.44 594.78,-64.28 567.2,-42.19"/>
<polygon fill="black" stroke="black" points="569.16,-39.29 559.13,-35.9 564.86,-44.81 569.16,-39.29"/>
<text text-anchor="middle" x="666.45" y="-152.8" font-family="Times,serif" font-size="14.00">{t2}</text>
</g>
<!-- 1&#45;&gt;1 -->
<g id="edge11" class="edge">
<title>1&#45;&gt;1</title>
<path fill="none" stroke="black" d="M435.48,-207.75C446.46,-208.49 455.95,-205.91 455.95,-200 455.95,-196.03 451.66,-193.56 445.52,-192.59"/>
<polygon fill="black" stroke="black" points="445.6,-189.09 435.48,-192.25 445.36,-196.09 445.6,-189.09"/>
<text text-anchor="middle" x="462.95" y="-196.3" font-family="Times,serif" font-size="14.00">{}</text>
</g>
<!-- 1&#45;&gt;2 -->
<g id="edge15" class="edge">
<title>1&#45;&gt;2</title>
<path fill="none" stroke="black" d="M409.09,-181.69C407.61,-159.75 408.07,-121.62 424.95,-95 427.68,-90.7 479.01,-59.73 512.47,-39.83"/>
<polygon fill="black" stroke="black" points="514.56,-42.66 521.38,-34.55 510.99,-36.64 514.56,-42.66"/>
<text text-anchor="middle" x="446.45" y="-109.3" font-family="Times,serif" font-size="14.00">{t0, t2}</text>
</g>
<!-- 1&#45;&gt;2 -->
<g id="edge16" class="edge">
<title>1&#45;&gt;2</title>
<path fill="none" stroke="black" d="M424.08,-184.24C435.94,-170.7 453.67,-149.94 467.95,-131 488.9,-103.21 511.03,-69.82 525.36,-47.6"/>
<polygon fill="black" stroke="black" points="528.36,-49.4 530.81,-39.1 522.47,-45.63 528.36,-49.4"/>
<text text-anchor="middle" x="505.45" y="-109.3" font-family="Times,serif" font-size="14.00">{t0}</text>
</g>
<!-- 1&#45;&gt;2 -->
<g id="edge17" class="edge">
<title>1&#45;&gt;2</title>
<path fill="none" stroke="black" d="M434.63,-191.19C460.43,-181.4 500.84,-162.01 521.95,-131 538.13,-107.22 541.83,-73.9 542.15,-50.57"/>
<polygon fill="black" stroke="black" points="545.64,-50.3 542.08,-40.32 538.65,-50.35 545.64,-50.3"/>
<text text-anchor="middle" x="548.45" y="-109.3" font-family="Times,serif" font-size="14.00">{t2}</text>
</g>
<!-- 3 -->
<g id="node5" class="node">
<title>3</title>
<ellipse fill="none" stroke="black" cx="220.95" cy="-113" rx="27" ry="18"/>
<text text-anchor="middle" x="220.95" y="-109.3" font-family="Times,serif" font-size="14.00">3</text>
</g>
<!-- 1&#45;&gt;3 -->
<g id="edge10" class="edge">
<title>1&#45;&gt;3</title>
<path fill="none" stroke="black" d="M383.9,-199.54C324.44,-200.1 185.32,-197.68 155.95,-164 142.36,-148.41 165.11,-134.42 187.35,-125.23"/>
<polygon fill="black" stroke="black" points="188.68,-128.47 196.74,-121.59 186.15,-121.94 188.68,-128.47"/>
<text text-anchor="middle" x="177.45" y="-152.8" font-family="Times,serif" font-size="14.00">{t0, t1}</text>
</g>
<!-- 1&#45;&gt;3 -->
<g id="edge12" class="edge">
<title>1&#45;&gt;3</title>
<path fill="none" stroke="black" d="M383.83,-198.04C336.64,-195.74 242.47,-188.17 221.95,-164 216.66,-157.76 215.12,-149.34 215.3,-141.2"/>
<polygon fill="black" stroke="black" points="218.79,-141.5 216.28,-131.2 211.82,-140.81 218.79,-141.5"/>
<text text-anchor="middle" x="243.45" y="-152.8" font-family="Times,serif" font-size="14.00">{t1, t2}</text>
</g>
<!-- 1&#45;&gt;3 -->
<g id="edge13" class="edge">
<title>1&#45;&gt;3</title>
<path fill="none" stroke="black" d="M384.98,-194.47C359.38,-189.36 319.59,-179.65 287.95,-164 279.11,-159.63 260.79,-145.82 245.53,-133.82"/>
<polygon fill="black" stroke="black" points="247.46,-130.88 237.45,-127.41 243.11,-136.36 247.46,-130.88"/>
<text text-anchor="middle" x="300.45" y="-152.8" font-family="Times,serif" font-size="14.00">{t1}</text>
</g>
<!-- 1&#45;&gt;3 -->
<g id="edge14" class="edge">
<title>1&#45;&gt;3</title>
<path fill="none" stroke="black" d="M388.55,-189.54C373.43,-182.91 353.16,-173.56 335.95,-164 325.28,-158.07 323.83,-154.53 312.95,-149 294.36,-139.54 272.59,-131.15 254.89,-124.95"/>
<polygon fill="black" stroke="black" points="255.59,-121.49 244.99,-121.57 253.32,-128.11 255.59,-121.49"/>
<text text-anchor="middle" x="366.45" y="-152.8" font-family="Times,serif" font-size="14.00">{t0, t1, t2}</text>
</g>
<!-- 2&#45;&gt;2 -->
<g id="edge34" class="edge">
<title>2&#45;&gt;2</title>
<path fill="none" stroke="black" d="M568.19,-23.5C577.97,-23.53 585.95,-23.03 585.95,-22 585.95,-21.37 582.99,-20.94 578.46,-20.71"/>
<polygon fill="black" stroke="black" points="578.26,-17.2 568.19,-20.5 578.12,-24.2 578.26,-17.2"/>
<text text-anchor="middle" x="598.45" y="-18.3" font-family="Times,serif" font-size="14.00">{t1}</text>
</g>
<!-- 2&#45;&gt;2 -->
<g id="edge35" class="edge">
<title>2&#45;&gt;2</title>
<path fill="none" stroke="black" d="M567.94,-24.65C588.83,-25.57 610.95,-24.69 610.95,-22 610.95,-19.75 595.49,-18.77 578.22,-19.05"/>
<polygon fill="black" stroke="black" points="577.84,-15.56 567.94,-19.35 578.05,-22.55 577.84,-15.56"/>
<text text-anchor="middle" x="632.45" y="-18.3" font-family="Times,serif" font-size="14.00">{t1, t2}</text>
</g>
<!-- 2&#45;&gt;2 -->
<g id="edge36" class="edge">
<title>2&#45;&gt;2</title>
<path fill="none" stroke="black" d="M567.52,-25.21C603.28,-27.68 653.95,-26.61 653.95,-22 653.95,-17.83 612.34,-16.56 577.91,-18.19"/>
<polygon fill="black" stroke="black" points="577.3,-14.72 567.52,-18.79 577.7,-21.71 577.3,-14.72"/>
<text text-anchor="middle" x="684.45" y="-18.3" font-family="Times,serif" font-size="14.00">{t0, t1, t2}</text>
</g>
<!-- 2&#45;&gt;2 -->
<g id="edge37" class="edge">
<title>2&#45;&gt;2</title>
<path fill="none" stroke="black" d="M567.75,-25.54C620.07,-29.74 714.95,-28.56 714.95,-22 714.95,-15.85 631.56,-14.43 578.03,-17.74"/>
<polygon fill="black" stroke="black" points="577.48,-14.27 567.75,-18.46 577.98,-21.25 577.48,-14.27"/>
<text text-anchor="middle" x="736.45" y="-18.3" font-family="Times,serif" font-size="14.00">{t0, t2}</text>
</g>
<!-- 2&#45;&gt;2 -->
<g id="edge38" class="edge">
<title>2&#45;&gt;2</title>
<path fill="none" stroke="black" d="M567.33,-25.87C630.05,-31.77 757.95,-30.48 757.95,-22 757.95,-13.95 642.71,-12.38 577.36,-17.28"/>
<polygon fill="black" stroke="black" points="577,-13.8 567.33,-18.13 577.59,-20.78 577,-13.8"/>
<text text-anchor="middle" x="770.45" y="-18.3" font-family="Times,serif" font-size="14.00">{t0}</text>
</g>
<!-- 2&#45;&gt;2 -->
<g id="edge39" class="edge">
<title>2&#45;&gt;2</title>
<path fill="none" stroke="black" d="M567.51,-26.3C636.8,-33.77 782.95,-32.34 782.95,-22 782.95,-12.15 650.18,-10.38 577.74,-16.71"/>
<polygon fill="black" stroke="black" points="577.12,-13.25 567.51,-17.7 577.8,-20.22 577.12,-13.25"/>
<text text-anchor="middle" x="804.45" y="-18.3" font-family="Times,serif" font-size="14.00">{t0, t1}</text>
</g>
<!-- 2&#45;&gt;2 -->
<g id="edge40" class="edge">
<title>2&#45;&gt;2</title>
<path fill="none" stroke="black" d="M567.31,-26.53C645.99,-35.79 825.95,-34.28 825.95,-22 825.95,-10.23 660.45,-8.35 577.48,-16.38"/>
<polygon fill="black" stroke="black" points="576.88,-12.93 567.31,-17.47 577.63,-19.89 576.88,-12.93"/>
<text text-anchor="middle" x="832.95" y="-18.3" font-family="Times,serif" font-size="14.00">{}</text>
</g>
<!-- 2&#45;&gt;2 -->
<g id="edge41" class="edge">
<title>2&#45;&gt;2</title>
<path fill="none" stroke="black" d="M566.96,-26.82C650.53,-37.79 843.95,-36.19 843.95,-22 843.95,-8.35 664.98,-6.35 576.97,-15.98"/>
<polygon fill="black" stroke="black" points="576.48,-12.51 566.96,-17.18 577.31,-19.46 576.48,-12.51"/>
<text text-anchor="middle" x="856.45" y="-18.3" font-family="Times,serif" font-size="14.00">{t2}</text>
</g>
<!-- 3&#45;&gt;2 -->
<g id="edge31" class="edge">
<title>3&#45;&gt;2</title>
<path fill="none" stroke="black" d="M231.18,-95.91C239.54,-84.3 252.47,-69.4 267.95,-62 315.6,-39.21 454.52,-59.71 504.95,-44 507.96,-43.06 510.99,-41.83 513.95,-40.44"/>
<polygon fill="black" stroke="black" points="515.84,-43.4 523.01,-35.6 512.54,-37.22 515.84,-43.4"/>
<text text-anchor="middle" x="280.45" y="-65.8" font-family="Times,serif" font-size="14.00">{t1}</text>
</g>
<!-- 3&#45;&gt;2 -->
<g id="edge32" class="edge">
<title>3&#45;&gt;2</title>
<path fill="none" stroke="black" d="M242.74,-102.28C257.21,-95.61 276.5,-86.31 292.95,-77 303.57,-70.99 304.43,-66.03 315.95,-62 395.6,-34.14 424.63,-69.86 504.95,-44 507.95,-43.03 510.98,-41.79 513.93,-40.38"/>
<polygon fill="black" stroke="black" points="515.83,-43.33 522.99,-35.52 512.52,-37.17 515.83,-43.33"/>
<text text-anchor="middle" x="328.45" y="-65.8" font-family="Times,serif" font-size="14.00">{t0}</text>
</g>
<!-- 3&#45;&gt;2 -->
<g id="edge33" class="edge">
<title>3&#45;&gt;2</title>
<path fill="none" stroke="black" d="M246.55,-106.84C271.39,-101.3 309.79,-91.32 340.95,-77 352.04,-71.9 352.5,-66.21 363.95,-62 423.24,-40.19 445.13,-64.32 504.95,-44 507.87,-43.01 510.82,-41.76 513.7,-40.38"/>
<polygon fill="black" stroke="black" points="515.42,-43.43 522.58,-35.62 512.11,-37.26 515.42,-43.43"/>
<text text-anchor="middle" x="385.45" y="-65.8" font-family="Times,serif" font-size="14.00">{t0, t1}</text>
</g>
<!-- 3&#45;&gt;3 -->
<g id="edge27" class="edge">
<title>3&#45;&gt;3</title>
<path fill="none" stroke="black" d="M245.48,-120.75C256.46,-121.49 265.95,-118.91 265.95,-113 265.95,-109.03 261.66,-106.56 255.52,-105.59"/>
<polygon fill="black" stroke="black" points="255.6,-102.09 245.48,-105.25 255.36,-109.09 255.6,-102.09"/>
<text text-anchor="middle" x="272.95" y="-109.3" font-family="Times,serif" font-size="14.00">{}</text>
</g>
<!-- 4 -->
<g id="node6" class="node">
<title>4</title>
<ellipse fill="none" stroke="black" cx="50.95" cy="-22" rx="18" ry="18"/>
<ellipse fill="none" stroke="black" cx="50.95" cy="-22" rx="22" ry="22"/>
<text text-anchor="middle" x="50.95" y="-18.3" font-family="Times,serif" font-size="14.00">4</text>
</g>
<!-- 3&#45;&gt;4 -->
<g id="edge26" class="edge">
<title>3&#45;&gt;4</title>
<path fill="none" stroke="black" d="M193.97,-111.81C141.35,-110.81 28.07,-105.33 3.95,-77 -7.13,-63.99 7.26,-49.37 22.95,-38.63"/>
<polygon fill="black" stroke="black" points="25.09,-41.42 31.65,-33.1 21.33,-35.51 25.09,-41.42"/>
<text text-anchor="middle" x="16.45" y="-65.8" font-family="Times,serif" font-size="14.00">{t2}</text>
</g>
<!-- 3&#45;&gt;4 -->
<g id="edge28" class="edge">
<title>3&#45;&gt;4</title>
<path fill="none" stroke="black" d="M193.94,-110.39C150.89,-107.2 69.74,-98.45 51.95,-77 46.59,-70.54 44.85,-61.98 44.87,-53.6"/>
<polygon fill="black" stroke="black" points="48.36,-53.83 45.63,-43.6 41.38,-53.31 48.36,-53.83"/>
<text text-anchor="middle" x="73.45" y="-65.8" font-family="Times,serif" font-size="14.00">{t1, t2}</text>
</g>
<!-- 3&#45;&gt;4 -->
<g id="edge29" class="edge">
<title>3&#45;&gt;4</title>
<path fill="none" stroke="black" d="M195.79,-106.1C174.28,-100.45 142.94,-90.75 117.95,-77 102.06,-68.26 86.17,-55.66 73.86,-44.83"/>
<polygon fill="black" stroke="black" points="76.09,-42.13 66.32,-38.03 71.4,-47.33 76.09,-42.13"/>
<text text-anchor="middle" x="139.45" y="-65.8" font-family="Times,serif" font-size="14.00">{t0, t2}</text>
</g>
<!-- 3&#45;&gt;4 -->
<g id="edge30" class="edge">
<title>3&#45;&gt;4</title>
<path fill="none" stroke="black" d="M206.76,-97.67C195.25,-86.68 178.15,-71.8 160.95,-62 135.91,-47.74 104.74,-37.29 81.98,-30.81"/>
<polygon fill="black" stroke="black" points="82.74,-27.39 72.17,-28.12 80.89,-34.14 82.74,-27.39"/>
<text text-anchor="middle" x="213.45" y="-65.8" font-family="Times,serif" font-size="14.00">{t0, t1, t2}</text>
</g>
<!-- 4&#45;&gt;4 -->
<g id="edge18" class="edge">
<title>4&#45;&gt;4</title>
<path fill="none" stroke="black" d="M73.16,-23.48C82.74,-23.6 90.95,-23.11 90.95,-22 90.95,-21.32 87.9,-20.88 83.35,-20.66"/>
<polygon fill="black" stroke="black" points="83.21,-17.16 73.16,-20.52 83.11,-24.15 83.21,-17.16"/>
<text text-anchor="middle" x="103.45" y="-18.3" font-family="Times,serif" font-size="14.00">{t1}</text>
</g>
<!-- 4&#45;&gt;4 -->
<g id="edge19" class="edge">
<title>4&#45;&gt;4</title>
<path fill="none" stroke="black" d="M72.91,-24.49C93.12,-25.66 115.95,-24.83 115.95,-22 115.95,-19.64 100,-18.67 82.96,-19.1"/>
<polygon fill="black" stroke="black" points="82.76,-15.6 72.91,-19.51 83.05,-22.6 82.76,-15.6"/>
<text text-anchor="middle" x="128.45" y="-18.3" font-family="Times,serif" font-size="14.00">{t2}</text>
</g>
<!-- 4&#45;&gt;4 -->
<g id="edge20" class="edge">
<title>4&#45;&gt;4</title>
<path fill="none" stroke="black" d="M73.02,-25.15C102.27,-27.69 140.95,-26.64 140.95,-22 140.95,-17.89 110.53,-16.59 83.25,-18.12"/>
<polygon fill="black" stroke="black" points="82.74,-14.65 73.02,-18.85 83.24,-21.63 82.74,-14.65"/>
<text text-anchor="middle" x="147.95" y="-18.3" font-family="Times,serif" font-size="14.00">{}</text>
</g>
<!-- 4&#45;&gt;4 -->
<g id="edge21" class="edge">
<title>4&#45;&gt;4</title>
<path fill="none" stroke="black" d="M72.81,-25.69C108.58,-29.71 158.95,-28.48 158.95,-22 158.95,-16.12 117.58,-14.56 83.2,-17.32"/>
<polygon fill="black" stroke="black" points="82.43,-13.88 72.81,-18.31 83.1,-20.85 82.43,-13.88"/>
<text text-anchor="middle" x="180.45" y="-18.3" font-family="Times,serif" font-size="14.00">{t0, t2}</text>
</g>
<!-- 4&#45;&gt;4 -->
<g id="edge22" class="edge">
<title>4&#45;&gt;4</title>
<path fill="none" stroke="black" d="M72.65,-25.87C120.28,-31.77 201.95,-30.48 201.95,-22 201.95,-14.1 131.06,-12.44 82.86,-17.02"/>
<polygon fill="black" stroke="black" points="82.22,-13.57 72.65,-18.13 82.97,-20.53 82.22,-13.57"/>
<text text-anchor="middle" x="232.45" y="-18.3" font-family="Times,serif" font-size="14.00">{t0, t1, t2}</text>
</g>
<!-- 4&#45;&gt;4 -->
<g id="edge23" class="edge">
<title>4&#45;&gt;4</title>
<path fill="none" stroke="black" d="M72.91,-25.99C134.39,-33.81 262.95,-32.48 262.95,-22 262.95,-12.08 147.59,-10.36 83.17,-16.85"/>
<polygon fill="black" stroke="black" points="82.45,-13.41 72.91,-18.01 83.24,-20.36 82.45,-13.41"/>
<text text-anchor="middle" x="284.45" y="-18.3" font-family="Times,serif" font-size="14.00">{t0, t1}</text>
</g>
<!-- 4&#45;&gt;4 -->
<g id="edge24" class="edge">
<title>4&#45;&gt;4</title>
<path fill="none" stroke="black" d="M72.74,-26.16C143.53,-35.83 305.95,-34.44 305.95,-22 305.95,-10.12 157.79,-8.32 82.81,-16.61"/>
<polygon fill="black" stroke="black" points="82.24,-13.15 72.74,-17.84 83.09,-20.1 82.24,-13.15"/>
<text text-anchor="middle" x="318.45" y="-18.3" font-family="Times,serif" font-size="14.00">{t0}</text>
</g>
<!-- 4&#45;&gt;4 -->
<g id="edge25" class="edge">
<title>4&#45;&gt;4</title>
<path fill="none" stroke="black" d="M72.64,-26.38C149.6,-37.83 330.95,-36.38 330.95,-22 330.95,-8.21 164.17,-6.31 82.61,-16.28"/>
<polygon fill="black" stroke="black" points="82.08,-12.82 72.64,-17.62 83.01,-19.75 82.08,-12.82"/>
<text text-anchor="middle" x="352.45" y="-18.3" font-family="Times,serif" font-size="14.00">{t1, t2}</text>
</g>
</g>
</svg>
