<?xml version="1.0" encoding="UTF-8" standalone="no"?>
<!DOCTYPE svg PUBLIC "-//W3C//DTD SVG 1.1//EN"
 "http://www.w3.org/Graphics/SVG/1.1/DTD/svg11.dtd">
<!-- Generated by graphviz version 2.43.0 (0)
 -->
<!-- Title: %3 Pages: 1 -->
<svg width="2402pt" height="475pt"
 viewBox="0.00 0.00 2402.20 475.44" xmlns="http://www.w3.org/2000/svg" xmlns:xlink="http://www.w3.org/1999/xlink">
<g id="graph0" class="graph" transform="scale(1 1) rotate(0) translate(4 471.44)">
<title>%3</title>
<polygon fill="white" stroke="transparent" points="-4,4 -4,-471.44 2398.2,-471.44 2398.2,4 -4,4"/>
<!-- fake -->
<g id="node1" class="node">
<title>fake</title>
</g>
<!-- 0 -->
<g id="node2" class="node">
<title>0</title>
<ellipse fill="none" stroke="black" cx="1768.2" cy="-376.44" rx="27" ry="18"/>
<text text-anchor="middle" x="1768.2" y="-372.74" font-family="Times,serif" font-size="14.00">0</text>
</g>
<!-- fake&#45;&gt;0 -->
<g id="edge1" class="edge">
<title>fake&#45;&gt;0</title>
<path fill="none" stroke="black" stroke-width="2" d="M1768.2,-431.26C1768.2,-423.23 1768.2,-413.49 1768.2,-404.51"/>
<polygon fill="black" stroke="black" stroke-width="2" points="1771.7,-404.47 1768.2,-394.47 1764.7,-404.47 1771.7,-404.47"/>
</g>
<!-- 0&#45;&gt;0 -->
<g id="edge6" class="edge">
<title>0&#45;&gt;0</title>
<path fill="none" stroke="black" d="M1793.64,-383.13C1804.23,-383.59 1813.2,-381.36 1813.2,-376.44 1813.2,-373.21 1809.34,-371.14 1803.69,-370.23"/>
<polygon fill="black" stroke="black" points="1803.8,-366.73 1793.64,-369.75 1803.47,-373.72 1803.8,-366.73"/>
<text text-anchor="middle" x="1820.2" y="-372.74" font-family="Times,serif" font-size="14.00">{}</text>
</g>
<!-- 1 -->
<g id="node3" class="node">
<title>1</title>
<ellipse fill="none" stroke="black" cx="1420.2" cy="-289.44" rx="27" ry="18"/>
<text text-anchor="middle" x="1420.2" y="-285.74" font-family="Times,serif" font-size="14.00">1</text>
</g>
<!-- 0&#45;&gt;1 -->
<g id="edge2" class="edge">
<title>0&#45;&gt;1</title>
<path fill="none" stroke="black" d="M1740.96,-375.75C1638.11,-376.61 1277.41,-377.01 1243.2,-340.44 1201.66,-296.05 1319.82,-290.03 1383.11,-289.86"/>
<polygon fill="black" stroke="black" points="1383.12,-293.36 1393.13,-289.88 1383.14,-286.36 1383.12,-293.36"/>
<text text-anchor="middle" x="1265.2" y="-329.24" font-family="Times,serif" font-size="14.00">{r1, r3}</text>
</g>
<!-- 0&#45;&gt;1 -->
<g id="edge3" class="edge">
<title>0&#45;&gt;1</title>
<path fill="none" stroke="black" d="M1740.95,-375.46C1646.82,-375.25 1339.54,-372.1 1310.2,-340.44 1285.82,-314.13 1343.1,-300.66 1383.82,-294.62"/>
<polygon fill="black" stroke="black" points="1384.33,-298.08 1393.75,-293.24 1383.36,-291.14 1384.33,-298.08"/>
<text text-anchor="middle" x="1341.7" y="-329.24" font-family="Times,serif" font-size="14.00">{r0, r2, r3}</text>
</g>
<!-- 0&#45;&gt;1 -->
<g id="edge4" class="edge">
<title>0&#45;&gt;1</title>
<path fill="none" stroke="black" d="M1741.06,-374.95C1659.27,-373.18 1419.34,-365.87 1396.2,-340.44 1389.05,-332.59 1392.51,-322.23 1398.77,-312.98"/>
<polygon fill="black" stroke="black" points="1401.69,-314.93 1405.08,-304.89 1396.17,-310.62 1401.69,-314.93"/>
<text text-anchor="middle" x="1437.2" y="-329.24" font-family="Times,serif" font-size="14.00">{r0, r1, r2, r3}</text>
</g>
<!-- 0&#45;&gt;1 -->
<g id="edge5" class="edge">
<title>0&#45;&gt;1</title>
<path fill="none" stroke="black" d="M1741.11,-375.81C1691.8,-375.63 1584.73,-371.33 1501.2,-340.44 1489.75,-336.21 1488.54,-331.93 1478.2,-325.44 1468.54,-319.38 1457.87,-312.89 1448.35,-307.16"/>
<polygon fill="black" stroke="black" points="1450.01,-304.08 1439.64,-301.94 1446.42,-310.08 1450.01,-304.08"/>
<text text-anchor="middle" x="1532.7" y="-329.24" font-family="Times,serif" font-size="14.00">{r1, r2, r3}</text>
</g>
<!-- 0&#45;&gt;1 -->
<g id="edge7" class="edge">
<title>0&#45;&gt;1</title>
<path fill="none" stroke="black" d="M1741.52,-373.51C1705.39,-370.19 1639.42,-361.57 1587.2,-340.44 1575.89,-335.87 1575.4,-330.29 1564.2,-325.44 1529.14,-310.28 1486.3,-300.93 1456.51,-295.75"/>
<polygon fill="black" stroke="black" points="1456.98,-292.28 1446.55,-294.09 1455.83,-299.19 1456.98,-292.28"/>
<text text-anchor="middle" x="1609.2" y="-329.24" font-family="Times,serif" font-size="14.00">{r2, r3}</text>
</g>
<!-- 0&#45;&gt;1 -->
<g id="edge8" class="edge">
<title>0&#45;&gt;1</title>
<path fill="none" stroke="black" d="M1743,-369.86C1719.38,-364.14 1683.45,-354.14 1654.2,-340.44 1643.15,-335.27 1642.57,-329.87 1631.2,-325.44 1573.02,-302.8 1500.24,-294.8 1457.14,-291.98"/>
<polygon fill="black" stroke="black" points="1457.3,-288.48 1447.11,-291.38 1456.89,-295.47 1457.3,-288.48"/>
<text text-anchor="middle" x="1676.2" y="-329.24" font-family="Times,serif" font-size="14.00">{r0, r3}</text>
</g>
<!-- 0&#45;&gt;1 -->
<g id="edge9" class="edge">
<title>0&#45;&gt;1</title>
<path fill="none" stroke="black" d="M1750.81,-362.34C1732.03,-348.3 1704.01,-327.71 1698.2,-325.44 1655.18,-308.62 1522.98,-297.49 1457.6,-292.87"/>
<polygon fill="black" stroke="black" points="1457.55,-289.36 1447.33,-292.16 1457.06,-296.34 1457.55,-289.36"/>
<text text-anchor="middle" x="1732.7" y="-329.24" font-family="Times,serif" font-size="14.00">{r3}</text>
</g>
<!-- 0&#45;&gt;1 -->
<g id="edge10" class="edge">
<title>0&#45;&gt;1</title>
<path fill="none" stroke="black" d="M1765.22,-358.29C1762.33,-347.1 1756.76,-333.17 1746.2,-325.44 1701.01,-292.38 1532.73,-289.46 1457.25,-289.89"/>
<polygon fill="black" stroke="black" points="1457.21,-286.39 1447.24,-289.96 1457.26,-293.39 1457.21,-286.39"/>
<text text-anchor="middle" x="1789.7" y="-329.24" font-family="Times,serif" font-size="14.00">{r0, r1, r3}</text>
</g>
<!-- 2 -->
<g id="node4" class="node">
<title>2</title>
<ellipse fill="none" stroke="black" cx="1367.2" cy="-24.44" rx="27" ry="18"/>
<text text-anchor="middle" x="1367.2" y="-20.74" font-family="Times,serif" font-size="14.00">2</text>
</g>
<!-- 0&#45;&gt;2 -->
<g id="edge11" class="edge">
<title>0&#45;&gt;2</title>
<path fill="none" stroke="black" d="M1791.84,-367.41C1804.14,-361.89 1818.06,-353.21 1825.2,-340.44 1828.46,-334.62 1827.37,-331.75 1825.2,-325.44 1781.68,-199.1 1735.29,-178.69 1629.2,-97.44 1607.77,-81.03 1603.29,-74.42 1578.2,-64.44 1520,-41.3 1447.23,-31.73 1404.14,-27.89"/>
<polygon fill="black" stroke="black" points="1404.36,-24.4 1394.11,-27.05 1403.78,-31.37 1404.36,-24.4"/>
<text text-anchor="middle" x="1803.7" y="-198.74" font-family="Times,serif" font-size="14.00">{r0, r1, r2}</text>
</g>
<!-- 0&#45;&gt;2 -->
<g id="edge12" class="edge">
<title>0&#45;&gt;2</title>
<path fill="none" stroke="black" d="M1792.66,-368.38C1824.8,-357.43 1877.2,-333.04 1877.2,-290.44 1877.2,-290.44 1877.2,-290.44 1877.2,-114.44 1877.2,-66.4 1521.4,-36.52 1404.17,-27.98"/>
<polygon fill="black" stroke="black" points="1404.13,-24.47 1393.9,-27.24 1403.63,-31.45 1404.13,-24.47"/>
<text text-anchor="middle" x="1889.7" y="-198.74" font-family="Times,serif" font-size="14.00">{r1}</text>
</g>
<!-- 0&#45;&gt;2 -->
<g id="edge13" class="edge">
<title>0&#45;&gt;2</title>
<path fill="none" stroke="black" d="M1795.14,-374.01C1843.07,-369.85 1938.2,-353.63 1938.2,-290.44 1938.2,-290.44 1938.2,-290.44 1938.2,-114.44 1938.2,-60.22 1531.05,-34.11 1404.36,-27.3"/>
<polygon fill="black" stroke="black" points="1404.53,-23.8 1394.36,-26.77 1404.16,-30.79 1404.53,-23.8"/>
<text text-anchor="middle" x="1960.2" y="-198.74" font-family="Times,serif" font-size="14.00">{r1, r2}</text>
</g>
<!-- 0&#45;&gt;2 -->
<g id="edge14" class="edge">
<title>0&#45;&gt;2</title>
<path fill="none" stroke="black" d="M1794.48,-372.2C1858.67,-363.54 2018.2,-337.32 2018.2,-290.44 2018.2,-290.44 2018.2,-290.44 2018.2,-114.44 2018.2,-52.05 1542.65,-31.29 1404.45,-26.58"/>
<polygon fill="black" stroke="black" points="1404.46,-23.08 1394.34,-26.25 1404.22,-30.08 1404.46,-23.08"/>
<text text-anchor="middle" x="2030.7" y="-198.74" font-family="Times,serif" font-size="14.00">{r2}</text>
</g>
<!-- 0&#45;&gt;2 -->
<g id="edge15" class="edge">
<title>0&#45;&gt;2</title>
<path fill="none" stroke="black" d="M1794.99,-373.87C1870.42,-368.71 2079.2,-349.14 2079.2,-290.44 2079.2,-290.44 2079.2,-290.44 2079.2,-114.44 2079.2,-45.78 1551.06,-29.37 1404.51,-26.14"/>
<polygon fill="black" stroke="black" points="1404.31,-22.64 1394.24,-25.92 1404.17,-29.64 1404.31,-22.64"/>
<text text-anchor="middle" x="2101.2" y="-198.74" font-family="Times,serif" font-size="14.00">{r0, r1}</text>
</g>
<!-- 0&#45;&gt;2 -->
<g id="edge16" class="edge">
<title>0&#45;&gt;2</title>
<path fill="none" stroke="black" d="M1795.38,-375.34C1884.05,-374.3 2159.2,-365.03 2159.2,-290.44 2159.2,-290.44 2159.2,-290.44 2159.2,-114.44 2159.2,-37.51 1561.51,-27.08 1404.57,-25.66"/>
<polygon fill="black" stroke="black" points="1404.49,-22.16 1394.46,-25.58 1404.43,-29.16 1404.49,-22.16"/>
<text text-anchor="middle" x="2181.2" y="-198.74" font-family="Times,serif" font-size="14.00">{r0, r2}</text>
</g>
<!-- 0&#45;&gt;2 -->
<g id="edge17" class="edge">
<title>0&#45;&gt;2</title>
<path fill="none" stroke="black" d="M1795.63,-375.91C1856.94,-376.29 2009.3,-373.51 2131.2,-340.44 2182.25,-326.6 2239.2,-343.34 2239.2,-290.44 2239.2,-290.44 2239.2,-290.44 2239.2,-114.44 2239.2,-29.19 1571.1,-24.99 1404.49,-25.27"/>
<polygon fill="black" stroke="black" points="1404.25,-21.77 1394.25,-25.3 1404.26,-28.77 1404.25,-21.77"/>
<text text-anchor="middle" x="2251.7" y="-198.74" font-family="Times,serif" font-size="14.00">{r0}</text>
</g>
<!-- 1&#45;&gt;1 -->
<g id="edge37" class="edge">
<title>1&#45;&gt;1</title>
<path fill="none" stroke="black" d="M1444.73,-297.19C1455.71,-297.93 1465.2,-295.35 1465.2,-289.44 1465.2,-285.47 1460.92,-283.01 1454.78,-282.04"/>
<polygon fill="black" stroke="black" points="1454.85,-278.54 1444.73,-281.69 1454.61,-285.53 1454.85,-278.54"/>
<text text-anchor="middle" x="1472.2" y="-285.74" font-family="Times,serif" font-size="14.00">{}</text>
</g>
<!-- 1&#45;&gt;2 -->
<g id="edge43" class="edge">
<title>1&#45;&gt;2</title>
<path fill="none" stroke="black" d="M1415.89,-271.67C1413.29,-261.91 1409.79,-249.41 1406.2,-238.44 1395.58,-205.96 1385.3,-200.07 1379.2,-166.44 1378.01,-159.88 1376.74,-157.64 1379.2,-151.44 1383.27,-141.22 1392.14,-143.67 1396.2,-133.44 1402.11,-118.57 1399.25,-113.15 1396.2,-97.44 1393.08,-81.37 1386.39,-64.33 1380.22,-50.87"/>
<polygon fill="black" stroke="black" points="1383.34,-49.28 1375.88,-41.76 1377.03,-52.29 1383.34,-49.28"/>
<text text-anchor="middle" x="1401.2" y="-155.24" font-family="Times,serif" font-size="14.00">{r1, r3}</text>
</g>
<!-- 1&#45;&gt;2 -->
<g id="edge44" class="edge">
<title>1&#45;&gt;2</title>
<path fill="none" stroke="black" d="M1421.96,-271.37C1422.47,-265.68 1422.95,-259.29 1423.2,-253.44 1425.14,-208.15 1427.75,-196.55 1423.2,-151.44 1420.74,-127.07 1417.87,-121.27 1412.2,-97.44 1408.68,-82.65 1410.57,-77.74 1403.2,-64.44 1399.72,-58.16 1395.02,-52.09 1390.17,-46.68"/>
<polygon fill="black" stroke="black" points="1392.53,-44.08 1383.08,-39.29 1387.48,-48.93 1392.53,-44.08"/>
<text text-anchor="middle" x="1436.7" y="-155.24" font-family="Times,serif" font-size="14.00">{r1}</text>
</g>
<!-- 1&#45;&gt;2 -->
<g id="edge45" class="edge">
<title>1&#45;&gt;2</title>
<path fill="none" stroke="black" d="M1429.1,-272.44C1432.04,-266.61 1435.09,-259.86 1437.2,-253.44 1451.51,-209.84 1461.47,-196.58 1453.2,-151.44 1445.75,-110.77 1445.21,-97.38 1420.2,-64.44 1413.67,-55.84 1404.74,-48.28 1396.07,-42.16"/>
<polygon fill="black" stroke="black" points="1397.86,-39.14 1387.59,-36.53 1393.99,-44.98 1397.86,-39.14"/>
<text text-anchor="middle" x="1486.7" y="-155.24" font-family="Times,serif" font-size="14.00">{r0, r1, r3}</text>
</g>
<!-- 1&#45;&gt;2 -->
<g id="edge46" class="edge">
<title>1&#45;&gt;2</title>
<path fill="none" stroke="black" d="M1440.11,-276.95C1475.41,-254.93 1543.37,-204.3 1522.2,-151.44 1499.97,-95.94 1437.39,-58.05 1398.89,-39.22"/>
<polygon fill="black" stroke="black" points="1400.19,-35.97 1389.66,-34.85 1397.19,-42.29 1400.19,-35.97"/>
<text text-anchor="middle" x="1547.2" y="-155.24" font-family="Times,serif" font-size="14.00">{r0, r1}</text>
</g>
<!-- 1&#45;&gt;2 -->
<g id="edge47" class="edge">
<title>1&#45;&gt;2</title>
<path fill="none" stroke="black" d="M1443.91,-280.71C1493.72,-263.04 1602.33,-216.14 1573.2,-151.44 1542.12,-82.42 1452.4,-48.08 1402.23,-33.84"/>
<polygon fill="black" stroke="black" points="1403.02,-30.43 1392.45,-31.18 1401.18,-37.18 1403.02,-30.43"/>
<text text-anchor="middle" x="1589.7" y="-155.24" font-family="Times,serif" font-size="14.00">{r0}</text>
</g>
<!-- 1&#45;&gt;2 -->
<g id="edge48" class="edge">
<title>1&#45;&gt;2</title>
<path fill="none" stroke="black" d="M1445.7,-282.77C1502.85,-268.61 1634.12,-227.28 1606.2,-151.44 1576.01,-69.43 1463.17,-40.06 1403.98,-30.14"/>
<polygon fill="black" stroke="black" points="1404.35,-26.65 1393.92,-28.56 1403.26,-33.57 1404.35,-26.65"/>
<text text-anchor="middle" x="1621.7" y="-155.24" font-family="Times,serif" font-size="14.00">{r3}</text>
</g>
<!-- 1&#45;&gt;2 -->
<g id="edge49" class="edge">
<title>1&#45;&gt;2</title>
<path fill="none" stroke="black" d="M1446.25,-284.62C1510.26,-273.83 1667.94,-238.12 1638.2,-151.44 1605.99,-57.57 1470.64,-33.64 1404.24,-27.53"/>
<polygon fill="black" stroke="black" points="1404.46,-24.04 1394.2,-26.7 1403.88,-31.01 1404.46,-24.04"/>
<text text-anchor="middle" x="1663.2" y="-155.24" font-family="Times,serif" font-size="14.00">{r0, r3}</text>
</g>
<!-- 3 -->
<g id="node5" class="node">
<title>3</title>
<ellipse fill="none" stroke="black" cx="958.2" cy="-202.44" rx="27" ry="18"/>
<text text-anchor="middle" x="958.2" y="-198.74" font-family="Times,serif" font-size="14.00">3</text>
</g>
<!-- 1&#45;&gt;3 -->
<g id="edge34" class="edge">
<title>1&#45;&gt;3</title>
<path fill="none" stroke="black" d="M1392.95,-287.89C1277.95,-285.43 837.22,-274.65 817.2,-253.44 784.85,-219.16 869.24,-208.35 921.1,-204.97"/>
<polygon fill="black" stroke="black" points="921.53,-208.45 931.31,-204.37 921.12,-201.46 921.53,-208.45"/>
<text text-anchor="middle" x="839.2" y="-242.24" font-family="Times,serif" font-size="14.00">{r1, r2}</text>
</g>
<!-- 1&#45;&gt;3 -->
<g id="edge35" class="edge">
<title>1&#45;&gt;3</title>
<path fill="none" stroke="black" d="M1393.11,-288.79C1289.07,-289.82 919.23,-290.83 884.2,-253.44 868.13,-236.29 897.06,-221.91 923.31,-213.04"/>
<polygon fill="black" stroke="black" points="924.68,-216.28 933.15,-209.92 922.56,-209.61 924.68,-216.28"/>
<text text-anchor="middle" x="896.7" y="-242.24" font-family="Times,serif" font-size="14.00">{r2}</text>
</g>
<!-- 1&#45;&gt;3 -->
<g id="edge36" class="edge">
<title>1&#45;&gt;3</title>
<path fill="none" stroke="black" d="M1393.22,-288.6C1295.44,-288.88 963.74,-287.33 932.2,-253.44 924.67,-245.36 928.85,-234.67 935.86,-225.26"/>
<polygon fill="black" stroke="black" points="938.72,-227.3 942.53,-217.41 933.39,-222.76 938.72,-227.3"/>
<text text-anchor="middle" x="963.7" y="-242.24" font-family="Times,serif" font-size="14.00">{r1, r2, r3}</text>
</g>
<!-- 1&#45;&gt;3 -->
<g id="edge38" class="edge">
<title>1&#45;&gt;3</title>
<path fill="none" stroke="black" d="M1393.08,-288.18C1314.24,-287.09 1086.38,-281.53 1018.2,-253.44 1009.82,-249.99 993.82,-236.5 980.44,-224.4"/>
<polygon fill="black" stroke="black" points="982.69,-221.7 972.95,-217.52 977.95,-226.86 982.69,-221.7"/>
<text text-anchor="middle" x="1040.2" y="-242.24" font-family="Times,serif" font-size="14.00">{r2, r3}</text>
</g>
<!-- 1&#45;&gt;3 -->
<g id="edge39" class="edge">
<title>1&#45;&gt;3</title>
<path fill="none" stroke="black" d="M1393.35,-287.26C1324.29,-283.97 1141.96,-273.59 1085.2,-253.44 1073.7,-249.36 1073.18,-243.76 1062.2,-238.44 1039.81,-227.59 1013.19,-218.7 992.49,-212.6"/>
<polygon fill="black" stroke="black" points="993.42,-209.22 982.85,-209.83 991.49,-215.95 993.42,-209.22"/>
<text text-anchor="middle" x="1126.2" y="-242.24" font-family="Times,serif" font-size="14.00">{r0, r1, r2, r3}</text>
</g>
<!-- 1&#45;&gt;3 -->
<g id="edge40" class="edge">
<title>1&#45;&gt;3</title>
<path fill="none" stroke="black" d="M1393.05,-288.01C1349.04,-286.49 1260.01,-280.08 1190.2,-253.44 1178.8,-249.09 1178.57,-242.88 1167.2,-238.44 1109.85,-216.07 1038.19,-207.99 995.42,-205.08"/>
<polygon fill="black" stroke="black" points="995.39,-201.57 985.19,-204.44 994.96,-208.56 995.39,-201.57"/>
<text text-anchor="middle" x="1212.2" y="-242.24" font-family="Times,serif" font-size="14.00">{r0, r2}</text>
</g>
<!-- 1&#45;&gt;3 -->
<g id="edge41" class="edge">
<title>1&#45;&gt;3</title>
<path fill="none" stroke="black" d="M1393.62,-285.76C1360.6,-281.75 1303.02,-272.53 1257.2,-253.44 1245.94,-248.75 1245.66,-242.65 1234.2,-238.44 1152.8,-208.54 1049.83,-203.37 995.58,-202.94"/>
<polygon fill="black" stroke="black" points="995.41,-199.44 985.4,-202.92 995.39,-206.44 995.41,-199.44"/>
<text text-anchor="middle" x="1288.7" y="-242.24" font-family="Times,serif" font-size="14.00">{r0, r1, r2}</text>
</g>
<!-- 1&#45;&gt;3 -->
<g id="edge42" class="edge">
<title>1&#45;&gt;3</title>
<path fill="none" stroke="black" d="M1397.52,-279.21C1381.95,-272.61 1360.96,-263.2 1343.2,-253.44 1332.5,-247.57 1331.72,-242.48 1320.2,-238.44 1260.89,-217.65 1074.94,-208.03 995.16,-204.78"/>
<polygon fill="black" stroke="black" points="995.2,-201.28 985.07,-204.38 994.93,-208.28 995.2,-201.28"/>
<text text-anchor="middle" x="1374.7" y="-242.24" font-family="Times,serif" font-size="14.00">{r0, r2, r3}</text>
</g>
<!-- 2&#45;&gt;2 -->
<g id="edge82" class="edge">
<title>2&#45;&gt;2</title>
<path fill="none" stroke="black" d="M1394.44,-25.94C1404.22,-25.97 1412.2,-25.47 1412.2,-24.44 1412.2,-23.81 1409.24,-23.38 1404.71,-23.15"/>
<polygon fill="black" stroke="black" points="1404.51,-19.65 1394.44,-22.94 1404.37,-26.64 1404.51,-19.65"/>
<text text-anchor="middle" x="1434.2" y="-20.74" font-family="Times,serif" font-size="14.00">{r1, r3}</text>
</g>
<!-- 2&#45;&gt;2 -->
<g id="edge83" class="edge">
<title>2&#45;&gt;2</title>
<path fill="none" stroke="black" d="M1393.96,-26.89C1421.45,-28.12 1456.2,-27.3 1456.2,-24.44 1456.2,-21.93 1429.36,-21 1404.2,-21.64"/>
<polygon fill="black" stroke="black" points="1403.84,-18.15 1393.96,-22 1404.08,-25.15 1403.84,-18.15"/>
<text text-anchor="middle" x="1487.7" y="-20.74" font-family="Times,serif" font-size="14.00">{r0, r1, r2}</text>
</g>
<!-- 2&#45;&gt;2 -->
<g id="edge84" class="edge">
<title>2&#45;&gt;2</title>
<path fill="none" stroke="black" d="M1393.92,-27.36C1439.82,-30.2 1519.2,-29.22 1519.2,-24.44 1519.2,-20 1450.59,-18.85 1404.06,-20.99"/>
<polygon fill="black" stroke="black" points="1403.71,-17.5 1393.92,-21.53 1404.09,-24.49 1403.71,-17.5"/>
<text text-anchor="middle" x="1541.2" y="-20.74" font-family="Times,serif" font-size="14.00">{r2, r3}</text>
</g>
<!-- 2&#45;&gt;2 -->
<g id="edge85" class="edge">
<title>2&#45;&gt;2</title>
<path fill="none" stroke="black" d="M1393.85,-27.83C1450.89,-32.21 1563.2,-31.08 1563.2,-24.44 1563.2,-18.18 1463.25,-16.82 1404.04,-20.37"/>
<polygon fill="black" stroke="black" points="1403.59,-16.89 1393.85,-21.06 1404.06,-23.87 1403.59,-16.89"/>
<text text-anchor="middle" x="1575.7" y="-20.74" font-family="Times,serif" font-size="14.00">{r1}</text>
</g>
<!-- 2&#45;&gt;2 -->
<g id="edge86" class="edge">
<title>2&#45;&gt;2</title>
<path fill="none" stroke="black" d="M1393.83,-28.32C1457.43,-34.21 1588.2,-32.92 1588.2,-24.44 1588.2,-16.4 1470.37,-14.82 1404.01,-19.73"/>
<polygon fill="black" stroke="black" points="1403.51,-16.26 1393.83,-20.57 1404.09,-23.23 1403.51,-16.26"/>
<text text-anchor="middle" x="1619.7" y="-20.74" font-family="Times,serif" font-size="14.00">{r0, r1, r3}</text>
</g>
<!-- 2&#45;&gt;2 -->
<g id="edge87" class="edge">
<title>2&#45;&gt;2</title>
<path fill="none" stroke="black" d="M1393.6,-28.51C1470.25,-36.24 1651.2,-34.88 1651.2,-24.44 1651.2,-14.45 1485.47,-12.78 1404.04,-19.43"/>
<polygon fill="black" stroke="black" points="1403.25,-15.99 1393.6,-20.37 1403.88,-22.96 1403.25,-15.99"/>
<text text-anchor="middle" x="1692.2" y="-20.74" font-family="Times,serif" font-size="14.00">{r0, r1, r2, r3}</text>
</g>
<!-- 2&#45;&gt;2 -->
<g id="edge88" class="edge">
<title>2&#45;&gt;2</title>
<path fill="none" stroke="black" d="M1393.55,-28.63C1484.98,-38.27 1733.2,-36.87 1733.2,-24.44 1733.2,-12.45 1502.13,-10.73 1403.76,-19.28"/>
<polygon fill="black" stroke="black" points="1403.17,-15.82 1393.55,-20.26 1403.84,-22.79 1403.17,-15.82"/>
<text text-anchor="middle" x="1764.7" y="-20.74" font-family="Times,serif" font-size="14.00">{r1, r2, r3}</text>
</g>
<!-- 2&#45;&gt;2 -->
<g id="edge89" class="edge">
<title>2&#45;&gt;2</title>
<path fill="none" stroke="black" d="M1393.6,-28.82C1495.93,-40.28 1796.2,-38.82 1796.2,-24.44 1796.2,-10.52 1514.4,-8.71 1403.75,-19.03"/>
<polygon fill="black" stroke="black" points="1403.19,-15.57 1393.6,-20.06 1403.9,-22.53 1403.19,-15.57"/>
<text text-anchor="middle" x="1818.2" y="-20.74" font-family="Times,serif" font-size="14.00">{r1, r2}</text>
</g>
<!-- 2&#45;&gt;2 -->
<g id="edge90" class="edge">
<title>2&#45;&gt;2</title>
<path fill="none" stroke="black" d="M1393.45,-29.03C1503.47,-42.28 1840.2,-40.76 1840.2,-24.44 1840.2,-8.61 1522.91,-6.7 1403.69,-18.73"/>
<polygon fill="black" stroke="black" points="1403,-15.28 1393.45,-19.85 1403.77,-22.24 1403,-15.28"/>
<text text-anchor="middle" x="1852.7" y="-20.74" font-family="Times,serif" font-size="14.00">{r2}</text>
</g>
<!-- 2&#45;&gt;2 -->
<g id="edge91" class="edge">
<title>2&#45;&gt;2</title>
<path fill="none" stroke="black" d="M1393.57,-29.3C1509.06,-44.28 1865.2,-42.67 1865.2,-24.44 1865.2,-6.72 1528.27,-4.7 1403.57,-18.39"/>
<polygon fill="black" stroke="black" points="1403.09,-14.93 1393.57,-19.58 1403.92,-21.88 1403.09,-14.93"/>
<text text-anchor="middle" x="1887.2" y="-20.74" font-family="Times,serif" font-size="14.00">{r0, r1}</text>
</g>
<!-- 2&#45;&gt;2 -->
<g id="edge92" class="edge">
<title>2&#45;&gt;2</title>
<path fill="none" stroke="black" d="M1393.49,-29.47C1516.51,-46.29 1909.2,-44.62 1909.2,-24.44 1909.2,-4.8 1536.95,-2.7 1403.77,-18.13"/>
<polygon fill="black" stroke="black" points="1402.97,-14.7 1393.49,-19.42 1403.85,-21.64 1402.97,-14.7"/>
<text text-anchor="middle" x="1931.2" y="-20.74" font-family="Times,serif" font-size="14.00">{r0, r2}</text>
</g>
<!-- 2&#45;&gt;2 -->
<g id="edge93" class="edge">
<title>2&#45;&gt;2</title>
<path fill="none" stroke="black" d="M1393.09,-29.57C1523.11,-48.3 1953.2,-46.59 1953.2,-24.44 1953.2,-2.83 1543.86,-0.68 1403.14,-17.98"/>
<polygon fill="black" stroke="black" points="1402.54,-14.53 1393.09,-19.32 1403.47,-21.47 1402.54,-14.53"/>
<text text-anchor="middle" x="1960.2" y="-20.74" font-family="Times,serif" font-size="14.00">{}</text>
</g>
<!-- 2&#45;&gt;2 -->
<g id="edge94" class="edge">
<title>2&#45;&gt;2</title>
<path fill="none" stroke="black" d="M1393.29,-29.8C1528.1,-50.3 1971.2,-48.51 1971.2,-24.44 1971.2,-0.94 1548.62,1.32 1403.27,-17.68"/>
<polygon fill="black" stroke="black" points="1402.7,-14.22 1393.29,-19.08 1403.68,-21.16 1402.7,-14.22"/>
<text text-anchor="middle" x="1983.7" y="-20.74" font-family="Times,serif" font-size="14.00">{r0}</text>
</g>
<!-- 2&#45;&gt;2 -->
<g id="edge95" class="edge">
<title>2&#45;&gt;2</title>
<path fill="none" stroke="black" d="M1393.05,-29.93C1532.93,-52.3 1996.2,-50.47 1996.2,-24.44 1996.2,1 1553.5,3.32 1402.95,-17.48"/>
<polygon fill="black" stroke="black" points="1402.43,-14.02 1393.05,-18.95 1403.45,-20.95 1402.43,-14.02"/>
<text text-anchor="middle" x="2027.7" y="-20.74" font-family="Times,serif" font-size="14.00">{r0, r2, r3}</text>
</g>
<!-- 2&#45;&gt;2 -->
<g id="edge96" class="edge">
<title>2&#45;&gt;2</title>
<path fill="none" stroke="black" d="M1393.14,-30.02C1542.34,-54.31 2059.2,-52.45 2059.2,-24.44 2059.2,2.96 1564.31,5.33 1403.26,-17.33"/>
<polygon fill="black" stroke="black" points="1402.5,-13.91 1393.14,-18.86 1403.55,-20.83 1402.5,-13.91"/>
<text text-anchor="middle" x="2071.7" y="-20.74" font-family="Times,serif" font-size="14.00">{r3}</text>
</g>
<!-- 2&#45;&gt;2 -->
<g id="edge97" class="edge">
<title>2&#45;&gt;2</title>
<path fill="none" stroke="black" d="M1393.04,-30.15C1547.43,-56.31 2084.2,-54.41 2084.2,-24.44 2084.2,4.91 1569.22,7.34 1403.01,-17.16"/>
<polygon fill="black" stroke="black" points="1402.37,-13.72 1393.04,-18.74 1403.46,-20.63 1402.37,-13.72"/>
<text text-anchor="middle" x="2106.2" y="-20.74" font-family="Times,serif" font-size="14.00">{r0, r3}</text>
</g>
<!-- 3&#45;&gt;2 -->
<g id="edge75" class="edge">
<title>3&#45;&gt;2</title>
<path fill="none" stroke="black" d="M956.45,-184.39C954.69,-174.06 951.19,-161.07 944.2,-151.44 935.73,-139.77 924.01,-146.16 917.2,-133.44 909.65,-119.34 906.87,-109.66 917.2,-97.44 948.34,-60.62 978.57,-95.03 1024.2,-79.44 1037.56,-74.88 1038.64,-68.36 1052.2,-64.44 1162.22,-32.7 1197.18,-70.16 1309.2,-46.44 1318.01,-44.58 1327.29,-41.67 1335.78,-38.61"/>
<polygon fill="black" stroke="black" points="1337.2,-41.81 1345.31,-35 1334.72,-35.27 1337.2,-41.81"/>
<text text-anchor="middle" x="939.2" y="-111.74" font-family="Times,serif" font-size="14.00">{r2, r3}</text>
</g>
<!-- 3&#45;&gt;2 -->
<g id="edge76" class="edge">
<title>3&#45;&gt;2</title>
<path fill="none" stroke="black" d="M960.13,-184.26C963.58,-161.41 972.9,-121.13 997.2,-97.44 1014.71,-80.37 1026.8,-89.25 1049.2,-79.44 1062.13,-73.78 1063.65,-68.41 1077.2,-64.44 1176.46,-35.4 1208.1,-68.25 1309.2,-46.44 1317.93,-44.56 1327.12,-41.68 1335.56,-38.64"/>
<polygon fill="black" stroke="black" points="1336.91,-41.87 1345.03,-35.07 1334.44,-35.32 1336.91,-41.87"/>
<text text-anchor="middle" x="1009.7" y="-111.74" font-family="Times,serif" font-size="14.00">{r2}</text>
</g>
<!-- 3&#45;&gt;2 -->
<g id="edge77" class="edge">
<title>3&#45;&gt;2</title>
<path fill="none" stroke="black" d="M972.08,-186.62C997.3,-159.75 1048.89,-105.05 1058.2,-97.44 1079.39,-80.12 1084.29,-73.26 1110.2,-64.44 1194.28,-35.85 1222.51,-65.72 1309.2,-46.44 1317.92,-44.5 1327.11,-41.6 1335.54,-38.57"/>
<polygon fill="black" stroke="black" points="1336.89,-41.8 1345.01,-35 1334.42,-35.25 1336.89,-41.8"/>
<text text-anchor="middle" x="1080.2" y="-111.74" font-family="Times,serif" font-size="14.00">{r0, r2}</text>
</g>
<!-- 3&#45;&gt;2 -->
<g id="edge78" class="edge">
<title>3&#45;&gt;2</title>
<path fill="none" stroke="black" d="M981.72,-193.22C1011.38,-182.22 1063.2,-160.89 1102.2,-133.44 1137.67,-108.48 1132.29,-83.6 1171.2,-64.44 1226.69,-37.12 1249.1,-61.06 1309.2,-46.44 1317.88,-44.33 1327.05,-41.37 1335.48,-38.33"/>
<polygon fill="black" stroke="black" points="1336.83,-41.57 1344.96,-34.78 1334.37,-35.01 1336.83,-41.57"/>
<text text-anchor="middle" x="1147.7" y="-111.74" font-family="Times,serif" font-size="14.00">{r0}</text>
</g>
<!-- 3&#45;&gt;2 -->
<g id="edge79" class="edge">
<title>3&#45;&gt;2</title>
<path fill="none" stroke="black" d="M982.56,-194.46C1005.92,-187.66 1042.13,-176.86 1073.2,-166.44 1113.6,-152.9 1127.3,-156.38 1163.2,-133.44 1182.27,-121.26 1180.66,-110.41 1199.2,-97.44 1227.72,-77.5 1238.27,-78.27 1270.2,-64.44 1291.62,-55.17 1315.99,-45.37 1334.95,-37.92"/>
<polygon fill="black" stroke="black" points="1336.29,-41.15 1344.33,-34.25 1333.74,-34.63 1336.29,-41.15"/>
<text text-anchor="middle" x="1230.7" y="-111.74" font-family="Times,serif" font-size="14.00">{r0, r2, r3}</text>
</g>
<!-- 3&#45;&gt;2 -->
<g id="edge80" class="edge">
<title>3&#45;&gt;2</title>
<path fill="none" stroke="black" d="M985.22,-200.51C1040.63,-197.55 1169.68,-185.17 1262.2,-133.44 1264.78,-132 1316.03,-78.79 1345.95,-47.61"/>
<polygon fill="black" stroke="black" points="1348.66,-49.84 1353.06,-40.2 1343.61,-45 1348.66,-49.84"/>
<text text-anchor="middle" x="1310.7" y="-111.74" font-family="Times,serif" font-size="14.00">{r3}</text>
</g>
<!-- 3&#45;&gt;2 -->
<g id="edge81" class="edge">
<title>3&#45;&gt;2</title>
<path fill="none" stroke="black" d="M985.06,-200.07C1060.78,-195.67 1273.72,-179.39 1323.2,-133.44 1346.2,-112.08 1357.48,-76.98 1362.8,-52.61"/>
<polygon fill="black" stroke="black" points="1366.28,-53.07 1364.79,-42.58 1359.41,-51.71 1366.28,-53.07"/>
<text text-anchor="middle" x="1370.2" y="-111.74" font-family="Times,serif" font-size="14.00">{r0, r3}</text>
</g>
<!-- 3&#45;&gt;3 -->
<g id="edge68" class="edge">
<title>3&#45;&gt;3</title>
<path fill="none" stroke="black" d="M982.73,-210.19C993.71,-210.93 1003.2,-208.35 1003.2,-202.44 1003.2,-198.47 998.92,-196.01 992.78,-195.04"/>
<polygon fill="black" stroke="black" points="992.85,-191.54 982.73,-194.69 992.61,-198.53 992.85,-191.54"/>
<text text-anchor="middle" x="1010.2" y="-198.74" font-family="Times,serif" font-size="14.00">{}</text>
</g>
<!-- 4 -->
<g id="node6" class="node">
<title>4</title>
<ellipse fill="none" stroke="black" cx="615.2" cy="-115.44" rx="27" ry="18"/>
<text text-anchor="middle" x="615.2" y="-111.74" font-family="Times,serif" font-size="14.00">4</text>
</g>
<!-- 3&#45;&gt;4 -->
<g id="edge66" class="edge">
<title>3&#45;&gt;4</title>
<path fill="none" stroke="black" d="M930.95,-200.89C815.95,-198.43 375.22,-187.65 355.2,-166.44 350.63,-161.59 350.81,-156.46 355.2,-151.44 383.67,-118.88 513.01,-115.37 577.87,-115.73"/>
<polygon fill="black" stroke="black" points="578.05,-119.23 588.08,-115.82 578.11,-112.23 578.05,-119.23"/>
<text text-anchor="middle" x="396.2" y="-155.24" font-family="Times,serif" font-size="14.00">{r0, r1, r2, r3}</text>
</g>
<!-- 3&#45;&gt;4 -->
<g id="edge67" class="edge">
<title>3&#45;&gt;4</title>
<path fill="none" stroke="black" d="M931.01,-201.64C831.67,-202.08 492.45,-201.03 460.2,-166.44 424.44,-128.09 521.84,-119.06 578.23,-117"/>
<polygon fill="black" stroke="black" points="578.36,-120.5 588.24,-116.69 578.14,-113.5 578.36,-120.5"/>
<text text-anchor="middle" x="491.7" y="-155.24" font-family="Times,serif" font-size="14.00">{r0, r1, r3}</text>
</g>
<!-- 3&#45;&gt;4 -->
<g id="edge69" class="edge">
<title>3&#45;&gt;4</title>
<path fill="none" stroke="black" d="M930.98,-201.21C843.26,-200.19 572.21,-194.76 546.2,-166.44 531.27,-150.19 557.18,-135.9 581.39,-126.8"/>
<polygon fill="black" stroke="black" points="582.59,-130.09 590.85,-123.46 580.25,-123.49 582.59,-130.09"/>
<text text-anchor="middle" x="577.7" y="-155.24" font-family="Times,serif" font-size="14.00">{r0, r1, r2}</text>
</g>
<!-- 3&#45;&gt;4 -->
<g id="edge70" class="edge">
<title>3&#45;&gt;4</title>
<path fill="none" stroke="black" d="M931.35,-200.2C857.53,-196.57 655.39,-185.01 632.2,-166.44 625.1,-160.76 620.95,-151.97 618.53,-143.34"/>
<polygon fill="black" stroke="black" points="621.93,-142.52 616.41,-133.48 615.09,-143.99 621.93,-142.52"/>
<text text-anchor="middle" x="654.2" y="-155.24" font-family="Times,serif" font-size="14.00">{r1, r2}</text>
</g>
<!-- 3&#45;&gt;4 -->
<g id="edge71" class="edge">
<title>3&#45;&gt;4</title>
<path fill="none" stroke="black" d="M931.16,-201.65C882.99,-201.19 779.79,-196.42 699.2,-166.44 687.76,-162.19 686.61,-157.82 676.2,-151.44 665.92,-145.15 654.49,-138.5 644.33,-132.71"/>
<polygon fill="black" stroke="black" points="645.85,-129.55 635.43,-127.67 642.4,-135.64 645.85,-129.55"/>
<text text-anchor="middle" x="721.2" y="-155.24" font-family="Times,serif" font-size="14.00">{r1, r3}</text>
</g>
<!-- 3&#45;&gt;4 -->
<g id="edge72" class="edge">
<title>3&#45;&gt;4</title>
<path fill="none" stroke="black" d="M931.19,-199.89C893.17,-196.97 822.23,-188.76 766.2,-166.44 754.86,-161.93 754.33,-156.45 743.2,-151.44 713.33,-138.02 677.18,-128.71 650.92,-123.09"/>
<polygon fill="black" stroke="black" points="651.52,-119.64 641.02,-121.04 650.11,-126.5 651.52,-119.64"/>
<text text-anchor="middle" x="788.2" y="-155.24" font-family="Times,serif" font-size="14.00">{r0, r1}</text>
</g>
<!-- 3&#45;&gt;4 -->
<g id="edge73" class="edge">
<title>3&#45;&gt;4</title>
<path fill="none" stroke="black" d="M932.51,-196.65C906.66,-191.28 866.04,-181.32 833.2,-166.44 822.08,-161.41 821.54,-155.94 810.2,-151.44 757.67,-130.6 692.24,-122.09 652.11,-118.67"/>
<polygon fill="black" stroke="black" points="652.23,-115.17 641.98,-117.87 651.67,-122.15 652.23,-115.17"/>
<text text-anchor="middle" x="864.7" y="-155.24" font-family="Times,serif" font-size="14.00">{r1, r2, r3}</text>
</g>
<!-- 3&#45;&gt;4 -->
<g id="edge74" class="edge">
<title>3&#45;&gt;4</title>
<path fill="none" stroke="black" d="M942.88,-187.45C928.06,-174.21 906.38,-155.76 896.2,-151.44 853.12,-133.16 718.68,-122.71 652.61,-118.56"/>
<polygon fill="black" stroke="black" points="652.44,-115.04 642.24,-117.92 652.01,-122.03 652.44,-115.04"/>
<text text-anchor="middle" x="929.7" y="-155.24" font-family="Times,serif" font-size="14.00">{r1}</text>
</g>
<!-- 4&#45;&gt;2 -->
<g id="edge59" class="edge">
<title>4&#45;&gt;2</title>
<path fill="none" stroke="black" d="M610.17,-97.3C608.11,-86.4 607.88,-72.82 616.2,-64.44 643.35,-37.13 1271.36,-53.59 1309.2,-46.44 1318.05,-44.77 1327.34,-41.93 1335.84,-38.87"/>
<polygon fill="black" stroke="black" points="1337.27,-42.07 1345.36,-35.24 1334.77,-35.53 1337.27,-42.07"/>
<text text-anchor="middle" x="638.2" y="-68.24" font-family="Times,serif" font-size="14.00">{r1, r3}</text>
</g>
<!-- 4&#45;&gt;2 -->
<g id="edge60" class="edge">
<title>4&#45;&gt;2</title>
<path fill="none" stroke="black" d="M632.04,-101.24C650.24,-87.1 677.42,-66.43 683.2,-64.44 749,-41.8 1240.84,-59.45 1309.2,-46.44 1318.05,-44.76 1327.34,-41.92 1335.83,-38.86"/>
<polygon fill="black" stroke="black" points="1337.26,-42.06 1345.36,-35.22 1334.77,-35.52 1337.26,-42.06"/>
<text text-anchor="middle" x="705.2" y="-68.24" font-family="Times,serif" font-size="14.00">{r2, r3}</text>
</g>
<!-- 4&#45;&gt;2 -->
<g id="edge61" class="edge">
<title>4&#45;&gt;2</title>
<path fill="none" stroke="black" d="M640.41,-108.68C663.6,-102.89 698.64,-92.9 727.2,-79.44 738.24,-74.24 738.56,-68.11 750.2,-64.44 868.75,-27.11 1187.15,-69.89 1309.2,-46.44 1318.04,-44.74 1327.34,-41.89 1335.83,-38.84"/>
<polygon fill="black" stroke="black" points="1337.26,-42.04 1345.35,-35.2 1334.76,-35.5 1337.26,-42.04"/>
<text text-anchor="middle" x="762.7" y="-68.24" font-family="Times,serif" font-size="14.00">{r1}</text>
</g>
<!-- 4&#45;&gt;2 -->
<g id="edge62" class="edge">
<title>4&#45;&gt;2</title>
<path fill="none" stroke="black" d="M641.86,-111.61C674.36,-107.48 730.48,-98.17 775.2,-79.44 786.46,-74.73 786.57,-68.13 798.2,-64.44 906.53,-30.15 1197.65,-68.05 1309.2,-46.44 1318.04,-44.73 1327.33,-41.88 1335.83,-38.82"/>
<polygon fill="black" stroke="black" points="1337.25,-42.02 1345.35,-35.19 1334.76,-35.48 1337.25,-42.02"/>
<text text-anchor="middle" x="829.7" y="-68.24" font-family="Times,serif" font-size="14.00">{r1, r2, r3}</text>
</g>
<!-- 4&#45;&gt;2 -->
<g id="edge63" class="edge">
<title>4&#45;&gt;2</title>
<path fill="none" stroke="black" d="M642.35,-114.38C688.72,-113.45 785.49,-107.91 861.2,-79.44 872.62,-75.15 872.58,-68.17 884.2,-64.44 974.22,-35.6 1216.46,-64.75 1309.2,-46.44 1318.04,-44.7 1327.33,-41.83 1335.82,-38.77"/>
<polygon fill="black" stroke="black" points="1337.24,-41.98 1345.34,-35.15 1334.75,-35.43 1337.24,-41.98"/>
<text text-anchor="middle" x="906.2" y="-68.24" font-family="Times,serif" font-size="14.00">{r1, r2}</text>
</g>
<!-- 4&#45;&gt;2 -->
<g id="edge64" class="edge">
<title>4&#45;&gt;2</title>
<path fill="none" stroke="black" d="M642.2,-113.03C708.12,-109.32 875.71,-98.29 928.2,-79.44 939.69,-75.32 939.59,-68.21 951.2,-64.44 1026.96,-39.83 1231.11,-62.18 1309.2,-46.44 1318.03,-44.66 1327.32,-41.79 1335.81,-38.73"/>
<polygon fill="black" stroke="black" points="1337.23,-41.93 1345.34,-35.1 1334.74,-35.39 1337.23,-41.93"/>
<text text-anchor="middle" x="963.7" y="-68.24" font-family="Times,serif" font-size="14.00">{r2}</text>
</g>
<!-- 4&#45;&gt;2 -->
<g id="edge65" class="edge">
<title>4&#45;&gt;2</title>
<path fill="none" stroke="black" d="M642.26,-113.49C715.19,-110.65 914.48,-101.09 976.2,-79.44 987.72,-75.4 987.61,-68.26 999.2,-64.44 1130.29,-21.3 1174.02,-74.23 1309.2,-46.44 1318.02,-44.63 1327.31,-41.74 1335.8,-38.68"/>
<polygon fill="black" stroke="black" points="1337.22,-41.88 1345.33,-35.06 1334.74,-35.34 1337.22,-41.88"/>
<text text-anchor="middle" x="1011.7" y="-68.24" font-family="Times,serif" font-size="14.00">{r3}</text>
</g>
<!-- 4&#45;&gt;4 -->
<g id="edge55" class="edge">
<title>4&#45;&gt;4</title>
<path fill="none" stroke="black" d="M639.73,-123.19C650.71,-123.93 660.2,-121.35 660.2,-115.44 660.2,-111.47 655.92,-109.01 649.78,-108.04"/>
<polygon fill="black" stroke="black" points="649.85,-104.54 639.73,-107.69 649.61,-111.53 649.85,-104.54"/>
<text text-anchor="middle" x="667.2" y="-111.74" font-family="Times,serif" font-size="14.00">{}</text>
</g>
<!-- 5 -->
<g id="node7" class="node">
<title>5</title>
<ellipse fill="none" stroke="black" cx="278.2" cy="-24.44" rx="18" ry="18"/>
<ellipse fill="none" stroke="black" cx="278.2" cy="-24.44" rx="22" ry="22"/>
<text text-anchor="middle" x="278.2" y="-20.74" font-family="Times,serif" font-size="14.00">5</text>
</g>
<!-- 4&#45;&gt;5 -->
<g id="edge50" class="edge">
<title>4&#45;&gt;5</title>
<path fill="none" stroke="black" d="M587.98,-113.91C472.07,-111.53 24.51,-100.95 4.2,-79.44 -29.9,-43.33 166.05,-30.44 245.69,-26.72"/>
<polygon fill="black" stroke="black" points="246.28,-30.2 256.12,-26.26 245.97,-23.21 246.28,-30.2"/>
<text text-anchor="middle" x="35.7" y="-68.24" font-family="Times,serif" font-size="14.00">{r0, r1, r2}</text>
</g>
<!-- 4&#45;&gt;5 -->
<g id="edge51" class="edge">
<title>4&#45;&gt;5</title>
<path fill="none" stroke="black" d="M587.96,-114.75C485.11,-115.61 124.41,-116.01 90.2,-79.44 44.38,-30.47 181.16,-24.92 246.06,-24.94"/>
<polygon fill="black" stroke="black" points="246.17,-28.44 256.19,-24.99 246.21,-21.44 246.17,-28.44"/>
<text text-anchor="middle" x="102.7" y="-68.24" font-family="Times,serif" font-size="14.00">{r0}</text>
</g>
<!-- 4&#45;&gt;5 -->
<g id="edge52" class="edge">
<title>4&#45;&gt;5</title>
<path fill="none" stroke="black" d="M588.17,-114.55C491.76,-114.65 168.94,-112.52 138.2,-79.44 105.01,-43.72 195.2,-31.37 246.1,-27.31"/>
<polygon fill="black" stroke="black" points="246.58,-30.78 256.3,-26.56 246.07,-23.8 246.58,-30.78"/>
<text text-anchor="middle" x="169.7" y="-68.24" font-family="Times,serif" font-size="14.00">{r0, r2, r3}</text>
</g>
<!-- 4&#45;&gt;5 -->
<g id="edge53" class="edge">
<title>4&#45;&gt;5</title>
<path fill="none" stroke="black" d="M588.18,-114.08C503.71,-112.68 248.72,-106.26 224.2,-79.44 211.22,-65.25 230.28,-49.81 249.24,-39.09"/>
<polygon fill="black" stroke="black" points="250.93,-42.15 258.12,-34.37 247.64,-35.97 250.93,-42.15"/>
<text text-anchor="middle" x="246.2" y="-68.24" font-family="Times,serif" font-size="14.00">{r0, r3}</text>
</g>
<!-- 4&#45;&gt;5 -->
<g id="edge54" class="edge">
<title>4&#45;&gt;5</title>
<path fill="none" stroke="black" d="M588.16,-113.29C514.34,-109.88 313.35,-98.91 291.2,-79.44 284.59,-73.63 281.04,-65.1 279.21,-56.52"/>
<polygon fill="black" stroke="black" points="282.67,-55.99 277.77,-46.6 275.74,-57 282.67,-55.99"/>
<text text-anchor="middle" x="313.2" y="-68.24" font-family="Times,serif" font-size="14.00">{r0, r1}</text>
</g>
<!-- 4&#45;&gt;5 -->
<g id="edge56" class="edge">
<title>4&#45;&gt;5</title>
<path fill="none" stroke="black" d="M587.94,-114.74C539.9,-114.4 437.71,-109.79 358.2,-79.44 356.67,-78.86 327.28,-58.92 304.56,-43.44"/>
<polygon fill="black" stroke="black" points="306.48,-40.52 296.25,-37.77 302.54,-46.3 306.48,-40.52"/>
<text text-anchor="middle" x="389.7" y="-68.24" font-family="Times,serif" font-size="14.00">{r0, r1, r3}</text>
</g>
<!-- 4&#45;&gt;5 -->
<g id="edge57" class="edge">
<title>4&#45;&gt;5</title>
<path fill="none" stroke="black" d="M588.52,-112.11C554.09,-108.4 492.83,-99.43 444.2,-79.44 432.91,-74.8 432.33,-69.44 421.2,-64.44 384.61,-48.01 339.57,-37.13 309.93,-31.13"/>
<polygon fill="black" stroke="black" points="310.24,-27.63 299.75,-29.14 308.89,-34.5 310.24,-27.63"/>
<text text-anchor="middle" x="485.2" y="-68.24" font-family="Times,serif" font-size="14.00">{r0, r1, r2, r3}</text>
</g>
<!-- 4&#45;&gt;5 -->
<g id="edge58" class="edge">
<title>4&#45;&gt;5</title>
<path fill="none" stroke="black" d="M594.13,-103.88C581.03,-97.17 563.95,-88.14 549.2,-79.44 538.69,-73.24 537.59,-68.82 526.2,-64.44 452.45,-36.1 358.78,-28.34 310.39,-26.23"/>
<polygon fill="black" stroke="black" points="310.35,-22.72 300.22,-25.84 310.08,-29.72 310.35,-22.72"/>
<text text-anchor="middle" x="571.2" y="-68.24" font-family="Times,serif" font-size="14.00">{r0, r2}</text>
</g>
<!-- 5&#45;&gt;5 -->
<g id="edge18" class="edge">
<title>5&#45;&gt;5</title>
<path fill="none" stroke="black" d="M300.41,-25.92C310,-26.05 318.2,-25.55 318.2,-24.44 318.2,-23.77 315.15,-23.32 310.61,-23.1"/>
<polygon fill="black" stroke="black" points="310.46,-19.6 300.41,-22.96 310.36,-26.6 310.46,-19.6"/>
<text text-anchor="middle" x="349.7" y="-20.74" font-family="Times,serif" font-size="14.00">{r1, r2, r3}</text>
</g>
<!-- 5&#45;&gt;5 -->
<g id="edge19" class="edge">
<title>5&#45;&gt;5</title>
<path fill="none" stroke="black" d="M300.49,-26.6C332.16,-28.22 381.2,-27.51 381.2,-24.44 381.2,-21.69 341.61,-20.83 310.61,-21.87"/>
<polygon fill="black" stroke="black" points="310.34,-18.37 300.49,-22.29 310.63,-25.37 310.34,-18.37"/>
<text text-anchor="middle" x="422.2" y="-20.74" font-family="Times,serif" font-size="14.00">{r0, r1, r2, r3}</text>
</g>
<!-- 5&#45;&gt;5 -->
<g id="edge20" class="edge">
<title>5&#45;&gt;5</title>
<path fill="none" stroke="black" d="M300.22,-26.91C351.63,-30.28 463.2,-29.46 463.2,-24.44 463.2,-19.74 365.14,-18.72 310.52,-21.39"/>
<polygon fill="black" stroke="black" points="310,-17.91 300.22,-21.97 310.4,-24.9 310,-17.91"/>
<text text-anchor="middle" x="470.2" y="-20.74" font-family="Times,serif" font-size="14.00">{}</text>
</g>
<!-- 5&#45;&gt;5 -->
<g id="edge21" class="edge">
<title>5&#45;&gt;5</title>
<path fill="none" stroke="black" d="M300.02,-27.44C356.14,-32.27 481.2,-31.27 481.2,-24.44 481.2,-18 369.91,-16.75 310.19,-20.68"/>
<polygon fill="black" stroke="black" points="309.73,-17.2 300.02,-21.44 310.26,-24.18 309.73,-17.2"/>
<text text-anchor="middle" x="503.2" y="-20.74" font-family="Times,serif" font-size="14.00">{r0, r2}</text>
</g>
<!-- 5&#45;&gt;5 -->
<g id="edge22" class="edge">
<title>5&#45;&gt;5</title>
<path fill="none" stroke="black" d="M299.97,-27.77C365.39,-34.28 525.2,-33.17 525.2,-24.44 525.2,-16.14 380.62,-14.73 310.2,-20.22"/>
<polygon fill="black" stroke="black" points="309.63,-16.75 299.97,-21.12 310.24,-23.73 309.63,-16.75"/>
<text text-anchor="middle" x="537.7" y="-20.74" font-family="Times,serif" font-size="14.00">{r3}</text>
</g>
<!-- 5&#45;&gt;5 -->
<g id="edge23" class="edge">
<title>5&#45;&gt;5</title>
<path fill="none" stroke="black" d="M299.93,-28.11C371.2,-36.28 550.2,-35.06 550.2,-24.44 550.2,-14.3 386.92,-12.73 310.16,-19.73"/>
<polygon fill="black" stroke="black" points="309.52,-16.27 299.93,-20.77 310.23,-23.24 309.52,-16.27"/>
<text text-anchor="middle" x="581.7" y="-20.74" font-family="Times,serif" font-size="14.00">{r0, r2, r3}</text>
</g>
<!-- 5&#45;&gt;5 -->
<g id="edge24" class="edge">
<title>5&#45;&gt;5</title>
<path fill="none" stroke="black" d="M300,-28.28C382.61,-38.3 613.2,-37.02 613.2,-24.44 613.2,-12.34 399.84,-10.7 310.06,-19.51"/>
<polygon fill="black" stroke="black" points="309.56,-16.05 300,-20.61 310.32,-23.01 309.56,-16.05"/>
<text text-anchor="middle" x="644.7" y="-20.74" font-family="Times,serif" font-size="14.00">{r0, r1, r3}</text>
</g>
<!-- 5&#45;&gt;5 -->
<g id="edge25" class="edge">
<title>5&#45;&gt;5</title>
<path fill="none" stroke="black" d="M299.91,-28.41C392.95,-40.31 676.2,-38.99 676.2,-24.44 676.2,-10.39 411.98,-8.68 310.1,-19.3"/>
<polygon fill="black" stroke="black" points="309.45,-15.86 299.91,-20.48 310.25,-22.81 309.45,-15.86"/>
<text text-anchor="middle" x="707.7" y="-20.74" font-family="Times,serif" font-size="14.00">{r0, r1, r2}</text>
</g>
<!-- 5&#45;&gt;5 -->
<g id="edge26" class="edge">
<title>5&#45;&gt;5</title>
<path fill="none" stroke="black" d="M300.05,-28.55C403.13,-42.32 739.2,-40.95 739.2,-24.44 739.2,-8.44 423.17,-6.66 310.03,-19.12"/>
<polygon fill="black" stroke="black" points="309.55,-15.66 300.05,-20.33 310.39,-22.61 309.55,-15.66"/>
<text text-anchor="middle" x="761.2" y="-20.74" font-family="Times,serif" font-size="14.00">{r1, r2}</text>
</g>
<!-- 5&#45;&gt;5 -->
<g id="edge27" class="edge">
<title>5&#45;&gt;5</title>
<path fill="none" stroke="black" d="M300.03,-28.71C410.46,-44.32 783.2,-42.9 783.2,-24.44 783.2,-6.51 431.27,-4.66 310.03,-18.89"/>
<polygon fill="black" stroke="black" points="309.5,-15.42 300.03,-20.17 310.39,-22.37 309.5,-15.42"/>
<text text-anchor="middle" x="795.7" y="-20.74" font-family="Times,serif" font-size="14.00">{r0}</text>
</g>
<!-- 5&#45;&gt;5 -->
<g id="edge28" class="edge">
<title>5&#45;&gt;5</title>
<path fill="none" stroke="black" d="M299.79,-28.87C415.15,-46.33 808.2,-44.85 808.2,-24.44 808.2,-4.59 436.35,-2.65 309.86,-18.63"/>
<polygon fill="black" stroke="black" points="309.22,-15.18 299.79,-20.02 310.17,-22.12 309.22,-15.18"/>
<text text-anchor="middle" x="830.2" y="-20.74" font-family="Times,serif" font-size="14.00">{r0, r1}</text>
</g>
<!-- 5&#45;&gt;5 -->
<g id="edge29" class="edge">
<title>5&#45;&gt;5</title>
<path fill="none" stroke="black" d="M300,-29.03C422.85,-48.33 852.2,-46.8 852.2,-24.44 852.2,-2.65 444.38,-0.65 309.94,-18.43"/>
<polygon fill="black" stroke="black" points="309.4,-14.97 300,-19.86 310.4,-21.9 309.4,-14.97"/>
<text text-anchor="middle" x="874.2" y="-20.74" font-family="Times,serif" font-size="14.00">{r1, r3}</text>
</g>
<!-- 5&#45;&gt;5 -->
<g id="edge30" class="edge">
<title>5&#45;&gt;5</title>
<path fill="none" stroke="black" d="M300.01,-29.15C429.99,-50.33 896.2,-48.77 896.2,-24.44 896.2,-0.71 452.47,1.36 310.12,-18.23"/>
<polygon fill="black" stroke="black" points="309.39,-14.8 300.01,-19.74 310.42,-21.72 309.39,-14.8"/>
<text text-anchor="middle" x="918.2" y="-20.74" font-family="Times,serif" font-size="14.00">{r0, r3}</text>
</g>
<!-- 5&#45;&gt;5 -->
<g id="edge31" class="edge">
<title>5&#45;&gt;5</title>
<path fill="none" stroke="black" d="M299.83,-29.22C436.55,-52.34 940.2,-50.75 940.2,-24.44 940.2,1.25 459.88,3.37 310.04,-18.08"/>
<polygon fill="black" stroke="black" points="309.17,-14.67 299.83,-19.66 310.25,-21.59 309.17,-14.67"/>
<text text-anchor="middle" x="952.7" y="-20.74" font-family="Times,serif" font-size="14.00">{r1}</text>
</g>
<!-- 5&#45;&gt;5 -->
<g id="edge32" class="edge">
<title>5&#45;&gt;5</title>
<path fill="none" stroke="black" d="M299.72,-29.33C441.53,-54.34 965.2,-52.71 965.2,-24.44 965.2,3.19 464.79,5.37 309.84,-17.91"/>
<polygon fill="black" stroke="black" points="309.03,-14.5 299.72,-19.56 310.15,-21.41 309.03,-14.5"/>
<text text-anchor="middle" x="987.2" y="-20.74" font-family="Times,serif" font-size="14.00">{r2, r3}</text>
</g>
<!-- 5&#45;&gt;5 -->
<g id="edge33" class="edge">
<title>5&#45;&gt;5</title>
<path fill="none" stroke="black" d="M299.67,-29.41C448.31,-56.35 1009.2,-54.69 1009.2,-24.44 1009.2,5.16 472.15,7.38 309.81,-17.78"/>
<polygon fill="black" stroke="black" points="308.96,-14.38 299.67,-19.48 310.11,-21.28 308.96,-14.38"/>
<text text-anchor="middle" x="1021.7" y="-20.74" font-family="Times,serif" font-size="14.00">{r2}</text>
</g>
</g>
</svg>
