<?xml version="1.0" encoding="UTF-8" standalone="no"?>
<!DOCTYPE svg PUBLIC "-//W3C//DTD SVG 1.1//EN"
 "http://www.w3.org/Graphics/SVG/1.1/DTD/svg11.dtd">
<!-- Generated by graphviz version 2.43.0 (0)
 -->
<!-- Title: %3 Pages: 1 -->
<svg width="999pt" height="386pt"
 viewBox="0.00 0.00 998.92 386.00" xmlns="http://www.w3.org/2000/svg" xmlns:xlink="http://www.w3.org/1999/xlink">
<g id="graph0" class="graph" transform="scale(1 1) rotate(0) translate(4 382)">
<title>%3</title>
<polygon fill="white" stroke="transparent" points="-4,4 -4,-382 994.92,-382 994.92,4 -4,4"/>
<!-- fake -->
<g id="node1" class="node">
<title>fake</title>
</g>
<!-- 0 -->
<g id="node2" class="node">
<title>0</title>
<ellipse fill="none" stroke="black" cx="547.92" cy="-287" rx="27" ry="18"/>
<text text-anchor="middle" x="547.92" y="-283.3" font-family="Times,serif" font-size="14.00">0</text>
</g>
<!-- fake&#45;&gt;0 -->
<g id="edge1" class="edge">
<title>fake&#45;&gt;0</title>
<path fill="none" stroke="black" stroke-width="2" d="M547.92,-341.81C547.92,-333.79 547.92,-324.05 547.92,-315.07"/>
<polygon fill="black" stroke="black" stroke-width="2" points="551.42,-315.03 547.92,-305.03 544.42,-315.03 551.42,-315.03"/>
</g>
<!-- 0&#45;&gt;0 -->
<g id="edge12" class="edge">
<title>0&#45;&gt;0</title>
<path fill="none" stroke="black" d="M573.36,-293.69C583.95,-294.15 592.92,-291.92 592.92,-287 592.92,-283.77 589.05,-281.7 583.41,-280.79"/>
<polygon fill="black" stroke="black" points="583.52,-277.29 573.36,-280.31 583.18,-284.28 583.52,-277.29"/>
<text text-anchor="middle" x="599.92" y="-283.3" font-family="Times,serif" font-size="14.00">{}</text>
</g>
<!-- 1 -->
<g id="node3" class="node">
<title>1</title>
<ellipse fill="none" stroke="black" cx="414.92" cy="-200" rx="27" ry="18"/>
<text text-anchor="middle" x="414.92" y="-196.3" font-family="Times,serif" font-size="14.00">1</text>
</g>
<!-- 0&#45;&gt;1 -->
<g id="edge10" class="edge">
<title>0&#45;&gt;1</title>
<path fill="none" stroke="black" d="M520.77,-285.31C471.92,-283.43 372.28,-276.49 350.92,-251 337.9,-235.47 359.68,-221.61 381.28,-212.45"/>
<polygon fill="black" stroke="black" points="382.73,-215.64 390.74,-208.7 380.16,-209.13 382.73,-215.64"/>
<text text-anchor="middle" x="372.42" y="-239.8" font-family="Times,serif" font-size="14.00">{t0, t2}</text>
</g>
<!-- 0&#45;&gt;1 -->
<g id="edge11" class="edge">
<title>0&#45;&gt;1</title>
<path fill="none" stroke="black" d="M521.62,-282.66C487.25,-277.71 429.9,-267.22 416.92,-251 411.86,-244.68 410.22,-236.34 410.18,-228.28"/>
<polygon fill="black" stroke="black" points="413.69,-228.27 410.89,-218.05 406.71,-227.78 413.69,-228.27"/>
<text text-anchor="middle" x="447.42" y="-239.8" font-family="Times,serif" font-size="14.00">{t0, t1, t2}</text>
</g>
<!-- 0&#45;&gt;1 -->
<g id="edge13" class="edge">
<title>0&#45;&gt;1</title>
<path fill="none" stroke="black" d="M530.75,-272.91C516.8,-262.48 496.48,-247.73 477.92,-236 467.28,-229.28 455.29,-222.44 444.63,-216.61"/>
<polygon fill="black" stroke="black" points="446.15,-213.45 435.69,-211.77 442.82,-219.61 446.15,-213.45"/>
<text text-anchor="middle" x="511.42" y="-239.8" font-family="Times,serif" font-size="14.00">{t0}</text>
</g>
<!-- 0&#45;&gt;1 -->
<g id="edge14" class="edge">
<title>0&#45;&gt;1</title>
<path fill="none" stroke="black" d="M544.28,-269.02C541.13,-258.18 535.52,-244.61 525.92,-236 505.47,-217.67 475.46,-208.94 451.79,-204.78"/>
<polygon fill="black" stroke="black" points="452.17,-201.3 441.75,-203.22 451.1,-208.21 452.17,-201.3"/>
<text text-anchor="middle" x="557.42" y="-239.8" font-family="Times,serif" font-size="14.00">{t0, t1}</text>
</g>
<!-- 2 -->
<g id="node4" class="node">
<title>2</title>
<ellipse fill="none" stroke="black" cx="540.92" cy="-22" rx="27" ry="18"/>
<text text-anchor="middle" x="540.92" y="-18.3" font-family="Times,serif" font-size="14.00">2</text>
</g>
<!-- 0&#45;&gt;2 -->
<g id="edge15" class="edge">
<title>0&#45;&gt;2</title>
<path fill="none" stroke="black" d="M565.56,-273.35C572.33,-267.42 579.3,-259.73 582.92,-251 585.47,-244.84 583.13,-242.66 582.92,-236 580.92,-173.24 588.39,-156.1 573.92,-95 570.04,-78.63 562.34,-61.47 555.35,-48.01"/>
<polygon fill="black" stroke="black" points="558.28,-46.06 550.45,-38.92 552.11,-49.39 558.28,-46.06"/>
<text text-anchor="middle" x="595.42" y="-152.8" font-family="Times,serif" font-size="14.00">{t2}</text>
</g>
<!-- 0&#45;&gt;2 -->
<g id="edge16" class="edge">
<title>0&#45;&gt;2</title>
<path fill="none" stroke="black" d="M569.32,-275.71C579.25,-269.84 590.3,-261.54 596.92,-251 621.28,-212.19 620.18,-194.07 611.92,-149 604.46,-108.32 601.15,-96.87 578.92,-62 574.8,-55.53 569.47,-49.25 564.12,-43.68"/>
<polygon fill="black" stroke="black" points="566.49,-41.11 556.91,-36.58 561.58,-46.09 566.49,-41.11"/>
<text text-anchor="middle" x="635.42" y="-152.8" font-family="Times,serif" font-size="14.00">{t1, t2}</text>
</g>
<!-- 0&#45;&gt;2 -->
<g id="edge17" class="edge">
<title>0&#45;&gt;2</title>
<path fill="none" stroke="black" d="M571.52,-277.79C585.47,-272.01 602.73,-263.13 614.92,-251 650.17,-215.92 676.43,-196.25 660.92,-149 645.95,-103.39 631.3,-95.5 596.92,-62 588.62,-53.92 578.5,-46.32 569.15,-40.02"/>
<polygon fill="black" stroke="black" points="570.8,-36.92 560.51,-34.4 566.98,-42.78 570.8,-36.92"/>
<text text-anchor="middle" x="676.42" y="-152.8" font-family="Times,serif" font-size="14.00">{t1}</text>
</g>
<!-- 1&#45;&gt;1 -->
<g id="edge27" class="edge">
<title>1&#45;&gt;1</title>
<path fill="none" stroke="black" d="M439.45,-207.75C450.43,-208.49 459.92,-205.91 459.92,-200 459.92,-196.03 455.63,-193.56 449.49,-192.59"/>
<polygon fill="black" stroke="black" points="449.57,-189.09 439.45,-192.25 449.32,-196.09 449.57,-189.09"/>
<text text-anchor="middle" x="466.92" y="-196.3" font-family="Times,serif" font-size="14.00">{}</text>
</g>
<!-- 1&#45;&gt;2 -->
<g id="edge31" class="edge">
<title>1&#45;&gt;2</title>
<path fill="none" stroke="black" d="M413.96,-181.83C413.48,-160.38 415.02,-123.08 428.92,-95 446.96,-58.54 468.51,-62.14 504.92,-44 507.53,-42.7 510.21,-41.29 512.88,-39.83"/>
<polygon fill="black" stroke="black" points="514.77,-42.78 521.75,-34.81 511.32,-36.69 514.77,-42.78"/>
<text text-anchor="middle" x="441.42" y="-109.3" font-family="Times,serif" font-size="14.00">{t2}</text>
</g>
<!-- 1&#45;&gt;2 -->
<g id="edge32" class="edge">
<title>1&#45;&gt;2</title>
<path fill="none" stroke="black" d="M426.1,-183.38C448.24,-152.46 497.76,-83.29 523.94,-46.71"/>
<polygon fill="black" stroke="black" points="526.79,-48.75 529.76,-38.58 521.1,-44.68 526.79,-48.75"/>
<text text-anchor="middle" x="509.42" y="-109.3" font-family="Times,serif" font-size="14.00">{t0, t2}</text>
</g>
<!-- 1&#45;&gt;2 -->
<g id="edge33" class="edge">
<title>1&#45;&gt;2</title>
<path fill="none" stroke="black" d="M439.67,-192.34C467.57,-183.41 511.79,-164.63 532.92,-131 548.03,-106.95 548.09,-73.67 545.6,-50.44"/>
<polygon fill="black" stroke="black" points="549.04,-49.69 544.28,-40.23 542.1,-50.59 549.04,-49.69"/>
<text text-anchor="middle" x="557.42" y="-109.3" font-family="Times,serif" font-size="14.00">{t0}</text>
</g>
<!-- 3 -->
<g id="node5" class="node">
<title>3</title>
<ellipse fill="none" stroke="black" cx="206.92" cy="-113" rx="27" ry="18"/>
<text text-anchor="middle" x="206.92" y="-109.3" font-family="Times,serif" font-size="14.00">3</text>
</g>
<!-- 1&#45;&gt;3 -->
<g id="edge26" class="edge">
<title>1&#45;&gt;3</title>
<path fill="none" stroke="black" d="M387.87,-199.54C328.41,-200.1 189.29,-197.68 159.92,-164 149.64,-152.22 162.25,-139.37 176.99,-129.65"/>
<polygon fill="black" stroke="black" points="179.03,-132.51 185.75,-124.32 175.39,-126.53 179.03,-132.51"/>
<text text-anchor="middle" x="172.42" y="-152.8" font-family="Times,serif" font-size="14.00">{t1}</text>
</g>
<!-- 1&#45;&gt;3 -->
<g id="edge28" class="edge">
<title>1&#45;&gt;3</title>
<path fill="none" stroke="black" d="M387.65,-198.52C336.88,-197 230.89,-190.64 207.92,-164 202.5,-157.71 200.99,-149.15 201.22,-140.88"/>
<polygon fill="black" stroke="black" points="204.72,-141.08 202.29,-130.76 197.76,-140.34 204.72,-141.08"/>
<text text-anchor="middle" x="229.42" y="-152.8" font-family="Times,serif" font-size="14.00">{t1, t2}</text>
</g>
<!-- 1&#45;&gt;3 -->
<g id="edge29" class="edge">
<title>1&#45;&gt;3</title>
<path fill="none" stroke="black" d="M388.66,-195.67C359.52,-191.26 311.65,-181.86 273.92,-164 265.01,-159.78 246.69,-145.96 231.45,-133.92"/>
<polygon fill="black" stroke="black" points="233.39,-130.98 223.39,-127.48 229.02,-136.45 233.39,-130.98"/>
<text text-anchor="middle" x="295.42" y="-152.8" font-family="Times,serif" font-size="14.00">{t0, t1}</text>
</g>
<!-- 1&#45;&gt;3 -->
<g id="edge30" class="edge">
<title>1&#45;&gt;3</title>
<path fill="none" stroke="black" d="M392.52,-189.54C377.39,-182.91 357.13,-173.56 339.92,-164 329.25,-158.07 327.94,-154.23 316.92,-149 292.85,-137.58 264.11,-128.58 242.05,-122.57"/>
<polygon fill="black" stroke="black" points="242.67,-119.12 232.11,-119.94 240.88,-125.88 242.67,-119.12"/>
<text text-anchor="middle" x="370.42" y="-152.8" font-family="Times,serif" font-size="14.00">{t0, t1, t2}</text>
</g>
<!-- 2&#45;&gt;2 -->
<g id="edge34" class="edge">
<title>2&#45;&gt;2</title>
<path fill="none" stroke="black" d="M568.16,-23.5C577.94,-23.53 585.92,-23.03 585.92,-22 585.92,-21.37 582.96,-20.94 578.43,-20.71"/>
<polygon fill="black" stroke="black" points="578.23,-17.2 568.16,-20.5 578.09,-24.2 578.23,-17.2"/>
<text text-anchor="middle" x="607.42" y="-18.3" font-family="Times,serif" font-size="14.00">{t0, t1}</text>
</g>
<!-- 2&#45;&gt;2 -->
<g id="edge35" class="edge">
<title>2&#45;&gt;2</title>
<path fill="none" stroke="black" d="M567.93,-24.47C595.05,-25.67 628.92,-24.84 628.92,-22 628.92,-19.5 602.76,-18.56 578.01,-19.19"/>
<polygon fill="black" stroke="black" points="577.8,-15.69 567.93,-19.53 578.05,-22.69 577.8,-15.69"/>
<text text-anchor="middle" x="641.42" y="-18.3" font-family="Times,serif" font-size="14.00">{t2}</text>
</g>
<!-- 2&#45;&gt;2 -->
<g id="edge36" class="edge">
<title>2&#45;&gt;2</title>
<path fill="none" stroke="black" d="M567.49,-25.21C603.25,-27.68 653.92,-26.61 653.92,-22 653.92,-17.83 612.3,-16.56 577.88,-18.19"/>
<polygon fill="black" stroke="black" points="577.27,-14.72 567.49,-18.79 577.67,-21.71 577.27,-14.72"/>
<text text-anchor="middle" x="675.42" y="-18.3" font-family="Times,serif" font-size="14.00">{t1, t2}</text>
</g>
<!-- 2&#45;&gt;2 -->
<g id="edge37" class="edge">
<title>2&#45;&gt;2</title>
<path fill="none" stroke="black" d="M567.57,-25.66C615.72,-29.72 696.92,-28.5 696.92,-22 696.92,-15.93 626.15,-14.47 577.57,-17.6"/>
<polygon fill="black" stroke="black" points="577.28,-14.12 567.57,-18.34 577.8,-21.1 577.28,-14.12"/>
<text text-anchor="middle" x="709.42" y="-18.3" font-family="Times,serif" font-size="14.00">{t1}</text>
</g>
<!-- 2&#45;&gt;2 -->
<g id="edge38" class="edge">
<title>2&#45;&gt;2</title>
<path fill="none" stroke="black" d="M567.35,-26.11C622.69,-31.73 721.92,-30.36 721.92,-22 721.92,-14.13 633.98,-12.45 577.5,-16.97"/>
<polygon fill="black" stroke="black" points="576.99,-13.5 567.35,-17.89 577.62,-20.47 576.99,-13.5"/>
<text text-anchor="middle" x="728.92" y="-18.3" font-family="Times,serif" font-size="14.00">{}</text>
</g>
<!-- 2&#45;&gt;2 -->
<g id="edge39" class="edge">
<title>2&#45;&gt;2</title>
<path fill="none" stroke="black" d="M567.3,-26.55C628.24,-33.74 739.92,-32.22 739.92,-22 739.92,-12.32 639.71,-10.45 577.34,-16.39"/>
<polygon fill="black" stroke="black" points="576.88,-12.91 567.3,-17.45 577.62,-19.88 576.88,-12.91"/>
<text text-anchor="middle" x="770.42" y="-18.3" font-family="Times,serif" font-size="14.00">{t0, t1, t2}</text>
</g>
<!-- 2&#45;&gt;2 -->
<g id="edge40" class="edge">
<title>2&#45;&gt;2</title>
<path fill="none" stroke="black" d="M567.23,-26.66C641.62,-35.77 800.92,-34.22 800.92,-22 800.92,-10.3 655.01,-8.38 577.27,-16.23"/>
<polygon fill="black" stroke="black" points="576.78,-12.76 567.23,-17.34 577.56,-19.72 576.78,-12.76"/>
<text text-anchor="middle" x="822.42" y="-18.3" font-family="Times,serif" font-size="14.00">{t0, t2}</text>
</g>
<!-- 2&#45;&gt;2 -->
<g id="edge41" class="edge">
<title>2&#45;&gt;2</title>
<path fill="none" stroke="black" d="M566.93,-26.82C650.5,-37.79 843.92,-36.19 843.92,-22 843.92,-8.35 664.95,-6.35 576.94,-15.98"/>
<polygon fill="black" stroke="black" points="576.45,-12.51 566.93,-17.18 577.28,-19.46 576.45,-12.51"/>
<text text-anchor="middle" x="856.42" y="-18.3" font-family="Times,serif" font-size="14.00">{t0}</text>
</g>
<!-- 3&#45;&gt;2 -->
<g id="edge23" class="edge">
<title>3&#45;&gt;2</title>
<path fill="none" stroke="black" d="M220.28,-96.84C231.66,-85.07 249.11,-69.54 267.92,-62 365.97,-22.7 404.06,-75.41 504.92,-44 507.93,-43.06 510.96,-41.83 513.91,-40.44"/>
<polygon fill="black" stroke="black" points="515.81,-43.4 522.98,-35.6 512.51,-37.22 515.81,-43.4"/>
<text text-anchor="middle" x="289.42" y="-65.8" font-family="Times,serif" font-size="14.00">{t0, t1}</text>
</g>
<!-- 3&#45;&gt;2 -->
<g id="edge24" class="edge">
<title>3&#45;&gt;2</title>
<path fill="none" stroke="black" d="M231.56,-105.62C253.08,-99.6 284.86,-89.63 310.92,-77 321.9,-71.68 322.42,-66.09 333.92,-62 405.93,-36.41 432.29,-67.78 504.92,-44 507.92,-43.02 510.94,-41.76 513.89,-40.35"/>
<polygon fill="black" stroke="black" points="515.8,-43.3 522.95,-35.48 512.48,-37.14 515.8,-43.3"/>
<text text-anchor="middle" x="346.42" y="-65.8" font-family="Times,serif" font-size="14.00">{t1}</text>
</g>
<!-- 3&#45;&gt;2 -->
<g id="edge25" class="edge">
<title>3&#45;&gt;2</title>
<path fill="none" stroke="black" d="M233.34,-108.79C264.36,-104.37 316.93,-94.86 358.92,-77 370.15,-72.22 370.5,-66.32 381.92,-62 433.59,-42.45 452.77,-62.25 504.92,-44 507.83,-42.98 510.77,-41.72 513.65,-40.32"/>
<polygon fill="black" stroke="black" points="515.38,-43.37 522.52,-35.54 512.06,-37.21 515.38,-43.37"/>
<text text-anchor="middle" x="394.42" y="-65.8" font-family="Times,serif" font-size="14.00">{t0}</text>
</g>
<!-- 3&#45;&gt;3 -->
<g id="edge21" class="edge">
<title>3&#45;&gt;3</title>
<path fill="none" stroke="black" d="M231.45,-120.75C242.43,-121.49 251.92,-118.91 251.92,-113 251.92,-109.03 247.63,-106.56 241.49,-105.59"/>
<polygon fill="black" stroke="black" points="241.57,-102.09 231.45,-105.25 241.32,-109.09 241.57,-102.09"/>
<text text-anchor="middle" x="258.92" y="-109.3" font-family="Times,serif" font-size="14.00">{}</text>
</g>
<!-- 4 -->
<g id="node6" class="node">
<title>4</title>
<ellipse fill="none" stroke="black" cx="50.92" cy="-22" rx="18" ry="18"/>
<ellipse fill="none" stroke="black" cx="50.92" cy="-22" rx="22" ry="22"/>
<text text-anchor="middle" x="50.92" y="-18.3" font-family="Times,serif" font-size="14.00">4</text>
</g>
<!-- 3&#45;&gt;4 -->
<g id="edge18" class="edge">
<title>3&#45;&gt;4</title>
<path fill="none" stroke="black" d="M179.74,-111.47C129.7,-109.85 26.09,-103.33 3.92,-77 -7.09,-63.93 7.29,-49.31 22.96,-38.59"/>
<polygon fill="black" stroke="black" points="25.09,-41.39 31.65,-33.07 21.33,-35.48 25.09,-41.39"/>
<text text-anchor="middle" x="16.42" y="-65.8" font-family="Times,serif" font-size="14.00">{t2}</text>
</g>
<!-- 3&#45;&gt;4 -->
<g id="edge19" class="edge">
<title>3&#45;&gt;4</title>
<path fill="none" stroke="black" d="M180.18,-109.86C140.22,-106.05 67.86,-96.57 51.92,-77 46.61,-70.49 44.9,-61.92 44.91,-53.54"/>
<polygon fill="black" stroke="black" points="48.4,-53.78 45.66,-43.55 41.42,-53.26 48.4,-53.78"/>
<text text-anchor="middle" x="82.42" y="-65.8" font-family="Times,serif" font-size="14.00">{t0, t1, t2}</text>
</g>
<!-- 3&#45;&gt;4 -->
<g id="edge20" class="edge">
<title>3&#45;&gt;4</title>
<path fill="none" stroke="black" d="M185.13,-102.09C170.9,-95.42 152.04,-86.19 135.92,-77 125.32,-70.96 123.2,-68.58 112.92,-62 101.46,-54.66 88.74,-46.64 77.83,-39.79"/>
<polygon fill="black" stroke="black" points="79.48,-36.7 69.15,-34.36 75.76,-42.63 79.48,-36.7"/>
<text text-anchor="middle" x="157.42" y="-65.8" font-family="Times,serif" font-size="14.00">{t0, t2}</text>
</g>
<!-- 3&#45;&gt;4 -->
<g id="edge22" class="edge">
<title>3&#45;&gt;4</title>
<path fill="none" stroke="black" d="M201.18,-94.94C196.7,-84.07 189.46,-70.49 178.92,-62 151.33,-39.78 111.18,-30.19 83.23,-26.07"/>
<polygon fill="black" stroke="black" points="83.54,-22.58 73.17,-24.75 82.62,-29.52 83.54,-22.58"/>
<text text-anchor="middle" x="213.42" y="-65.8" font-family="Times,serif" font-size="14.00">{t1, t2}</text>
</g>
<!-- 4&#45;&gt;4 -->
<g id="edge2" class="edge">
<title>4&#45;&gt;4</title>
<path fill="none" stroke="black" d="M73.13,-23.48C82.71,-23.6 90.92,-23.11 90.92,-22 90.92,-21.32 87.87,-20.88 83.32,-20.66"/>
<polygon fill="black" stroke="black" points="83.18,-17.16 73.13,-20.52 83.08,-24.15 83.18,-17.16"/>
<text text-anchor="middle" x="112.42" y="-18.3" font-family="Times,serif" font-size="14.00">{t0, t1}</text>
</g>
<!-- 4&#45;&gt;4 -->
<g id="edge3" class="edge">
<title>4&#45;&gt;4</title>
<path fill="none" stroke="black" d="M72.86,-24.3C98.85,-25.73 133.92,-24.97 133.92,-22 133.92,-19.4 107.07,-18.49 82.95,-19.27"/>
<polygon fill="black" stroke="black" points="82.7,-15.78 72.86,-19.7 83,-22.77 82.7,-15.78"/>
<text text-anchor="middle" x="146.42" y="-18.3" font-family="Times,serif" font-size="14.00">{t0}</text>
</g>
<!-- 4&#45;&gt;4 -->
<g id="edge4" class="edge">
<title>4&#45;&gt;4</title>
<path fill="none" stroke="black" d="M72.78,-24.96C106.94,-27.74 158.92,-26.76 158.92,-22 158.92,-17.69 116.23,-16.48 82.8,-18.36"/>
<polygon fill="black" stroke="black" points="82.52,-14.87 72.78,-19.04 83,-21.85 82.52,-14.87"/>
<text text-anchor="middle" x="180.42" y="-18.3" font-family="Times,serif" font-size="14.00">{t0, t2}</text>
</g>
<!-- 4&#45;&gt;4 -->
<g id="edge5" class="edge">
<title>4&#45;&gt;4</title>
<path fill="none" stroke="black" d="M72.88,-25.32C118.69,-29.78 201.92,-28.67 201.92,-22 201.92,-15.8 129.98,-14.4 83.05,-17.82"/>
<polygon fill="black" stroke="black" points="82.55,-14.35 72.88,-18.68 83.13,-21.32 82.55,-14.35"/>
<text text-anchor="middle" x="214.42" y="-18.3" font-family="Times,serif" font-size="14.00">{t1}</text>
</g>
<!-- 4&#45;&gt;4 -->
<g id="edge6" class="edge">
<title>4&#45;&gt;4</title>
<path fill="none" stroke="black" d="M72.73,-25.71C125.44,-31.79 226.92,-30.55 226.92,-22 226.92,-13.96 137.36,-12.39 82.81,-17.27"/>
<polygon fill="black" stroke="black" points="82.33,-13.8 72.73,-18.29 83.03,-20.76 82.33,-13.8"/>
<text text-anchor="middle" x="248.42" y="-18.3" font-family="Times,serif" font-size="14.00">{t1, t2}</text>
</g>
<!-- 4&#45;&gt;4 -->
<g id="edge7" class="edge">
<title>4&#45;&gt;4</title>
<path fill="none" stroke="black" d="M72.77,-25.94C135.42,-33.81 269.92,-32.5 269.92,-22 269.92,-12.03 148.74,-10.34 82.84,-16.93"/>
<polygon fill="black" stroke="black" points="82.32,-13.47 72.77,-18.06 83.1,-20.43 82.32,-13.47"/>
<text text-anchor="middle" x="300.42" y="-18.3" font-family="Times,serif" font-size="14.00">{t0, t1, t2}</text>
</g>
<!-- 4&#45;&gt;4 -->
<g id="edge8" class="edge">
<title>4&#45;&gt;4</title>
<path fill="none" stroke="black" d="M72.58,-26.03C147.15,-35.84 330.92,-34.5 330.92,-22 330.92,-10.04 162.6,-8.3 82.78,-16.77"/>
<polygon fill="black" stroke="black" points="82.1,-13.32 72.58,-17.97 82.93,-20.28 82.1,-13.32"/>
<text text-anchor="middle" x="337.92" y="-18.3" font-family="Times,serif" font-size="14.00">{}</text>
</g>
<!-- 4&#45;&gt;4 -->
<g id="edge9" class="edge">
<title>4&#45;&gt;4</title>
<path fill="none" stroke="black" d="M72.61,-26.3C152.19,-37.84 348.92,-36.41 348.92,-22 348.92,-8.17 167.63,-6.29 82.71,-16.37"/>
<polygon fill="black" stroke="black" points="82.07,-12.93 72.61,-17.7 82.98,-19.87 82.07,-12.93"/>
<text text-anchor="middle" x="361.42" y="-18.3" font-family="Times,serif" font-size="14.00">{t2}</text>
</g>
</g>
</svg>
