<?xml version="1.0" encoding="UTF-8" standalone="no"?>
<!DOCTYPE svg PUBLIC "-//W3C//DTD SVG 1.1//EN"
 "http://www.w3.org/Graphics/SVG/1.1/DTD/svg11.dtd">
<!-- Generated by graphviz version 2.43.0 (0)
 -->
<!-- Title: %3 Pages: 1 -->
<svg width="2567pt" height="475pt"
 viewBox="0.00 0.00 2567.35 475.44" xmlns="http://www.w3.org/2000/svg" xmlns:xlink="http://www.w3.org/1999/xlink">
<g id="graph0" class="graph" transform="scale(1 1) rotate(0) translate(4 471.44)">
<title>%3</title>
<polygon fill="white" stroke="transparent" points="-4,4 -4,-471.44 2563.35,-471.44 2563.35,4 -4,4"/>
<!-- fake -->
<g id="node1" class="node">
<title>fake</title>
</g>
<!-- 0 -->
<g id="node2" class="node">
<title>0</title>
<ellipse fill="none" stroke="black" cx="1864.35" cy="-376.44" rx="27" ry="18"/>
<text text-anchor="middle" x="1864.35" y="-372.74" font-family="Times,serif" font-size="14.00">0</text>
</g>
<!-- fake&#45;&gt;0 -->
<g id="edge1" class="edge">
<title>fake&#45;&gt;0</title>
<path fill="none" stroke="black" stroke-width="2" d="M1864.35,-431.25C1864.35,-423.23 1864.35,-413.49 1864.35,-404.51"/>
<polygon fill="black" stroke="black" stroke-width="2" points="1867.85,-404.47 1864.35,-394.47 1860.85,-404.47 1867.85,-404.47"/>
</g>
<!-- 0&#45;&gt;0 -->
<g id="edge23" class="edge">
<title>0&#45;&gt;0</title>
<path fill="none" stroke="black" d="M1889.8,-383.13C1900.38,-383.59 1909.35,-381.36 1909.35,-376.44 1909.35,-373.21 1905.49,-371.14 1899.84,-370.23"/>
<polygon fill="black" stroke="black" points="1899.95,-366.73 1889.8,-369.75 1899.62,-373.72 1899.95,-366.73"/>
<text text-anchor="middle" x="1916.35" y="-372.74" font-family="Times,serif" font-size="14.00">{}</text>
</g>
<!-- 1 -->
<g id="node3" class="node">
<title>1</title>
<ellipse fill="none" stroke="black" cx="1505.35" cy="-289.44" rx="27" ry="18"/>
<text text-anchor="middle" x="1505.35" y="-285.74" font-family="Times,serif" font-size="14.00">1</text>
</g>
<!-- 0&#45;&gt;1 -->
<g id="edge18" class="edge">
<title>0&#45;&gt;1</title>
<path fill="none" stroke="black" d="M1837.28,-375.83C1731.54,-377.08 1350.41,-378.86 1314.35,-340.44 1309.79,-335.58 1310.09,-330.56 1314.35,-325.44 1333.55,-302.41 1418.26,-294.49 1468.19,-291.8"/>
<polygon fill="black" stroke="black" points="1468.46,-295.29 1478.28,-291.3 1468.12,-288.3 1468.46,-295.29"/>
<text text-anchor="middle" x="1337.85" y="-329.24" font-family="Times,serif" font-size="14.00">{c0, c1}</text>
</g>
<!-- 0&#45;&gt;1 -->
<g id="edge19" class="edge">
<title>0&#45;&gt;1</title>
<path fill="none" stroke="black" d="M1837.15,-375.56C1740.14,-375.71 1415.29,-373.71 1384.35,-340.44 1357.29,-311.33 1423.67,-298.66 1468.45,-293.55"/>
<polygon fill="black" stroke="black" points="1468.89,-297.02 1478.47,-292.49 1468.16,-290.06 1468.89,-297.02"/>
<text text-anchor="middle" x="1417.85" y="-329.24" font-family="Times,serif" font-size="14.00">{c0, c2, c3}</text>
</g>
<!-- 0&#45;&gt;1 -->
<g id="edge20" class="edge">
<title>0&#45;&gt;1</title>
<path fill="none" stroke="black" d="M1837.41,-375.08C1753.14,-373.66 1498.81,-367.19 1474.35,-340.44 1466.31,-331.64 1472.05,-320.46 1480.68,-310.91"/>
<polygon fill="black" stroke="black" points="1483.35,-313.19 1488.01,-303.67 1478.44,-308.21 1483.35,-313.19"/>
<text text-anchor="middle" x="1497.85" y="-329.24" font-family="Times,serif" font-size="14.00">{c0, c2}</text>
</g>
<!-- 0&#45;&gt;1 -->
<g id="edge21" class="edge">
<title>0&#45;&gt;1</title>
<path fill="none" stroke="black" d="M1837.27,-375.15C1769.49,-374 1594.39,-368.34 1544.35,-340.44 1534.01,-334.67 1525.47,-324.92 1519.05,-315.55"/>
<polygon fill="black" stroke="black" points="1521.84,-313.42 1513.55,-306.83 1515.92,-317.15 1521.84,-313.42"/>
<text text-anchor="middle" x="1567.85" y="-329.24" font-family="Times,serif" font-size="14.00">{c0, c3}</text>
</g>
<!-- 0&#45;&gt;1 -->
<g id="edge22" class="edge">
<title>0&#45;&gt;1</title>
<path fill="none" stroke="black" d="M1837.14,-375.46C1790.17,-374.68 1691.51,-369.35 1614.35,-340.44 1602.93,-336.16 1602.17,-331.1 1591.35,-325.44 1574.44,-316.59 1554.77,-308.44 1538.52,-302.23"/>
<polygon fill="black" stroke="black" points="1539.49,-298.86 1528.89,-298.63 1537.03,-305.41 1539.49,-298.86"/>
<text text-anchor="middle" x="1658.35" y="-329.24" font-family="Times,serif" font-size="14.00">{c0, c1, c2, c3}</text>
</g>
<!-- 0&#45;&gt;1 -->
<g id="edge24" class="edge">
<title>0&#45;&gt;1</title>
<path fill="none" stroke="black" d="M1838.15,-371.51C1809.56,-366.62 1762.86,-356.84 1725.35,-340.44 1714.17,-335.55 1713.7,-329.93 1702.35,-325.44 1649.28,-304.44 1583.18,-295.98 1542.64,-292.61"/>
<polygon fill="black" stroke="black" points="1542.65,-289.1 1532.41,-291.83 1542.11,-296.08 1542.65,-289.1"/>
<text text-anchor="middle" x="1758.85" y="-329.24" font-family="Times,serif" font-size="14.00">{c0, c1, c2}</text>
</g>
<!-- 0&#45;&gt;1 -->
<g id="edge25" class="edge">
<title>0&#45;&gt;1</title>
<path fill="none" stroke="black" d="M1846.46,-362.69C1826.14,-348.26 1795.38,-326.59 1792.35,-325.44 1747.5,-308.34 1609.46,-297.26 1542.52,-292.74"/>
<polygon fill="black" stroke="black" points="1542.62,-289.24 1532.41,-292.08 1542.16,-296.23 1542.62,-289.24"/>
<text text-anchor="middle" x="1826.85" y="-329.24" font-family="Times,serif" font-size="14.00">{c0}</text>
</g>
<!-- 0&#45;&gt;1 -->
<g id="edge26" class="edge">
<title>0&#45;&gt;1</title>
<path fill="none" stroke="black" d="M1861.38,-358.28C1858.5,-347.08 1852.93,-333.15 1842.35,-325.44 1795.42,-291.23 1620.39,-288.97 1542.8,-289.73"/>
<polygon fill="black" stroke="black" points="1542.48,-286.23 1532.52,-289.85 1542.56,-293.23 1542.48,-286.23"/>
<text text-anchor="middle" x="1887.85" y="-329.24" font-family="Times,serif" font-size="14.00">{c0, c1, c3}</text>
</g>
<!-- 2 -->
<g id="node4" class="node">
<title>2</title>
<ellipse fill="none" stroke="black" cx="1484.35" cy="-24.44" rx="27" ry="18"/>
<text text-anchor="middle" x="1484.35" y="-20.74" font-family="Times,serif" font-size="14.00">2</text>
</g>
<!-- 0&#45;&gt;2 -->
<g id="edge27" class="edge">
<title>0&#45;&gt;2</title>
<path fill="none" stroke="black" d="M1888.67,-368.21C1902.03,-362.85 1917.46,-354.07 1925.35,-340.44 1928.7,-334.67 1927.12,-331.87 1925.35,-325.44 1901.62,-238.76 1881.41,-219.18 1822.35,-151.44 1778.11,-100.7 1761.45,-87.93 1698.35,-64.44 1638.68,-42.23 1564.79,-32.36 1521.29,-28.21"/>
<polygon fill="black" stroke="black" points="1521.45,-24.71 1511.17,-27.29 1520.82,-31.68 1521.45,-24.71"/>
<text text-anchor="middle" x="1912.85" y="-198.74" font-family="Times,serif" font-size="14.00">{c1, c2, c3}</text>
</g>
<!-- 0&#45;&gt;2 -->
<g id="edge28" class="edge">
<title>0&#45;&gt;2</title>
<path fill="none" stroke="black" d="M1889.15,-368.84C1922.42,-358.3 1977.35,-334.26 1977.35,-290.44 1977.35,-290.44 1977.35,-290.44 1977.35,-114.44 1977.35,-68.11 1635.75,-37.24 1521.25,-28.2"/>
<polygon fill="black" stroke="black" points="1521.45,-24.7 1511.21,-27.42 1520.91,-31.68 1521.45,-24.7"/>
<text text-anchor="middle" x="1990.85" y="-198.74" font-family="Times,serif" font-size="14.00">{c2}</text>
</g>
<!-- 0&#45;&gt;2 -->
<g id="edge29" class="edge">
<title>0&#45;&gt;2</title>
<path fill="none" stroke="black" d="M1891.47,-374.4C1940.84,-370.91 2040.35,-355.76 2040.35,-290.44 2040.35,-290.44 2040.35,-290.44 2040.35,-114.44 2040.35,-61.72 1645.58,-34.66 1521.33,-27.44"/>
<polygon fill="black" stroke="black" points="1521.36,-23.94 1511.17,-26.86 1520.96,-30.93 1521.36,-23.94"/>
<text text-anchor="middle" x="2063.85" y="-198.74" font-family="Times,serif" font-size="14.00">{c2, c3}</text>
</g>
<!-- 0&#45;&gt;2 -->
<g id="edge30" class="edge">
<title>0&#45;&gt;2</title>
<path fill="none" stroke="black" d="M1891.1,-372.44C1957.27,-364.28 2123.35,-338.95 2123.35,-290.44 2123.35,-290.44 2123.35,-290.44 2123.35,-114.44 2123.35,-53.3 1658.54,-31.71 1521.78,-26.68"/>
<polygon fill="black" stroke="black" points="1521.52,-23.17 1511.4,-26.31 1521.27,-30.17 1521.52,-23.17"/>
<text text-anchor="middle" x="2136.85" y="-198.74" font-family="Times,serif" font-size="14.00">{c1}</text>
</g>
<!-- 0&#45;&gt;2 -->
<g id="edge31" class="edge">
<title>0&#45;&gt;2</title>
<path fill="none" stroke="black" d="M1891.25,-374.11C1968.64,-369.54 2186.35,-351.29 2186.35,-290.44 2186.35,-290.44 2186.35,-290.44 2186.35,-114.44 2186.35,-46.8 1666.79,-29.67 1521.62,-26.21"/>
<polygon fill="black" stroke="black" points="1521.52,-22.7 1511.44,-25.97 1521.36,-29.7 1521.52,-22.7"/>
<text text-anchor="middle" x="2209.85" y="-198.74" font-family="Times,serif" font-size="14.00">{c1, c3}</text>
</g>
<!-- 0&#45;&gt;2 -->
<g id="edge32" class="edge">
<title>0&#45;&gt;2</title>
<path fill="none" stroke="black" d="M1891.56,-375.54C1982.36,-375.17 2269.35,-367.85 2269.35,-290.44 2269.35,-290.44 2269.35,-290.44 2269.35,-114.44 2269.35,-38.19 1676.95,-27.25 1521.39,-25.7"/>
<polygon fill="black" stroke="black" points="1521.41,-22.2 1511.38,-25.6 1521.34,-29.2 1521.41,-22.2"/>
<text text-anchor="middle" x="2282.85" y="-198.74" font-family="Times,serif" font-size="14.00">{c3}</text>
</g>
<!-- 0&#45;&gt;2 -->
<g id="edge33" class="edge">
<title>0&#45;&gt;2</title>
<path fill="none" stroke="black" d="M1891.4,-374.43C1966.82,-371.39 2178.3,-361.18 2244.35,-340.44 2287.27,-326.96 2332.35,-335.42 2332.35,-290.44 2332.35,-290.44 2332.35,-290.44 2332.35,-114.44 2332.35,-31.7 1685.47,-25.6 1521.69,-25.38"/>
<polygon fill="black" stroke="black" points="1521.61,-21.88 1511.61,-25.37 1521.61,-28.88 1521.61,-21.88"/>
<text text-anchor="middle" x="2355.85" y="-198.74" font-family="Times,serif" font-size="14.00">{c1, c2}</text>
</g>
<!-- 1&#45;&gt;1 -->
<g id="edge34" class="edge">
<title>1&#45;&gt;1</title>
<path fill="none" stroke="black" d="M1529.89,-297.19C1540.86,-297.93 1550.35,-295.35 1550.35,-289.44 1550.35,-285.47 1546.07,-283 1539.93,-282.04"/>
<polygon fill="black" stroke="black" points="1540,-278.54 1529.89,-281.69 1539.76,-285.53 1540,-278.54"/>
<text text-anchor="middle" x="1557.35" y="-285.74" font-family="Times,serif" font-size="14.00">{}</text>
</g>
<!-- 1&#45;&gt;2 -->
<g id="edge43" class="edge">
<title>1&#45;&gt;2</title>
<path fill="none" stroke="black" d="M1500.97,-271.62C1495.11,-248.23 1485.06,-204.47 1481.35,-166.44 1480.71,-159.81 1478.32,-157.37 1481.35,-151.44 1487.6,-139.26 1500.11,-145.63 1506.35,-133.44 1513.65,-119.2 1508.72,-113.27 1506.35,-97.44 1504.03,-81.89 1499.03,-65.05 1494.38,-51.57"/>
<polygon fill="black" stroke="black" points="1497.62,-50.22 1490.95,-41.99 1491.03,-52.59 1497.62,-50.22"/>
<text text-anchor="middle" x="1494.85" y="-155.24" font-family="Times,serif" font-size="14.00">{c0}</text>
</g>
<!-- 1&#45;&gt;2 -->
<g id="edge44" class="edge">
<title>1&#45;&gt;2</title>
<path fill="none" stroke="black" d="M1508.74,-271.57C1514.97,-238.27 1527.15,-161.74 1521.35,-97.44 1520.02,-82.59 1521.51,-78.02 1515.35,-64.44 1512.75,-58.69 1509.1,-53.04 1505.23,-47.91"/>
<polygon fill="black" stroke="black" points="1507.67,-45.37 1498.63,-39.84 1502.25,-49.8 1507.67,-45.37"/>
<text text-anchor="middle" x="1535.85" y="-155.24" font-family="Times,serif" font-size="14.00">{c2}</text>
</g>
<!-- 1&#45;&gt;2 -->
<g id="edge45" class="edge">
<title>1&#45;&gt;2</title>
<path fill="none" stroke="black" d="M1516.23,-272.54C1532.08,-247.55 1559.05,-197.21 1553.35,-151.44 1548.43,-111.86 1552.64,-98.17 1531.35,-64.44 1526.39,-56.58 1519.32,-49.53 1512.15,-43.65"/>
<polygon fill="black" stroke="black" points="1513.91,-40.59 1503.83,-37.32 1509.67,-46.16 1513.91,-40.59"/>
<text text-anchor="middle" x="1586.85" y="-155.24" font-family="Times,serif" font-size="14.00">{c0, c2, c3}</text>
</g>
<!-- 1&#45;&gt;2 -->
<g id="edge46" class="edge">
<title>1&#45;&gt;2</title>
<path fill="none" stroke="black" d="M1526.66,-278.31C1566.33,-257.87 1645.64,-208.73 1624.35,-151.44 1604.96,-99.25 1549.43,-60.74 1514.41,-40.8"/>
<polygon fill="black" stroke="black" points="1516,-37.68 1505.55,-35.91 1512.61,-43.81 1516,-37.68"/>
<text text-anchor="middle" x="1650.85" y="-155.24" font-family="Times,serif" font-size="14.00">{c2, c3}</text>
</g>
<!-- 1&#45;&gt;2 -->
<g id="edge47" class="edge">
<title>1&#45;&gt;2</title>
<path fill="none" stroke="black" d="M1530.3,-281.89C1585.41,-266.01 1710.26,-221.53 1678.35,-151.44 1648.67,-86.23 1566.14,-50.71 1518.84,-35.18"/>
<polygon fill="black" stroke="black" points="1519.62,-31.75 1509.03,-32.08 1517.51,-38.43 1519.62,-31.75"/>
<text text-anchor="middle" x="1695.85" y="-155.24" font-family="Times,serif" font-size="14.00">{c3}</text>
</g>
<!-- 1&#45;&gt;2 -->
<g id="edge48" class="edge">
<title>1&#45;&gt;2</title>
<path fill="none" stroke="black" d="M1531.49,-283.99C1594.01,-271.93 1744.7,-233.89 1713.35,-151.44 1683.52,-72.98 1577.23,-42.12 1520.56,-31.04"/>
<polygon fill="black" stroke="black" points="1521.05,-27.57 1510.58,-29.19 1519.78,-34.45 1521.05,-27.57"/>
<text text-anchor="middle" x="1739.85" y="-155.24" font-family="Times,serif" font-size="14.00">{c0, c2}</text>
</g>
<!-- 1&#45;&gt;2 -->
<g id="edge49" class="edge">
<title>1&#45;&gt;2</title>
<path fill="none" stroke="black" d="M1532.09,-286.23C1607.38,-278.76 1812.78,-249.2 1767.35,-151.44 1724.01,-58.15 1587.46,-33.93 1521.17,-27.64"/>
<polygon fill="black" stroke="black" points="1521.43,-24.15 1511.16,-26.78 1520.83,-31.13 1521.43,-24.15"/>
<text text-anchor="middle" x="1794.85" y="-155.24" font-family="Times,serif" font-size="14.00">{c0, c3}</text>
</g>
<!-- 3 -->
<g id="node5" class="node">
<title>3</title>
<ellipse fill="none" stroke="black" cx="1032.35" cy="-202.44" rx="27" ry="18"/>
<text text-anchor="middle" x="1032.35" y="-198.74" font-family="Times,serif" font-size="14.00">3</text>
</g>
<!-- 1&#45;&gt;3 -->
<g id="edge35" class="edge">
<title>1&#45;&gt;3</title>
<path fill="none" stroke="black" d="M1478.4,-287.97C1360.43,-285.78 894.45,-275.74 873.35,-253.44 836.38,-214.36 936.98,-205.67 994.83,-203.84"/>
<polygon fill="black" stroke="black" points="995.18,-207.34 1005.09,-203.58 995,-200.34 995.18,-207.34"/>
<text text-anchor="middle" x="896.85" y="-242.24" font-family="Times,serif" font-size="14.00">{c1, c2}</text>
</g>
<!-- 1&#45;&gt;3 -->
<g id="edge36" class="edge">
<title>1&#45;&gt;3</title>
<path fill="none" stroke="black" d="M1478.12,-287.77C1368.16,-284.93 961.87,-273.14 943.35,-253.44 923.78,-232.61 964.21,-218.18 996.8,-210.35"/>
<polygon fill="black" stroke="black" points="997.61,-213.76 1006.59,-208.14 996.06,-206.93 997.61,-213.76"/>
<text text-anchor="middle" x="976.85" y="-242.24" font-family="Times,serif" font-size="14.00">{c1, c2, c3}</text>
</g>
<!-- 1&#45;&gt;3 -->
<g id="edge37" class="edge">
<title>1&#45;&gt;3</title>
<path fill="none" stroke="black" d="M1478.29,-288.51C1382.57,-288.46 1064.05,-285.84 1033.35,-253.44 1027.64,-247.41 1026.06,-238.91 1026.32,-230.63"/>
<polygon fill="black" stroke="black" points="1029.82,-230.78 1027.45,-220.45 1022.87,-230 1029.82,-230.78"/>
<text text-anchor="middle" x="1056.85" y="-242.24" font-family="Times,serif" font-size="14.00">{c1, c3}</text>
</g>
<!-- 1&#45;&gt;3 -->
<g id="edge38" class="edge">
<title>1&#45;&gt;3</title>
<path fill="none" stroke="black" d="M1478.34,-287.91C1399.77,-286.1 1172.61,-278.74 1103.35,-253.44 1100.73,-252.48 1077.39,-235.9 1058.17,-222.09"/>
<polygon fill="black" stroke="black" points="1060.15,-219.21 1049.99,-216.21 1056.06,-224.89 1060.15,-219.21"/>
<text text-anchor="middle" x="1147.35" y="-242.24" font-family="Times,serif" font-size="14.00">{c0, c1, c2, c3}</text>
</g>
<!-- 1&#45;&gt;3 -->
<g id="edge39" class="edge">
<title>1&#45;&gt;3</title>
<path fill="none" stroke="black" d="M1478.34,-289.22C1425.79,-289.87 1306.89,-287.09 1214.35,-253.44 1202.89,-249.27 1202.61,-243.16 1191.35,-238.44 1151.26,-221.62 1101.93,-212.37 1068.95,-207.68"/>
<polygon fill="black" stroke="black" points="1069.22,-204.18 1058.84,-206.31 1068.28,-211.12 1069.22,-204.18"/>
<text text-anchor="middle" x="1247.85" y="-242.24" font-family="Times,serif" font-size="14.00">{c0, c1, c2}</text>
</g>
<!-- 1&#45;&gt;3 -->
<g id="edge40" class="edge">
<title>1&#45;&gt;3</title>
<path fill="none" stroke="black" d="M1478.41,-287.2C1438.95,-284.62 1363.68,-276.8 1304.35,-253.44 1293,-248.97 1292.78,-242.73 1281.35,-238.44 1209.76,-211.59 1119.58,-205.1 1069.75,-203.68"/>
<polygon fill="black" stroke="black" points="1069.54,-200.17 1059.46,-203.44 1069.38,-207.17 1069.54,-200.17"/>
<text text-anchor="middle" x="1337.85" y="-242.24" font-family="Times,serif" font-size="14.00">{c0, c1, c3}</text>
</g>
<!-- 1&#45;&gt;3 -->
<g id="edge41" class="edge">
<title>1&#45;&gt;3</title>
<path fill="none" stroke="black" d="M1479.93,-282.53C1456.94,-276.71 1422.49,-266.74 1394.35,-253.44 1383.32,-248.22 1382.86,-242.52 1371.35,-238.44 1316.42,-218.99 1145.31,-208.75 1069.34,-205.06"/>
<polygon fill="black" stroke="black" points="1069.43,-201.56 1059.27,-204.59 1069.09,-208.55 1069.43,-201.56"/>
<text text-anchor="middle" x="1417.85" y="-242.24" font-family="Times,serif" font-size="14.00">{c0, c1}</text>
</g>
<!-- 1&#45;&gt;3 -->
<g id="edge42" class="edge">
<title>1&#45;&gt;3</title>
<path fill="none" stroke="black" d="M1489.82,-274.61C1474.51,-261.3 1451.92,-242.59 1441.35,-238.44 1374.11,-212.03 1156.82,-205.5 1069.34,-203.93"/>
<polygon fill="black" stroke="black" points="1069.4,-200.43 1059.34,-203.76 1069.28,-207.43 1069.4,-200.43"/>
<text text-anchor="middle" x="1476.85" y="-242.24" font-family="Times,serif" font-size="14.00">{c1}</text>
</g>
<!-- 2&#45;&gt;2 -->
<g id="edge50" class="edge">
<title>2&#45;&gt;2</title>
<path fill="none" stroke="black" d="M1511.6,-25.94C1521.38,-25.97 1529.35,-25.47 1529.35,-24.44 1529.35,-23.81 1526.39,-23.38 1521.87,-23.15"/>
<polygon fill="black" stroke="black" points="1521.66,-19.64 1511.6,-22.94 1521.52,-26.64 1521.66,-19.64"/>
<text text-anchor="middle" x="1573.35" y="-20.74" font-family="Times,serif" font-size="14.00">{c0, c1, c2, c3}</text>
</g>
<!-- 2&#45;&gt;2 -->
<g id="edge51" class="edge">
<title>2&#45;&gt;2</title>
<path fill="none" stroke="black" d="M1511.2,-26.58C1551.37,-28.23 1617.35,-27.51 1617.35,-24.44 1617.35,-21.62 1561.51,-20.79 1521.3,-21.95"/>
<polygon fill="black" stroke="black" points="1521.07,-18.46 1511.2,-22.3 1521.31,-25.45 1521.07,-18.46"/>
<text text-anchor="middle" x="1630.85" y="-20.74" font-family="Times,serif" font-size="14.00">{c0}</text>
</g>
<!-- 2&#45;&gt;2 -->
<g id="edge52" class="edge">
<title>2&#45;&gt;2</title>
<path fill="none" stroke="black" d="M1511.22,-27.31C1559.07,-30.2 1644.35,-29.25 1644.35,-24.44 1644.35,-19.96 1570.02,-18.82 1521.21,-21.04"/>
<polygon fill="black" stroke="black" points="1521.03,-17.55 1511.22,-21.57 1521.39,-24.54 1521.03,-17.55"/>
<text text-anchor="middle" x="1667.85" y="-20.74" font-family="Times,serif" font-size="14.00">{c0, c1}</text>
</g>
<!-- 2&#45;&gt;2 -->
<g id="edge53" class="edge">
<title>2&#45;&gt;2</title>
<path fill="none" stroke="black" d="M1511.01,-27.76C1570.33,-32.22 1691.35,-31.11 1691.35,-24.44 1691.35,-18.13 1583.21,-16.8 1521.26,-20.44"/>
<polygon fill="black" stroke="black" points="1520.75,-16.96 1511.01,-21.12 1521.22,-23.95 1520.75,-16.96"/>
<text text-anchor="middle" x="1724.85" y="-20.74" font-family="Times,serif" font-size="14.00">{c0, c1, c3}</text>
</g>
<!-- 2&#45;&gt;2 -->
<g id="edge54" class="edge">
<title>2&#45;&gt;2</title>
<path fill="none" stroke="black" d="M1511.24,-28.07C1584.8,-34.24 1758.35,-33.04 1758.35,-24.44 1758.35,-16.22 1599.4,-14.76 1521.25,-20.06"/>
<polygon fill="black" stroke="black" points="1520.95,-16.57 1511.24,-20.82 1521.47,-23.55 1520.95,-16.57"/>
<text text-anchor="middle" x="1791.85" y="-20.74" font-family="Times,serif" font-size="14.00">{c1, c2, c3}</text>
</g>
<!-- 2&#45;&gt;2 -->
<g id="edge55" class="edge">
<title>2&#45;&gt;2</title>
<path fill="none" stroke="black" d="M1510.77,-28.27C1596.7,-36.27 1825.35,-34.99 1825.35,-24.44 1825.35,-14.29 1613.36,-12.72 1520.91,-19.76"/>
<polygon fill="black" stroke="black" points="1520.44,-16.29 1510.77,-20.61 1521.03,-23.26 1520.44,-16.29"/>
<text text-anchor="middle" x="1838.85" y="-20.74" font-family="Times,serif" font-size="14.00">{c2}</text>
</g>
<!-- 2&#45;&gt;2 -->
<g id="edge56" class="edge">
<title>2&#45;&gt;2</title>
<path fill="none" stroke="black" d="M1510.78,-28.63C1602.56,-38.26 1852.35,-36.87 1852.35,-24.44 1852.35,-12.45 1619.81,-10.73 1521.02,-19.28"/>
<polygon fill="black" stroke="black" points="1520.4,-15.82 1510.78,-20.25 1521.06,-22.79 1520.4,-15.82"/>
<text text-anchor="middle" x="1885.85" y="-20.74" font-family="Times,serif" font-size="14.00">{c0, c2, c3}</text>
</g>
<!-- 2&#45;&gt;2 -->
<g id="edge57" class="edge">
<title>2&#45;&gt;2</title>
<path fill="none" stroke="black" d="M1510.59,-28.78C1613.57,-40.28 1919.35,-38.83 1919.35,-24.44 1919.35,-10.5 1632.39,-8.71 1520.82,-19.06"/>
<polygon fill="black" stroke="black" points="1520.18,-15.61 1510.59,-20.1 1520.89,-22.57 1520.18,-15.61"/>
<text text-anchor="middle" x="1942.85" y="-20.74" font-family="Times,serif" font-size="14.00">{c2, c3}</text>
</g>
<!-- 2&#45;&gt;2 -->
<g id="edge58" class="edge">
<title>2&#45;&gt;2</title>
<path fill="none" stroke="black" d="M1510.82,-29.03C1622.23,-42.28 1966.35,-40.75 1966.35,-24.44 1966.35,-8.59 1641.45,-6.7 1520.83,-18.76"/>
<polygon fill="black" stroke="black" points="1520.38,-15.29 1510.82,-19.85 1521.14,-22.25 1520.38,-15.29"/>
<text text-anchor="middle" x="1979.85" y="-20.74" font-family="Times,serif" font-size="14.00">{c1}</text>
</g>
<!-- 2&#45;&gt;2 -->
<g id="edge59" class="edge">
<title>2&#45;&gt;2</title>
<path fill="none" stroke="black" d="M1510.6,-29.25C1627.3,-44.29 1993.35,-42.68 1993.35,-24.44 1993.35,-6.7 1647.04,-4.7 1520.72,-18.44"/>
<polygon fill="black" stroke="black" points="1520.12,-14.98 1510.6,-19.63 1520.94,-21.93 1520.12,-14.98"/>
<text text-anchor="middle" x="2016.85" y="-20.74" font-family="Times,serif" font-size="14.00">{c1, c3}</text>
</g>
<!-- 2&#45;&gt;2 -->
<g id="edge60" class="edge">
<title>2&#45;&gt;2</title>
<path fill="none" stroke="black" d="M1510.52,-29.41C1635.03,-46.29 2040.35,-44.64 2040.35,-24.44 2040.35,-4.76 1655.35,-2.69 1520.53,-18.22"/>
<polygon fill="black" stroke="black" points="1520.01,-14.76 1510.52,-19.47 1520.87,-21.71 1520.01,-14.76"/>
<text text-anchor="middle" x="2053.85" y="-20.74" font-family="Times,serif" font-size="14.00">{c3}</text>
</g>
<!-- 2&#45;&gt;2 -->
<g id="edge61" class="edge">
<title>2&#45;&gt;2</title>
<path fill="none" stroke="black" d="M1510.61,-29.63C1640.73,-48.29 2067.35,-46.57 2067.35,-24.44 2067.35,-2.86 1661.31,-0.68 1520.66,-17.93"/>
<polygon fill="black" stroke="black" points="1520.06,-14.47 1510.61,-19.26 1520.98,-21.41 1520.06,-14.47"/>
<text text-anchor="middle" x="2074.35" y="-20.74" font-family="Times,serif" font-size="14.00">{}</text>
</g>
<!-- 2&#45;&gt;2 -->
<g id="edge62" class="edge">
<title>2&#45;&gt;2</title>
<path fill="none" stroke="black" d="M1510.4,-29.8C1644.82,-50.3 2085.35,-48.51 2085.35,-24.44 2085.35,-0.94 1665.23,1.32 1520.34,-17.68"/>
<polygon fill="black" stroke="black" points="1519.81,-14.22 1510.4,-19.08 1520.79,-21.15 1519.81,-14.22"/>
<text text-anchor="middle" x="2108.85" y="-20.74" font-family="Times,serif" font-size="14.00">{c0, c2}</text>
</g>
<!-- 2&#45;&gt;2 -->
<g id="edge63" class="edge">
<title>2&#45;&gt;2</title>
<path fill="none" stroke="black" d="M1510.47,-29.93C1652.66,-52.3 2132.35,-50.47 2132.35,-24.44 2132.35,1.01 1673.96,3.33 1520.55,-17.48"/>
<polygon fill="black" stroke="black" points="1519.86,-14.04 1510.47,-18.95 1520.87,-20.97 1519.86,-14.04"/>
<text text-anchor="middle" x="2155.85" y="-20.74" font-family="Times,serif" font-size="14.00">{c1, c2}</text>
</g>
<!-- 2&#45;&gt;2 -->
<g id="edge64" class="edge">
<title>2&#45;&gt;2</title>
<path fill="none" stroke="black" d="M1510.33,-30.02C1659.88,-54.31 2179.35,-52.45 2179.35,-24.44 2179.35,2.96 1681.96,5.33 1520.47,-17.33"/>
<polygon fill="black" stroke="black" points="1519.7,-13.91 1510.33,-18.86 1520.74,-20.83 1519.7,-13.91"/>
<text text-anchor="middle" x="2202.85" y="-20.74" font-family="Times,serif" font-size="14.00">{c0, c3}</text>
</g>
<!-- 2&#45;&gt;2 -->
<g id="edge65" class="edge">
<title>2&#45;&gt;2</title>
<path fill="none" stroke="black" d="M1510.48,-30.15C1667.66,-56.31 2226.35,-54.41 2226.35,-24.44 2226.35,4.93 1689.8,7.34 1520.4,-17.2"/>
<polygon fill="black" stroke="black" points="1519.83,-13.74 1510.48,-18.73 1520.9,-20.66 1519.83,-13.74"/>
<text text-anchor="middle" x="2259.85" y="-20.74" font-family="Times,serif" font-size="14.00">{c0, c1, c2}</text>
</g>
<!-- 3&#45;&gt;2 -->
<g id="edge75" class="edge">
<title>3&#45;&gt;2</title>
<path fill="none" stroke="black" d="M1026.61,-184.53C1023.12,-174.72 1018.37,-162.22 1013.35,-151.44 1009.5,-143.14 1005.65,-142.3 1003.35,-133.44 999.34,-117.95 993.57,-110.1 1003.35,-97.44 1022.73,-72.36 1042.85,-91.01 1072.35,-79.44 1085.5,-74.29 1086.79,-68.34 1100.35,-64.44 1214.67,-31.62 1249.31,-60.97 1367.35,-46.44 1394.89,-43.05 1425.76,-37.43 1448.88,-32.86"/>
<polygon fill="black" stroke="black" points="1449.8,-36.24 1458.92,-30.84 1448.42,-29.38 1449.8,-36.24"/>
<text text-anchor="middle" x="1016.85" y="-111.74" font-family="Times,serif" font-size="14.00">{c0}</text>
</g>
<!-- 3&#45;&gt;2 -->
<g id="edge76" class="edge">
<title>3&#45;&gt;2</title>
<path fill="none" stroke="black" d="M1034.12,-184.12C1037.2,-161.84 1045.36,-122.97 1066.35,-97.44 1067.55,-95.99 1123.56,-64.98 1125.35,-64.44 1228.64,-33.38 1260.36,-59.99 1367.35,-46.44 1394.87,-42.96 1425.75,-37.34 1448.87,-32.8"/>
<polygon fill="black" stroke="black" points="1449.79,-36.18 1458.91,-30.79 1448.42,-29.32 1449.79,-36.18"/>
<text text-anchor="middle" x="1089.85" y="-111.74" font-family="Times,serif" font-size="14.00">{c0, c1}</text>
</g>
<!-- 3&#45;&gt;2 -->
<g id="edge77" class="edge">
<title>3&#45;&gt;2</title>
<path fill="none" stroke="black" d="M1049.16,-188.05C1065.8,-174.62 1091.83,-153.17 1113.35,-133.44 1130.04,-118.15 1130.68,-110.22 1149.35,-97.44 1231.48,-41.26 1268.99,-61.45 1367.35,-46.44 1394.78,-42.26 1425.66,-36.68 1448.81,-32.32"/>
<polygon fill="black" stroke="black" points="1449.68,-35.72 1458.86,-30.42 1448.38,-28.84 1449.68,-35.72"/>
<text text-anchor="middle" x="1182.85" y="-111.74" font-family="Times,serif" font-size="14.00">{c0, c1, c3}</text>
</g>
<!-- 3&#45;&gt;2 -->
<g id="edge78" class="edge">
<title>3&#45;&gt;2</title>
<path fill="none" stroke="black" d="M1057.73,-195.76C1094.74,-186.69 1164.74,-166.51 1216.35,-133.44 1253.41,-109.71 1248.24,-84.59 1287.35,-64.44 1294.51,-60.76 1393.78,-42.11 1448.6,-31.99"/>
<polygon fill="black" stroke="black" points="1449.41,-35.4 1458.61,-30.15 1448.14,-28.52 1449.41,-35.4"/>
<text text-anchor="middle" x="1264.85" y="-111.74" font-family="Times,serif" font-size="14.00">{c1}</text>
</g>
<!-- 3&#45;&gt;2 -->
<g id="edge79" class="edge">
<title>3&#45;&gt;2</title>
<path fill="none" stroke="black" d="M1057.76,-196.31C1087.76,-190.07 1139.03,-178.83 1182.35,-166.44 1226.14,-153.92 1240.69,-157.5 1279.35,-133.44 1298.57,-121.49 1297.52,-111.37 1315.35,-97.44 1337.82,-79.9 1344.5,-76.46 1370.35,-64.44 1396.3,-52.39 1427.06,-42.08 1450.08,-35.1"/>
<polygon fill="black" stroke="black" points="1451.17,-38.42 1459.76,-32.22 1449.17,-31.71 1451.17,-38.42"/>
<text text-anchor="middle" x="1338.85" y="-111.74" font-family="Times,serif" font-size="14.00">{c1, c3}</text>
</g>
<!-- 3&#45;&gt;2 -->
<g id="edge80" class="edge">
<title>3&#45;&gt;2</title>
<path fill="none" stroke="black" d="M1059.5,-201.3C1118.47,-199.87 1261.12,-190.3 1362.35,-133.44 1382.08,-122.36 1382.12,-113.2 1398.35,-97.44 1413.69,-82.55 1417.06,-78.29 1433.35,-64.44 1441.3,-57.69 1450.24,-50.67 1458.4,-44.47"/>
<polygon fill="black" stroke="black" points="1460.64,-47.17 1466.54,-38.36 1456.44,-41.57 1460.64,-47.17"/>
<text text-anchor="middle" x="1411.85" y="-111.74" font-family="Times,serif" font-size="14.00">{c3}</text>
</g>
<!-- 3&#45;&gt;2 -->
<g id="edge81" class="edge">
<title>3&#45;&gt;2</title>
<path fill="none" stroke="black" d="M1059.28,-200.17C1138.51,-195.91 1368.84,-179.73 1425.35,-133.44 1451.24,-112.24 1467.54,-76.55 1476.29,-52.04"/>
<polygon fill="black" stroke="black" points="1479.7,-52.89 1479.58,-42.3 1473.06,-50.65 1479.7,-52.89"/>
<text text-anchor="middle" x="1478.85" y="-111.74" font-family="Times,serif" font-size="14.00">{c0, c3}</text>
</g>
<!-- 3&#45;&gt;3 -->
<g id="edge68" class="edge">
<title>3&#45;&gt;3</title>
<path fill="none" stroke="black" d="M1056.89,-210.19C1067.86,-210.93 1077.35,-208.35 1077.35,-202.44 1077.35,-198.47 1073.07,-196 1066.93,-195.04"/>
<polygon fill="black" stroke="black" points="1067,-191.54 1056.89,-194.69 1066.76,-198.53 1067,-191.54"/>
<text text-anchor="middle" x="1084.35" y="-198.74" font-family="Times,serif" font-size="14.00">{}</text>
</g>
<!-- 4 -->
<g id="node6" class="node">
<title>4</title>
<ellipse fill="none" stroke="black" cx="644.35" cy="-115.44" rx="27" ry="18"/>
<text text-anchor="middle" x="644.35" y="-111.74" font-family="Times,serif" font-size="14.00">4</text>
</g>
<!-- 3&#45;&gt;4 -->
<g id="edge66" class="edge">
<title>3&#45;&gt;4</title>
<path fill="none" stroke="black" d="M1005.19,-200.98C886.28,-198.82 416.63,-188.91 395.35,-166.44 390.77,-161.6 390.98,-156.47 395.35,-151.44 422.29,-120.45 544.1,-116.11 606.8,-115.98"/>
<polygon fill="black" stroke="black" points="607.05,-119.48 617.06,-116 607.06,-112.48 607.05,-119.48"/>
<text text-anchor="middle" x="439.35" y="-155.24" font-family="Times,serif" font-size="14.00">{c0, c1, c2, c3}</text>
</g>
<!-- 3&#45;&gt;4 -->
<g id="edge67" class="edge">
<title>3&#45;&gt;4</title>
<path fill="none" stroke="black" d="M1005.07,-201.75C902.02,-202.63 540.63,-203.07 506.35,-166.44 474.92,-132.84 556.48,-121.77 607.28,-118.16"/>
<polygon fill="black" stroke="black" points="607.54,-121.65 617.29,-117.51 607.09,-114.66 607.54,-121.65"/>
<text text-anchor="middle" x="529.85" y="-155.24" font-family="Times,serif" font-size="14.00">{c2, c3}</text>
</g>
<!-- 3&#45;&gt;4 -->
<g id="edge69" class="edge">
<title>3&#45;&gt;4</title>
<path fill="none" stroke="black" d="M1005.22,-201.45C911.5,-201.2 605.56,-197.97 576.35,-166.44 561.65,-150.57 586.53,-136.37 610.22,-127.2"/>
<polygon fill="black" stroke="black" points="611.64,-130.41 619.84,-123.7 609.25,-123.83 611.64,-130.41"/>
<text text-anchor="middle" x="599.85" y="-155.24" font-family="Times,serif" font-size="14.00">{c0, c2}</text>
</g>
<!-- 3&#45;&gt;4 -->
<g id="edge70" class="edge">
<title>3&#45;&gt;4</title>
<path fill="none" stroke="black" d="M1005.43,-201.01C921.87,-199.39 671.04,-192.41 646.35,-166.44 640.63,-160.42 638.9,-151.92 638.99,-143.64"/>
<polygon fill="black" stroke="black" points="642.49,-143.73 639.89,-133.46 635.52,-143.11 642.49,-143.73"/>
<text text-anchor="middle" x="679.85" y="-155.24" font-family="Times,serif" font-size="14.00">{c1, c2, c3}</text>
</g>
<!-- 3&#45;&gt;4 -->
<g id="edge71" class="edge">
<title>3&#45;&gt;4</title>
<path fill="none" stroke="black" d="M1005.29,-202.3C952.06,-203.11 830.73,-200.66 736.35,-166.44 724.88,-162.28 723.92,-157.54 713.35,-151.44 701.06,-144.34 687.15,-137.13 675.05,-131.12"/>
<polygon fill="black" stroke="black" points="676.33,-127.85 665.81,-126.58 673.24,-134.13 676.33,-127.85"/>
<text text-anchor="middle" x="769.85" y="-155.24" font-family="Times,serif" font-size="14.00">{c0, c2, c3}</text>
</g>
<!-- 3&#45;&gt;4 -->
<g id="edge72" class="edge">
<title>3&#45;&gt;4</title>
<path fill="none" stroke="black" d="M1005.42,-200.35C965.16,-197.96 887.5,-190.37 826.35,-166.44 814.99,-161.99 814.61,-156.16 803.35,-151.44 763.26,-134.62 713.93,-125.37 680.95,-120.68"/>
<polygon fill="black" stroke="black" points="681.22,-117.18 670.84,-119.31 680.28,-124.12 681.22,-117.18"/>
<text text-anchor="middle" x="859.85" y="-155.24" font-family="Times,serif" font-size="14.00">{c0, c1, c2}</text>
</g>
<!-- 3&#45;&gt;4 -->
<g id="edge73" class="edge">
<title>3&#45;&gt;4</title>
<path fill="none" stroke="black" d="M1006.7,-195.93C982.67,-190.25 946.11,-180.28 916.35,-166.44 905.29,-161.29 904.78,-155.73 893.35,-151.44 821.76,-124.59 731.58,-118.1 681.75,-116.68"/>
<polygon fill="black" stroke="black" points="681.54,-113.17 671.46,-116.44 681.38,-120.17 681.54,-113.17"/>
<text text-anchor="middle" x="929.85" y="-155.24" font-family="Times,serif" font-size="14.00">{c2}</text>
</g>
<!-- 3&#45;&gt;4 -->
<g id="edge74" class="edge">
<title>3&#45;&gt;4</title>
<path fill="none" stroke="black" d="M1011.28,-190.88C998.19,-184.17 981.1,-175.14 966.35,-166.44 955.84,-160.24 954.83,-155.59 943.35,-151.44 896.01,-134.31 750.53,-123.14 681.48,-118.66"/>
<polygon fill="black" stroke="black" points="681.28,-115.14 671.08,-118 680.84,-122.13 681.28,-115.14"/>
<text text-anchor="middle" x="989.85" y="-155.24" font-family="Times,serif" font-size="14.00">{c1, c2}</text>
</g>
<!-- 4&#45;&gt;2 -->
<g id="edge91" class="edge">
<title>4&#45;&gt;2</title>
<path fill="none" stroke="black" d="M639.32,-97.3C637.26,-86.4 637.03,-72.81 645.35,-64.44 659.51,-50.22 1347.4,-48.47 1367.35,-46.44 1394.95,-43.64 1425.82,-37.99 1448.92,-33.26"/>
<polygon fill="black" stroke="black" points="1449.88,-36.63 1458.95,-31.16 1448.45,-29.78 1449.88,-36.63"/>
<text text-anchor="middle" x="658.85" y="-68.24" font-family="Times,serif" font-size="14.00">{c0}</text>
</g>
<!-- 4&#45;&gt;2 -->
<g id="edge92" class="edge">
<title>4&#45;&gt;2</title>
<path fill="none" stroke="black" d="M655.28,-98.6C664.44,-86.78 678.69,-71.51 695.35,-64.44 764.12,-35.28 1293.05,-54.06 1367.35,-46.44 1394.95,-43.61 1425.82,-37.96 1448.92,-33.24"/>
<polygon fill="black" stroke="black" points="1449.88,-36.61 1458.95,-31.14 1448.44,-29.76 1449.88,-36.61"/>
<text text-anchor="middle" x="718.85" y="-68.24" font-family="Times,serif" font-size="14.00">{c0, c1}</text>
</g>
<!-- 4&#45;&gt;2 -->
<g id="edge93" class="edge">
<title>4&#45;&gt;2</title>
<path fill="none" stroke="black" d="M668.77,-107.48C689,-101.3 718.24,-91.4 742.35,-79.44 753.29,-74.02 753.71,-68.09 765.35,-64.44 829.21,-44.42 1300.8,-53.37 1367.35,-46.44 1394.94,-43.57 1425.82,-37.92 1448.92,-33.21"/>
<polygon fill="black" stroke="black" points="1449.87,-36.59 1458.95,-31.12 1448.44,-29.73 1449.87,-36.59"/>
<text text-anchor="middle" x="778.85" y="-68.24" font-family="Times,serif" font-size="14.00">{c2}</text>
</g>
<!-- 4&#45;&gt;2 -->
<g id="edge94" class="edge">
<title>4&#45;&gt;2</title>
<path fill="none" stroke="black" d="M670.62,-111.03C700.89,-106.47 751.71,-96.87 792.35,-79.44 803.57,-74.63 803.71,-68.11 815.35,-64.44 873.88,-46 1306.33,-52.88 1367.35,-46.44 1394.94,-43.53 1425.81,-37.89 1448.92,-33.18"/>
<polygon fill="black" stroke="black" points="1449.86,-36.56 1458.94,-31.1 1448.44,-29.71 1449.86,-36.56"/>
<text text-anchor="middle" x="828.85" y="-68.24" font-family="Times,serif" font-size="14.00">{c1}</text>
</g>
<!-- 4&#45;&gt;2 -->
<g id="edge95" class="edge">
<title>4&#45;&gt;2</title>
<path fill="none" stroke="black" d="M671.22,-113.1C710.18,-110.42 784.08,-102.48 842.35,-79.44 853.7,-74.96 853.72,-68.13 865.35,-64.44 971.77,-30.72 1256.36,-58.33 1367.35,-46.44 1394.94,-43.49 1425.81,-37.85 1448.91,-33.15"/>
<polygon fill="black" stroke="black" points="1449.86,-36.53 1458.94,-31.08 1448.44,-29.68 1449.86,-36.53"/>
<text text-anchor="middle" x="888.85" y="-68.24" font-family="Times,serif" font-size="14.00">{c0, c2}</text>
</g>
<!-- 4&#45;&gt;2 -->
<g id="edge96" class="edge">
<title>4&#45;&gt;2</title>
<path fill="none" stroke="black" d="M671.54,-114.82C721.04,-114.67 828.51,-110.42 912.35,-79.44 923.8,-75.21 923.73,-68.16 935.35,-64.44 1026.86,-35.15 1271.85,-56.95 1367.35,-46.44 1394.93,-43.41 1425.8,-37.77 1448.91,-33.1"/>
<polygon fill="black" stroke="black" points="1449.85,-36.48 1458.94,-31.03 1448.44,-29.62 1449.85,-36.48"/>
<text text-anchor="middle" x="958.85" y="-68.24" font-family="Times,serif" font-size="14.00">{c1, c2}</text>
</g>
<!-- 4&#45;&gt;2 -->
<g id="edge97" class="edge">
<title>4&#45;&gt;2</title>
<path fill="none" stroke="black" d="M671.19,-113.29C740.67,-110.06 925.01,-99.76 982.35,-79.44 993.86,-75.37 993.75,-68.21 1005.35,-64.44 1081.97,-39.58 1287.33,-55.57 1367.35,-46.44 1394.91,-43.3 1425.79,-37.66 1448.9,-33.02"/>
<polygon fill="black" stroke="black" points="1449.83,-36.41 1458.93,-30.97 1448.43,-29.55 1449.83,-36.41"/>
<text text-anchor="middle" x="1038.85" y="-68.24" font-family="Times,serif" font-size="14.00">{c0, c1, c2}</text>
</g>
<!-- 4&#45;&gt;4 -->
<g id="edge84" class="edge">
<title>4&#45;&gt;4</title>
<path fill="none" stroke="black" d="M668.89,-123.19C679.86,-123.93 689.35,-121.35 689.35,-115.44 689.35,-111.47 685.07,-109 678.93,-108.04"/>
<polygon fill="black" stroke="black" points="679,-104.54 668.89,-107.69 678.76,-111.53 679,-104.54"/>
<text text-anchor="middle" x="696.35" y="-111.74" font-family="Times,serif" font-size="14.00">{}</text>
</g>
<!-- 5 -->
<g id="node7" class="node">
<title>5</title>
<ellipse fill="none" stroke="black" cx="288.35" cy="-24.44" rx="18" ry="18"/>
<ellipse fill="none" stroke="black" cx="288.35" cy="-24.44" rx="22" ry="22"/>
<text text-anchor="middle" x="288.35" y="-20.74" font-family="Times,serif" font-size="14.00">5</text>
</g>
<!-- 4&#45;&gt;5 -->
<g id="edge82" class="edge">
<title>4&#45;&gt;5</title>
<path fill="none" stroke="black" d="M617.06,-113.98C497.6,-111.85 25.73,-102.02 4.35,-79.44 -31.19,-41.9 174.37,-29.81 256.02,-26.52"/>
<polygon fill="black" stroke="black" points="256.38,-30.01 266.23,-26.13 256.11,-23.01 256.38,-30.01"/>
<text text-anchor="middle" x="37.85" y="-68.24" font-family="Times,serif" font-size="14.00">{c0, c1, c3}</text>
</g>
<!-- 4&#45;&gt;5 -->
<g id="edge83" class="edge">
<title>4&#45;&gt;5</title>
<path fill="none" stroke="black" d="M617.28,-114.83C511.54,-116.08 130.41,-117.86 94.35,-79.44 46.99,-28.97 188.91,-24.27 255.68,-24.73"/>
<polygon fill="black" stroke="black" points="256.04,-28.23 266.08,-24.85 256.12,-21.23 256.04,-28.23"/>
<text text-anchor="middle" x="117.85" y="-68.24" font-family="Times,serif" font-size="14.00">{c1, c3}</text>
</g>
<!-- 4&#45;&gt;5 -->
<g id="edge85" class="edge">
<title>4&#45;&gt;5</title>
<path fill="none" stroke="black" d="M617.15,-114.56C520.14,-114.71 195.29,-112.71 164.35,-79.44 135.21,-48.09 210.45,-34.01 256.19,-28.5"/>
<polygon fill="black" stroke="black" points="256.74,-31.96 266.28,-27.36 255.95,-25 256.74,-31.96"/>
<text text-anchor="middle" x="197.85" y="-68.24" font-family="Times,serif" font-size="14.00">{c0, c2, c3}</text>
</g>
<!-- 4&#45;&gt;5 -->
<g id="edge86" class="edge">
<title>4&#45;&gt;5</title>
<path fill="none" stroke="black" d="M617.41,-114.08C533.14,-112.66 278.81,-106.19 254.35,-79.44 245,-69.21 252.91,-56.08 263.45,-45.33"/>
<polygon fill="black" stroke="black" points="266.04,-47.7 270.98,-38.33 261.27,-42.57 266.04,-47.7"/>
<text text-anchor="middle" x="277.85" y="-68.24" font-family="Times,serif" font-size="14.00">{c0, c3}</text>
</g>
<!-- 4&#45;&gt;5 -->
<g id="edge87" class="edge">
<title>4&#45;&gt;5</title>
<path fill="none" stroke="black" d="M617.14,-114.37C549.06,-113.73 373.31,-109.18 324.35,-79.44 314.58,-73.5 306.89,-63.78 301.18,-54.21"/>
<polygon fill="black" stroke="black" points="304.14,-52.33 296.3,-45.2 297.99,-55.66 304.14,-52.33"/>
<text text-anchor="middle" x="357.85" y="-68.24" font-family="Times,serif" font-size="14.00">{c1, c2, c3}</text>
</g>
<!-- 4&#45;&gt;5 -->
<g id="edge88" class="edge">
<title>4&#45;&gt;5</title>
<path fill="none" stroke="black" d="M617.2,-114C573.19,-112.49 484.17,-106.08 414.35,-79.44 402.95,-75.09 402.24,-69.97 391.35,-64.44 367.91,-52.54 339.94,-42.17 319.06,-35.12"/>
<polygon fill="black" stroke="black" points="320.03,-31.76 309.44,-31.94 317.83,-38.4 320.03,-31.76"/>
<text text-anchor="middle" x="458.35" y="-68.24" font-family="Times,serif" font-size="14.00">{c0, c1, c2, c3}</text>
</g>
<!-- 4&#45;&gt;5 -->
<g id="edge89" class="edge">
<title>4&#45;&gt;5</title>
<path fill="none" stroke="black" d="M618.97,-109.24C594.34,-103.68 556.25,-93.69 525.35,-79.44 514.27,-74.33 513.69,-68.96 502.35,-64.44 440.9,-39.96 363.36,-30.72 320.52,-27.33"/>
<polygon fill="black" stroke="black" points="320.63,-23.83 310.4,-26.59 320.12,-30.81 320.63,-23.83"/>
<text text-anchor="middle" x="548.85" y="-68.24" font-family="Times,serif" font-size="14.00">{c2, c3}</text>
</g>
<!-- 4&#45;&gt;5 -->
<g id="edge90" class="edge">
<title>4&#45;&gt;5</title>
<path fill="none" stroke="black" d="M626.46,-101.7C606.13,-87.28 575.37,-65.62 572.35,-64.44 485.85,-30.72 374.6,-25.43 320.61,-25.05"/>
<polygon fill="black" stroke="black" points="320.61,-21.55 310.6,-25.03 320.59,-28.55 320.61,-21.55"/>
<text text-anchor="middle" x="607.85" y="-68.24" font-family="Times,serif" font-size="14.00">{c3}</text>
</g>
<!-- 5&#45;&gt;5 -->
<g id="edge2" class="edge">
<title>5&#45;&gt;5</title>
<path fill="none" stroke="black" d="M310.57,-25.92C320.15,-26.04 328.35,-25.55 328.35,-24.44 328.35,-23.77 325.31,-23.32 320.76,-23.1"/>
<polygon fill="black" stroke="black" points="320.61,-19.6 310.57,-22.96 320.52,-26.6 320.61,-19.6"/>
<text text-anchor="middle" x="351.85" y="-20.74" font-family="Times,serif" font-size="14.00">{c2, c3}</text>
</g>
<!-- 5&#45;&gt;5 -->
<g id="edge3" class="edge">
<title>5&#45;&gt;5</title>
<path fill="none" stroke="black" d="M310.53,-26.71C337.69,-28.18 375.35,-27.43 375.35,-24.44 375.35,-21.82 346.26,-20.92 320.77,-21.73"/>
<polygon fill="black" stroke="black" points="320.37,-18.25 310.53,-22.17 320.67,-25.24 320.37,-18.25"/>
<text text-anchor="middle" x="388.85" y="-20.74" font-family="Times,serif" font-size="14.00">{c1}</text>
</g>
<!-- 5&#45;&gt;5 -->
<g id="edge4" class="edge">
<title>5&#45;&gt;5</title>
<path fill="none" stroke="black" d="M310.36,-27.36C346.05,-30.19 402.35,-29.22 402.35,-24.44 402.35,-20.09 355.71,-18.89 320.42,-20.85"/>
<polygon fill="black" stroke="black" points="320.1,-17.37 310.36,-21.53 320.57,-24.35 320.1,-17.37"/>
<text text-anchor="middle" x="415.85" y="-20.74" font-family="Times,serif" font-size="14.00">{c0}</text>
</g>
<!-- 5&#45;&gt;5 -->
<g id="edge5" class="edge">
<title>5&#45;&gt;5</title>
<path fill="none" stroke="black" d="M310.19,-27.83C353.79,-32.21 429.35,-31.08 429.35,-24.44 429.35,-18.29 364.59,-16.87 320.38,-20.17"/>
<polygon fill="black" stroke="black" points="319.85,-16.7 310.19,-21.06 320.46,-23.68 319.85,-16.7"/>
<text text-anchor="middle" x="462.85" y="-20.74" font-family="Times,serif" font-size="14.00">{c0, c1, c3}</text>
</g>
<!-- 5&#45;&gt;5 -->
<g id="edge6" class="edge">
<title>5&#45;&gt;5</title>
<path fill="none" stroke="black" d="M310.37,-27.98C369.16,-34.25 496.35,-33.07 496.35,-24.44 496.35,-16.28 382.7,-14.78 320.6,-19.94"/>
<polygon fill="black" stroke="black" points="320,-16.48 310.37,-20.9 320.65,-23.45 320,-16.48"/>
<text text-anchor="middle" x="519.85" y="-20.74" font-family="Times,serif" font-size="14.00">{c1, c2}</text>
</g>
<!-- 5&#45;&gt;5 -->
<g id="edge7" class="edge">
<title>5&#45;&gt;5</title>
<path fill="none" stroke="black" d="M310.37,-28.22C379.12,-36.27 543.35,-35.01 543.35,-24.44 543.35,-14.37 394.16,-12.75 320.64,-19.59"/>
<polygon fill="black" stroke="black" points="319.95,-16.15 310.37,-20.66 320.68,-23.11 319.95,-16.15"/>
<text text-anchor="middle" x="576.85" y="-20.74" font-family="Times,serif" font-size="14.00">{c0, c1, c2}</text>
</g>
<!-- 5&#45;&gt;5 -->
<g id="edge8" class="edge">
<title>5&#45;&gt;5</title>
<path fill="none" stroke="black" d="M310.04,-28.31C390.74,-38.29 610.35,-37.01 610.35,-24.44 610.35,-12.37 407.56,-10.71 320.11,-19.46"/>
<polygon fill="black" stroke="black" points="319.59,-15.99 310.04,-20.58 320.37,-22.95 319.59,-15.99"/>
<text text-anchor="middle" x="633.85" y="-20.74" font-family="Times,serif" font-size="14.00">{c1, c3}</text>
</g>
<!-- 5&#45;&gt;5 -->
<g id="edge9" class="edge">
<title>5&#45;&gt;5</title>
<path fill="none" stroke="black" d="M310.26,-28.52C399.74,-40.3 657.35,-38.94 657.35,-24.44 657.35,-10.45 417.54,-8.69 320.3,-19.17"/>
<polygon fill="black" stroke="black" points="319.77,-15.71 310.26,-20.36 320.6,-22.66 319.77,-15.71"/>
<text text-anchor="middle" x="664.35" y="-20.74" font-family="Times,serif" font-size="14.00">{}</text>
</g>
<!-- 5&#45;&gt;5 -->
<g id="edge10" class="edge">
<title>5&#45;&gt;5</title>
<path fill="none" stroke="black" d="M309.95,-28.73C403.84,-42.31 675.35,-40.88 675.35,-24.44 675.35,-8.55 421.57,-6.69 319.87,-18.85"/>
<polygon fill="black" stroke="black" points="319.41,-15.38 309.95,-20.16 320.32,-22.32 319.41,-15.38"/>
<text text-anchor="middle" x="708.85" y="-20.74" font-family="Times,serif" font-size="14.00">{c0, c2, c3}</text>
</g>
<!-- 5&#45;&gt;5 -->
<g id="edge11" class="edge">
<title>5&#45;&gt;5</title>
<path fill="none" stroke="black" d="M309.98,-28.81C414.44,-44.32 742.35,-42.86 742.35,-24.44 742.35,-6.58 433.99,-4.67 320.06,-18.71"/>
<polygon fill="black" stroke="black" points="319.42,-15.26 309.98,-20.07 320.36,-22.2 319.42,-15.26"/>
<text text-anchor="middle" x="765.85" y="-20.74" font-family="Times,serif" font-size="14.00">{c0, c1}</text>
</g>
<!-- 5&#45;&gt;5 -->
<g id="edge12" class="edge">
<title>5&#45;&gt;5</title>
<path fill="none" stroke="black" d="M310.22,-28.98C422.81,-46.32 789.35,-44.81 789.35,-24.44 789.35,-4.65 443.28,-2.66 320.38,-18.48"/>
<polygon fill="black" stroke="black" points="319.63,-15.05 310.22,-19.91 320.61,-21.98 319.63,-15.05"/>
<text text-anchor="middle" x="822.85" y="-20.74" font-family="Times,serif" font-size="14.00">{c1, c2, c3}</text>
</g>
<!-- 5&#45;&gt;5 -->
<g id="edge13" class="edge">
<title>5&#45;&gt;5</title>
<path fill="none" stroke="black" d="M310.08,-29.03C432.21,-48.33 856.35,-46.8 856.35,-24.44 856.35,-2.67 454.29,-0.65 320.35,-18.37"/>
<polygon fill="black" stroke="black" points="319.47,-14.96 310.08,-19.86 320.47,-21.89 319.47,-14.96"/>
<text text-anchor="middle" x="879.85" y="-20.74" font-family="Times,serif" font-size="14.00">{c0, c3}</text>
</g>
<!-- 5&#45;&gt;5 -->
<g id="edge14" class="edge">
<title>5&#45;&gt;5</title>
<path fill="none" stroke="black" d="M310.13,-29.14C439.77,-50.33 903.35,-48.77 903.35,-24.44 903.35,-0.71 462.12,1.36 320.21,-18.23"/>
<polygon fill="black" stroke="black" points="319.5,-14.79 310.13,-19.74 320.54,-21.72 319.5,-14.79"/>
<text text-anchor="middle" x="947.35" y="-20.74" font-family="Times,serif" font-size="14.00">{c0, c1, c2, c3}</text>
</g>
<!-- 5&#45;&gt;5 -->
<g id="edge15" class="edge">
<title>5&#45;&gt;5</title>
<path fill="none" stroke="black" d="M309.98,-29.15C450.39,-52.34 991.35,-50.77 991.35,-24.44 991.35,1.3 474.42,3.38 320.03,-18.21"/>
<polygon fill="black" stroke="black" points="319.34,-14.78 309.98,-19.74 320.39,-21.7 319.34,-14.78"/>
<text text-anchor="middle" x="1004.85" y="-20.74" font-family="Times,serif" font-size="14.00">{c3}</text>
</g>
<!-- 5&#45;&gt;5 -->
<g id="edge16" class="edge">
<title>5&#45;&gt;5</title>
<path fill="none" stroke="black" d="M309.83,-29.25C455.33,-54.35 1018.35,-52.74 1018.35,-24.44 1018.35,3.25 479.26,5.38 319.78,-18.05"/>
<polygon fill="black" stroke="black" points="319.16,-14.61 309.83,-19.63 320.26,-21.52 319.16,-14.61"/>
<text text-anchor="middle" x="1041.85" y="-20.74" font-family="Times,serif" font-size="14.00">{c0, c2}</text>
</g>
<!-- 5&#45;&gt;5 -->
<g id="edge17" class="edge">
<title>5&#45;&gt;5</title>
<path fill="none" stroke="black" d="M310.22,-29.4C463.36,-56.35 1065.35,-54.69 1065.35,-24.44 1065.35,5.19 487.79,7.38 320.2,-17.86"/>
<polygon fill="black" stroke="black" points="319.53,-14.42 310.22,-19.48 320.65,-21.33 319.53,-14.42"/>
<text text-anchor="middle" x="1078.85" y="-20.74" font-family="Times,serif" font-size="14.00">{c2}</text>
</g>
</g>
</svg>
