<?xml version="1.0" encoding="UTF-8" standalone="no"?>
<!DOCTYPE svg PUBLIC "-//W3C//DTD SVG 1.1//EN"
 "http://www.w3.org/Graphics/SVG/1.1/DTD/svg11.dtd">
<!-- Generated by graphviz version 2.43.0 (0)
 -->
<!-- Title: %3 Pages: 1 -->
<svg width="482pt" height="299pt"
 viewBox="0.00 0.00 482.00 299.00" xmlns="http://www.w3.org/2000/svg" xmlns:xlink="http://www.w3.org/1999/xlink">
<g id="graph0" class="graph" transform="scale(1 1) rotate(0) translate(4 295)">
<title>%3</title>
<polygon fill="white" stroke="transparent" points="-4,4 -4,-295 478,-295 478,4 -4,4"/>
<!-- fake -->
<g id="node1" class="node">
<title>fake</title>
</g>
<!-- 0 -->
<g id="node2" class="node">
<title>0</title>
<ellipse fill="none" stroke="black" cx="168" cy="-200" rx="27" ry="18"/>
<text text-anchor="middle" x="168" y="-196.3" font-family="Times,serif" font-size="14.00">0</text>
</g>
<!-- fake&#45;&gt;0 -->
<g id="edge1" class="edge">
<title>fake&#45;&gt;0</title>
<path fill="none" stroke="black" stroke-width="2" d="M168,-254.81C168,-246.79 168,-237.05 168,-228.07"/>
<polygon fill="black" stroke="black" stroke-width="2" points="171.5,-228.03 168,-218.03 164.5,-228.03 171.5,-228.03"/>
</g>
<!-- 0&#45;&gt;0 -->
<g id="edge4" class="edge">
<title>0&#45;&gt;0</title>
<path fill="none" stroke="black" d="M193.44,-206.69C204.03,-207.15 213,-204.92 213,-200 213,-196.77 209.14,-194.7 203.49,-193.79"/>
<polygon fill="black" stroke="black" points="203.6,-190.29 193.44,-193.31 203.27,-197.28 203.6,-190.29"/>
<text text-anchor="middle" x="220" y="-196.3" font-family="Times,serif" font-size="14.00">{}</text>
</g>
<!-- 1 -->
<g id="node3" class="node">
<title>1</title>
<ellipse fill="none" stroke="black" cx="120" cy="-113" rx="27" ry="18"/>
<text text-anchor="middle" x="120" y="-109.3" font-family="Times,serif" font-size="14.00">1</text>
</g>
<!-- 0&#45;&gt;1 -->
<g id="edge2" class="edge">
<title>0&#45;&gt;1</title>
<path fill="none" stroke="black" d="M146.54,-188.76C136.91,-182.94 126.49,-174.67 121,-164 117.45,-157.1 116.26,-148.92 116.21,-141.2"/>
<polygon fill="black" stroke="black" points="119.71,-141.29 116.73,-131.12 112.72,-140.92 119.71,-141.29"/>
<text text-anchor="middle" x="133.5" y="-152.8" font-family="Times,serif" font-size="14.00">{t0}</text>
</g>
<!-- 0&#45;&gt;1 -->
<g id="edge3" class="edge">
<title>0&#45;&gt;1</title>
<path fill="none" stroke="black" d="M161.76,-182.33C157.77,-172.38 152.2,-159.66 146,-149 143.77,-145.17 141.21,-141.27 138.57,-137.52"/>
<polygon fill="black" stroke="black" points="141.17,-135.15 132.43,-129.17 135.54,-139.3 141.17,-135.15"/>
<text text-anchor="middle" x="174.5" y="-152.8" font-family="Times,serif" font-size="14.00">{t0, t1}</text>
</g>
<!-- 2 -->
<g id="node4" class="node">
<title>2</title>
<ellipse fill="none" stroke="black" cx="268" cy="-22" rx="27" ry="18"/>
<text text-anchor="middle" x="268" y="-18.3" font-family="Times,serif" font-size="14.00">2</text>
</g>
<!-- 0&#45;&gt;2 -->
<g id="edge5" class="edge">
<title>0&#45;&gt;2</title>
<path fill="none" stroke="black" d="M182.72,-184.82C188.54,-178.74 195.02,-171.36 200,-164 225.21,-126.75 246.24,-78.74 257.96,-49.45"/>
<polygon fill="black" stroke="black" points="261.31,-50.5 261.71,-39.91 254.8,-47.94 261.31,-50.5"/>
<text text-anchor="middle" x="249.5" y="-109.3" font-family="Times,serif" font-size="14.00">{t1}</text>
</g>
<!-- 1&#45;&gt;1 -->
<g id="edge7" class="edge">
<title>1&#45;&gt;1</title>
<path fill="none" stroke="black" d="M144.53,-120.75C155.51,-121.49 165,-118.91 165,-113 165,-109.03 160.72,-106.56 154.57,-105.59"/>
<polygon fill="black" stroke="black" points="154.65,-102.09 144.53,-105.25 154.41,-109.09 154.65,-102.09"/>
<text text-anchor="middle" x="172" y="-109.3" font-family="Times,serif" font-size="14.00">{}</text>
</g>
<!-- 1&#45;&gt;2 -->
<g id="edge9" class="edge">
<title>1&#45;&gt;2</title>
<path fill="none" stroke="black" d="M139.35,-100.36C165.05,-84.91 210.64,-57.5 240.07,-39.8"/>
<polygon fill="black" stroke="black" points="241.88,-42.79 248.65,-34.64 238.27,-36.79 241.88,-42.79"/>
<text text-anchor="middle" x="214.5" y="-65.8" font-family="Times,serif" font-size="14.00">{t0}</text>
</g>
<!-- 3 -->
<g id="node5" class="node">
<title>3</title>
<ellipse fill="none" stroke="black" cx="22" cy="-22" rx="18" ry="18"/>
<ellipse fill="none" stroke="black" cx="22" cy="-22" rx="22" ry="22"/>
<text text-anchor="middle" x="22" y="-18.3" font-family="Times,serif" font-size="14.00">3</text>
</g>
<!-- 1&#45;&gt;3 -->
<g id="edge6" class="edge">
<title>1&#45;&gt;3</title>
<path fill="none" stroke="black" d="M95.96,-104.31C81.26,-98.64 62.87,-89.68 50,-77 42.98,-70.09 37.36,-61.04 33.05,-52.34"/>
<polygon fill="black" stroke="black" points="36.2,-50.81 28.89,-43.15 29.83,-53.7 36.2,-50.81"/>
<text text-anchor="middle" x="71.5" y="-65.8" font-family="Times,serif" font-size="14.00">{t0, t1}</text>
</g>
<!-- 1&#45;&gt;3 -->
<g id="edge8" class="edge">
<title>1&#45;&gt;3</title>
<path fill="none" stroke="black" d="M113.79,-95.15C109.28,-84.64 102.31,-71.38 93,-62 81.33,-50.24 65.36,-41.05 51.52,-34.55"/>
<polygon fill="black" stroke="black" points="52.93,-31.34 42.37,-30.48 50.08,-37.73 52.93,-31.34"/>
<text text-anchor="middle" x="117.5" y="-65.8" font-family="Times,serif" font-size="14.00">{t1}</text>
</g>
<!-- 2&#45;&gt;2 -->
<g id="edge14" class="edge">
<title>2&#45;&gt;2</title>
<path fill="none" stroke="black" d="M295.24,-24.15C305.02,-24.2 313,-23.48 313,-22 313,-21.1 310.04,-20.48 305.51,-20.14"/>
<polygon fill="black" stroke="black" points="305.34,-16.64 295.24,-19.85 305.14,-23.63 305.34,-16.64"/>
<text text-anchor="middle" x="334.5" y="-18.3" font-family="Times,serif" font-size="14.00">{t0, t1}</text>
</g>
<!-- 2&#45;&gt;2 -->
<g id="edge15" class="edge">
<title>2&#45;&gt;2</title>
<path fill="none" stroke="black" d="M294.57,-25.52C321.76,-27.28 356,-26.11 356,-22 356,-18.39 329.55,-17.04 304.68,-17.97"/>
<polygon fill="black" stroke="black" points="304.38,-14.48 294.57,-18.48 304.73,-21.47 304.38,-14.48"/>
<text text-anchor="middle" x="363" y="-18.3" font-family="Times,serif" font-size="14.00">{}</text>
</g>
<!-- 2&#45;&gt;2 -->
<g id="edge16" class="edge">
<title>2&#45;&gt;2</title>
<path fill="none" stroke="black" d="M294.13,-26.67C327.93,-30.14 374,-28.59 374,-22 374,-16.06 336.49,-14.21 304.33,-16.46"/>
<polygon fill="black" stroke="black" points="303.79,-12.99 294.13,-17.33 304.39,-19.96 303.79,-12.99"/>
<text text-anchor="middle" x="386.5" y="-18.3" font-family="Times,serif" font-size="14.00">{t0}</text>
</g>
<!-- 2&#45;&gt;2 -->
<g id="edge17" class="edge">
<title>2&#45;&gt;2</title>
<path fill="none" stroke="black" d="M293.87,-27.46C335.85,-33.05 399,-31.23 399,-22 399,-13.49 345.33,-11.28 304.05,-15.36"/>
<polygon fill="black" stroke="black" points="303.4,-11.91 293.87,-16.54 304.2,-18.87 303.4,-11.91"/>
<text text-anchor="middle" x="411.5" y="-18.3" font-family="Times,serif" font-size="14.00">{t1}</text>
</g>
<!-- 3&#45;&gt;3 -->
<g id="edge10" class="edge">
<title>3&#45;&gt;3</title>
<path fill="none" stroke="black" d="M44.21,-24.13C53.8,-24.3 62,-23.59 62,-22 62,-21.03 58.95,-20.38 54.4,-20.07"/>
<polygon fill="black" stroke="black" points="54.28,-16.57 44.21,-19.87 54.14,-23.57 54.28,-16.57"/>
<text text-anchor="middle" x="83.5" y="-18.3" font-family="Times,serif" font-size="14.00">{t0, t1}</text>
</g>
<!-- 3&#45;&gt;3 -->
<g id="edge11" class="edge">
<title>3&#45;&gt;3</title>
<path fill="none" stroke="black" d="M43.94,-25.3C69.93,-27.37 105,-26.27 105,-22 105,-18.27 78.15,-16.96 54.03,-18.07"/>
<polygon fill="black" stroke="black" points="53.71,-14.59 43.94,-18.7 54.14,-21.57 53.71,-14.59"/>
<text text-anchor="middle" x="117.5" y="-18.3" font-family="Times,serif" font-size="14.00">{t1}</text>
</g>
<!-- 3&#45;&gt;3 -->
<g id="edge12" class="edge">
<title>3&#45;&gt;3</title>
<path fill="none" stroke="black" d="M43.61,-26.22C77.76,-30.26 130,-28.86 130,-22 130,-15.79 87.1,-14.05 53.64,-16.79"/>
<polygon fill="black" stroke="black" points="53.22,-13.31 43.61,-17.78 53.91,-20.28 53.22,-13.31"/>
<text text-anchor="middle" x="137" y="-18.3" font-family="Times,serif" font-size="14.00">{}</text>
</g>
<!-- 3&#45;&gt;3 -->
<g id="edge13" class="edge">
<title>3&#45;&gt;3</title>
<path fill="none" stroke="black" d="M43.54,-27C83.69,-33.14 148,-31.48 148,-22 148,-13.28 93.58,-11.17 53.6,-15.68"/>
<polygon fill="black" stroke="black" points="52.99,-12.23 43.54,-17 53.91,-19.17 52.99,-12.23"/>
<text text-anchor="middle" x="160.5" y="-18.3" font-family="Times,serif" font-size="14.00">{t0}</text>
</g>
</g>
</svg>
