<?xml version="1.0" encoding="UTF-8" standalone="no"?>
<!DOCTYPE svg PUBLIC "-//W3C//DTD SVG 1.1//EN"
 "http://www.w3.org/Graphics/SVG/1.1/DTD/svg11.dtd">
<!-- Generated by graphviz version 2.43.0 (0)
 -->
<!-- Title: %3 Pages: 1 -->
<svg width="2520pt" height="475pt"
 viewBox="0.00 0.00 2520.41 475.44" xmlns="http://www.w3.org/2000/svg" xmlns:xlink="http://www.w3.org/1999/xlink">
<g id="graph0" class="graph" transform="scale(1 1) rotate(0) translate(4 471.44)">
<title>%3</title>
<polygon fill="white" stroke="transparent" points="-4,4 -4,-471.44 2516.41,-471.44 2516.41,4 -4,4"/>
<!-- fake -->
<g id="node1" class="node">
<title>fake</title>
</g>
<!-- 0 -->
<g id="node2" class="node">
<title>0</title>
<ellipse fill="none" stroke="black" cx="1817.41" cy="-376.44" rx="27" ry="18"/>
<text text-anchor="middle" x="1817.41" y="-372.74" font-family="Times,serif" font-size="14.00">0</text>
</g>
<!-- fake&#45;&gt;0 -->
<g id="edge1" class="edge">
<title>fake&#45;&gt;0</title>
<path fill="none" stroke="black" stroke-width="2" d="M1817.41,-431.25C1817.41,-423.23 1817.41,-413.49 1817.41,-404.51"/>
<polygon fill="black" stroke="black" stroke-width="2" points="1820.91,-404.47 1817.41,-394.47 1813.91,-404.47 1820.91,-404.47"/>
</g>
<!-- 0&#45;&gt;0 -->
<g id="edge69" class="edge">
<title>0&#45;&gt;0</title>
<path fill="none" stroke="black" d="M1842.86,-383.13C1853.44,-383.59 1862.41,-381.36 1862.41,-376.44 1862.41,-373.21 1858.55,-371.14 1852.9,-370.23"/>
<polygon fill="black" stroke="black" points="1853.01,-366.73 1842.86,-369.75 1852.68,-373.72 1853.01,-366.73"/>
<text text-anchor="middle" x="1869.41" y="-372.74" font-family="Times,serif" font-size="14.00">{}</text>
</g>
<!-- 1 -->
<g id="node3" class="node">
<title>1</title>
<ellipse fill="none" stroke="black" cx="1495.41" cy="-289.44" rx="27" ry="18"/>
<text text-anchor="middle" x="1495.41" y="-285.74" font-family="Times,serif" font-size="14.00">1</text>
</g>
<!-- 0&#45;&gt;1 -->
<g id="edge66" class="edge">
<title>0&#45;&gt;1</title>
<path fill="none" stroke="black" d="M1790.34,-375.83C1684.59,-377.07 1303.46,-378.86 1267.41,-340.44 1262.85,-335.58 1263.07,-330.5 1267.41,-325.44 1291.54,-297.33 1399.85,-291.57 1458.08,-290.53"/>
<polygon fill="black" stroke="black" points="1458.39,-294.03 1468.34,-290.39 1458.29,-287.03 1458.39,-294.03"/>
<text text-anchor="middle" x="1311.41" y="-329.24" font-family="Times,serif" font-size="14.00">{c0, c1, c2, c3}</text>
</g>
<!-- 0&#45;&gt;1 -->
<g id="edge67" class="edge">
<title>0&#45;&gt;1</title>
<path fill="none" stroke="black" d="M1790.34,-375.36C1699.02,-374.82 1406.39,-370.73 1378.41,-340.44 1352.4,-312.27 1415.46,-299.31 1458.75,-293.89"/>
<polygon fill="black" stroke="black" points="1459.2,-297.36 1468.73,-292.73 1458.39,-290.41 1459.2,-297.36"/>
<text text-anchor="middle" x="1411.91" y="-329.24" font-family="Times,serif" font-size="14.00">{c1, c2, c3}</text>
</g>
<!-- 0&#45;&gt;1 -->
<g id="edge68" class="edge">
<title>0&#45;&gt;1</title>
<path fill="none" stroke="black" d="M1790.29,-374.77C1712.02,-372.55 1489.91,-364.2 1468.41,-340.44 1460.86,-332.09 1465.4,-321.26 1472.75,-311.81"/>
<polygon fill="black" stroke="black" points="1475.4,-314.1 1479.39,-304.28 1470.15,-309.47 1475.4,-314.1"/>
<text text-anchor="middle" x="1481.91" y="-329.24" font-family="Times,serif" font-size="14.00">{c3}</text>
</g>
<!-- 0&#45;&gt;1 -->
<g id="edge70" class="edge">
<title>0&#45;&gt;1</title>
<path fill="none" stroke="black" d="M1790.27,-375.57C1725,-375.37 1561.44,-371.69 1518.41,-340.44 1510.66,-334.81 1505.45,-325.92 1501.99,-317.19"/>
<polygon fill="black" stroke="black" points="1505.26,-315.95 1498.77,-307.58 1498.62,-318.17 1505.26,-315.95"/>
<text text-anchor="middle" x="1541.91" y="-329.24" font-family="Times,serif" font-size="14.00">{c1, c3}</text>
</g>
<!-- 0&#45;&gt;1 -->
<g id="edge71" class="edge">
<title>0&#45;&gt;1</title>
<path fill="none" stroke="black" d="M1790.38,-374.98C1746.56,-373.44 1657.92,-366.98 1588.41,-340.44 1577.01,-336.08 1576,-331.51 1565.41,-325.44 1552.73,-318.16 1538.35,-310.82 1525.93,-304.76"/>
<polygon fill="black" stroke="black" points="1527.41,-301.58 1516.88,-300.39 1524.36,-307.89 1527.41,-301.58"/>
<text text-anchor="middle" x="1611.91" y="-329.24" font-family="Times,serif" font-size="14.00">{c2, c3}</text>
</g>
<!-- 0&#45;&gt;1 -->
<g id="edge72" class="edge">
<title>0&#45;&gt;1</title>
<path fill="none" stroke="black" d="M1790.92,-372.57C1758.62,-368.42 1702.85,-359.08 1658.41,-340.44 1647.16,-335.72 1646.6,-330.32 1635.41,-325.44 1601.67,-310.71 1560.53,-301.36 1531.61,-296.06"/>
<polygon fill="black" stroke="black" points="1532,-292.58 1521.54,-294.29 1530.79,-299.47 1532,-292.58"/>
<text text-anchor="middle" x="1691.91" y="-329.24" font-family="Times,serif" font-size="14.00">{c0, c2, c3}</text>
</g>
<!-- 0&#45;&gt;1 -->
<g id="edge73" class="edge">
<title>0&#45;&gt;1</title>
<path fill="none" stroke="black" d="M1795.96,-365.3C1782.17,-358.61 1764,-349.44 1748.41,-340.44 1737.84,-334.33 1736.81,-329.79 1725.41,-325.44 1660.64,-300.73 1579.34,-293.42 1532.79,-291.28"/>
<polygon fill="black" stroke="black" points="1532.7,-287.78 1522.56,-290.87 1532.41,-294.77 1532.7,-287.78"/>
<text text-anchor="middle" x="1771.91" y="-329.24" font-family="Times,serif" font-size="14.00">{c0, c3}</text>
</g>
<!-- 0&#45;&gt;1 -->
<g id="edge74" class="edge">
<title>0&#45;&gt;1</title>
<path fill="none" stroke="black" d="M1814.41,-358.32C1811.51,-347.14 1805.94,-333.21 1795.41,-325.44 1754.59,-295.28 1603.99,-290.72 1532.96,-290.29"/>
<polygon fill="black" stroke="black" points="1532.69,-286.79 1522.67,-290.25 1532.66,-293.79 1532.69,-286.79"/>
<text text-anchor="middle" x="1840.91" y="-329.24" font-family="Times,serif" font-size="14.00">{c0, c1, c3}</text>
</g>
<!-- 2 -->
<g id="node4" class="node">
<title>2</title>
<ellipse fill="none" stroke="black" cx="1437.41" cy="-24.44" rx="27" ry="18"/>
<text text-anchor="middle" x="1437.41" y="-20.74" font-family="Times,serif" font-size="14.00">2</text>
</g>
<!-- 0&#45;&gt;2 -->
<g id="edge75" class="edge">
<title>0&#45;&gt;2</title>
<path fill="none" stroke="black" d="M1841.73,-368.21C1855.09,-362.85 1870.52,-354.07 1878.41,-340.44 1881.75,-334.67 1879.9,-331.94 1878.41,-325.44 1852.1,-210.42 1836.09,-169.18 1742.41,-97.44 1661.77,-35.68 1536.53,-25.71 1474.63,-24.83"/>
<polygon fill="black" stroke="black" points="1474.57,-21.33 1464.55,-24.76 1474.53,-28.33 1474.57,-21.33"/>
<text text-anchor="middle" x="1860.91" y="-198.74" font-family="Times,serif" font-size="14.00">{c0}</text>
</g>
<!-- 0&#45;&gt;2 -->
<g id="edge76" class="edge">
<title>0&#45;&gt;2</title>
<path fill="none" stroke="black" d="M1842.21,-368.83C1875.47,-358.29 1930.41,-334.26 1930.41,-290.44 1930.41,-290.44 1930.41,-290.44 1930.41,-114.44 1930.41,-68.1 1588.81,-37.24 1474.31,-28.19"/>
<polygon fill="black" stroke="black" points="1474.51,-24.7 1464.27,-27.41 1473.97,-31.68 1474.51,-24.7"/>
<text text-anchor="middle" x="1953.91" y="-198.74" font-family="Times,serif" font-size="14.00">{c0, c2}</text>
</g>
<!-- 0&#45;&gt;2 -->
<g id="edge77" class="edge">
<title>0&#45;&gt;2</title>
<path fill="none" stroke="black" d="M1844.67,-375.6C1898.52,-374.34 2013.41,-363.13 2013.41,-290.44 2013.41,-290.44 2013.41,-290.44 2013.41,-114.44 2013.41,-59.69 1601.77,-33.9 1474.47,-27.24"/>
<polygon fill="black" stroke="black" points="1474.59,-23.74 1464.42,-26.72 1474.23,-30.73 1474.59,-23.74"/>
<text text-anchor="middle" x="2046.91" y="-198.74" font-family="Times,serif" font-size="14.00">{c0, c1, c2}</text>
</g>
<!-- 0&#45;&gt;2 -->
<g id="edge78" class="edge">
<title>0&#45;&gt;2</title>
<path fill="none" stroke="black" d="M1844.21,-373.58C1917.6,-367.75 2116.41,-346.77 2116.41,-290.44 2116.41,-290.44 2116.41,-290.44 2116.41,-114.44 2116.41,-49.19 1617.09,-30.4 1474.83,-26.37"/>
<polygon fill="black" stroke="black" points="1474.54,-22.86 1464.45,-26.08 1474.35,-29.86 1474.54,-22.86"/>
<text text-anchor="middle" x="2129.91" y="-198.74" font-family="Times,serif" font-size="14.00">{c2}</text>
</g>
<!-- 0&#45;&gt;2 -->
<g id="edge79" class="edge">
<title>0&#45;&gt;2</title>
<path fill="none" stroke="black" d="M1844.33,-374.88C1928.22,-372.41 2179.41,-359.27 2179.41,-290.44 2179.41,-290.44 2179.41,-290.44 2179.41,-114.44 2179.41,-42.69 1625.48,-28.48 1474.84,-25.95"/>
<polygon fill="black" stroke="black" points="1474.76,-22.45 1464.7,-25.78 1474.64,-29.44 1474.76,-22.45"/>
<text text-anchor="middle" x="2202.91" y="-198.74" font-family="Times,serif" font-size="14.00">{c0, c1}</text>
</g>
<!-- 0&#45;&gt;2 -->
<g id="edge80" class="edge">
<title>0&#45;&gt;2</title>
<path fill="none" stroke="black" d="M1844.58,-376.05C1941.2,-377.52 2262.41,-375.97 2262.41,-290.44 2262.41,-290.44 2262.41,-290.44 2262.41,-114.44 2262.41,-34.08 1635.71,-26.19 1474.74,-25.49"/>
<polygon fill="black" stroke="black" points="1474.41,-21.99 1464.39,-25.45 1474.38,-28.99 1474.41,-21.99"/>
<text text-anchor="middle" x="2285.91" y="-198.74" font-family="Times,serif" font-size="14.00">{c1, c2}</text>
</g>
<!-- 0&#45;&gt;2 -->
<g id="edge81" class="edge">
<title>0&#45;&gt;2</title>
<path fill="none" stroke="black" d="M1844.49,-374.47C1925.53,-371.38 2165.18,-360.73 2240.41,-340.44 2290.32,-326.98 2345.41,-342.13 2345.41,-290.44 2345.41,-290.44 2345.41,-290.44 2345.41,-114.44 2345.41,-25.42 1645.29,-24.11 1474.6,-25.11"/>
<polygon fill="black" stroke="black" points="1474.56,-21.61 1464.59,-25.18 1474.61,-28.61 1474.56,-21.61"/>
<text text-anchor="middle" x="2358.91" y="-198.74" font-family="Times,serif" font-size="14.00">{c1}</text>
</g>
<!-- 1&#45;&gt;1 -->
<g id="edge39" class="edge">
<title>1&#45;&gt;1</title>
<path fill="none" stroke="black" d="M1519.94,-297.19C1530.92,-297.93 1540.41,-295.34 1540.41,-289.44 1540.41,-285.47 1536.13,-283 1529.99,-282.03"/>
<polygon fill="black" stroke="black" points="1530.06,-278.53 1519.94,-281.69 1529.82,-285.53 1530.06,-278.53"/>
<text text-anchor="middle" x="1547.41" y="-285.74" font-family="Times,serif" font-size="14.00">{}</text>
</g>
<!-- 1&#45;&gt;2 -->
<g id="edge43" class="edge">
<title>1&#45;&gt;2</title>
<path fill="none" stroke="black" d="M1491.25,-271.61C1488.69,-261.84 1485.19,-249.34 1481.41,-238.44 1470.05,-205.69 1458.21,-200.43 1451.41,-166.44 1450.1,-159.9 1447.79,-157.04 1451.41,-151.44 1462,-135.07 1480.83,-149.81 1491.41,-133.44 1500.1,-120 1496.47,-112.62 1491.41,-97.44 1485.07,-78.41 1471.51,-60.36 1459.57,-47.1"/>
<polygon fill="black" stroke="black" points="1461.82,-44.38 1452.42,-39.49 1456.72,-49.17 1461.82,-44.38"/>
<text text-anchor="middle" x="1474.91" y="-155.24" font-family="Times,serif" font-size="14.00">{c0, c3}</text>
</g>
<!-- 1&#45;&gt;2 -->
<g id="edge44" class="edge">
<title>1&#45;&gt;2</title>
<path fill="none" stroke="black" d="M1499.67,-271.6C1507.48,-238.05 1522.1,-160.62 1508.41,-97.44 1505,-81.69 1503.72,-76.82 1493.41,-64.44 1486.06,-55.61 1476.24,-47.87 1466.87,-41.66"/>
<polygon fill="black" stroke="black" points="1468.47,-38.53 1458.13,-36.2 1464.76,-44.47 1468.47,-38.53"/>
<text text-anchor="middle" x="1526.91" y="-155.24" font-family="Times,serif" font-size="14.00">{c0}</text>
</g>
<!-- 1&#45;&gt;2 -->
<g id="edge45" class="edge">
<title>1&#45;&gt;2</title>
<path fill="none" stroke="black" d="M1506.81,-272.88C1523.71,-247.95 1552.61,-197.19 1544.41,-151.44 1537.12,-110.73 1539.01,-95.24 1511.41,-64.44 1500.47,-52.22 1484.78,-43.19 1470.66,-36.92"/>
<polygon fill="black" stroke="black" points="1471.79,-33.6 1461.21,-33.01 1469.12,-40.07 1471.79,-33.6"/>
<text text-anchor="middle" x="1568.91" y="-155.24" font-family="Times,serif" font-size="14.00">{c1, c3}</text>
</g>
<!-- 1&#45;&gt;2 -->
<g id="edge46" class="edge">
<title>1&#45;&gt;2</title>
<path fill="none" stroke="black" d="M1514.85,-276.94C1548.99,-255.13 1614.45,-205.07 1596.41,-151.44 1580.94,-105.44 1568.77,-94.17 1530.41,-64.44 1513.05,-50.98 1490.37,-41.35 1471.76,-35.02"/>
<polygon fill="black" stroke="black" points="1472.76,-31.67 1462.17,-31.93 1470.61,-38.33 1472.76,-31.67"/>
<text text-anchor="middle" x="1611.91" y="-155.24" font-family="Times,serif" font-size="14.00">{c3}</text>
</g>
<!-- 1&#45;&gt;2 -->
<g id="edge47" class="edge">
<title>1&#45;&gt;2</title>
<path fill="none" stroke="black" d="M1518.53,-279.91C1533.71,-273.75 1553.61,-264.57 1569.41,-253.44 1612.41,-223.15 1644.97,-201.68 1629.41,-151.44 1614.22,-102.39 1598.14,-89.65 1553.41,-64.44 1528.1,-50.17 1496.73,-40.02 1472.99,-33.65"/>
<polygon fill="black" stroke="black" points="1473.56,-30.18 1463,-31.07 1471.81,-36.96 1473.56,-30.18"/>
<text text-anchor="middle" x="1655.91" y="-155.24" font-family="Times,serif" font-size="14.00">{c0, c1}</text>
</g>
<!-- 1&#45;&gt;2 -->
<g id="edge48" class="edge">
<title>1&#45;&gt;2</title>
<path fill="none" stroke="black" d="M1520.89,-282.81C1579.42,-268.5 1716.05,-226.42 1683.41,-151.44 1647.64,-69.26 1533.11,-39.92 1473.79,-30.07"/>
<polygon fill="black" stroke="black" points="1474.15,-26.58 1463.73,-28.49 1473.07,-33.5 1474.15,-26.58"/>
<text text-anchor="middle" x="1720.91" y="-155.24" font-family="Times,serif" font-size="14.00">{c0, c1, c3}</text>
</g>
<!-- 1&#45;&gt;2 -->
<g id="edge49" class="edge">
<title>1&#45;&gt;2</title>
<path fill="none" stroke="black" d="M1522.1,-286C1598.82,-277.81 1811.16,-246.26 1758.41,-151.44 1701.94,-49.92 1546.66,-29.91 1474.8,-26.17"/>
<polygon fill="black" stroke="black" points="1474.56,-22.65 1464.42,-25.71 1474.25,-29.65 1474.56,-22.65"/>
<text text-anchor="middle" x="1776.91" y="-155.24" font-family="Times,serif" font-size="14.00">{c1}</text>
</g>
<!-- 3 -->
<g id="node5" class="node">
<title>3</title>
<ellipse fill="none" stroke="black" cx="1037.41" cy="-202.44" rx="27" ry="18"/>
<text text-anchor="middle" x="1037.41" y="-198.74" font-family="Times,serif" font-size="14.00">3</text>
</g>
<!-- 1&#45;&gt;3 -->
<g id="edge34" class="edge">
<title>1&#45;&gt;3</title>
<path fill="none" stroke="black" d="M1468.46,-287.97C1350.49,-285.78 884.51,-275.74 863.41,-253.44 822.47,-210.16 937.53,-203.56 1000.04,-203.05"/>
<polygon fill="black" stroke="black" points="1000.33,-206.55 1010.32,-203.01 1000.31,-199.55 1000.33,-206.55"/>
<text text-anchor="middle" x="886.91" y="-242.24" font-family="Times,serif" font-size="14.00">{c1, c2}</text>
</g>
<!-- 1&#45;&gt;3 -->
<g id="edge35" class="edge">
<title>1&#45;&gt;3</title>
<path fill="none" stroke="black" d="M1468.18,-287.77C1358.22,-284.93 951.93,-273.14 933.41,-253.44 910.3,-228.84 962.63,-214.97 1001.13,-208.35"/>
<polygon fill="black" stroke="black" points="1001.74,-211.8 1011.06,-206.75 1000.63,-204.89 1001.74,-211.8"/>
<text text-anchor="middle" x="946.91" y="-242.24" font-family="Times,serif" font-size="14.00">{c2}</text>
</g>
<!-- 1&#45;&gt;3 -->
<g id="edge36" class="edge">
<title>1&#45;&gt;3</title>
<path fill="none" stroke="black" d="M1468.16,-288.69C1366.93,-289.36 1016.67,-289.05 983.41,-253.44 971.46,-240.64 987.79,-227.21 1005.55,-217.49"/>
<polygon fill="black" stroke="black" points="1007.5,-220.43 1014.82,-212.77 1004.32,-214.19 1007.5,-220.43"/>
<text text-anchor="middle" x="1016.91" y="-242.24" font-family="Times,serif" font-size="14.00">{c0, c1, c2}</text>
</g>
<!-- 1&#45;&gt;3 -->
<g id="edge37" class="edge">
<title>1&#45;&gt;3</title>
<path fill="none" stroke="black" d="M1468.44,-287.51C1380.81,-284.3 1107.73,-272.85 1073.41,-253.44 1063.39,-247.77 1055.44,-238.03 1049.58,-228.65"/>
<polygon fill="black" stroke="black" points="1052.59,-226.87 1044.61,-219.9 1046.51,-230.33 1052.59,-226.87"/>
<text text-anchor="middle" x="1106.91" y="-242.24" font-family="Times,serif" font-size="14.00">{c1, c2, c3}</text>
</g>
<!-- 1&#45;&gt;3 -->
<g id="edge38" class="edge">
<title>1&#45;&gt;3</title>
<path fill="none" stroke="black" d="M1468.55,-287.23C1399.92,-283.88 1219.59,-273.4 1163.41,-253.44 1151.91,-249.35 1151.39,-243.78 1140.41,-238.44 1118.47,-227.77 1092.45,-218.95 1072.05,-212.84"/>
<polygon fill="black" stroke="black" points="1072.82,-209.42 1062.24,-209.98 1070.86,-216.14 1072.82,-209.42"/>
<text text-anchor="middle" x="1186.91" y="-242.24" font-family="Times,serif" font-size="14.00">{c0, c2}</text>
</g>
<!-- 1&#45;&gt;3 -->
<g id="edge40" class="edge">
<title>1&#45;&gt;3</title>
<path fill="none" stroke="black" d="M1468.06,-288.7C1419.33,-288.33 1314.94,-283.69 1233.41,-253.44 1221.97,-249.19 1221.71,-243.06 1210.41,-238.44 1165.5,-220.04 1109.95,-211.01 1074.11,-206.8"/>
<polygon fill="black" stroke="black" points="1074.43,-203.31 1064.1,-205.69 1073.66,-210.27 1074.43,-203.31"/>
<text text-anchor="middle" x="1266.91" y="-242.24" font-family="Times,serif" font-size="14.00">{c0, c2, c3}</text>
</g>
<!-- 1&#45;&gt;3 -->
<g id="edge41" class="edge">
<title>1&#45;&gt;3</title>
<path fill="none" stroke="black" d="M1468.58,-286.13C1433.94,-282.45 1372.33,-273.51 1323.41,-253.44 1312.12,-248.81 1311.85,-242.68 1300.41,-238.44 1223.64,-209.97 1126.68,-204.16 1074.59,-203.27"/>
<polygon fill="black" stroke="black" points="1074.52,-199.77 1064.48,-203.15 1074.44,-206.77 1074.52,-199.77"/>
<text text-anchor="middle" x="1346.91" y="-242.24" font-family="Times,serif" font-size="14.00">{c2, c3}</text>
</g>
<!-- 1&#45;&gt;3 -->
<g id="edge42" class="edge">
<title>1&#45;&gt;3</title>
<path fill="none" stroke="black" d="M1470.83,-281.86C1449.74,-275.79 1418.82,-265.84 1393.41,-253.44 1382.45,-248.08 1381.91,-242.52 1370.41,-238.44 1316.7,-219.36 1149.87,-208.97 1074.75,-205.16"/>
<polygon fill="black" stroke="black" points="1074.51,-201.64 1064.35,-204.64 1074.17,-208.63 1074.51,-201.64"/>
<text text-anchor="middle" x="1437.41" y="-242.24" font-family="Times,serif" font-size="14.00">{c0, c1, c2, c3}</text>
</g>
<!-- 2&#45;&gt;2 -->
<g id="edge82" class="edge">
<title>2&#45;&gt;2</title>
<path fill="none" stroke="black" d="M1464.65,-25.94C1474.44,-25.97 1482.41,-25.47 1482.41,-24.44 1482.41,-23.81 1479.45,-23.38 1474.92,-23.14"/>
<polygon fill="black" stroke="black" points="1474.72,-19.64 1464.65,-22.94 1474.58,-26.64 1474.72,-19.64"/>
<text text-anchor="middle" x="1505.91" y="-20.74" font-family="Times,serif" font-size="14.00">{c0, c3}</text>
</g>
<!-- 2&#45;&gt;2 -->
<g id="edge83" class="edge">
<title>2&#45;&gt;2</title>
<path fill="none" stroke="black" d="M1464.3,-26.86C1492.73,-28.12 1529.41,-27.31 1529.41,-24.44 1529.41,-21.9 1500.83,-20.97 1474.57,-21.65"/>
<polygon fill="black" stroke="black" points="1474.18,-18.17 1464.3,-22.01 1474.42,-25.16 1474.18,-18.17"/>
<text text-anchor="middle" x="1542.91" y="-20.74" font-family="Times,serif" font-size="14.00">{c0}</text>
</g>
<!-- 2&#45;&gt;2 -->
<g id="edge84" class="edge">
<title>2&#45;&gt;2</title>
<path fill="none" stroke="black" d="M1464.23,-27.61C1501.65,-30.12 1556.41,-29.07 1556.41,-24.44 1556.41,-20.21 1510.66,-18.96 1474.22,-20.7"/>
<polygon fill="black" stroke="black" points="1474.02,-17.2 1464.23,-21.26 1474.41,-24.19 1474.02,-17.2"/>
<text text-anchor="middle" x="1579.91" y="-20.74" font-family="Times,serif" font-size="14.00">{c0, c2}</text>
</g>
<!-- 2&#45;&gt;2 -->
<g id="edge85" class="edge">
<title>2&#45;&gt;2</title>
<path fill="none" stroke="black" d="M1463.9,-28.01C1514.34,-32.17 1603.41,-30.98 1603.41,-24.44 1603.41,-18.31 1525.45,-16.88 1474.1,-20.13"/>
<polygon fill="black" stroke="black" points="1473.62,-16.66 1463.9,-20.87 1474.12,-23.64 1473.62,-16.66"/>
<text text-anchor="middle" x="1636.91" y="-20.74" font-family="Times,serif" font-size="14.00">{c0, c1, c2}</text>
</g>
<!-- 2&#45;&gt;2 -->
<g id="edge86" class="edge">
<title>2&#45;&gt;2</title>
<path fill="none" stroke="black" d="M1463.88,-28.23C1529.73,-34.22 1670.41,-32.95 1670.41,-24.44 1670.41,-16.34 1543.13,-14.8 1474.04,-19.82"/>
<polygon fill="black" stroke="black" points="1473.57,-16.35 1463.88,-20.65 1474.13,-23.32 1473.57,-16.35"/>
<text text-anchor="middle" x="1693.91" y="-20.74" font-family="Times,serif" font-size="14.00">{c1, c3}</text>
</g>
<!-- 2&#45;&gt;2 -->
<g id="edge87" class="edge">
<title>2&#45;&gt;2</title>
<path fill="none" stroke="black" d="M1463.89,-28.53C1539.89,-36.23 1717.41,-34.87 1717.41,-24.44 1717.41,-14.46 1554.82,-12.78 1474.22,-19.4"/>
<polygon fill="black" stroke="black" points="1473.53,-15.95 1463.89,-20.34 1474.16,-22.92 1473.53,-15.95"/>
<text text-anchor="middle" x="1740.91" y="-20.74" font-family="Times,serif" font-size="14.00">{c2, c3}</text>
</g>
<!-- 2&#45;&gt;2 -->
<g id="edge88" class="edge">
<title>2&#45;&gt;2</title>
<path fill="none" stroke="black" d="M1463.81,-28.78C1549.31,-38.25 1764.41,-36.8 1764.41,-24.44 1764.41,-12.54 1564.98,-10.75 1473.84,-19.08"/>
<polygon fill="black" stroke="black" points="1473.41,-15.61 1463.81,-20.09 1474.11,-22.58 1473.41,-15.61"/>
<text text-anchor="middle" x="1777.91" y="-20.74" font-family="Times,serif" font-size="14.00">{c3}</text>
</g>
<!-- 2&#45;&gt;2 -->
<g id="edge89" class="edge">
<title>2&#45;&gt;2</title>
<path fill="none" stroke="black" d="M1463.72,-29.08C1555.31,-40.25 1791.41,-38.7 1791.41,-24.44 1791.41,-10.67 1571.62,-8.75 1473.9,-18.67"/>
<polygon fill="black" stroke="black" points="1473.28,-15.22 1463.72,-19.8 1474.05,-22.17 1473.28,-15.22"/>
<text text-anchor="middle" x="1804.91" y="-20.74" font-family="Times,serif" font-size="14.00">{c2}</text>
</g>
<!-- 2&#45;&gt;2 -->
<g id="edge90" class="edge">
<title>2&#45;&gt;2</title>
<path fill="none" stroke="black" d="M1463.58,-29.32C1561.17,-42.26 1818.41,-40.63 1818.41,-24.44 1818.41,-8.79 1577.97,-6.74 1473.81,-18.31"/>
<polygon fill="black" stroke="black" points="1473.09,-14.87 1463.58,-19.55 1473.93,-21.82 1473.09,-14.87"/>
<text text-anchor="middle" x="1841.91" y="-20.74" font-family="Times,serif" font-size="14.00">{c0, c1}</text>
</g>
<!-- 2&#45;&gt;2 -->
<g id="edge91" class="edge">
<title>2&#45;&gt;2</title>
<path fill="none" stroke="black" d="M1463.59,-29.49C1569.93,-44.27 1865.41,-42.58 1865.41,-24.44 1865.41,-6.84 1587.55,-4.73 1473.75,-18.09"/>
<polygon fill="black" stroke="black" points="1473.06,-14.65 1463.59,-19.39 1473.95,-21.59 1473.06,-14.65"/>
<text text-anchor="middle" x="1888.91" y="-20.74" font-family="Times,serif" font-size="14.00">{c1, c2}</text>
</g>
<!-- 2&#45;&gt;2 -->
<g id="edge92" class="edge">
<title>2&#45;&gt;2</title>
<path fill="none" stroke="black" d="M1463.49,-29.62C1578.21,-46.28 1912.41,-44.55 1912.41,-24.44 1912.41,-4.9 1596.87,-2.71 1473.75,-17.88"/>
<polygon fill="black" stroke="black" points="1472.94,-14.46 1463.49,-19.25 1473.86,-21.4 1472.94,-14.46"/>
<text text-anchor="middle" x="1945.91" y="-20.74" font-family="Times,serif" font-size="14.00">{c0, c1, c3}</text>
</g>
<!-- 2&#45;&gt;2 -->
<g id="edge93" class="edge">
<title>2&#45;&gt;2</title>
<path fill="none" stroke="black" d="M1463.35,-29.68C1588.46,-48.29 1979.41,-46.54 1979.41,-24.44 1979.41,-2.9 1608.06,-0.69 1473.38,-17.81"/>
<polygon fill="black" stroke="black" points="1472.78,-14.36 1463.35,-19.19 1473.73,-21.3 1472.78,-14.36"/>
<text text-anchor="middle" x="2012.91" y="-20.74" font-family="Times,serif" font-size="14.00">{c1, c2, c3}</text>
</g>
<!-- 2&#45;&gt;2 -->
<g id="edge94" class="edge">
<title>2&#45;&gt;2</title>
<path fill="none" stroke="black" d="M1463.58,-29.8C1599.02,-50.29 2046.41,-48.51 2046.41,-24.44 2046.41,-0.93 1619.75,1.32 1473.61,-17.67"/>
<polygon fill="black" stroke="black" points="1473,-14.22 1463.58,-19.08 1473.97,-21.16 1473,-14.22"/>
<text text-anchor="middle" x="2053.41" y="-20.74" font-family="Times,serif" font-size="14.00">{}</text>
</g>
<!-- 2&#45;&gt;2 -->
<g id="edge95" class="edge">
<title>2&#45;&gt;2</title>
<path fill="none" stroke="black" d="M1463.23,-29.93C1602.87,-52.3 2064.41,-50.47 2064.41,-24.44 2064.41,0.98 1624.25,3.32 1473.57,-17.41"/>
<polygon fill="black" stroke="black" points="1472.61,-14.02 1463.23,-18.95 1473.64,-20.94 1472.61,-14.02"/>
<text text-anchor="middle" x="2108.41" y="-20.74" font-family="Times,serif" font-size="14.00">{c0, c1, c2, c3}</text>
</g>
<!-- 2&#45;&gt;2 -->
<g id="edge96" class="edge">
<title>2&#45;&gt;2</title>
<path fill="none" stroke="black" d="M1463.17,-29.94C1614.38,-54.31 2152.41,-52.47 2152.41,-24.44 2152.41,3 1637.25,5.34 1473.44,-17.4"/>
<polygon fill="black" stroke="black" points="1472.54,-14 1463.17,-18.93 1473.57,-20.92 1472.54,-14"/>
<text text-anchor="middle" x="2185.91" y="-20.74" font-family="Times,serif" font-size="14.00">{c0, c2, c3}</text>
</g>
<!-- 2&#45;&gt;2 -->
<g id="edge97" class="edge">
<title>2&#45;&gt;2</title>
<path fill="none" stroke="black" d="M1463.5,-30.06C1624.39,-56.31 2219.41,-54.44 2219.41,-24.44 2219.41,4.98 1647.41,7.35 1473.41,-17.31"/>
<polygon fill="black" stroke="black" points="1472.86,-13.85 1463.5,-18.81 1473.91,-20.77 1472.86,-13.85"/>
<text text-anchor="middle" x="2232.91" y="-20.74" font-family="Times,serif" font-size="14.00">{c1}</text>
</g>
<!-- 3&#45;&gt;2 -->
<g id="edge27" class="edge">
<title>3&#45;&gt;2</title>
<path fill="none" stroke="black" d="M1035.82,-184.27C1034.13,-173.9 1030.63,-160.9 1023.41,-151.44 1013.98,-139.07 1001.07,-146.97 993.41,-133.44 985.53,-119.51 983.43,-109.94 993.41,-97.44 1015.87,-69.29 1038.68,-92.05 1072.41,-79.44 1085.64,-74.49 1086.84,-68.33 1100.41,-64.44 1216.45,-31.19 1252.81,-68.9 1371.41,-46.44 1382.51,-44.33 1394.36,-40.95 1404.9,-37.5"/>
<polygon fill="black" stroke="black" points="1406.21,-40.75 1414.55,-34.22 1403.96,-34.12 1406.21,-40.75"/>
<text text-anchor="middle" x="1016.91" y="-111.74" font-family="Times,serif" font-size="14.00">{c0, c3}</text>
</g>
<!-- 3&#45;&gt;2 -->
<g id="edge28" class="edge">
<title>3&#45;&gt;2</title>
<path fill="none" stroke="black" d="M1040.45,-184.37C1045.07,-162.35 1055.62,-123.77 1076.41,-97.44 1084.55,-87.13 1113,-68.73 1125.41,-64.44 1229.02,-28.62 1263.77,-67.2 1371.41,-46.44 1382.51,-44.3 1394.35,-40.9 1404.9,-37.45"/>
<polygon fill="black" stroke="black" points="1406.2,-40.71 1414.54,-34.18 1403.95,-34.08 1406.2,-40.71"/>
<text text-anchor="middle" x="1089.91" y="-111.74" font-family="Times,serif" font-size="14.00">{c0}</text>
</g>
<!-- 3&#45;&gt;2 -->
<g id="edge29" class="edge">
<title>3&#45;&gt;2</title>
<path fill="none" stroke="black" d="M1051.62,-186.76C1078.5,-159 1134.6,-101.24 1139.41,-97.44 1161.8,-79.79 1167.36,-73.43 1194.41,-64.44 1269.45,-39.5 1293.99,-62.51 1371.41,-46.44 1382.48,-44.14 1394.31,-40.7 1404.86,-37.27"/>
<polygon fill="black" stroke="black" points="1406.15,-40.52 1414.51,-34.01 1403.92,-33.89 1406.15,-40.52"/>
<text text-anchor="middle" x="1162.91" y="-111.74" font-family="Times,serif" font-size="14.00">{c0, c2}</text>
</g>
<!-- 3&#45;&gt;2 -->
<g id="edge30" class="edge">
<title>3&#45;&gt;2</title>
<path fill="none" stroke="black" d="M1061.23,-193.57C1091.85,-182.8 1145.88,-161.57 1186.41,-133.44 1205,-120.53 1204.58,-111.36 1222.41,-97.44 1244.88,-79.89 1250.78,-74.61 1277.41,-64.44 1317.15,-49.26 1330.18,-56.9 1371.41,-46.44 1382.28,-43.68 1393.98,-40.15 1404.47,-36.77"/>
<polygon fill="black" stroke="black" points="1405.68,-40.05 1414.09,-33.61 1403.49,-33.4 1405.68,-40.05"/>
<text text-anchor="middle" x="1245.91" y="-111.74" font-family="Times,serif" font-size="14.00">{c2, c3}</text>
</g>
<!-- 3&#45;&gt;2 -->
<g id="edge31" class="edge">
<title>3&#45;&gt;2</title>
<path fill="none" stroke="black" d="M1063.82,-198.06C1108.73,-191.4 1201.72,-173.58 1269.41,-133.44 1288.87,-121.9 1289.18,-113.2 1305.41,-97.44 1320.75,-82.54 1322.4,-75.96 1340.41,-64.44 1359.94,-51.94 1384.13,-42.21 1403.47,-35.59"/>
<polygon fill="black" stroke="black" points="1404.69,-38.87 1413.09,-32.41 1402.5,-32.22 1404.69,-38.87"/>
<text text-anchor="middle" x="1318.91" y="-111.74" font-family="Times,serif" font-size="14.00">{c3}</text>
</g>
<!-- 3&#45;&gt;2 -->
<g id="edge32" class="edge">
<title>3&#45;&gt;2</title>
<path fill="none" stroke="black" d="M1064.44,-200.95C1119.16,-198.8 1245.23,-187.81 1332.41,-133.44 1334.92,-131.87 1386.19,-78.72 1416.15,-47.57"/>
<polygon fill="black" stroke="black" points="1418.85,-49.81 1423.26,-40.18 1413.81,-44.96 1418.85,-49.81"/>
<text text-anchor="middle" x="1381.91" y="-111.74" font-family="Times,serif" font-size="14.00">{c2}</text>
</g>
<!-- 3&#45;&gt;2 -->
<g id="edge33" class="edge">
<title>3&#45;&gt;2</title>
<path fill="none" stroke="black" d="M1064.32,-199.99C1139.14,-195.42 1347.33,-178.81 1395.41,-133.44 1418.1,-112.03 1428.71,-76.93 1433.55,-52.59"/>
<polygon fill="black" stroke="black" points="1437.03,-53.02 1435.34,-42.56 1430.14,-51.79 1437.03,-53.02"/>
<text text-anchor="middle" x="1453.91" y="-111.74" font-family="Times,serif" font-size="14.00">{c0, c2, c3}</text>
</g>
<!-- 3&#45;&gt;3 -->
<g id="edge20" class="edge">
<title>3&#45;&gt;3</title>
<path fill="none" stroke="black" d="M1061.94,-210.19C1072.92,-210.93 1082.41,-208.34 1082.41,-202.44 1082.41,-198.47 1078.13,-196 1071.99,-195.03"/>
<polygon fill="black" stroke="black" points="1072.06,-191.53 1061.94,-194.69 1071.82,-198.53 1072.06,-191.53"/>
<text text-anchor="middle" x="1089.41" y="-198.74" font-family="Times,serif" font-size="14.00">{}</text>
</g>
<!-- 4 -->
<g id="node6" class="node">
<title>4</title>
<ellipse fill="none" stroke="black" cx="644.41" cy="-115.44" rx="27" ry="18"/>
<text text-anchor="middle" x="644.41" y="-111.74" font-family="Times,serif" font-size="14.00">4</text>
</g>
<!-- 3&#45;&gt;4 -->
<g id="edge18" class="edge">
<title>3&#45;&gt;4</title>
<path fill="none" stroke="black" d="M1010.46,-200.97C892.49,-198.78 426.51,-188.74 405.41,-166.44 400.83,-161.59 401.05,-156.48 405.41,-151.44 431.02,-121.81 546.49,-116.78 607.06,-116.23"/>
<polygon fill="black" stroke="black" points="607.37,-119.73 617.35,-116.18 607.33,-112.73 607.37,-119.73"/>
<text text-anchor="middle" x="449.41" y="-155.24" font-family="Times,serif" font-size="14.00">{c0, c1, c2, c3}</text>
</g>
<!-- 3&#45;&gt;4 -->
<g id="edge19" class="edge">
<title>3&#45;&gt;4</title>
<path fill="none" stroke="black" d="M1010.38,-201.72C908.31,-202.53 550.35,-202.73 516.41,-166.44 487.55,-135.58 559.89,-123.48 607.21,-118.96"/>
<polygon fill="black" stroke="black" points="607.81,-122.42 617.47,-118.06 607.2,-115.45 607.81,-122.42"/>
<text text-anchor="middle" x="539.91" y="-155.24" font-family="Times,serif" font-size="14.00">{c1, c2}</text>
</g>
<!-- 3&#45;&gt;4 -->
<g id="edge21" class="edge">
<title>3&#45;&gt;4</title>
<path fill="none" stroke="black" d="M1010.25,-201.42C917.18,-201.09 615.25,-197.6 586.41,-166.44 573.71,-152.71 592.49,-138.96 611.99,-129.37"/>
<polygon fill="black" stroke="black" points="613.56,-132.5 621.18,-125.14 610.64,-126.14 613.56,-132.5"/>
<text text-anchor="middle" x="609.91" y="-155.24" font-family="Times,serif" font-size="14.00">{c0, c1}</text>
</g>
<!-- 3&#45;&gt;4 -->
<g id="edge22" class="edge">
<title>3&#45;&gt;4</title>
<path fill="none" stroke="black" d="M1010.46,-200.75C928,-198.4 683.09,-189.53 656.41,-166.44 649.89,-160.79 646.58,-152.27 644.99,-143.87"/>
<polygon fill="black" stroke="black" points="648.45,-143.38 643.8,-133.86 641.5,-144.2 648.45,-143.38"/>
<text text-anchor="middle" x="689.91" y="-155.24" font-family="Times,serif" font-size="14.00">{c0, c1, c2}</text>
</g>
<!-- 3&#45;&gt;4 -->
<g id="edge23" class="edge">
<title>3&#45;&gt;4</title>
<path fill="none" stroke="black" d="M1010.39,-202.22C957.85,-202.87 838.95,-200.09 746.41,-166.44 734.94,-162.27 734.14,-157.26 723.41,-151.44 708.42,-143.29 691.15,-135.48 676.59,-129.31"/>
<polygon fill="black" stroke="black" points="677.58,-125.93 667.01,-125.31 674.89,-132.39 677.58,-125.93"/>
<text text-anchor="middle" x="759.91" y="-155.24" font-family="Times,serif" font-size="14.00">{c1}</text>
</g>
<!-- 3&#45;&gt;4 -->
<g id="edge24" class="edge">
<title>3&#45;&gt;4</title>
<path fill="none" stroke="black" d="M1010.45,-201.27C964.88,-200.17 870.38,-194.37 796.41,-166.44 785,-162.13 784.55,-156.43 773.41,-151.44 743.32,-137.95 706.87,-128.65 680.41,-123.04"/>
<polygon fill="black" stroke="black" points="680.94,-119.58 670.44,-121.01 679.53,-126.44 680.94,-119.58"/>
<text text-anchor="middle" x="829.91" y="-155.24" font-family="Times,serif" font-size="14.00">{c1, c2, c3}</text>
</g>
<!-- 3&#45;&gt;4 -->
<g id="edge25" class="edge">
<title>3&#45;&gt;4</title>
<path fill="none" stroke="black" d="M1011.17,-198.2C980.35,-193.75 928.13,-184.21 886.41,-166.44 875.19,-161.65 874.8,-155.83 863.41,-151.44 802.39,-127.89 725.91,-120.19 681.37,-117.66"/>
<polygon fill="black" stroke="black" points="681.46,-114.16 671.3,-117.15 681.11,-121.15 681.46,-114.16"/>
<text text-anchor="middle" x="919.91" y="-155.24" font-family="Times,serif" font-size="14.00">{c0, c1, c3}</text>
</g>
<!-- 3&#45;&gt;4 -->
<g id="edge26" class="edge">
<title>3&#45;&gt;4</title>
<path fill="none" stroke="black" d="M1017.19,-190.22C1005.23,-183.49 989.84,-174.66 976.41,-166.44 966,-160.06 964.9,-155.57 953.41,-151.44 904.25,-133.75 752.77,-122.8 681.81,-118.51"/>
<polygon fill="black" stroke="black" points="681.74,-115 671.55,-117.9 681.32,-121.99 681.74,-115"/>
<text text-anchor="middle" x="999.91" y="-155.24" font-family="Times,serif" font-size="14.00">{c1, c3}</text>
</g>
<!-- 4&#45;&gt;2 -->
<g id="edge59" class="edge">
<title>4&#45;&gt;2</title>
<path fill="none" stroke="black" d="M639.37,-97.3C637.32,-86.4 637.08,-72.81 645.41,-64.44 673.87,-35.84 1331.62,-53.12 1371.41,-46.44 1382.56,-44.57 1394.41,-41.24 1404.95,-37.78"/>
<polygon fill="black" stroke="black" points="1406.28,-41.02 1414.59,-34.46 1404,-34.4 1406.28,-41.02"/>
<text text-anchor="middle" x="668.91" y="-68.24" font-family="Times,serif" font-size="14.00">{c1, c3}</text>
</g>
<!-- 4&#45;&gt;2 -->
<g id="edge60" class="edge">
<title>4&#45;&gt;2</title>
<path fill="none" stroke="black" d="M662.04,-101.64C682.06,-87.16 712.37,-65.45 715.41,-64.44 784.62,-41.47 1299.52,-58.61 1371.41,-46.44 1382.55,-44.55 1394.41,-41.22 1404.95,-37.76"/>
<polygon fill="black" stroke="black" points="1406.27,-41.01 1414.59,-34.44 1404,-34.39 1406.27,-41.01"/>
<text text-anchor="middle" x="738.91" y="-68.24" font-family="Times,serif" font-size="14.00">{c2, c3}</text>
</g>
<!-- 4&#45;&gt;2 -->
<g id="edge61" class="edge">
<title>4&#45;&gt;2</title>
<path fill="none" stroke="black" d="M670.04,-109.1C694.48,-103.49 731.96,-93.52 762.41,-79.44 773.49,-74.32 773.77,-68.09 785.41,-64.44 909.71,-25.4 1242.99,-68.4 1371.41,-46.44 1382.55,-44.53 1394.4,-41.2 1404.95,-37.74"/>
<polygon fill="black" stroke="black" points="1406.27,-40.98 1414.59,-34.42 1403.99,-34.36 1406.27,-40.98"/>
<text text-anchor="middle" x="798.91" y="-68.24" font-family="Times,serif" font-size="14.00">{c3}</text>
</g>
<!-- 4&#45;&gt;2 -->
<g id="edge62" class="edge">
<title>4&#45;&gt;2</title>
<path fill="none" stroke="black" d="M670.92,-111.99C704.8,-108.18 764.77,-99.11 812.41,-79.44 823.69,-74.78 823.77,-68.11 835.41,-64.44 949.06,-28.57 1253.97,-66.7 1371.41,-46.44 1382.55,-44.52 1394.4,-41.18 1404.94,-37.72"/>
<polygon fill="black" stroke="black" points="1406.26,-40.97 1414.59,-34.41 1403.99,-34.34 1406.26,-40.97"/>
<text text-anchor="middle" x="848.91" y="-68.24" font-family="Times,serif" font-size="14.00">{c2}</text>
</g>
<!-- 4&#45;&gt;2 -->
<g id="edge63" class="edge">
<title>4&#45;&gt;2</title>
<path fill="none" stroke="black" d="M671.52,-113.69C713.69,-111.74 796.98,-104.71 862.41,-79.44 873.8,-75.04 873.78,-68.13 885.41,-64.44 988.42,-31.73 1264.94,-64.99 1371.41,-46.44 1382.54,-44.5 1394.4,-41.15 1404.94,-37.69"/>
<polygon fill="black" stroke="black" points="1406.26,-40.94 1414.58,-34.39 1403.99,-34.32 1406.26,-40.94"/>
<text text-anchor="middle" x="908.91" y="-68.24" font-family="Times,serif" font-size="14.00">{c1, c2}</text>
</g>
<!-- 4&#45;&gt;2 -->
<g id="edge64" class="edge">
<title>4&#45;&gt;2</title>
<path fill="none" stroke="black" d="M671.56,-115.17C723.77,-115.71 841.08,-112.72 932.41,-79.44 943.88,-75.26 943.79,-68.17 955.41,-64.44 1043.52,-36.16 1280.3,-62.61 1371.41,-46.44 1382.54,-44.46 1394.39,-41.11 1404.93,-37.65"/>
<polygon fill="black" stroke="black" points="1406.25,-40.9 1414.58,-34.35 1403.98,-34.28 1406.25,-40.9"/>
<text text-anchor="middle" x="988.91" y="-68.24" font-family="Times,serif" font-size="14.00">{c1, c2, c3}</text>
</g>
<!-- 4&#45;&gt;2 -->
<g id="edge65" class="edge">
<title>4&#45;&gt;2</title>
<path fill="none" stroke="black" d="M671.38,-113.62C746.59,-111.08 957.37,-102.09 1022.41,-79.44 1033.94,-75.42 1033.81,-68.24 1045.41,-64.44 1114.36,-41.85 1300.05,-59.54 1371.41,-46.44 1382.53,-44.4 1394.37,-41.02 1404.92,-37.57"/>
<polygon fill="black" stroke="black" points="1406.23,-40.82 1414.56,-34.28 1403.97,-34.2 1406.23,-40.82"/>
<text text-anchor="middle" x="1058.91" y="-68.24" font-family="Times,serif" font-size="14.00">{c1}</text>
</g>
<!-- 4&#45;&gt;4 -->
<g id="edge51" class="edge">
<title>4&#45;&gt;4</title>
<path fill="none" stroke="black" d="M668.94,-123.19C679.92,-123.93 689.41,-121.34 689.41,-115.44 689.41,-111.47 685.13,-109 678.99,-108.03"/>
<polygon fill="black" stroke="black" points="679.06,-104.53 668.94,-107.69 678.82,-111.53 679.06,-104.53"/>
<text text-anchor="middle" x="696.41" y="-111.74" font-family="Times,serif" font-size="14.00">{}</text>
</g>
<!-- 5 -->
<g id="node7" class="node">
<title>5</title>
<ellipse fill="none" stroke="black" cx="292.41" cy="-24.44" rx="18" ry="18"/>
<ellipse fill="none" stroke="black" cx="292.41" cy="-24.44" rx="22" ry="22"/>
<text text-anchor="middle" x="292.41" y="-20.74" font-family="Times,serif" font-size="14.00">5</text>
</g>
<!-- 4&#45;&gt;5 -->
<g id="edge50" class="edge">
<title>4&#45;&gt;5</title>
<path fill="none" stroke="black" d="M617.12,-113.98C497.65,-111.85 25.79,-102.01 4.41,-79.44 -31.69,-41.31 177.74,-29.56 260.16,-26.44"/>
<polygon fill="black" stroke="black" points="260.37,-29.93 270.24,-26.08 260.12,-22.94 260.37,-29.93"/>
<text text-anchor="middle" x="27.91" y="-68.24" font-family="Times,serif" font-size="14.00">{c0, c2}</text>
</g>
<!-- 4&#45;&gt;5 -->
<g id="edge52" class="edge">
<title>4&#45;&gt;5</title>
<path fill="none" stroke="black" d="M617.17,-113.79C506.2,-111.03 93.22,-99.43 74.41,-79.44 69.84,-74.58 70.13,-69.55 74.41,-64.44 97.72,-36.59 205.33,-28.6 260.14,-26.33"/>
<polygon fill="black" stroke="black" points="260.5,-29.82 270.36,-25.95 260.23,-22.83 260.5,-29.82"/>
<text text-anchor="middle" x="107.91" y="-68.24" font-family="Times,serif" font-size="14.00">{c0, c1, c3}</text>
</g>
<!-- 4&#45;&gt;5 -->
<g id="edge53" class="edge">
<title>4&#45;&gt;5</title>
<path fill="none" stroke="black" d="M617.21,-114.56C520.2,-114.71 195.35,-112.71 164.41,-79.44 134.26,-47 213.21,-33.32 260.26,-28.17"/>
<polygon fill="black" stroke="black" points="260.74,-31.64 270.33,-27.14 260.03,-24.67 260.74,-31.64"/>
<text text-anchor="middle" x="197.91" y="-68.24" font-family="Times,serif" font-size="14.00">{c0, c2, c3}</text>
</g>
<!-- 4&#45;&gt;5 -->
<g id="edge54" class="edge">
<title>4&#45;&gt;5</title>
<path fill="none" stroke="black" d="M617.46,-114.07C533.2,-112.66 278.87,-106.19 254.41,-79.44 244.36,-68.44 254.32,-54.68 266.55,-43.81"/>
<polygon fill="black" stroke="black" points="268.79,-46.5 274.31,-37.46 264.35,-41.08 268.79,-46.5"/>
<text text-anchor="middle" x="277.91" y="-68.24" font-family="Times,serif" font-size="14.00">{c0, c3}</text>
</g>
<!-- 4&#45;&gt;5 -->
<g id="edge55" class="edge">
<title>4&#45;&gt;5</title>
<path fill="none" stroke="black" d="M617.11,-114.52C548.8,-114.24 372.57,-110.47 324.41,-79.44 315.27,-73.55 308.4,-64.05 303.41,-54.65"/>
<polygon fill="black" stroke="black" points="306.48,-52.96 299.04,-45.42 300.16,-55.96 306.48,-52.96"/>
<text text-anchor="middle" x="368.41" y="-68.24" font-family="Times,serif" font-size="14.00">{c0, c1, c2, c3}</text>
</g>
<!-- 4&#45;&gt;5 -->
<g id="edge56" class="edge">
<title>4&#45;&gt;5</title>
<path fill="none" stroke="black" d="M617.42,-113.44C576.68,-111.15 497.62,-103.7 435.41,-79.44 424.04,-75 423.42,-69.7 412.41,-64.44 383.53,-50.63 348.53,-39.88 323.79,-33.19"/>
<polygon fill="black" stroke="black" points="324.43,-29.74 313.87,-30.58 322.65,-36.51 324.43,-29.74"/>
<text text-anchor="middle" x="448.91" y="-68.24" font-family="Times,serif" font-size="14.00">{c0}</text>
</g>
<!-- 4&#45;&gt;5 -->
<g id="edge57" class="edge">
<title>4&#45;&gt;5</title>
<path fill="none" stroke="black" d="M617.92,-111.57C585.62,-107.42 529.85,-98.08 485.41,-79.44 474.16,-74.72 473.64,-69.21 462.41,-64.44 416.57,-44.96 359.46,-34.41 324.48,-29.36"/>
<polygon fill="black" stroke="black" points="324.76,-25.87 314.37,-27.96 323.8,-32.8 324.76,-25.87"/>
<text text-anchor="middle" x="518.91" y="-68.24" font-family="Times,serif" font-size="14.00">{c0, c1, c2}</text>
</g>
<!-- 4&#45;&gt;5 -->
<g id="edge58" class="edge">
<title>4&#45;&gt;5</title>
<path fill="none" stroke="black" d="M622.96,-104.3C609.17,-97.61 591,-88.44 575.41,-79.44 564.84,-73.33 563.82,-68.78 552.41,-64.44 474.31,-34.74 374.95,-27.57 324.68,-25.9"/>
<polygon fill="black" stroke="black" points="324.53,-22.39 314.43,-25.61 324.33,-29.39 324.53,-22.39"/>
<text text-anchor="middle" x="598.91" y="-68.24" font-family="Times,serif" font-size="14.00">{c0, c1}</text>
</g>
<!-- 5&#45;&gt;5 -->
<g id="edge2" class="edge">
<title>5&#45;&gt;5</title>
<path fill="none" stroke="black" d="M314.62,-25.92C324.21,-26.04 332.41,-25.55 332.41,-24.44 332.41,-23.76 329.37,-23.31 324.82,-23.09"/>
<polygon fill="black" stroke="black" points="324.67,-19.59 314.62,-22.96 324.58,-26.59 324.67,-19.59"/>
<text text-anchor="middle" x="345.91" y="-20.74" font-family="Times,serif" font-size="14.00">{c0}</text>
</g>
<!-- 5&#45;&gt;5 -->
<g id="edge3" class="edge">
<title>5&#45;&gt;5</title>
<path fill="none" stroke="black" d="M314.44,-26.9C335.32,-28.1 359.41,-27.28 359.41,-24.44 359.41,-22.06 342.58,-21.1 324.86,-21.54"/>
<polygon fill="black" stroke="black" points="324.29,-18.06 314.44,-21.97 324.58,-25.06 324.29,-18.06"/>
<text text-anchor="middle" x="366.41" y="-20.74" font-family="Times,serif" font-size="14.00">{}</text>
</g>
<!-- 5&#45;&gt;5 -->
<g id="edge4" class="edge">
<title>5&#45;&gt;5</title>
<path fill="none" stroke="black" d="M314.25,-27.63C342.08,-30.12 377.41,-29.05 377.41,-24.44 377.41,-20.36 349.87,-19.05 324.27,-20.52"/>
<polygon fill="black" stroke="black" points="323.97,-17.03 314.25,-21.25 324.48,-24.01 323.97,-17.03"/>
<text text-anchor="middle" x="410.91" y="-20.74" font-family="Times,serif" font-size="14.00">{c0, c1, c2}</text>
</g>
<!-- 5&#45;&gt;5 -->
<g id="edge5" class="edge">
<title>5&#45;&gt;5</title>
<path fill="none" stroke="black" d="M314.44,-27.76C360.48,-32.22 444.41,-31.11 444.41,-24.44 444.41,-18.23 371.87,-16.84 324.67,-20.26"/>
<polygon fill="black" stroke="black" points="324.12,-16.79 314.44,-21.11 324.7,-23.77 324.12,-16.79"/>
<text text-anchor="middle" x="488.41" y="-20.74" font-family="Times,serif" font-size="14.00">{c0, c1, c2, c3}</text>
</g>
<!-- 5&#45;&gt;5 -->
<g id="edge6" class="edge">
<title>5&#45;&gt;5</title>
<path fill="none" stroke="black" d="M314.3,-27.81C378.63,-34.27 532.41,-33.15 532.41,-24.44 532.41,-16.15 393.28,-14.73 324.34,-20.18"/>
<polygon fill="black" stroke="black" points="323.95,-16.7 314.3,-21.07 324.57,-23.67 323.95,-16.7"/>
<text text-anchor="middle" x="555.91" y="-20.74" font-family="Times,serif" font-size="14.00">{c0, c1}</text>
</g>
<!-- 5&#45;&gt;5 -->
<g id="edge7" class="edge">
<title>5&#45;&gt;5</title>
<path fill="none" stroke="black" d="M314.21,-28.05C387.82,-36.28 579.41,-35.08 579.41,-24.44 579.41,-14.25 403.94,-12.71 324.32,-19.81"/>
<polygon fill="black" stroke="black" points="323.81,-16.35 314.21,-20.82 324.5,-23.31 323.81,-16.35"/>
<text text-anchor="middle" x="592.91" y="-20.74" font-family="Times,serif" font-size="14.00">{c1}</text>
</g>
<!-- 5&#45;&gt;5 -->
<g id="edge8" class="edge">
<title>5&#45;&gt;5</title>
<path fill="none" stroke="black" d="M314.12,-28.34C393.7,-38.29 606.41,-36.99 606.41,-24.44 606.41,-12.39 410.4,-10.71 324.3,-19.4"/>
<polygon fill="black" stroke="black" points="323.67,-15.95 314.12,-20.54 324.45,-22.9 323.67,-15.95"/>
<text text-anchor="middle" x="629.91" y="-20.74" font-family="Times,serif" font-size="14.00">{c1, c2}</text>
</g>
<!-- 5&#45;&gt;5 -->
<g id="edge9" class="edge">
<title>5&#45;&gt;5</title>
<path fill="none" stroke="black" d="M314.12,-28.52C402.37,-40.3 653.41,-38.94 653.41,-24.44 653.41,-10.46 420.19,-8.69 324.3,-19.13"/>
<polygon fill="black" stroke="black" points="323.63,-15.69 314.12,-20.36 324.46,-22.64 323.63,-15.69"/>
<text text-anchor="middle" x="686.91" y="-20.74" font-family="Times,serif" font-size="14.00">{c1, c2, c3}</text>
</g>
<!-- 5&#45;&gt;5 -->
<g id="edge10" class="edge">
<title>5&#45;&gt;5</title>
<path fill="none" stroke="black" d="M314.24,-28.64C413.4,-42.31 720.41,-40.91 720.41,-24.44 720.41,-8.5 432.87,-6.67 324.46,-18.96"/>
<polygon fill="black" stroke="black" points="323.73,-15.53 314.24,-20.24 324.6,-22.47 323.73,-15.53"/>
<text text-anchor="middle" x="733.91" y="-20.74" font-family="Times,serif" font-size="14.00">{c3}</text>
</g>
<!-- 5&#45;&gt;5 -->
<g id="edge11" class="edge">
<title>5&#45;&gt;5</title>
<path fill="none" stroke="black" d="M314.05,-28.81C418.65,-44.31 747.41,-42.86 747.41,-24.44 747.41,-6.58 438.25,-4.67 324.15,-18.71"/>
<polygon fill="black" stroke="black" points="323.5,-15.26 314.05,-20.07 324.43,-22.2 323.5,-15.26"/>
<text text-anchor="middle" x="770.91" y="-20.74" font-family="Times,serif" font-size="14.00">{c0, c2}</text>
</g>
<!-- 5&#45;&gt;5 -->
<g id="edge12" class="edge">
<title>5&#45;&gt;5</title>
<path fill="none" stroke="black" d="M314.29,-28.97C427.01,-46.32 794.41,-44.8 794.41,-24.44 794.41,-4.65 447.53,-2.66 324.47,-18.47"/>
<polygon fill="black" stroke="black" points="323.71,-15.05 314.29,-19.9 324.68,-21.98 323.71,-15.05"/>
<text text-anchor="middle" x="817.91" y="-20.74" font-family="Times,serif" font-size="14.00">{c1, c3}</text>
</g>
<!-- 5&#45;&gt;5 -->
<g id="edge13" class="edge">
<title>5&#45;&gt;5</title>
<path fill="none" stroke="black" d="M314.26,-29.08C434.62,-48.32 841.41,-46.77 841.41,-24.44 841.41,-2.69 455.79,-0.65 324.36,-18.31"/>
<polygon fill="black" stroke="black" points="323.65,-14.88 314.26,-19.79 324.66,-21.81 323.65,-14.88"/>
<text text-anchor="middle" x="874.91" y="-20.74" font-family="Times,serif" font-size="14.00">{c0, c2, c3}</text>
</g>
<!-- 5&#45;&gt;5 -->
<g id="edge14" class="edge">
<title>5&#45;&gt;5</title>
<path fill="none" stroke="black" d="M314.2,-29.14C443.95,-50.33 908.41,-48.76 908.41,-24.44 908.41,-0.71 466.35,1.36 324.29,-18.22"/>
<polygon fill="black" stroke="black" points="323.57,-14.79 314.2,-19.73 324.61,-21.71 323.57,-14.79"/>
<text text-anchor="middle" x="931.91" y="-20.74" font-family="Times,serif" font-size="14.00">{c2, c3}</text>
</g>
<!-- 5&#45;&gt;5 -->
<g id="edge15" class="edge">
<title>5&#45;&gt;5</title>
<path fill="none" stroke="black" d="M314.05,-29.22C450.88,-52.33 955.41,-50.74 955.41,-24.44 955.41,1.25 474.25,3.37 324.27,-18.07"/>
<polygon fill="black" stroke="black" points="323.4,-14.67 314.05,-19.66 324.47,-21.58 323.4,-14.67"/>
<text text-anchor="middle" x="978.91" y="-20.74" font-family="Times,serif" font-size="14.00">{c0, c3}</text>
</g>
<!-- 5&#45;&gt;5 -->
<g id="edge16" class="edge">
<title>5&#45;&gt;5</title>
<path fill="none" stroke="black" d="M314.15,-29.32C458.31,-54.34 1002.41,-52.71 1002.41,-24.44 1002.41,3.2 482.48,5.38 324.46,-17.91"/>
<polygon fill="black" stroke="black" points="323.48,-14.52 314.15,-19.55 324.58,-21.43 323.48,-14.52"/>
<text text-anchor="middle" x="1015.91" y="-20.74" font-family="Times,serif" font-size="14.00">{c2}</text>
</g>
<!-- 5&#45;&gt;5 -->
<g id="edge17" class="edge">
<title>5&#45;&gt;5</title>
<path fill="none" stroke="black" d="M313.93,-29.4C463.16,-56.34 1029.41,-54.69 1029.41,-24.44 1029.41,5.16 487.23,7.38 324.12,-17.78"/>
<polygon fill="black" stroke="black" points="323.22,-14.38 313.93,-19.47 324.37,-21.28 323.22,-14.38"/>
<text text-anchor="middle" x="1062.91" y="-20.74" font-family="Times,serif" font-size="14.00">{c0, c1, c3}</text>
</g>
</g>
</svg>
