<?xml version="1.0" encoding="UTF-8" standalone="no"?>
<!DOCTYPE svg PUBLIC "-//W3C//DTD SVG 1.1//EN"
 "http://www.w3.org/Graphics/SVG/1.1/DTD/svg11.dtd">
<!-- Generated by graphviz version 2.43.0 (0)
 -->
<!-- Title: %3 Pages: 1 -->
<svg width="2536pt" height="475pt"
 viewBox="0.00 0.00 2536.38 475.44" xmlns="http://www.w3.org/2000/svg" xmlns:xlink="http://www.w3.org/1999/xlink">
<g id="graph0" class="graph" transform="scale(1 1) rotate(0) translate(4 471.44)">
<title>%3</title>
<polygon fill="white" stroke="transparent" points="-4,4 -4,-471.44 2532.38,-471.44 2532.38,4 -4,4"/>
<!-- fake -->
<g id="node1" class="node">
<title>fake</title>
</g>
<!-- 0 -->
<g id="node2" class="node">
<title>0</title>
<ellipse fill="none" stroke="black" cx="1814.38" cy="-376.44" rx="27" ry="18"/>
<text text-anchor="middle" x="1814.38" y="-372.74" font-family="Times,serif" font-size="14.00">0</text>
</g>
<!-- fake&#45;&gt;0 -->
<g id="edge1" class="edge">
<title>fake&#45;&gt;0</title>
<path fill="none" stroke="black" stroke-width="2" d="M1814.38,-431.25C1814.38,-423.23 1814.38,-413.49 1814.38,-404.51"/>
<polygon fill="black" stroke="black" stroke-width="2" points="1817.88,-404.47 1814.38,-394.47 1810.88,-404.47 1817.88,-404.47"/>
</g>
<!-- 0&#45;&gt;0 -->
<g id="edge8" class="edge">
<title>0&#45;&gt;0</title>
<path fill="none" stroke="black" d="M1839.82,-383.13C1850.41,-383.59 1859.38,-381.36 1859.38,-376.44 1859.38,-373.21 1855.51,-371.14 1849.87,-370.23"/>
<polygon fill="black" stroke="black" points="1849.98,-366.73 1839.82,-369.75 1849.64,-373.72 1849.98,-366.73"/>
<text text-anchor="middle" x="1866.38" y="-372.74" font-family="Times,serif" font-size="14.00">{}</text>
</g>
<!-- 1 -->
<g id="node3" class="node">
<title>1</title>
<ellipse fill="none" stroke="black" cx="1472.38" cy="-289.44" rx="27" ry="18"/>
<text text-anchor="middle" x="1472.38" y="-285.74" font-family="Times,serif" font-size="14.00">1</text>
</g>
<!-- 0&#45;&gt;1 -->
<g id="edge2" class="edge">
<title>0&#45;&gt;1</title>
<path fill="none" stroke="black" d="M1787.3,-375.83C1681.56,-377.08 1300.43,-378.86 1264.38,-340.44 1259.82,-335.58 1260.07,-330.53 1264.38,-325.44 1285.83,-300.08 1381.32,-293.09 1435.15,-291.17"/>
<polygon fill="black" stroke="black" points="1435.44,-294.66 1445.33,-290.84 1435.22,-287.66 1435.44,-294.66"/>
<text text-anchor="middle" x="1297.88" y="-329.24" font-family="Times,serif" font-size="14.00">{c0, c2, c3}</text>
</g>
<!-- 0&#45;&gt;1 -->
<g id="edge3" class="edge">
<title>0&#45;&gt;1</title>
<path fill="none" stroke="black" d="M1787.33,-375.47C1693.18,-375.29 1383.88,-372.27 1354.38,-340.44 1328.05,-312.04 1392.07,-299.15 1435.75,-293.8"/>
<polygon fill="black" stroke="black" points="1436.26,-297.26 1445.8,-292.66 1435.47,-290.31 1436.26,-297.26"/>
<text text-anchor="middle" x="1398.38" y="-329.24" font-family="Times,serif" font-size="14.00">{c0, c1, c2, c3}</text>
</g>
<!-- 0&#45;&gt;1 -->
<g id="edge4" class="edge">
<title>0&#45;&gt;1</title>
<path fill="none" stroke="black" d="M1787.26,-374.77C1708.99,-372.55 1486.88,-364.2 1465.38,-340.44 1459.54,-333.99 1459.28,-325.04 1461.15,-316.48"/>
<polygon fill="black" stroke="black" points="1464.53,-317.39 1464.11,-306.8 1457.84,-315.34 1464.53,-317.39"/>
<text text-anchor="middle" x="1478.88" y="-329.24" font-family="Times,serif" font-size="14.00">{c3}</text>
</g>
<!-- 0&#45;&gt;1 -->
<g id="edge5" class="edge">
<title>0&#45;&gt;1</title>
<path fill="none" stroke="black" d="M1787.26,-374.76C1722.78,-372.76 1562.22,-365.34 1515.38,-340.44 1504.39,-334.6 1494.97,-324.7 1487.78,-315.25"/>
<polygon fill="black" stroke="black" points="1490.45,-312.96 1481.82,-306.82 1484.74,-317 1490.45,-312.96"/>
<text text-anchor="middle" x="1538.88" y="-329.24" font-family="Times,serif" font-size="14.00">{c1, c3}</text>
</g>
<!-- 0&#45;&gt;1 -->
<g id="edge6" class="edge">
<title>0&#45;&gt;1</title>
<path fill="none" stroke="black" d="M1787.34,-374.98C1743.52,-373.44 1654.89,-366.99 1585.38,-340.44 1573.98,-336.09 1573.23,-331.02 1562.38,-325.44 1544.3,-316.16 1523.16,-307.82 1505.92,-301.61"/>
<polygon fill="black" stroke="black" points="1506.86,-298.23 1496.27,-298.21 1504.54,-304.84 1506.86,-298.23"/>
<text text-anchor="middle" x="1608.88" y="-329.24" font-family="Times,serif" font-size="14.00">{c0, c3}</text>
</g>
<!-- 0&#45;&gt;1 -->
<g id="edge7" class="edge">
<title>0&#45;&gt;1</title>
<path fill="none" stroke="black" d="M1787.89,-372.58C1755.59,-368.42 1699.82,-359.09 1655.38,-340.44 1644.12,-335.72 1643.63,-330.16 1632.38,-325.44 1592.03,-308.54 1542.39,-299.31 1509.2,-294.64"/>
<polygon fill="black" stroke="black" points="1509.41,-291.14 1499.03,-293.28 1508.48,-298.08 1509.41,-291.14"/>
<text text-anchor="middle" x="1688.88" y="-329.24" font-family="Times,serif" font-size="14.00">{c0, c1, c3}</text>
</g>
<!-- 0&#45;&gt;1 -->
<g id="edge9" class="edge">
<title>0&#45;&gt;1</title>
<path fill="none" stroke="black" d="M1792.92,-365.3C1779.14,-358.61 1760.96,-349.44 1745.38,-340.44 1734.81,-334.34 1733.81,-329.72 1722.38,-325.44 1650.35,-298.45 1559.57,-292.02 1509.61,-290.64"/>
<polygon fill="black" stroke="black" points="1509.67,-287.14 1499.59,-290.42 1509.51,-294.14 1509.67,-287.14"/>
<text text-anchor="middle" x="1768.88" y="-329.24" font-family="Times,serif" font-size="14.00">{c2, c3}</text>
</g>
<!-- 0&#45;&gt;1 -->
<g id="edge10" class="edge">
<title>0&#45;&gt;1</title>
<path fill="none" stroke="black" d="M1811.39,-358.3C1808.5,-347.1 1802.93,-333.18 1792.38,-325.44 1748.24,-293.08 1584.32,-289.75 1509.74,-289.97"/>
<polygon fill="black" stroke="black" points="1509.4,-286.47 1499.42,-290.03 1509.43,-293.47 1509.4,-286.47"/>
<text text-anchor="middle" x="1837.88" y="-329.24" font-family="Times,serif" font-size="14.00">{c1, c2, c3}</text>
</g>
<!-- 2 -->
<g id="node4" class="node">
<title>2</title>
<ellipse fill="none" stroke="black" cx="1453.38" cy="-24.44" rx="27" ry="18"/>
<text text-anchor="middle" x="1453.38" y="-20.74" font-family="Times,serif" font-size="14.00">2</text>
</g>
<!-- 0&#45;&gt;2 -->
<g id="edge11" class="edge">
<title>0&#45;&gt;2</title>
<path fill="none" stroke="black" d="M1838.69,-368.21C1852.06,-362.85 1867.48,-354.07 1875.38,-340.44 1878.72,-334.67 1876.86,-331.94 1875.38,-325.44 1856.23,-241.73 1845.02,-218.5 1791.38,-151.44 1749.32,-98.87 1730.47,-87.93 1667.38,-64.44 1607.71,-42.23 1533.81,-32.36 1490.31,-28.21"/>
<polygon fill="black" stroke="black" points="1490.47,-24.71 1480.2,-27.29 1489.84,-31.68 1490.47,-24.71"/>
<text text-anchor="middle" x="1862.88" y="-198.74" font-family="Times,serif" font-size="14.00">{c0, c2}</text>
</g>
<!-- 0&#45;&gt;2 -->
<g id="edge12" class="edge">
<title>0&#45;&gt;2</title>
<path fill="none" stroke="black" d="M1839.18,-368.84C1872.44,-358.3 1927.38,-334.26 1927.38,-290.44 1927.38,-290.44 1927.38,-290.44 1927.38,-114.44 1927.38,-70.03 1601.83,-38.1 1490.32,-28.47"/>
<polygon fill="black" stroke="black" points="1490.48,-24.97 1480.22,-27.61 1489.89,-31.95 1490.48,-24.97"/>
<text text-anchor="middle" x="1940.88" y="-198.74" font-family="Times,serif" font-size="14.00">{c1}</text>
</g>
<!-- 0&#45;&gt;2 -->
<g id="edge13" class="edge">
<title>0&#45;&gt;2</title>
<path fill="none" stroke="black" d="M1841.49,-374.4C1890.86,-370.91 1990.38,-355.76 1990.38,-290.44 1990.38,-290.44 1990.38,-290.44 1990.38,-114.44 1990.38,-63.7 1612.43,-35.46 1490.68,-27.68"/>
<polygon fill="black" stroke="black" points="1490.58,-24.16 1480.38,-27.03 1490.14,-31.15 1490.58,-24.16"/>
<text text-anchor="middle" x="2013.88" y="-198.74" font-family="Times,serif" font-size="14.00">{c0, c1}</text>
</g>
<!-- 0&#45;&gt;2 -->
<g id="edge14" class="edge">
<title>0&#45;&gt;2</title>
<path fill="none" stroke="black" d="M1841.12,-372.44C1907.29,-364.28 2073.38,-338.95 2073.38,-290.44 2073.38,-290.44 2073.38,-290.44 2073.38,-114.44 2073.38,-55.22 1624.4,-32.34 1490.58,-26.84"/>
<polygon fill="black" stroke="black" points="1490.55,-23.33 1480.42,-26.43 1490.27,-30.33 1490.55,-23.33"/>
<text text-anchor="middle" x="2086.88" y="-198.74" font-family="Times,serif" font-size="14.00">{c2}</text>
</g>
<!-- 0&#45;&gt;2 -->
<g id="edge15" class="edge">
<title>0&#45;&gt;2</title>
<path fill="none" stroke="black" d="M1841.28,-374.11C1918.67,-369.54 2136.38,-351.29 2136.38,-290.44 2136.38,-290.44 2136.38,-290.44 2136.38,-114.44 2136.38,-48.75 1633.11,-30.26 1490.58,-26.34"/>
<polygon fill="black" stroke="black" points="1490.66,-22.84 1480.57,-26.07 1490.48,-29.84 1490.66,-22.84"/>
<text text-anchor="middle" x="2159.88" y="-198.74" font-family="Times,serif" font-size="14.00">{c1, c2}</text>
</g>
<!-- 0&#45;&gt;2 -->
<g id="edge16" class="edge">
<title>0&#45;&gt;2</title>
<path fill="none" stroke="black" d="M1841.58,-375.54C1932.39,-375.17 2219.38,-367.85 2219.38,-290.44 2219.38,-290.44 2219.38,-290.44 2219.38,-114.44 2219.38,-40.24 1645,-27.81 1490.99,-25.81"/>
<polygon fill="black" stroke="black" points="1490.68,-22.31 1480.64,-25.68 1490.6,-29.31 1490.68,-22.31"/>
<text text-anchor="middle" x="2232.88" y="-198.74" font-family="Times,serif" font-size="14.00">{c0}</text>
</g>
<!-- 0&#45;&gt;2 -->
<g id="edge17" class="edge">
<title>0&#45;&gt;2</title>
<path fill="none" stroke="black" d="M1841.42,-374.43C1916.85,-371.39 2128.32,-361.18 2194.38,-340.44 2237.29,-326.96 2282.38,-335.42 2282.38,-290.44 2282.38,-290.44 2282.38,-290.44 2282.38,-114.44 2282.38,-33.7 1652.63,-26.09 1490.88,-25.47"/>
<polygon fill="black" stroke="black" points="1490.5,-21.97 1480.49,-25.44 1490.48,-28.97 1490.5,-21.97"/>
<text text-anchor="middle" x="2315.88" y="-198.74" font-family="Times,serif" font-size="14.00">{c0, c1, c2}</text>
</g>
<!-- 1&#45;&gt;1 -->
<g id="edge84" class="edge">
<title>1&#45;&gt;1</title>
<path fill="none" stroke="black" d="M1496.91,-297.19C1507.88,-297.93 1517.38,-295.35 1517.38,-289.44 1517.38,-285.47 1513.09,-283 1506.95,-282.04"/>
<polygon fill="black" stroke="black" points="1507.02,-278.54 1496.91,-281.69 1506.78,-285.53 1507.02,-278.54"/>
<text text-anchor="middle" x="1524.38" y="-285.74" font-family="Times,serif" font-size="14.00">{}</text>
</g>
<!-- 1&#45;&gt;2 -->
<g id="edge91" class="edge">
<title>1&#45;&gt;2</title>
<path fill="none" stroke="black" d="M1467.99,-271.62C1462.14,-248.23 1452.08,-204.47 1448.38,-166.44 1447.73,-159.81 1445.23,-157.32 1448.38,-151.44 1455.18,-138.73 1468.57,-146.16 1475.38,-133.44 1482.93,-119.33 1477.74,-113.27 1475.38,-97.44 1473.05,-81.89 1468.05,-65.05 1463.41,-51.57"/>
<polygon fill="black" stroke="black" points="1466.64,-50.22 1459.97,-41.99 1460.05,-52.59 1466.64,-50.22"/>
<text text-anchor="middle" x="1461.88" y="-155.24" font-family="Times,serif" font-size="14.00">{c1}</text>
</g>
<!-- 1&#45;&gt;2 -->
<g id="edge92" class="edge">
<title>1&#45;&gt;2</title>
<path fill="none" stroke="black" d="M1476.05,-271.58C1482.85,-238.3 1496.18,-161.8 1490.38,-97.44 1489.04,-82.59 1490.53,-78.02 1484.38,-64.44 1481.77,-58.69 1478.13,-53.04 1474.25,-47.91"/>
<polygon fill="black" stroke="black" points="1476.69,-45.37 1467.65,-39.84 1471.27,-49.8 1476.69,-45.37"/>
<text text-anchor="middle" x="1513.88" y="-155.24" font-family="Times,serif" font-size="14.00">{c0, c1}</text>
</g>
<!-- 1&#45;&gt;2 -->
<g id="edge93" class="edge">
<title>1&#45;&gt;2</title>
<path fill="none" stroke="black" d="M1487.46,-274.16C1510.87,-250.2 1552.2,-199.78 1541.38,-151.44 1532.04,-109.73 1526.56,-98.23 1500.38,-64.44 1494.68,-57.09 1487.37,-50.2 1480.23,-44.32"/>
<polygon fill="black" stroke="black" points="1482.05,-41.3 1472.02,-37.91 1477.74,-46.82 1482.05,-41.3"/>
<text text-anchor="middle" x="1575.88" y="-155.24" font-family="Times,serif" font-size="14.00">{c0, c1, c3}</text>
</g>
<!-- 1&#45;&gt;2 -->
<g id="edge94" class="edge">
<title>1&#45;&gt;2</title>
<path fill="none" stroke="black" d="M1495.33,-279.93C1541.79,-261.21 1640.37,-213.21 1613.38,-151.44 1588.9,-95.44 1524.54,-57.62 1485.3,-38.96"/>
<polygon fill="black" stroke="black" points="1486.46,-35.64 1475.91,-34.63 1483.53,-42 1486.46,-35.64"/>
<text text-anchor="middle" x="1630.88" y="-155.24" font-family="Times,serif" font-size="14.00">{c0}</text>
</g>
<!-- 1&#45;&gt;2 -->
<g id="edge95" class="edge">
<title>1&#45;&gt;2</title>
<path fill="none" stroke="black" d="M1497.39,-282.19C1552.05,-267.07 1675.2,-224.3 1648.38,-151.44 1623.35,-83.46 1537.36,-48.83 1488.34,-34.23"/>
<polygon fill="black" stroke="black" points="1489.05,-30.79 1478.47,-31.41 1487.12,-37.52 1489.05,-30.79"/>
<text text-anchor="middle" x="1664.88" y="-155.24" font-family="Times,serif" font-size="14.00">{c3}</text>
</g>
<!-- 1&#45;&gt;2 -->
<g id="edge96" class="edge">
<title>1&#45;&gt;2</title>
<path fill="none" stroke="black" d="M1498.54,-284.14C1561.12,-272.43 1712.15,-235.11 1682.38,-151.44 1654.24,-72.36 1547.19,-41.77 1489.97,-30.89"/>
<polygon fill="black" stroke="black" points="1490.36,-27.41 1479.89,-29.08 1489.12,-34.3 1490.36,-27.41"/>
<text text-anchor="middle" x="1708.88" y="-155.24" font-family="Times,serif" font-size="14.00">{c0, c3}</text>
</g>
<!-- 1&#45;&gt;2 -->
<g id="edge97" class="edge">
<title>1&#45;&gt;2</title>
<path fill="none" stroke="black" d="M1499,-286.33C1574.52,-279.1 1781.74,-250.08 1736.38,-151.44 1693.39,-57.99 1556.66,-33.84 1490.27,-27.61"/>
<polygon fill="black" stroke="black" points="1490.5,-24.12 1480.24,-26.76 1489.9,-31.09 1490.5,-24.12"/>
<text text-anchor="middle" x="1763.88" y="-155.24" font-family="Times,serif" font-size="14.00">{c1, c3}</text>
</g>
<!-- 3 -->
<g id="node5" class="node">
<title>3</title>
<ellipse fill="none" stroke="black" cx="1020.38" cy="-202.44" rx="27" ry="18"/>
<text text-anchor="middle" x="1020.38" y="-198.74" font-family="Times,serif" font-size="14.00">3</text>
</g>
<!-- 1&#45;&gt;3 -->
<g id="edge82" class="edge">
<title>1&#45;&gt;3</title>
<path fill="none" stroke="black" d="M1445.43,-287.97C1327.45,-285.78 861.48,-275.74 840.38,-253.44 797.83,-208.47 918.8,-202.77 983.1,-202.77"/>
<polygon fill="black" stroke="black" points="983.25,-206.27 993.27,-202.82 983.29,-199.27 983.25,-206.27"/>
<text text-anchor="middle" x="863.88" y="-242.24" font-family="Times,serif" font-size="14.00">{c0, c2}</text>
</g>
<!-- 1&#45;&gt;3 -->
<g id="edge83" class="edge">
<title>1&#45;&gt;3</title>
<path fill="none" stroke="black" d="M1445.15,-287.77C1335.18,-284.93 928.89,-273.14 910.38,-253.44 885.81,-227.3 943.15,-213.77 983.93,-207.67"/>
<polygon fill="black" stroke="black" points="984.46,-211.13 993.88,-206.28 983.49,-204.2 984.46,-211.13"/>
<text text-anchor="middle" x="954.38" y="-242.24" font-family="Times,serif" font-size="14.00">{c0, c1, c2, c3}</text>
</g>
<!-- 1&#45;&gt;3 -->
<g id="edge85" class="edge">
<title>1&#45;&gt;3</title>
<path fill="none" stroke="black" d="M1445.24,-288.4C1352.25,-288 1050.52,-284.31 1021.38,-253.44 1015.68,-247.4 1014.1,-238.9 1014.35,-230.62"/>
<polygon fill="black" stroke="black" points="1017.86,-230.77 1015.49,-220.44 1010.9,-229.99 1017.86,-230.77"/>
<text text-anchor="middle" x="1054.88" y="-242.24" font-family="Times,serif" font-size="14.00">{c1, c2, c3}</text>
</g>
<!-- 1&#45;&gt;3 -->
<g id="edge86" class="edge">
<title>1&#45;&gt;3</title>
<path fill="none" stroke="black" d="M1445.32,-287.49C1372.39,-284.65 1173.1,-275.09 1111.38,-253.44 1099.86,-249.4 1098.93,-244.58 1088.38,-238.44 1076.33,-231.44 1062.73,-224.29 1050.88,-218.3"/>
<polygon fill="black" stroke="black" points="1052.32,-215.11 1041.81,-213.77 1049.19,-221.37 1052.32,-215.11"/>
<text text-anchor="middle" x="1134.88" y="-242.24" font-family="Times,serif" font-size="14.00">{c1, c2}</text>
</g>
<!-- 1&#45;&gt;3 -->
<g id="edge87" class="edge">
<title>1&#45;&gt;3</title>
<path fill="none" stroke="black" d="M1445.36,-289.22C1392.81,-289.87 1273.91,-287.09 1181.38,-253.44 1169.91,-249.27 1169.55,-243.34 1158.38,-238.44 1125.21,-223.9 1084.81,-214.54 1056.32,-209.19"/>
<polygon fill="black" stroke="black" points="1056.85,-205.73 1046.39,-207.4 1055.61,-212.62 1056.85,-205.73"/>
<text text-anchor="middle" x="1204.88" y="-242.24" font-family="Times,serif" font-size="14.00">{c2, c3}</text>
</g>
<!-- 1&#45;&gt;3 -->
<g id="edge88" class="edge">
<title>1&#45;&gt;3</title>
<path fill="none" stroke="black" d="M1445.25,-287.77C1402.61,-285.93 1317.9,-279.05 1251.38,-253.44 1239.99,-249.06 1239.75,-242.88 1228.38,-238.44 1171.3,-216.15 1099.98,-208.05 1057.42,-205.11"/>
<polygon fill="black" stroke="black" points="1057.44,-201.6 1047.24,-204.47 1057,-208.59 1057.44,-201.6"/>
<text text-anchor="middle" x="1284.88" y="-242.24" font-family="Times,serif" font-size="14.00">{c0, c1, c2}</text>
</g>
<!-- 1&#45;&gt;3 -->
<g id="edge89" class="edge">
<title>1&#45;&gt;3</title>
<path fill="none" stroke="black" d="M1446.45,-284.03C1419.41,-278.86 1376.21,-268.97 1341.38,-253.44 1330.23,-248.47 1329.85,-242.6 1318.38,-238.44 1271.21,-221.36 1126.32,-210.17 1057.46,-205.67"/>
<polygon fill="black" stroke="black" points="1057.69,-202.18 1047.48,-205.04 1057.24,-209.17 1057.69,-202.18"/>
<text text-anchor="middle" x="1374.88" y="-242.24" font-family="Times,serif" font-size="14.00">{c0, c2, c3}</text>
</g>
<!-- 1&#45;&gt;3 -->
<g id="edge90" class="edge">
<title>1&#45;&gt;3</title>
<path fill="none" stroke="black" d="M1456.84,-274.62C1441.52,-261.32 1418.93,-242.62 1408.38,-238.44 1345.12,-213.43 1141.73,-206.11 1057.47,-204.13"/>
<polygon fill="black" stroke="black" points="1057.41,-200.63 1047.33,-203.9 1057.25,-207.62 1057.41,-200.63"/>
<text text-anchor="middle" x="1443.88" y="-242.24" font-family="Times,serif" font-size="14.00">{c2}</text>
</g>
<!-- 2&#45;&gt;2 -->
<g id="edge66" class="edge">
<title>2&#45;&gt;2</title>
<path fill="none" stroke="black" d="M1480.62,-25.94C1490.4,-25.97 1498.38,-25.47 1498.38,-24.44 1498.38,-23.81 1495.42,-23.38 1490.89,-23.15"/>
<polygon fill="black" stroke="black" points="1490.69,-19.64 1480.62,-22.94 1490.55,-26.64 1490.69,-19.64"/>
<text text-anchor="middle" x="1521.88" y="-20.74" font-family="Times,serif" font-size="14.00">{c0, c2}</text>
</g>
<!-- 2&#45;&gt;2 -->
<g id="edge67" class="edge">
<title>2&#45;&gt;2</title>
<path fill="none" stroke="black" d="M1480.27,-26.87C1508.7,-28.13 1545.38,-27.32 1545.38,-24.44 1545.38,-21.9 1516.79,-20.98 1490.53,-21.66"/>
<polygon fill="black" stroke="black" points="1490.14,-18.17 1480.27,-22.02 1490.38,-25.17 1490.14,-18.17"/>
<text text-anchor="middle" x="1558.88" y="-20.74" font-family="Times,serif" font-size="14.00">{c1}</text>
</g>
<!-- 2&#45;&gt;2 -->
<g id="edge68" class="edge">
<title>2&#45;&gt;2</title>
<path fill="none" stroke="black" d="M1480.2,-27.61C1517.62,-30.13 1572.38,-29.07 1572.38,-24.44 1572.38,-20.21 1526.63,-18.96 1490.18,-20.7"/>
<polygon fill="black" stroke="black" points="1489.98,-17.2 1480.2,-21.27 1490.38,-24.19 1489.98,-17.2"/>
<text text-anchor="middle" x="1595.88" y="-20.74" font-family="Times,serif" font-size="14.00">{c2, c3}</text>
</g>
<!-- 2&#45;&gt;2 -->
<g id="edge69" class="edge">
<title>2&#45;&gt;2</title>
<path fill="none" stroke="black" d="M1479.86,-28.01C1530.31,-32.18 1619.38,-30.99 1619.38,-24.44 1619.38,-18.32 1541.42,-16.88 1490.06,-20.13"/>
<polygon fill="black" stroke="black" points="1489.58,-16.66 1479.86,-20.87 1490.09,-23.64 1489.58,-16.66"/>
<text text-anchor="middle" x="1642.88" y="-20.74" font-family="Times,serif" font-size="14.00">{c0, c1}</text>
</g>
<!-- 2&#45;&gt;2 -->
<g id="edge70" class="edge">
<title>2&#45;&gt;2</title>
<path fill="none" stroke="black" d="M1479.94,-28.36C1541.93,-34.2 1666.38,-32.9 1666.38,-24.44 1666.38,-16.43 1554.71,-14.84 1490.24,-19.66"/>
<polygon fill="black" stroke="black" points="1489.61,-16.2 1479.94,-20.53 1490.19,-23.18 1489.61,-16.2"/>
<text text-anchor="middle" x="1710.38" y="-20.74" font-family="Times,serif" font-size="14.00">{c0, c1, c2, c3}</text>
</g>
<!-- 2&#45;&gt;2 -->
<g id="edge71" class="edge">
<title>2&#45;&gt;2</title>
<path fill="none" stroke="black" d="M1479.76,-28.43C1559.25,-36.25 1754.38,-34.92 1754.38,-24.44 1754.38,-14.38 1574.56,-12.76 1489.85,-19.56"/>
<polygon fill="black" stroke="black" points="1489.41,-16.08 1479.76,-20.45 1490.03,-23.05 1489.41,-16.08"/>
<text text-anchor="middle" x="1767.88" y="-20.74" font-family="Times,serif" font-size="14.00">{c2}</text>
</g>
<!-- 2&#45;&gt;2 -->
<g id="edge72" class="edge">
<title>2&#45;&gt;2</title>
<path fill="none" stroke="black" d="M1479.81,-28.79C1565.5,-38.25 1781.38,-36.8 1781.38,-24.44 1781.38,-12.54 1581.22,-10.76 1489.87,-19.09"/>
<polygon fill="black" stroke="black" points="1489.41,-15.62 1479.81,-20.1 1490.11,-22.58 1489.41,-15.62"/>
<text text-anchor="middle" x="1804.88" y="-20.74" font-family="Times,serif" font-size="14.00">{c1, c2}</text>
</g>
<!-- 2&#45;&gt;2 -->
<g id="edge73" class="edge">
<title>2&#45;&gt;2</title>
<path fill="none" stroke="black" d="M1479.75,-29.01C1574.47,-40.26 1828.38,-38.74 1828.38,-24.44 1828.38,-10.62 1591.05,-8.74 1489.7,-18.8"/>
<polygon fill="black" stroke="black" points="1489.32,-15.32 1479.75,-19.88 1490.07,-22.28 1489.32,-15.32"/>
<text text-anchor="middle" x="1861.88" y="-20.74" font-family="Times,serif" font-size="14.00">{c0, c1, c3}</text>
</g>
<!-- 2&#45;&gt;2 -->
<g id="edge74" class="edge">
<title>2&#45;&gt;2</title>
<path fill="none" stroke="black" d="M1479.54,-29.11C1585.45,-42.28 1895.38,-40.72 1895.38,-24.44 1895.38,-8.66 1603.93,-6.71 1489.7,-18.61"/>
<polygon fill="black" stroke="black" points="1489.08,-15.16 1479.54,-19.77 1489.87,-22.12 1489.08,-15.16"/>
<text text-anchor="middle" x="1928.88" y="-20.74" font-family="Times,serif" font-size="14.00">{c1, c2, c3}</text>
</g>
<!-- 2&#45;&gt;2 -->
<g id="edge75" class="edge">
<title>2&#45;&gt;2</title>
<path fill="none" stroke="black" d="M1479.62,-29.25C1596.32,-44.29 1962.38,-42.68 1962.38,-24.44 1962.38,-6.7 1616.07,-4.7 1489.74,-18.44"/>
<polygon fill="black" stroke="black" points="1489.14,-14.98 1479.62,-19.63 1489.96,-21.93 1489.14,-14.98"/>
<text text-anchor="middle" x="1975.88" y="-20.74" font-family="Times,serif" font-size="14.00">{c0}</text>
</g>
<!-- 2&#45;&gt;2 -->
<g id="edge76" class="edge">
<title>2&#45;&gt;2</title>
<path fill="none" stroke="black" d="M1479.55,-29.47C1601.73,-46.29 1989.38,-44.62 1989.38,-24.44 1989.38,-4.8 1621.91,-2.69 1489.76,-18.13"/>
<polygon fill="black" stroke="black" points="1489.03,-14.69 1479.55,-19.42 1489.91,-21.63 1489.03,-14.69"/>
<text text-anchor="middle" x="2022.88" y="-20.74" font-family="Times,serif" font-size="14.00">{c0, c2, c3}</text>
</g>
<!-- 2&#45;&gt;2 -->
<g id="edge77" class="edge">
<title>2&#45;&gt;2</title>
<path fill="none" stroke="black" d="M1479.56,-29.57C1611.81,-48.3 2056.38,-46.59 2056.38,-24.44 2056.38,-2.83 1633.26,-0.68 1489.79,-17.98"/>
<polygon fill="black" stroke="black" points="1489.02,-14.55 1479.56,-19.32 1489.93,-21.49 1489.02,-14.55"/>
<text text-anchor="middle" x="2069.88" y="-20.74" font-family="Times,serif" font-size="14.00">{c3}</text>
</g>
<!-- 2&#45;&gt;2 -->
<g id="edge78" class="edge">
<title>2&#45;&gt;2</title>
<path fill="none" stroke="black" d="M1479.44,-29.74C1617.01,-50.3 2083.38,-48.54 2083.38,-24.44 2083.38,-0.91 1638.61,1.32 1489.64,-17.74"/>
<polygon fill="black" stroke="black" points="1488.87,-14.31 1479.44,-19.15 1489.82,-21.25 1488.87,-14.31"/>
<text text-anchor="middle" x="2106.88" y="-20.74" font-family="Times,serif" font-size="14.00">{c0, c3}</text>
</g>
<!-- 2&#45;&gt;2 -->
<g id="edge79" class="edge">
<title>2&#45;&gt;2</title>
<path fill="none" stroke="black" d="M1479.44,-29.86C1624.55,-52.31 2130.38,-50.5 2130.38,-24.44 2130.38,1.03 1647.02,3.33 1489.76,-17.55"/>
<polygon fill="black" stroke="black" points="1488.85,-14.14 1479.44,-19.02 1489.84,-21.07 1488.85,-14.14"/>
<text text-anchor="middle" x="2153.88" y="-20.74" font-family="Times,serif" font-size="14.00">{c1, c3}</text>
</g>
<!-- 2&#45;&gt;2 -->
<g id="edge80" class="edge">
<title>2&#45;&gt;2</title>
<path fill="none" stroke="black" d="M1479.24,-29.94C1631.49,-54.31 2177.38,-52.48 2177.38,-24.44 2177.38,2.99 1654.69,5.34 1489.59,-17.4"/>
<polygon fill="black" stroke="black" points="1488.62,-14.01 1479.24,-18.94 1489.65,-20.93 1488.62,-14.01"/>
<text text-anchor="middle" x="2184.38" y="-20.74" font-family="Times,serif" font-size="14.00">{}</text>
</g>
<!-- 2&#45;&gt;2 -->
<g id="edge81" class="edge">
<title>2&#45;&gt;2</title>
<path fill="none" stroke="black" d="M1479.5,-30.15C1636.68,-56.31 2195.38,-54.41 2195.38,-24.44 2195.38,4.93 1658.83,7.34 1489.42,-17.2"/>
<polygon fill="black" stroke="black" points="1488.85,-13.74 1479.5,-18.73 1489.92,-20.66 1488.85,-13.74"/>
<text text-anchor="middle" x="2228.88" y="-20.74" font-family="Times,serif" font-size="14.00">{c0, c1, c2}</text>
</g>
<!-- 3&#45;&gt;2 -->
<g id="edge59" class="edge">
<title>3&#45;&gt;2</title>
<path fill="none" stroke="black" d="M1017.24,-184.23C1014.65,-173.85 1010.11,-160.85 1002.38,-151.44 992.5,-139.43 980.04,-146.97 972.38,-133.44 964.49,-119.52 962.13,-109.73 972.38,-97.44 1001.03,-63.11 1029.15,-94.18 1071.38,-79.44 1084.71,-74.79 1085.82,-68.39 1099.38,-64.44 1200.79,-34.86 1231.59,-59.79 1336.38,-46.44 1363.89,-42.94 1394.77,-37.32 1417.89,-32.78"/>
<polygon fill="black" stroke="black" points="1418.81,-36.17 1427.93,-30.78 1417.44,-29.3 1418.81,-36.17"/>
<text text-anchor="middle" x="995.88" y="-111.74" font-family="Times,serif" font-size="14.00">{c0, c2}</text>
</g>
<!-- 3&#45;&gt;2 -->
<g id="edge60" class="edge">
<title>3&#45;&gt;2</title>
<path fill="none" stroke="black" d="M1021.91,-184.18C1024.78,-161.61 1032.88,-122.04 1055.38,-97.44 1068.81,-82.76 1078.48,-88.15 1096.38,-79.44 1109.07,-73.27 1110.84,-68.45 1124.38,-64.44 1215.04,-37.56 1242.63,-58.81 1336.38,-46.44 1363.88,-42.81 1394.75,-37.21 1417.88,-32.7"/>
<polygon fill="black" stroke="black" points="1418.79,-36.09 1427.92,-30.72 1417.43,-29.22 1418.79,-36.09"/>
<text text-anchor="middle" x="1078.88" y="-111.74" font-family="Times,serif" font-size="14.00">{c2, c3}</text>
</g>
<!-- 3&#45;&gt;2 -->
<g id="edge61" class="edge">
<title>3&#45;&gt;2</title>
<path fill="none" stroke="black" d="M1037.41,-188.08C1054.27,-174.68 1080.64,-153.24 1102.38,-133.44 1119.1,-118.2 1122.14,-113.2 1138.38,-97.44 1153.72,-82.55 1153.97,-73.41 1173.38,-64.44 1239.54,-33.86 1264.24,-56.89 1336.38,-46.44 1363.83,-42.47 1394.71,-36.88 1417.85,-32.46"/>
<polygon fill="black" stroke="black" points="1418.74,-35.86 1427.9,-30.53 1417.41,-28.98 1418.74,-35.86"/>
<text text-anchor="middle" x="1151.88" y="-111.74" font-family="Times,serif" font-size="14.00">{c2}</text>
</g>
<!-- 3&#45;&gt;2 -->
<g id="edge62" class="edge">
<title>3&#45;&gt;2</title>
<path fill="none" stroke="black" d="M1043.8,-193.35C1073.63,-182.41 1126,-161.07 1165.38,-133.44 1201.39,-108.16 1197.08,-84.25 1236.38,-64.44 1236.5,-64.38 1355.99,-42.92 1417.58,-31.87"/>
<polygon fill="black" stroke="black" points="1418.43,-35.27 1427.65,-30.06 1417.19,-28.38 1418.43,-35.27"/>
<text text-anchor="middle" x="1212.88" y="-111.74" font-family="Times,serif" font-size="14.00">{c0}</text>
</g>
<!-- 3&#45;&gt;2 -->
<g id="edge63" class="edge">
<title>3&#45;&gt;2</title>
<path fill="none" stroke="black" d="M1044.7,-194.6C1068.46,-187.82 1105.57,-176.96 1137.38,-166.44 1178.22,-152.94 1192.08,-156.54 1228.38,-133.44 1247.47,-121.29 1245.7,-110.22 1264.38,-97.44 1294.43,-76.88 1305.45,-77.68 1339.38,-64.44 1366.03,-54.04 1396.74,-43.62 1419.57,-36.17"/>
<polygon fill="black" stroke="black" points="1420.71,-39.48 1429.14,-33.07 1418.55,-32.82 1420.71,-39.48"/>
<text text-anchor="middle" x="1297.88" y="-111.74" font-family="Times,serif" font-size="14.00">{c0, c2, c3}</text>
</g>
<!-- 3&#45;&gt;2 -->
<g id="edge64" class="edge">
<title>3&#45;&gt;2</title>
<path fill="none" stroke="black" d="M1047.53,-200.57C1103.85,-197.72 1236.09,-185.54 1331.38,-133.44 1351.23,-122.59 1351.14,-113.2 1367.38,-97.44 1382.72,-82.55 1386.09,-78.29 1402.38,-64.44 1410.32,-57.69 1419.27,-50.67 1427.42,-44.47"/>
<polygon fill="black" stroke="black" points="1429.66,-47.17 1435.56,-38.36 1425.46,-41.57 1429.66,-47.17"/>
<text text-anchor="middle" x="1380.88" y="-111.74" font-family="Times,serif" font-size="14.00">{c3}</text>
</g>
<!-- 3&#45;&gt;2 -->
<g id="edge65" class="edge">
<title>3&#45;&gt;2</title>
<path fill="none" stroke="black" d="M1047.35,-199.88C1123.96,-194.94 1340.84,-177.3 1394.38,-133.44 1420.26,-112.24 1436.56,-76.55 1445.31,-52.04"/>
<polygon fill="black" stroke="black" points="1448.72,-52.89 1448.6,-42.3 1442.09,-50.65 1448.72,-52.89"/>
<text text-anchor="middle" x="1447.88" y="-111.74" font-family="Times,serif" font-size="14.00">{c0, c3}</text>
</g>
<!-- 3&#45;&gt;3 -->
<g id="edge53" class="edge">
<title>3&#45;&gt;3</title>
<path fill="none" stroke="black" d="M1044.91,-210.19C1055.88,-210.93 1065.38,-208.35 1065.38,-202.44 1065.38,-198.47 1061.09,-196 1054.95,-195.04"/>
<polygon fill="black" stroke="black" points="1055.02,-191.54 1044.91,-194.69 1054.78,-198.53 1055.02,-191.54"/>
<text text-anchor="middle" x="1072.38" y="-198.74" font-family="Times,serif" font-size="14.00">{}</text>
</g>
<!-- 4 -->
<g id="node6" class="node">
<title>4</title>
<ellipse fill="none" stroke="black" cx="643.38" cy="-115.44" rx="27" ry="18"/>
<text text-anchor="middle" x="643.38" y="-111.74" font-family="Times,serif" font-size="14.00">4</text>
</g>
<!-- 3&#45;&gt;4 -->
<g id="edge50" class="edge">
<title>3&#45;&gt;4</title>
<path fill="none" stroke="black" d="M993.26,-200.98C874.54,-198.82 405.61,-188.88 384.38,-166.44 379.79,-161.6 379.99,-156.46 384.38,-151.44 412.73,-119 541.57,-115.43 606.19,-115.75"/>
<polygon fill="black" stroke="black" points="606.33,-119.25 616.36,-115.83 606.39,-112.25 606.33,-119.25"/>
<text text-anchor="middle" x="428.38" y="-155.24" font-family="Times,serif" font-size="14.00">{c0, c1, c2, c3}</text>
</g>
<!-- 3&#45;&gt;4 -->
<g id="edge51" class="edge">
<title>3&#45;&gt;4</title>
<path fill="none" stroke="black" d="M993.14,-201.75C890.29,-202.61 529.58,-203.01 495.38,-166.44 461.42,-130.14 551.95,-120.19 606.12,-117.47"/>
<polygon fill="black" stroke="black" points="606.58,-120.95 616.42,-117.01 606.27,-113.96 606.58,-120.95"/>
<text text-anchor="middle" x="518.88" y="-155.24" font-family="Times,serif" font-size="14.00">{c1, c2}</text>
</g>
<!-- 3&#45;&gt;4 -->
<g id="edge52" class="edge">
<title>3&#45;&gt;4</title>
<path fill="none" stroke="black" d="M993.3,-201.45C899.79,-201.18 594.51,-197.9 565.38,-166.44 548.42,-148.12 580.69,-133.64 608.73,-125.07"/>
<polygon fill="black" stroke="black" points="609.75,-128.42 618.39,-122.29 607.81,-121.7 609.75,-128.42"/>
<text text-anchor="middle" x="598.88" y="-155.24" font-family="Times,serif" font-size="14.00">{c0, c1, c3}</text>
</g>
<!-- 3&#45;&gt;4 -->
<g id="edge54" class="edge">
<title>3&#45;&gt;4</title>
<path fill="none" stroke="black" d="M993.43,-200.64C913.34,-198.01 680.78,-188.52 655.38,-166.44 648.86,-160.78 645.56,-152.26 643.97,-143.85"/>
<polygon fill="black" stroke="black" points="647.43,-143.37 642.77,-133.85 640.48,-144.19 647.43,-143.37"/>
<text text-anchor="middle" x="678.88" y="-155.24" font-family="Times,serif" font-size="14.00">{c1, c3}</text>
</g>
<!-- 3&#45;&gt;4 -->
<g id="edge55" class="edge">
<title>3&#45;&gt;4</title>
<path fill="none" stroke="black" d="M992.99,-202.29C939.73,-203.06 819.19,-200.47 725.38,-166.44 713.9,-162.28 712.74,-157.89 702.38,-151.44 692.57,-145.34 681.72,-138.83 672.03,-133.11"/>
<polygon fill="black" stroke="black" points="673.56,-129.95 663.17,-127.9 670.02,-135.99 673.56,-129.95"/>
<text text-anchor="middle" x="758.88" y="-155.24" font-family="Times,serif" font-size="14.00">{c0, c1, c2}</text>
</g>
<!-- 3&#45;&gt;4 -->
<g id="edge56" class="edge">
<title>3&#45;&gt;4</title>
<path fill="none" stroke="black" d="M993.24,-200.31C953.08,-197.87 876.05,-190.22 815.38,-166.44 804.01,-161.99 803.6,-156.24 792.38,-151.44 755.61,-135.71 710.58,-126.38 679.71,-121.36"/>
<polygon fill="black" stroke="black" points="680.23,-117.9 669.82,-119.82 679.16,-124.82 680.23,-117.9"/>
<text text-anchor="middle" x="848.88" y="-155.24" font-family="Times,serif" font-size="14.00">{c1, c2, c3}</text>
</g>
<!-- 3&#45;&gt;4 -->
<g id="edge57" class="edge">
<title>3&#45;&gt;4</title>
<path fill="none" stroke="black" d="M994.95,-195.89C971.13,-190.2 934.88,-180.21 905.38,-166.44 894.32,-161.28 893.79,-155.76 882.38,-151.44 814.37,-125.71 728.85,-118.78 680.73,-116.99"/>
<polygon fill="black" stroke="black" points="680.59,-113.48 670.48,-116.66 680.37,-120.48 680.59,-113.48"/>
<text text-anchor="middle" x="918.88" y="-155.24" font-family="Times,serif" font-size="14.00">{c1}</text>
</g>
<!-- 3&#45;&gt;4 -->
<g id="edge58" class="edge">
<title>3&#45;&gt;4</title>
<path fill="none" stroke="black" d="M999.64,-190.84C986.75,-184.12 969.92,-175.08 955.38,-166.44 944.88,-160.21 943.84,-155.62 932.38,-151.44 846.27,-120.09 737.16,-115.59 680.83,-115.63"/>
<polygon fill="black" stroke="black" points="680.6,-112.14 670.62,-115.69 680.64,-119.14 680.6,-112.14"/>
<text text-anchor="middle" x="978.88" y="-155.24" font-family="Times,serif" font-size="14.00">{c0, c1}</text>
</g>
<!-- 4&#45;&gt;2 -->
<g id="edge27" class="edge">
<title>4&#45;&gt;2</title>
<path fill="none" stroke="black" d="M638.34,-97.3C636.29,-86.4 636.05,-72.82 644.38,-64.44 671.49,-37.17 1298.12,-50.35 1336.38,-46.44 1363.97,-43.62 1394.84,-37.97 1417.95,-33.25"/>
<polygon fill="black" stroke="black" points="1418.9,-36.62 1427.97,-31.15 1417.47,-29.77 1418.9,-36.62"/>
<text text-anchor="middle" x="657.88" y="-68.24" font-family="Times,serif" font-size="14.00">{c1}</text>
</g>
<!-- 4&#45;&gt;2 -->
<g id="edge28" class="edge">
<title>4&#45;&gt;2</title>
<path fill="none" stroke="black" d="M654.3,-98.6C663.47,-86.79 677.72,-71.52 694.38,-64.44 760.06,-36.54 1265.39,-53.77 1336.38,-46.44 1363.97,-43.59 1394.84,-37.95 1417.94,-33.23"/>
<polygon fill="black" stroke="black" points="1418.9,-36.6 1427.97,-31.14 1417.47,-29.75 1418.9,-36.6"/>
<text text-anchor="middle" x="717.88" y="-68.24" font-family="Times,serif" font-size="14.00">{c2, c3}</text>
</g>
<!-- 4&#45;&gt;2 -->
<g id="edge29" class="edge">
<title>4&#45;&gt;2</title>
<path fill="none" stroke="black" d="M667.79,-107.48C688.02,-101.3 717.26,-91.4 741.38,-79.44 752.31,-74.02 752.74,-68.1 764.38,-64.44 825.04,-45.37 1273.14,-53.08 1336.38,-46.44 1363.96,-43.55 1394.84,-37.9 1417.94,-33.19"/>
<polygon fill="black" stroke="black" points="1418.89,-36.57 1427.97,-31.11 1417.46,-29.72 1418.89,-36.57"/>
<text text-anchor="middle" x="777.88" y="-68.24" font-family="Times,serif" font-size="14.00">{c2}</text>
</g>
<!-- 4&#45;&gt;2 -->
<g id="edge30" class="edge">
<title>4&#45;&gt;2</title>
<path fill="none" stroke="black" d="M669.64,-111.03C699.91,-106.47 750.73,-96.87 791.38,-79.44 802.59,-74.63 802.74,-68.12 814.38,-64.44 925.05,-29.46 1220.96,-58.73 1336.38,-46.44 1363.96,-43.51 1394.83,-37.86 1417.94,-33.17"/>
<polygon fill="black" stroke="black" points="1418.88,-36.54 1427.97,-31.09 1417.46,-29.69 1418.88,-36.54"/>
<text text-anchor="middle" x="837.88" y="-68.24" font-family="Times,serif" font-size="14.00">{c1, c2}</text>
</g>
<!-- 4&#45;&gt;2 -->
<g id="edge31" class="edge">
<title>4&#45;&gt;2</title>
<path fill="none" stroke="black" d="M670.48,-113.69C712.66,-111.74 795.94,-104.71 861.38,-79.44 872.76,-75.04 872.75,-68.15 884.38,-64.44 980.14,-33.89 1236.45,-57.35 1336.38,-46.44 1363.95,-43.43 1394.83,-37.79 1417.93,-33.12"/>
<polygon fill="black" stroke="black" points="1418.87,-36.5 1427.96,-31.05 1417.46,-29.64 1418.87,-36.5"/>
<text text-anchor="middle" x="917.88" y="-68.24" font-family="Times,serif" font-size="14.00">{c1, c2, c3}</text>
</g>
<!-- 4&#45;&gt;2 -->
<g id="edge32" class="edge">
<title>4&#45;&gt;2</title>
<path fill="none" stroke="black" d="M670.42,-112.97C735.62,-109.16 899.86,-97.99 951.38,-79.44 962.86,-75.31 962.77,-68.21 974.38,-64.44 1050.99,-39.58 1256.35,-55.57 1336.38,-46.44 1363.94,-43.3 1394.81,-37.66 1417.92,-33.02"/>
<polygon fill="black" stroke="black" points="1418.86,-36.41 1427.95,-30.97 1417.45,-29.55 1418.86,-36.41"/>
<text text-anchor="middle" x="987.88" y="-68.24" font-family="Times,serif" font-size="14.00">{c3}</text>
</g>
<!-- 4&#45;&gt;2 -->
<g id="edge33" class="edge">
<title>4&#45;&gt;2</title>
<path fill="none" stroke="black" d="M670.47,-113.46C743.01,-110.57 940.25,-100.91 1001.38,-79.44 1012.89,-75.4 1012.78,-68.25 1024.38,-64.44 1090.35,-42.74 1267.41,-54.59 1336.38,-46.44 1363.92,-43.19 1394.8,-37.56 1417.91,-32.95"/>
<polygon fill="black" stroke="black" points="1418.84,-36.33 1427.95,-30.92 1417.45,-29.47 1418.84,-36.33"/>
<text text-anchor="middle" x="1047.88" y="-68.24" font-family="Times,serif" font-size="14.00">{c1, c3}</text>
</g>
<!-- 4&#45;&gt;4 -->
<g id="edge22" class="edge">
<title>4&#45;&gt;4</title>
<path fill="none" stroke="black" d="M667.91,-123.19C678.88,-123.93 688.38,-121.35 688.38,-115.44 688.38,-111.47 684.09,-109 677.95,-108.04"/>
<polygon fill="black" stroke="black" points="678.02,-104.54 667.91,-107.69 677.78,-111.53 678.02,-104.54"/>
<text text-anchor="middle" x="695.38" y="-111.74" font-family="Times,serif" font-size="14.00">{}</text>
</g>
<!-- 5 -->
<g id="node7" class="node">
<title>5</title>
<ellipse fill="none" stroke="black" cx="257.38" cy="-24.44" rx="18" ry="18"/>
<ellipse fill="none" stroke="black" cx="257.38" cy="-24.44" rx="22" ry="22"/>
<text text-anchor="middle" x="257.38" y="-20.74" font-family="Times,serif" font-size="14.00">5</text>
</g>
<!-- 4&#45;&gt;5 -->
<g id="edge18" class="edge">
<title>4&#45;&gt;5</title>
<path fill="none" stroke="black" d="M616.08,-113.98C496.62,-111.85 24.75,-102.02 3.38,-79.44 -1.21,-74.6 -0.96,-69.5 3.38,-64.44 31.6,-31.56 163.25,-26.12 225.11,-25.41"/>
<polygon fill="black" stroke="black" points="225.14,-28.91 235.11,-25.33 225.08,-21.91 225.14,-28.91"/>
<text text-anchor="middle" x="26.88" y="-68.24" font-family="Times,serif" font-size="14.00">{c0, c3}</text>
</g>
<!-- 4&#45;&gt;5 -->
<g id="edge19" class="edge">
<title>4&#45;&gt;5</title>
<path fill="none" stroke="black" d="M616.14,-113.8C505.17,-111.03 92.18,-99.44 73.38,-79.44 28.64,-31.87 160.48,-25.5 224.58,-25.12"/>
<polygon fill="black" stroke="black" points="224.98,-28.62 234.97,-25.1 224.97,-21.62 224.98,-28.62"/>
<text text-anchor="middle" x="96.88" y="-68.24" font-family="Times,serif" font-size="14.00">{c0, c1}</text>
</g>
<!-- 4&#45;&gt;5 -->
<g id="edge20" class="edge">
<title>4&#45;&gt;5</title>
<path fill="none" stroke="black" d="M616.08,-114.65C516.34,-115.12 175.76,-114.17 143.38,-79.44 116.61,-50.74 183.2,-35.76 225.54,-29.35"/>
<polygon fill="black" stroke="black" points="226.05,-32.82 235.46,-27.94 225.06,-25.89 226.05,-32.82"/>
<text text-anchor="middle" x="176.88" y="-68.24" font-family="Times,serif" font-size="14.00">{c0, c1, c2}</text>
</g>
<!-- 4&#45;&gt;5 -->
<g id="edge21" class="edge">
<title>4&#45;&gt;5</title>
<path fill="none" stroke="black" d="M616.28,-114.2C528.99,-113.15 259.26,-107.63 233.38,-79.44 225.46,-70.82 229.37,-59.16 236.13,-48.89"/>
<polygon fill="black" stroke="black" points="239.08,-50.77 242.28,-40.67 233.48,-46.58 239.08,-50.77"/>
<text text-anchor="middle" x="246.88" y="-68.24" font-family="Times,serif" font-size="14.00">{c0}</text>
</g>
<!-- 4&#45;&gt;5 -->
<g id="edge23" class="edge">
<title>4&#45;&gt;5</title>
<path fill="none" stroke="black" d="M616.43,-113.33C537.49,-109.88 310.54,-98.4 283.38,-79.44 275.23,-73.75 269.55,-64.8 265.62,-55.8"/>
<polygon fill="black" stroke="black" points="268.8,-54.32 262.01,-46.18 262.24,-56.77 268.8,-54.32"/>
<text text-anchor="middle" x="327.38" y="-68.24" font-family="Times,serif" font-size="14.00">{c0, c1, c2, c3}</text>
</g>
<!-- 4&#45;&gt;5 -->
<g id="edge24" class="edge">
<title>4&#45;&gt;5</title>
<path fill="none" stroke="black" d="M616.27,-114.44C569.49,-113.63 471.22,-108.26 394.38,-79.44 382.95,-75.16 382.35,-69.79 371.38,-64.44 344.35,-51.26 311.74,-40.59 288.33,-33.76"/>
<polygon fill="black" stroke="black" points="289.17,-30.36 278.59,-30.99 287.25,-37.09 289.17,-30.36"/>
<text text-anchor="middle" x="417.88" y="-68.24" font-family="Times,serif" font-size="14.00">{c0, c2}</text>
</g>
<!-- 4&#45;&gt;5 -->
<g id="edge25" class="edge">
<title>4&#45;&gt;5</title>
<path fill="none" stroke="black" d="M616.68,-112.43C580.89,-109.03 515.87,-100.34 464.38,-79.44 453.07,-74.85 452.65,-69.12 441.38,-64.44 390.73,-43.42 327.36,-33.2 289.75,-28.65"/>
<polygon fill="black" stroke="black" points="289.73,-25.13 279.4,-27.46 288.93,-32.08 289.73,-25.13"/>
<text text-anchor="middle" x="497.88" y="-68.24" font-family="Times,serif" font-size="14.00">{c0, c1, c3}</text>
</g>
<!-- 4&#45;&gt;5 -->
<g id="edge26" class="edge">
<title>4&#45;&gt;5</title>
<path fill="none" stroke="black" d="M619.76,-106.63C601.48,-100.24 575.77,-90.48 554.38,-79.44 543.53,-73.85 542.8,-68.74 531.38,-64.44 448.07,-33.12 341.86,-26.7 289.51,-25.55"/>
<polygon fill="black" stroke="black" points="289.54,-22.05 279.48,-25.38 289.42,-29.05 289.54,-22.05"/>
<text text-anchor="middle" x="587.88" y="-68.24" font-family="Times,serif" font-size="14.00">{c0, c2, c3}</text>
</g>
<!-- 5&#45;&gt;5 -->
<g id="edge34" class="edge">
<title>5&#45;&gt;5</title>
<path fill="none" stroke="black" d="M279.59,-25.92C289.17,-26.04 297.38,-25.55 297.38,-24.44 297.38,-23.77 294.33,-23.32 289.78,-23.1"/>
<polygon fill="black" stroke="black" points="289.64,-19.6 279.59,-22.96 289.54,-26.6 289.64,-19.6"/>
<text text-anchor="middle" x="320.88" y="-20.74" font-family="Times,serif" font-size="14.00">{c1, c2}</text>
</g>
<!-- 5&#45;&gt;5 -->
<g id="edge35" class="edge">
<title>5&#45;&gt;5</title>
<path fill="none" stroke="black" d="M279.55,-26.71C306.71,-28.18 344.38,-27.43 344.38,-24.44 344.38,-21.82 315.28,-20.92 289.8,-21.73"/>
<polygon fill="black" stroke="black" points="289.4,-18.25 279.55,-22.17 289.69,-25.24 289.4,-18.25"/>
<text text-anchor="middle" x="357.88" y="-20.74" font-family="Times,serif" font-size="14.00">{c2}</text>
</g>
<!-- 5&#45;&gt;5 -->
<g id="edge36" class="edge">
<title>5&#45;&gt;5</title>
<path fill="none" stroke="black" d="M279.38,-27.36C315.07,-30.19 371.38,-29.22 371.38,-24.44 371.38,-20.09 324.74,-18.89 289.44,-20.85"/>
<polygon fill="black" stroke="black" points="289.12,-17.37 279.38,-21.53 289.59,-24.35 289.12,-17.37"/>
<text text-anchor="middle" x="384.88" y="-20.74" font-family="Times,serif" font-size="14.00">{c3}</text>
</g>
<!-- 5&#45;&gt;5 -->
<g id="edge37" class="edge">
<title>5&#45;&gt;5</title>
<path fill="none" stroke="black" d="M279.21,-27.83C322.81,-32.21 398.38,-31.08 398.38,-24.44 398.38,-18.29 333.61,-16.87 289.4,-20.17"/>
<polygon fill="black" stroke="black" points="288.87,-16.7 279.21,-21.06 289.48,-23.68 288.87,-16.7"/>
<text text-anchor="middle" x="431.88" y="-20.74" font-family="Times,serif" font-size="14.00">{c0, c2, c3}</text>
</g>
<!-- 5&#45;&gt;5 -->
<g id="edge38" class="edge">
<title>5&#45;&gt;5</title>
<path fill="none" stroke="black" d="M279.39,-27.98C338.19,-34.25 465.38,-33.07 465.38,-24.44 465.38,-16.28 351.72,-14.78 289.62,-19.94"/>
<polygon fill="black" stroke="black" points="289.02,-16.48 279.39,-20.9 289.67,-23.45 289.02,-16.48"/>
<text text-anchor="middle" x="472.38" y="-20.74" font-family="Times,serif" font-size="14.00">{}</text>
</g>
<!-- 5&#45;&gt;5 -->
<g id="edge39" class="edge">
<title>5&#45;&gt;5</title>
<path fill="none" stroke="black" d="M279.1,-28.33C342.9,-36.26 483.38,-34.96 483.38,-24.44 483.38,-14.45 356.8,-12.78 289.39,-19.42"/>
<polygon fill="black" stroke="black" points="288.66,-15.98 279.1,-20.56 289.43,-22.94 288.66,-15.98"/>
<text text-anchor="middle" x="506.88" y="-20.74" font-family="Times,serif" font-size="14.00">{c1, c3}</text>
</g>
<!-- 5&#45;&gt;5 -->
<g id="edge40" class="edge">
<title>5&#45;&gt;5</title>
<path fill="none" stroke="black" d="M279.3,-28.53C352.96,-38.27 530.38,-36.91 530.38,-24.44 530.38,-12.51 367.88,-10.75 289.35,-19.16"/>
<polygon fill="black" stroke="black" points="288.82,-15.69 279.3,-20.35 289.64,-22.65 288.82,-15.69"/>
<text text-anchor="middle" x="574.38" y="-20.74" font-family="Times,serif" font-size="14.00">{c0, c1, c2, c3}</text>
</g>
<!-- 5&#45;&gt;5 -->
<g id="edge41" class="edge">
<title>5&#45;&gt;5</title>
<path fill="none" stroke="black" d="M279.08,-28.52C367.34,-40.3 618.38,-38.94 618.38,-24.44 618.38,-10.47 385.15,-8.7 289.27,-19.14"/>
<polygon fill="black" stroke="black" points="288.59,-15.69 279.08,-20.36 289.43,-22.64 288.59,-15.69"/>
<text text-anchor="middle" x="631.88" y="-20.74" font-family="Times,serif" font-size="14.00">{c1}</text>
</g>
<!-- 5&#45;&gt;5 -->
<g id="edge42" class="edge">
<title>5&#45;&gt;5</title>
<path fill="none" stroke="black" d="M278.99,-28.73C373.03,-42.31 645.38,-40.88 645.38,-24.44 645.38,-8.55 390.81,-6.69 288.93,-18.85"/>
<polygon fill="black" stroke="black" points="288.45,-15.39 278.99,-20.16 289.36,-22.33 288.45,-15.39"/>
<text text-anchor="middle" x="678.88" y="-20.74" font-family="Times,serif" font-size="14.00">{c0, c1, c3}</text>
</g>
<!-- 5&#45;&gt;5 -->
<g id="edge43" class="edge">
<title>5&#45;&gt;5</title>
<path fill="none" stroke="black" d="M279.02,-28.81C383.61,-44.32 712.38,-42.86 712.38,-24.44 712.38,-6.58 403.22,-4.67 289.12,-18.71"/>
<polygon fill="black" stroke="black" points="288.46,-15.27 279.02,-20.07 289.4,-22.2 288.46,-15.27"/>
<text text-anchor="middle" x="735.88" y="-20.74" font-family="Times,serif" font-size="14.00">{c0, c3}</text>
</g>
<!-- 5&#45;&gt;5 -->
<g id="edge44" class="edge">
<title>5&#45;&gt;5</title>
<path fill="none" stroke="black" d="M279.26,-28.98C391.98,-46.32 759.38,-44.81 759.38,-24.44 759.38,-4.65 412.49,-2.66 289.43,-18.48"/>
<polygon fill="black" stroke="black" points="288.67,-15.05 279.26,-19.91 289.65,-21.98 288.67,-15.05"/>
<text text-anchor="middle" x="772.88" y="-20.74" font-family="Times,serif" font-size="14.00">{c0}</text>
</g>
<!-- 5&#45;&gt;5 -->
<g id="edge45" class="edge">
<title>5&#45;&gt;5</title>
<path fill="none" stroke="black" d="M278.95,-29.09C396.9,-48.33 786.38,-46.78 786.38,-24.44 786.38,-2.72 417.91,-0.66 289.22,-18.26"/>
<polygon fill="black" stroke="black" points="288.32,-14.86 278.95,-19.8 289.35,-21.78 288.32,-14.86"/>
<text text-anchor="middle" x="809.88" y="-20.74" font-family="Times,serif" font-size="14.00">{c0, c2}</text>
</g>
<!-- 5&#45;&gt;5 -->
<g id="edge46" class="edge">
<title>5&#45;&gt;5</title>
<path fill="none" stroke="black" d="M279.08,-29.21C404.82,-50.33 833.38,-48.74 833.38,-24.44 833.38,-0.76 426.3,1.35 289.23,-18.11"/>
<polygon fill="black" stroke="black" points="288.43,-14.69 279.08,-19.67 289.5,-21.61 288.43,-14.69"/>
<text text-anchor="middle" x="866.88" y="-20.74" font-family="Times,serif" font-size="14.00">{c0, c1, c2}</text>
</g>
<!-- 5&#45;&gt;5 -->
<g id="edge47" class="edge">
<title>5&#45;&gt;5</title>
<path fill="none" stroke="black" d="M279.23,-29.29C414.5,-52.34 900.38,-50.72 900.38,-24.44 900.38,1.22 437.01,3.36 289.3,-18.01"/>
<polygon fill="black" stroke="black" points="288.56,-14.59 279.23,-19.59 289.65,-21.5 288.56,-14.59"/>
<text text-anchor="middle" x="923.88" y="-20.74" font-family="Times,serif" font-size="14.00">{c0, c1}</text>
</g>
<!-- 5&#45;&gt;5 -->
<g id="edge48" class="edge">
<title>5&#45;&gt;5</title>
<path fill="none" stroke="black" d="M278.93,-29.33C421.04,-54.34 947.38,-52.71 947.38,-24.44 947.38,3.2 444.42,5.37 289.07,-17.91"/>
<polygon fill="black" stroke="black" points="288.24,-14.5 278.93,-19.55 289.36,-21.41 288.24,-14.5"/>
<text text-anchor="middle" x="970.88" y="-20.74" font-family="Times,serif" font-size="14.00">{c2, c3}</text>
</g>
<!-- 5&#45;&gt;5 -->
<g id="edge49" class="edge">
<title>5&#45;&gt;5</title>
<path fill="none" stroke="black" d="M278.9,-29.4C428.12,-56.35 994.38,-54.69 994.38,-24.44 994.38,5.16 452.19,7.38 289.08,-17.78"/>
<polygon fill="black" stroke="black" points="288.19,-14.38 278.9,-19.48 289.34,-21.29 288.19,-14.38"/>
<text text-anchor="middle" x="1027.88" y="-20.74" font-family="Times,serif" font-size="14.00">{c1, c2, c3}</text>
</g>
</g>
</svg>
