<?xml version="1.0" encoding="UTF-8" standalone="no"?>
<!DOCTYPE svg PUBLIC "-//W3C//DTD SVG 1.1//EN"
 "http://www.w3.org/Graphics/SVG/1.1/DTD/svg11.dtd">
<!-- Generated by graphviz version 2.43.0 (0)
 -->
<!-- Title: %3 Pages: 1 -->
<svg width="2450pt" height="475pt"
 viewBox="0.00 0.00 2450.17 475.44" xmlns="http://www.w3.org/2000/svg" xmlns:xlink="http://www.w3.org/1999/xlink">
<g id="graph0" class="graph" transform="scale(1 1) rotate(0) translate(4 471.44)">
<title>%3</title>
<polygon fill="white" stroke="transparent" points="-4,4 -4,-471.44 2446.17,-471.44 2446.17,4 -4,4"/>
<!-- fake -->
<g id="node1" class="node">
<title>fake</title>
</g>
<!-- 0 -->
<g id="node2" class="node">
<title>0</title>
<ellipse fill="none" stroke="black" cx="1755.17" cy="-376.44" rx="27" ry="18"/>
<text text-anchor="middle" x="1755.17" y="-372.74" font-family="Times,serif" font-size="14.00">0</text>
</g>
<!-- fake&#45;&gt;0 -->
<g id="edge1" class="edge">
<title>fake&#45;&gt;0</title>
<path fill="none" stroke="black" stroke-width="2" d="M1755.17,-431.26C1755.17,-423.23 1755.17,-413.49 1755.17,-404.51"/>
<polygon fill="black" stroke="black" stroke-width="2" points="1758.67,-404.47 1755.17,-394.47 1751.67,-404.47 1758.67,-404.47"/>
</g>
<!-- 0&#45;&gt;0 -->
<g id="edge5" class="edge">
<title>0&#45;&gt;0</title>
<path fill="none" stroke="black" d="M1780.61,-383.13C1791.19,-383.59 1800.17,-381.36 1800.17,-376.44 1800.17,-373.21 1796.3,-371.14 1790.65,-370.23"/>
<polygon fill="black" stroke="black" points="1790.76,-366.73 1780.61,-369.75 1790.43,-373.72 1790.76,-366.73"/>
<text text-anchor="middle" x="1807.17" y="-372.74" font-family="Times,serif" font-size="14.00">{}</text>
</g>
<!-- 1 -->
<g id="node3" class="node">
<title>1</title>
<ellipse fill="none" stroke="black" cx="1426.17" cy="-289.44" rx="27" ry="18"/>
<text text-anchor="middle" x="1426.17" y="-285.74" font-family="Times,serif" font-size="14.00">1</text>
</g>
<!-- 0&#45;&gt;1 -->
<g id="edge2" class="edge">
<title>0&#45;&gt;1</title>
<path fill="none" stroke="black" d="M1727.93,-375.75C1625.07,-376.61 1264.37,-377.01 1230.17,-340.44 1225.61,-335.57 1225.89,-330.55 1230.17,-325.44 1250.04,-301.7 1338.09,-294.05 1389.16,-291.59"/>
<polygon fill="black" stroke="black" points="1389.32,-295.09 1399.16,-291.16 1389.01,-288.1 1389.32,-295.09"/>
<text text-anchor="middle" x="1242.67" y="-329.24" font-family="Times,serif" font-size="14.00">{r3}</text>
</g>
<!-- 0&#45;&gt;1 -->
<g id="edge3" class="edge">
<title>0&#45;&gt;1</title>
<path fill="none" stroke="black" d="M1728.13,-375.55C1631.73,-375.65 1308.9,-373.52 1278.17,-340.44 1244.33,-304.03 1334.8,-294.13 1388.93,-291.44"/>
<polygon fill="black" stroke="black" points="1389.39,-294.92 1399.23,-290.99 1389.08,-287.93 1389.39,-294.92"/>
<text text-anchor="middle" x="1319.17" y="-329.24" font-family="Times,serif" font-size="14.00">{r0, r1, r2, r3}</text>
</g>
<!-- 0&#45;&gt;1 -->
<g id="edge4" class="edge">
<title>0&#45;&gt;1</title>
<path fill="none" stroke="black" d="M1728.03,-374.95C1646.24,-373.18 1406.31,-365.87 1383.17,-340.44 1373.27,-329.58 1384.11,-317.04 1397.38,-307.23"/>
<polygon fill="black" stroke="black" points="1399.48,-310.03 1405.79,-301.52 1395.55,-304.24 1399.48,-310.03"/>
<text text-anchor="middle" x="1405.17" y="-329.24" font-family="Times,serif" font-size="14.00">{r0, r3}</text>
</g>
<!-- 0&#45;&gt;1 -->
<g id="edge6" class="edge">
<title>0&#45;&gt;1</title>
<path fill="none" stroke="black" d="M1728.01,-375.6C1661.83,-375.48 1494.45,-371.98 1450.17,-340.44 1442.3,-334.84 1436.92,-325.96 1433.27,-317.22"/>
<polygon fill="black" stroke="black" points="1436.5,-315.86 1429.86,-307.61 1429.91,-318.2 1436.5,-315.86"/>
<text text-anchor="middle" x="1472.17" y="-329.24" font-family="Times,serif" font-size="14.00">{r2, r3}</text>
</g>
<!-- 0&#45;&gt;1 -->
<g id="edge7" class="edge">
<title>0&#45;&gt;1</title>
<path fill="none" stroke="black" d="M1728.17,-375.2C1683.03,-373.99 1590.01,-368.02 1517.17,-340.44 1505.75,-336.12 1504.72,-331.58 1494.17,-325.44 1482.12,-318.44 1468.52,-311.3 1456.67,-305.3"/>
<polygon fill="black" stroke="black" points="1458.11,-302.11 1447.6,-300.77 1454.98,-308.37 1458.11,-302.11"/>
<text text-anchor="middle" x="1539.17" y="-329.24" font-family="Times,serif" font-size="14.00">{r1, r3}</text>
</g>
<!-- 0&#45;&gt;1 -->
<g id="edge8" class="edge">
<title>0&#45;&gt;1</title>
<path fill="none" stroke="black" d="M1728.49,-373.11C1694.05,-369.4 1632.8,-360.43 1584.17,-340.44 1572.88,-335.8 1572.33,-330.37 1561.17,-325.44 1529.05,-311.26 1490.02,-301.92 1462.2,-296.48"/>
<polygon fill="black" stroke="black" points="1462.6,-293 1452.12,-294.59 1461.3,-299.87 1462.6,-293"/>
<text text-anchor="middle" x="1615.67" y="-329.24" font-family="Times,serif" font-size="14.00">{r1, r2, r3}</text>
</g>
<!-- 0&#45;&gt;1 -->
<g id="edge9" class="edge">
<title>0&#45;&gt;1</title>
<path fill="none" stroke="black" d="M1731.91,-367.21C1714.52,-360.74 1690.36,-351.07 1670.17,-340.44 1659.37,-334.76 1658.56,-329.83 1647.17,-325.44 1585.58,-301.73 1508.41,-294.08 1463.46,-291.61"/>
<polygon fill="black" stroke="black" points="1463.45,-288.11 1453.3,-291.11 1463.11,-295.1 1463.45,-288.11"/>
<text text-anchor="middle" x="1701.67" y="-329.24" font-family="Times,serif" font-size="14.00">{r0, r2, r3}</text>
</g>
<!-- 0&#45;&gt;1 -->
<g id="edge10" class="edge">
<title>0&#45;&gt;1</title>
<path fill="none" stroke="black" d="M1752.17,-358.31C1749.27,-347.13 1743.7,-333.2 1733.17,-325.44 1691.18,-294.51 1535.87,-290.38 1463.6,-290.18"/>
<polygon fill="black" stroke="black" points="1463.57,-286.68 1453.57,-290.17 1463.57,-293.68 1463.57,-286.68"/>
<text text-anchor="middle" x="1776.67" y="-329.24" font-family="Times,serif" font-size="14.00">{r0, r1, r3}</text>
</g>
<!-- 2 -->
<g id="node4" class="node">
<title>2</title>
<ellipse fill="none" stroke="black" cx="1415.17" cy="-24.44" rx="27" ry="18"/>
<text text-anchor="middle" x="1415.17" y="-20.74" font-family="Times,serif" font-size="14.00">2</text>
</g>
<!-- 0&#45;&gt;2 -->
<g id="edge11" class="edge">
<title>0&#45;&gt;2</title>
<path fill="none" stroke="black" d="M1778.81,-367.41C1791.1,-361.89 1805.02,-353.21 1812.17,-340.44 1815.42,-334.62 1813.74,-331.92 1812.17,-325.44 1791.58,-240.85 1775.67,-220.13 1722.17,-151.44 1683,-101.16 1667.4,-87.97 1608.17,-64.44 1556.11,-43.76 1491.62,-33.58 1451.95,-28.93"/>
<polygon fill="black" stroke="black" points="1452.26,-25.44 1441.93,-27.81 1451.48,-32.4 1452.26,-25.44"/>
<text text-anchor="middle" x="1783.67" y="-198.74" font-family="Times,serif" font-size="14.00">{r1}</text>
</g>
<!-- 0&#45;&gt;2 -->
<g id="edge12" class="edge">
<title>0&#45;&gt;2</title>
<path fill="none" stroke="black" d="M1779.63,-368.38C1811.76,-357.43 1864.17,-333.04 1864.17,-290.44 1864.17,-290.44 1864.17,-290.44 1864.17,-114.44 1864.17,-30.71 1559.92,-24.52 1452.32,-24.95"/>
<polygon fill="black" stroke="black" points="1452.22,-21.45 1442.24,-25.01 1452.26,-28.45 1452.22,-21.45"/>
<text text-anchor="middle" x="1895.67" y="-198.74" font-family="Times,serif" font-size="14.00">{r0, r1, r2}</text>
</g>
<!-- 0&#45;&gt;2 -->
<g id="edge13" class="edge">
<title>0&#45;&gt;2</title>
<path fill="none" stroke="black" d="M1782.36,-376.22C1838.74,-376.29 1963.17,-367.68 1963.17,-290.44 1963.17,-290.44 1963.17,-290.44 1963.17,-114.44 1963.17,-56.25 1898.67,-78.36 1842.17,-64.44 1701.62,-29.83 1528.25,-25.3 1452.99,-25.12"/>
<polygon fill="black" stroke="black" points="1452.61,-21.62 1442.61,-25.12 1452.61,-28.62 1452.61,-21.62"/>
<text text-anchor="middle" x="1985.17" y="-198.74" font-family="Times,serif" font-size="14.00">{r0, r2}</text>
</g>
<!-- 0&#45;&gt;2 -->
<g id="edge14" class="edge">
<title>0&#45;&gt;2</title>
<path fill="none" stroke="black" d="M1782,-373.29C1853.5,-366.83 2043.17,-344.6 2043.17,-290.44 2043.17,-290.44 2043.17,-290.44 2043.17,-114.44 2043.17,-54.4 1587.37,-32.07 1452.4,-26.77"/>
<polygon fill="black" stroke="black" points="1452.28,-23.26 1442.15,-26.38 1452.01,-30.26 1452.28,-23.26"/>
<text text-anchor="middle" x="2055.67" y="-198.74" font-family="Times,serif" font-size="14.00">{r0}</text>
</g>
<!-- 0&#45;&gt;2 -->
<g id="edge15" class="edge">
<title>0&#45;&gt;2</title>
<path fill="none" stroke="black" d="M1782.26,-374.64C1864.26,-371.49 2104.17,-356.62 2104.17,-290.44 2104.17,-290.44 2104.17,-290.44 2104.17,-114.44 2104.17,-48.11 1595.35,-30.06 1452.22,-26.29"/>
<polygon fill="black" stroke="black" points="1452.26,-22.79 1442.18,-26.04 1452.08,-29.79 1452.26,-22.79"/>
<text text-anchor="middle" x="2126.17" y="-198.74" font-family="Times,serif" font-size="14.00">{r0, r1}</text>
</g>
<!-- 0&#45;&gt;2 -->
<g id="edge16" class="edge">
<title>0&#45;&gt;2</title>
<path fill="none" stroke="black" d="M1782.33,-375.86C1876.63,-376.61 2184.17,-372.73 2184.17,-290.44 2184.17,-290.44 2184.17,-290.44 2184.17,-114.44 2184.17,-39.96 1607.53,-27.74 1452.92,-25.8"/>
<polygon fill="black" stroke="black" points="1452.58,-22.29 1442.54,-25.67 1452.49,-29.29 1452.58,-22.29"/>
<text text-anchor="middle" x="2206.17" y="-198.74" font-family="Times,serif" font-size="14.00">{r1, r2}</text>
</g>
<!-- 0&#45;&gt;2 -->
<g id="edge17" class="edge">
<title>0&#45;&gt;2</title>
<path fill="none" stroke="black" d="M1782.21,-374.3C1860.31,-370.81 2085.18,-359.35 2156.17,-340.44 2207.28,-326.83 2264.17,-343.34 2264.17,-290.44 2264.17,-290.44 2264.17,-290.44 2264.17,-114.44 2264.17,-31.6 1616.52,-25.58 1452.54,-25.38"/>
<polygon fill="black" stroke="black" points="1452.45,-21.88 1442.45,-25.37 1452.45,-28.88 1452.45,-21.88"/>
<text text-anchor="middle" x="2276.67" y="-198.74" font-family="Times,serif" font-size="14.00">{r2}</text>
</g>
<!-- 1&#45;&gt;1 -->
<g id="edge51" class="edge">
<title>1&#45;&gt;1</title>
<path fill="none" stroke="black" d="M1450.7,-297.19C1461.67,-297.93 1471.17,-295.35 1471.17,-289.44 1471.17,-285.47 1466.88,-283.01 1460.74,-282.04"/>
<polygon fill="black" stroke="black" points="1460.81,-278.54 1450.7,-281.69 1460.57,-285.53 1460.81,-278.54"/>
<text text-anchor="middle" x="1478.17" y="-285.74" font-family="Times,serif" font-size="14.00">{}</text>
</g>
<!-- 1&#45;&gt;2 -->
<g id="edge59" class="edge">
<title>1&#45;&gt;2</title>
<path fill="none" stroke="black" d="M1422.14,-271.6C1416.78,-248.18 1407.56,-204.39 1404.17,-166.44 1403.57,-159.8 1401.53,-157.57 1404.17,-151.44 1408.76,-140.76 1418.57,-144.13 1423.17,-133.44 1429.49,-118.74 1424.05,-113.42 1423.17,-97.44 1422.34,-82.58 1420.57,-66.07 1418.9,-52.61"/>
<polygon fill="black" stroke="black" points="1422.36,-52.04 1417.61,-42.56 1415.42,-52.93 1422.36,-52.04"/>
<text text-anchor="middle" x="1416.67" y="-155.24" font-family="Times,serif" font-size="14.00">{r1}</text>
</g>
<!-- 1&#45;&gt;2 -->
<g id="edge60" class="edge">
<title>1&#45;&gt;2</title>
<path fill="none" stroke="black" d="M1428.81,-271.33C1433.63,-237.91 1443.04,-161.64 1439.17,-97.44 1438.28,-82.7 1439.49,-78.57 1435.17,-64.44 1433.77,-59.9 1431.87,-55.25 1429.79,-50.82"/>
<polygon fill="black" stroke="black" points="1432.74,-48.91 1425.08,-41.6 1426.51,-52.09 1432.74,-48.91"/>
<text text-anchor="middle" x="1461.17" y="-155.24" font-family="Times,serif" font-size="14.00">{r0, r3}</text>
</g>
<!-- 1&#45;&gt;2 -->
<g id="edge61" class="edge">
<title>1&#45;&gt;2</title>
<path fill="none" stroke="black" d="M1439.86,-273.56C1460.65,-249.17 1496.78,-198.64 1487.17,-151.44 1478.77,-110.27 1472.73,-99.89 1450.17,-64.44 1446.36,-58.46 1441.63,-52.51 1436.88,-47.12"/>
<polygon fill="black" stroke="black" points="1439.39,-44.67 1430.04,-39.69 1434.24,-49.41 1439.39,-44.67"/>
<text text-anchor="middle" x="1500.67" y="-155.24" font-family="Times,serif" font-size="14.00">{r0}</text>
</g>
<!-- 1&#45;&gt;2 -->
<g id="edge62" class="edge">
<title>1&#45;&gt;2</title>
<path fill="none" stroke="black" d="M1445.71,-276.63C1454.99,-270.45 1465.84,-262.32 1474.17,-253.44 1507.84,-217.57 1528.47,-199.32 1517.17,-151.44 1506.97,-108.25 1498.81,-96.54 1468.17,-64.44 1460.65,-56.57 1451.39,-49.16 1442.73,-42.95"/>
<polygon fill="black" stroke="black" points="1444.56,-39.97 1434.34,-37.18 1440.59,-45.73 1444.56,-39.97"/>
<text text-anchor="middle" x="1541.17" y="-155.24" font-family="Times,serif" font-size="14.00">{r1, r3}</text>
</g>
<!-- 1&#45;&gt;2 -->
<g id="edge63" class="edge">
<title>1&#45;&gt;2</title>
<path fill="none" stroke="black" d="M1449.39,-279.82C1495.32,-261.24 1591.32,-214.01 1567.17,-151.44 1545.88,-96.32 1484.34,-58.3 1446.41,-39.34"/>
<polygon fill="black" stroke="black" points="1447.83,-36.15 1437.31,-34.94 1444.78,-42.45 1447.83,-36.15"/>
<text text-anchor="middle" x="1601.67" y="-155.24" font-family="Times,serif" font-size="14.00">{r0, r1, r3}</text>
</g>
<!-- 1&#45;&gt;2 -->
<g id="edge64" class="edge">
<title>1&#45;&gt;2</title>
<path fill="none" stroke="black" d="M1451.92,-283.94C1516.75,-271.34 1678.67,-231.27 1637.17,-151.44 1599.98,-79.93 1503.58,-46.43 1450.87,-33.03"/>
<polygon fill="black" stroke="black" points="1451.49,-29.58 1440.94,-30.61 1449.83,-36.38 1451.49,-29.58"/>
<text text-anchor="middle" x="1654.67" y="-155.24" font-family="Times,serif" font-size="14.00">{r3}</text>
</g>
<!-- 1&#45;&gt;2 -->
<g id="edge65" class="edge">
<title>1&#45;&gt;2</title>
<path fill="none" stroke="black" d="M1452.63,-285.77C1523.12,-277.34 1707.67,-246 1671.17,-151.44 1637.52,-64.29 1514.52,-37.17 1452.07,-28.92"/>
<polygon fill="black" stroke="black" points="1452.22,-25.42 1441.87,-27.67 1451.37,-32.36 1452.22,-25.42"/>
<text text-anchor="middle" x="1696.17" y="-155.24" font-family="Times,serif" font-size="14.00">{r0, r1}</text>
</g>
<!-- 3 -->
<g id="node5" class="node">
<title>3</title>
<ellipse fill="none" stroke="black" cx="994.17" cy="-202.44" rx="27" ry="18"/>
<text text-anchor="middle" x="994.17" y="-198.74" font-family="Times,serif" font-size="14.00">3</text>
</g>
<!-- 1&#45;&gt;3 -->
<g id="edge50" class="edge">
<title>1&#45;&gt;3</title>
<path fill="none" stroke="black" d="M1398.92,-287.89C1283.91,-285.43 843.18,-274.65 823.17,-253.44 783.03,-210.91 895.44,-203.93 956.97,-203.19"/>
<polygon fill="black" stroke="black" points="957.13,-206.69 967.1,-203.11 957.08,-199.69 957.13,-206.69"/>
<text text-anchor="middle" x="854.67" y="-242.24" font-family="Times,serif" font-size="14.00">{r0, r2, r3}</text>
</g>
<!-- 1&#45;&gt;3 -->
<g id="edge52" class="edge">
<title>1&#45;&gt;3</title>
<path fill="none" stroke="black" d="M1399,-288.72C1297.24,-289.46 942.8,-289.43 909.17,-253.44 890.55,-233.52 927.99,-219.04 958.95,-210.93"/>
<polygon fill="black" stroke="black" points="959.83,-214.32 968.7,-208.53 958.15,-207.53 959.83,-214.32"/>
<text text-anchor="middle" x="940.67" y="-242.24" font-family="Times,serif" font-size="14.00">{r1, r2, r3}</text>
</g>
<!-- 1&#45;&gt;3 -->
<g id="edge53" class="edge">
<title>1&#45;&gt;3</title>
<path fill="none" stroke="black" d="M1398.98,-288.3C1308.69,-287.55 1022.85,-282.87 995.17,-253.44 989.48,-247.4 987.9,-238.89 988.15,-230.61"/>
<polygon fill="black" stroke="black" points="991.66,-230.76 989.29,-220.43 984.7,-229.98 991.66,-230.76"/>
<text text-anchor="middle" x="1026.67" y="-242.24" font-family="Times,serif" font-size="14.00">{r0, r1, r2}</text>
</g>
<!-- 1&#45;&gt;3 -->
<g id="edge54" class="edge">
<title>1&#45;&gt;3</title>
<path fill="none" stroke="black" d="M1399.29,-287.36C1328.77,-284.25 1139.85,-274.17 1081.17,-253.44 1069.66,-249.38 1068.64,-244.71 1058.17,-238.44 1047.15,-231.85 1034.83,-225 1023.97,-219.12"/>
<polygon fill="black" stroke="black" points="1025.33,-215.88 1014.86,-214.24 1022.02,-222.05 1025.33,-215.88"/>
<text text-anchor="middle" x="1093.67" y="-242.24" font-family="Times,serif" font-size="14.00">{r2}</text>
</g>
<!-- 1&#45;&gt;3 -->
<g id="edge55" class="edge">
<title>1&#45;&gt;3</title>
<path fill="none" stroke="black" d="M1399.15,-286.84C1335.66,-282.83 1178.59,-271.35 1129.17,-253.44 1117.69,-249.29 1117.21,-243.65 1106.17,-238.44 1081.4,-226.77 1051.76,-217.71 1029.2,-211.73"/>
<polygon fill="black" stroke="black" points="1029.93,-208.3 1019.37,-209.2 1028.18,-215.08 1029.93,-208.3"/>
<text text-anchor="middle" x="1170.17" y="-242.24" font-family="Times,serif" font-size="14.00">{r0, r1, r2, r3}</text>
</g>
<!-- 1&#45;&gt;3 -->
<g id="edge56" class="edge">
<title>1&#45;&gt;3</title>
<path fill="none" stroke="black" d="M1399.16,-286.89C1361.13,-283.97 1290.19,-275.76 1234.17,-253.44 1222.83,-248.93 1222.55,-242.84 1211.17,-238.44 1150.86,-215.13 1075.34,-207.34 1031.15,-204.75"/>
<polygon fill="black" stroke="black" points="1031.32,-201.25 1021.15,-204.21 1030.95,-208.24 1031.32,-201.25"/>
<text text-anchor="middle" x="1256.17" y="-242.24" font-family="Times,serif" font-size="14.00">{r0, r2}</text>
</g>
<!-- 1&#45;&gt;3 -->
<g id="edge57" class="edge">
<title>1&#45;&gt;3</title>
<path fill="none" stroke="black" d="M1400.47,-283.65C1374.63,-278.28 1334.01,-268.32 1301.17,-253.44 1290.05,-248.41 1289.63,-242.63 1278.17,-238.44 1193.78,-207.61 1086.89,-202.88 1031.41,-202.75"/>
<polygon fill="black" stroke="black" points="1031.33,-199.25 1021.34,-202.78 1031.35,-206.25 1031.33,-199.25"/>
<text text-anchor="middle" x="1323.17" y="-242.24" font-family="Times,serif" font-size="14.00">{r2, r3}</text>
</g>
<!-- 1&#45;&gt;3 -->
<g id="edge58" class="edge">
<title>1&#45;&gt;3</title>
<path fill="none" stroke="black" d="M1406.73,-276.94C1395.42,-270.19 1380.92,-261.44 1368.17,-253.44 1357.83,-246.96 1356.68,-242.5 1345.17,-238.44 1288.07,-218.33 1109.82,-208.41 1031.6,-204.93"/>
<polygon fill="black" stroke="black" points="1031.39,-201.42 1021.25,-204.48 1031.09,-208.41 1031.39,-201.42"/>
<text text-anchor="middle" x="1390.17" y="-242.24" font-family="Times,serif" font-size="14.00">{r1, r2}</text>
</g>
<!-- 2&#45;&gt;2 -->
<g id="edge82" class="edge">
<title>2&#45;&gt;2</title>
<path fill="none" stroke="black" d="M1442.41,-25.94C1452.19,-25.97 1460.17,-25.47 1460.17,-24.44 1460.17,-23.81 1457.2,-23.38 1452.68,-23.15"/>
<polygon fill="black" stroke="black" points="1452.47,-19.65 1442.41,-22.94 1452.33,-26.64 1452.47,-19.65"/>
<text text-anchor="middle" x="1491.67" y="-20.74" font-family="Times,serif" font-size="14.00">{r1, r2, r3}</text>
</g>
<!-- 2&#45;&gt;2 -->
<g id="edge83" class="edge">
<title>2&#45;&gt;2</title>
<path fill="none" stroke="black" d="M1441.95,-26.74C1475.24,-28.18 1523.17,-27.41 1523.17,-24.44 1523.17,-21.76 1484.15,-20.88 1452.06,-21.79"/>
<polygon fill="black" stroke="black" points="1451.82,-18.29 1441.95,-22.15 1452.06,-25.29 1451.82,-18.29"/>
<text text-anchor="middle" x="1545.17" y="-20.74" font-family="Times,serif" font-size="14.00">{r2, r3}</text>
</g>
<!-- 2&#45;&gt;2 -->
<g id="edge84" class="edge">
<title>2&#45;&gt;2</title>
<path fill="none" stroke="black" d="M1441.88,-27.36C1487.79,-30.2 1567.17,-29.22 1567.17,-24.44 1567.17,-20 1498.56,-18.85 1452.02,-20.99"/>
<polygon fill="black" stroke="black" points="1451.68,-17.5 1441.88,-21.53 1452.05,-24.49 1451.68,-17.5"/>
<text text-anchor="middle" x="1579.67" y="-20.74" font-family="Times,serif" font-size="14.00">{r1}</text>
</g>
<!-- 2&#45;&gt;2 -->
<g id="edge85" class="edge">
<title>2&#45;&gt;2</title>
<path fill="none" stroke="black" d="M1441.85,-27.95C1494.8,-32.19 1592.17,-31.02 1592.17,-24.44 1592.17,-18.26 1506.24,-16.86 1451.92,-20.22"/>
<polygon fill="black" stroke="black" points="1451.58,-16.74 1441.85,-20.94 1452.07,-23.72 1451.58,-16.74"/>
<text text-anchor="middle" x="1623.67" y="-20.74" font-family="Times,serif" font-size="14.00">{r0, r1, r2}</text>
</g>
<!-- 2&#45;&gt;2 -->
<g id="edge86" class="edge">
<title>2&#45;&gt;2</title>
<path fill="none" stroke="black" d="M1441.59,-28.19C1508.74,-34.23 1655.17,-32.98 1655.17,-24.44 1655.17,-16.32 1522.69,-14.8 1451.97,-19.86"/>
<polygon fill="black" stroke="black" points="1451.28,-16.4 1441.59,-20.69 1451.84,-23.38 1451.28,-16.4"/>
<text text-anchor="middle" x="1677.17" y="-20.74" font-family="Times,serif" font-size="14.00">{r0, r3}</text>
</g>
<!-- 2&#45;&gt;2 -->
<g id="edge87" class="edge">
<title>2&#45;&gt;2</title>
<path fill="none" stroke="black" d="M1441.57,-28.51C1518.22,-36.24 1699.17,-34.88 1699.17,-24.44 1699.17,-14.45 1533.43,-12.78 1452.01,-19.43"/>
<polygon fill="black" stroke="black" points="1451.21,-15.99 1441.57,-20.37 1451.84,-22.96 1451.21,-15.99"/>
<text text-anchor="middle" x="1721.17" y="-20.74" font-family="Times,serif" font-size="14.00">{r0, r2}</text>
</g>
<!-- 2&#45;&gt;2 -->
<g id="edge88" class="edge">
<title>2&#45;&gt;2</title>
<path fill="none" stroke="black" d="M1441.6,-28.79C1527.28,-38.25 1743.17,-36.8 1743.17,-24.44 1743.17,-12.54 1543.01,-10.76 1451.66,-19.09"/>
<polygon fill="black" stroke="black" points="1451.2,-15.62 1441.6,-20.1 1451.9,-22.58 1451.2,-15.62"/>
<text text-anchor="middle" x="1755.67" y="-20.74" font-family="Times,serif" font-size="14.00">{r0}</text>
</g>
<!-- 2&#45;&gt;2 -->
<g id="edge89" class="edge">
<title>2&#45;&gt;2</title>
<path fill="none" stroke="black" d="M1441.45,-29.08C1532.86,-40.25 1768.17,-38.71 1768.17,-24.44 1768.17,-10.68 1549.11,-8.76 1451.6,-18.67"/>
<polygon fill="black" stroke="black" points="1451,-15.22 1441.45,-19.8 1451.77,-22.18 1451,-15.22"/>
<text text-anchor="middle" x="1790.17" y="-20.74" font-family="Times,serif" font-size="14.00">{r1, r3}</text>
</g>
<!-- 2&#45;&gt;2 -->
<g id="edge90" class="edge">
<title>2&#45;&gt;2</title>
<path fill="none" stroke="black" d="M1441.46,-29.29C1541.39,-42.26 1812.17,-40.65 1812.17,-24.44 1812.17,-8.76 1558.56,-6.74 1451.64,-18.39"/>
<polygon fill="black" stroke="black" points="1450.98,-14.94 1441.46,-19.6 1451.8,-21.9 1450.98,-14.94"/>
<text text-anchor="middle" x="1843.67" y="-20.74" font-family="Times,serif" font-size="14.00">{r0, r1, r3}</text>
</g>
<!-- 2&#45;&gt;2 -->
<g id="edge91" class="edge">
<title>2&#45;&gt;2</title>
<path fill="none" stroke="black" d="M1441.4,-29.4C1551.96,-44.28 1875.17,-42.63 1875.17,-24.44 1875.17,-6.79 1570.62,-4.72 1451.65,-18.22"/>
<polygon fill="black" stroke="black" points="1450.9,-14.79 1441.4,-19.49 1451.75,-21.74 1450.9,-14.79"/>
<text text-anchor="middle" x="1906.67" y="-20.74" font-family="Times,serif" font-size="14.00">{r0, r2, r3}</text>
</g>
<!-- 2&#45;&gt;2 -->
<g id="edge92" class="edge">
<title>2&#45;&gt;2</title>
<path fill="none" stroke="black" d="M1441.47,-29.52C1562.26,-46.29 1938.17,-44.6 1938.17,-24.44 1938.17,-4.82 1581.82,-2.7 1451.54,-18.08"/>
<polygon fill="black" stroke="black" points="1450.94,-14.63 1441.47,-19.37 1451.83,-21.57 1450.94,-14.63"/>
<text text-anchor="middle" x="1950.67" y="-20.74" font-family="Times,serif" font-size="14.00">{r3}</text>
</g>
<!-- 2&#45;&gt;2 -->
<g id="edge93" class="edge">
<title>2&#45;&gt;2</title>
<path fill="none" stroke="black" d="M1441.21,-29.69C1567.12,-48.29 1963.17,-46.54 1963.17,-24.44 1963.17,-2.9 1586.98,-0.69 1451.31,-17.82"/>
<polygon fill="black" stroke="black" points="1450.65,-14.38 1441.21,-19.2 1451.59,-21.31 1450.65,-14.38"/>
<text text-anchor="middle" x="1970.17" y="-20.74" font-family="Times,serif" font-size="14.00">{}</text>
</g>
<!-- 2&#45;&gt;2 -->
<g id="edge94" class="edge">
<title>2&#45;&gt;2</title>
<path fill="none" stroke="black" d="M1441.07,-29.87C1571.49,-50.3 1981.17,-48.49 1981.17,-24.44 1981.17,-0.98 1591.25,1.31 1451.11,-17.56"/>
<polygon fill="black" stroke="black" points="1450.47,-14.12 1441.07,-19.02 1451.47,-21.05 1450.47,-14.12"/>
<text text-anchor="middle" x="2003.17" y="-20.74" font-family="Times,serif" font-size="14.00">{r0, r1}</text>
</g>
<!-- 2&#45;&gt;2 -->
<g id="edge95" class="edge">
<title>2&#45;&gt;2</title>
<path fill="none" stroke="black" d="M1441.18,-30C1579.25,-52.3 2025.17,-50.45 2025.17,-24.44 2025.17,0.95 1599.91,3.31 1451.38,-17.35"/>
<polygon fill="black" stroke="black" points="1450.55,-13.94 1441.18,-18.88 1451.59,-20.86 1450.55,-13.94"/>
<text text-anchor="middle" x="2047.17" y="-20.74" font-family="Times,serif" font-size="14.00">{r1, r2}</text>
</g>
<!-- 2&#45;&gt;2 -->
<g id="edge96" class="edge">
<title>2&#45;&gt;2</title>
<path fill="none" stroke="black" d="M1441.08,-30.1C1586.44,-54.31 2069.17,-52.42 2069.17,-24.44 2069.17,2.91 1607.88,5.32 1451.38,-17.2"/>
<polygon fill="black" stroke="black" points="1450.43,-13.8 1441.08,-18.79 1451.5,-20.72 1450.43,-13.8"/>
<text text-anchor="middle" x="2110.17" y="-20.74" font-family="Times,serif" font-size="14.00">{r0, r1, r2, r3}</text>
</g>
<!-- 2&#45;&gt;2 -->
<g id="edge97" class="edge">
<title>2&#45;&gt;2</title>
<path fill="none" stroke="black" d="M1441.22,-30.15C1597.73,-56.31 2151.17,-54.41 2151.17,-24.44 2151.17,4.91 1620.2,7.34 1451.34,-17.16"/>
<polygon fill="black" stroke="black" points="1450.57,-13.74 1441.22,-18.74 1451.64,-20.66 1450.57,-13.74"/>
<text text-anchor="middle" x="2163.67" y="-20.74" font-family="Times,serif" font-size="14.00">{r2}</text>
</g>
<!-- 3&#45;&gt;2 -->
<g id="edge75" class="edge">
<title>3&#45;&gt;2</title>
<path fill="none" stroke="black" d="M988.41,-184.84C984.22,-174.43 977.77,-161.19 969.17,-151.44 959.62,-140.63 948.97,-146.16 942.17,-133.44 934.62,-119.34 932.14,-109.91 942.17,-97.44 965.55,-68.37 989.17,-92.38 1024.17,-79.44 1037.41,-74.55 1038.6,-68.36 1052.17,-64.44 1161.32,-32.92 1194.53,-61.31 1307.17,-46.44 1331.74,-43.2 1359.15,-37.85 1380.21,-33.36"/>
<polygon fill="black" stroke="black" points="1380.96,-36.78 1390,-31.24 1379.48,-29.94 1380.96,-36.78"/>
<text text-anchor="middle" x="964.17" y="-111.74" font-family="Times,serif" font-size="14.00">{r2, r3}</text>
</g>
<!-- 3&#45;&gt;2 -->
<g id="edge76" class="edge">
<title>3&#45;&gt;2</title>
<path fill="none" stroke="black" d="M994.91,-184.26C996.67,-162.12 1002.56,-123.41 1022.17,-97.44 1024.31,-94.6 1073.77,-65.53 1077.17,-64.44 1174.84,-33.24 1205.57,-60.25 1307.17,-46.44 1331.73,-43.1 1359.14,-37.76 1380.2,-33.29"/>
<polygon fill="black" stroke="black" points="1380.95,-36.71 1389.99,-31.18 1379.48,-29.87 1380.95,-36.71"/>
<text text-anchor="middle" x="1044.17" y="-111.74" font-family="Times,serif" font-size="14.00">{r0, r3}</text>
</g>
<!-- 3&#45;&gt;2 -->
<g id="edge77" class="edge">
<title>3&#45;&gt;2</title>
<path fill="none" stroke="black" d="M1009.46,-187.24C1024.11,-173.57 1046.81,-152.26 1066.17,-133.44 1101.81,-98.8 1107.33,-81.08 1154.17,-64.44 1218.69,-41.53 1239.51,-56.98 1307.17,-46.44 1331.66,-42.63 1359.07,-37.28 1380.15,-32.94"/>
<polygon fill="black" stroke="black" points="1380.87,-36.37 1389.95,-30.9 1379.44,-29.51 1380.87,-36.37"/>
<text text-anchor="middle" x="1122.17" y="-111.74" font-family="Times,serif" font-size="14.00">{r0, r2}</text>
</g>
<!-- 3&#45;&gt;2 -->
<g id="edge78" class="edge">
<title>3&#45;&gt;2</title>
<path fill="none" stroke="black" d="M1017.94,-193.85C1049.09,-183.25 1104.62,-162.05 1146.17,-133.44 1181.89,-108.85 1176.88,-84.81 1215.17,-64.44 1215.39,-64.32 1321.86,-43.6 1379.34,-32.41"/>
<polygon fill="black" stroke="black" points="1380.32,-35.79 1389.47,-30.44 1378.98,-28.92 1380.32,-35.79"/>
<text text-anchor="middle" x="1192.67" y="-111.74" font-family="Times,serif" font-size="14.00">{r0}</text>
</g>
<!-- 3&#45;&gt;2 -->
<g id="edge79" class="edge">
<title>3&#45;&gt;2</title>
<path fill="none" stroke="black" d="M1018.83,-195C1043.78,-188.35 1083.38,-177.43 1117.17,-166.44 1157.68,-153.27 1171.26,-156.38 1207.17,-133.44 1226.24,-121.26 1224.62,-110.41 1243.17,-97.44 1271.68,-77.5 1282.14,-78.05 1314.17,-64.44 1336.81,-54.82 1362.7,-44.84 1382.6,-37.39"/>
<polygon fill="black" stroke="black" points="1383.98,-40.61 1392.13,-33.84 1381.53,-34.05 1383.98,-40.61"/>
<text text-anchor="middle" x="1274.67" y="-111.74" font-family="Times,serif" font-size="14.00">{r0, r2, r3}</text>
</g>
<!-- 3&#45;&gt;2 -->
<g id="edge80" class="edge">
<title>3&#45;&gt;2</title>
<path fill="none" stroke="black" d="M1021.42,-200.63C1077.96,-197.89 1210.69,-185.9 1306.17,-133.44 1306.31,-133.36 1375.05,-64.56 1375.17,-64.44 1380.86,-58.82 1387.04,-52.77 1392.8,-47.16"/>
<polygon fill="black" stroke="black" points="1395.58,-49.33 1400.31,-39.84 1390.7,-44.31 1395.58,-49.33"/>
<text text-anchor="middle" x="1354.67" y="-111.74" font-family="Times,serif" font-size="14.00">{r3}</text>
</g>
<!-- 3&#45;&gt;2 -->
<g id="edge81" class="edge">
<title>3&#45;&gt;2</title>
<path fill="none" stroke="black" d="M1020.98,-200.11C1097.66,-195.76 1315.66,-179.53 1367.17,-133.44 1390.88,-112.23 1403.47,-77.09 1409.72,-52.68"/>
<polygon fill="black" stroke="black" points="1413.2,-53.17 1412.09,-42.63 1406.39,-51.56 1413.2,-53.17"/>
<text text-anchor="middle" x="1406.67" y="-111.74" font-family="Times,serif" font-size="14.00">{r2}</text>
</g>
<!-- 3&#45;&gt;3 -->
<g id="edge73" class="edge">
<title>3&#45;&gt;3</title>
<path fill="none" stroke="black" d="M1018.7,-210.19C1029.67,-210.93 1039.17,-208.35 1039.17,-202.44 1039.17,-198.47 1034.88,-196.01 1028.74,-195.04"/>
<polygon fill="black" stroke="black" points="1028.81,-191.54 1018.7,-194.69 1028.57,-198.53 1028.81,-191.54"/>
<text text-anchor="middle" x="1046.17" y="-198.74" font-family="Times,serif" font-size="14.00">{}</text>
</g>
<!-- 4 -->
<g id="node6" class="node">
<title>4</title>
<ellipse fill="none" stroke="black" cx="599.17" cy="-115.44" rx="27" ry="18"/>
<text text-anchor="middle" x="599.17" y="-111.74" font-family="Times,serif" font-size="14.00">4</text>
</g>
<!-- 3&#45;&gt;4 -->
<g id="edge66" class="edge">
<title>3&#45;&gt;4</title>
<path fill="none" stroke="black" d="M967.21,-200.93C851.34,-198.58 400.6,-188.08 380.17,-166.44 375.59,-161.6 375.84,-156.52 380.17,-151.44 403.05,-124.61 505.33,-118.26 561.65,-116.81"/>
<polygon fill="black" stroke="black" points="562.02,-120.31 571.94,-116.59 561.86,-113.31 562.02,-120.31"/>
<text text-anchor="middle" x="411.67" y="-155.24" font-family="Times,serif" font-size="14.00">{r1, r2, r3}</text>
</g>
<!-- 3&#45;&gt;4 -->
<g id="edge67" class="edge">
<title>3&#45;&gt;4</title>
<path fill="none" stroke="black" d="M967.13,-201.76C864.16,-202.67 500.61,-203.25 466.17,-166.44 435.95,-134.16 513.26,-122.57 562.32,-118.53"/>
<polygon fill="black" stroke="black" points="562.61,-122.01 572.32,-117.77 562.08,-115.03 562.61,-122.01"/>
<text text-anchor="middle" x="488.17" y="-155.24" font-family="Times,serif" font-size="14.00">{r1, r2}</text>
</g>
<!-- 3&#45;&gt;4 -->
<g id="edge68" class="edge">
<title>3&#45;&gt;4</title>
<path fill="none" stroke="black" d="M967.06,-201.48C872.71,-201.31 562.73,-198.34 533.17,-166.44 518.89,-151.04 542.41,-136.93 565.24,-127.65"/>
<polygon fill="black" stroke="black" points="566.77,-130.82 574.86,-123.99 564.27,-124.28 566.77,-130.82"/>
<text text-anchor="middle" x="555.17" y="-155.24" font-family="Times,serif" font-size="14.00">{r0, r1}</text>
</g>
<!-- 3&#45;&gt;4 -->
<g id="edge69" class="edge">
<title>3&#45;&gt;4</title>
<path fill="none" stroke="black" d="M966.96,-201.08C881.91,-199.67 625.15,-193.2 600.17,-166.44 594.5,-160.37 592.93,-151.86 593.18,-143.58"/>
<polygon fill="black" stroke="black" points="596.68,-143.74 594.31,-133.41 589.73,-142.97 596.68,-143.74"/>
<text text-anchor="middle" x="622.17" y="-155.24" font-family="Times,serif" font-size="14.00">{r1, r3}</text>
</g>
<!-- 3&#45;&gt;4 -->
<g id="edge70" class="edge">
<title>3&#45;&gt;4</title>
<path fill="none" stroke="black" d="M966.9,-200.35C898.59,-197.33 721.72,-187.62 667.17,-166.44 662.26,-164.54 641.49,-149.06 624.18,-135.82"/>
<polygon fill="black" stroke="black" points="626.1,-132.88 616.04,-129.57 621.84,-138.44 626.1,-132.88"/>
<text text-anchor="middle" x="698.67" y="-155.24" font-family="Times,serif" font-size="14.00">{r0, r1, r3}</text>
</g>
<!-- 3&#45;&gt;4 -->
<g id="edge71" class="edge">
<title>3&#45;&gt;4</title>
<path fill="none" stroke="black" d="M967.2,-201.27C921.63,-200.17 827.13,-194.37 753.17,-166.44 741.75,-162.13 741.31,-156.41 730.17,-151.44 699.42,-137.73 662.14,-128.42 635.23,-122.86"/>
<polygon fill="black" stroke="black" points="635.58,-119.37 625.09,-120.85 634.22,-126.23 635.58,-119.37"/>
<text text-anchor="middle" x="784.67" y="-155.24" font-family="Times,serif" font-size="14.00">{r0, r1, r2}</text>
</g>
<!-- 3&#45;&gt;4 -->
<g id="edge72" class="edge">
<title>3&#45;&gt;4</title>
<path fill="none" stroke="black" d="M967.79,-198.39C936.22,-194.09 882.24,-184.65 839.17,-166.44 827.93,-161.69 827.55,-155.84 816.17,-151.44 755.86,-128.13 680.34,-120.34 636.15,-117.75"/>
<polygon fill="black" stroke="black" points="636.32,-114.25 626.15,-117.21 635.95,-121.24 636.32,-114.25"/>
<text text-anchor="middle" x="851.67" y="-155.24" font-family="Times,serif" font-size="14.00">{r1}</text>
</g>
<!-- 3&#45;&gt;4 -->
<g id="edge74" class="edge">
<title>3&#45;&gt;4</title>
<path fill="none" stroke="black" d="M969.24,-195.28C947.08,-189.35 914.13,-179.37 887.17,-166.44 876.16,-161.17 875.61,-155.68 864.17,-151.44 786.81,-122.8 689.11,-117.06 636.62,-116.23"/>
<polygon fill="black" stroke="black" points="636.47,-112.72 626.44,-116.12 636.4,-119.72 636.47,-112.72"/>
<text text-anchor="middle" x="928.17" y="-155.24" font-family="Times,serif" font-size="14.00">{r0, r1, r2, r3}</text>
</g>
<!-- 4&#45;&gt;2 -->
<g id="edge43" class="edge">
<title>4&#45;&gt;2</title>
<path fill="none" stroke="black" d="M600.18,-97.15C601.83,-85.89 605.98,-71.94 616.17,-64.44 647.09,-41.68 1268.99,-50.62 1307.17,-46.44 1331.81,-43.75 1359.22,-38.39 1380.26,-33.76"/>
<polygon fill="black" stroke="black" points="1381.05,-37.17 1390.03,-31.56 1379.51,-30.34 1381.05,-37.17"/>
<text text-anchor="middle" x="647.67" y="-68.24" font-family="Times,serif" font-size="14.00">{r1, r2, r3}</text>
</g>
<!-- 4&#45;&gt;2 -->
<g id="edge44" class="edge">
<title>4&#45;&gt;2</title>
<path fill="none" stroke="black" d="M622.05,-105.61C638.32,-99.05 660.49,-89.53 679.17,-79.44 689.9,-73.64 690.52,-68.09 702.17,-64.44 766.34,-44.32 1240.33,-53.89 1307.17,-46.44 1331.8,-43.7 1359.21,-38.34 1380.25,-33.72"/>
<polygon fill="black" stroke="black" points="1381.04,-37.14 1390.03,-31.53 1379.51,-30.3 1381.04,-37.14"/>
<text text-anchor="middle" x="724.17" y="-68.24" font-family="Times,serif" font-size="14.00">{r2, r3}</text>
</g>
<!-- 4&#45;&gt;2 -->
<g id="edge45" class="edge">
<title>4&#45;&gt;2</title>
<path fill="none" stroke="black" d="M625.52,-110.96C655.62,-106.36 705.91,-96.74 746.17,-79.44 757.38,-74.62 757.53,-68.12 769.17,-64.44 826.2,-46.44 1247.73,-53.17 1307.17,-46.44 1331.8,-43.65 1359.21,-38.3 1380.25,-33.69"/>
<polygon fill="black" stroke="black" points="1381.03,-37.1 1390.03,-31.51 1379.51,-30.27 1381.03,-37.1"/>
<text text-anchor="middle" x="781.67" y="-68.24" font-family="Times,serif" font-size="14.00">{r1}</text>
</g>
<!-- 4&#45;&gt;2 -->
<g id="edge46" class="edge">
<title>4&#45;&gt;2</title>
<path fill="none" stroke="black" d="M625.95,-113.01C664.4,-110.21 736.94,-102.15 794.17,-79.44 805.51,-74.94 805.53,-68.13 817.17,-64.44 921.02,-31.48 1198.92,-58.88 1307.17,-46.44 1331.79,-43.61 1359.2,-38.26 1380.25,-33.66"/>
<polygon fill="black" stroke="black" points="1381.03,-37.07 1390.03,-31.48 1379.5,-30.24 1381.03,-37.07"/>
<text text-anchor="middle" x="839.17" y="-68.24" font-family="Times,serif" font-size="14.00">{r1, r3}</text>
</g>
<!-- 4&#45;&gt;2 -->
<g id="edge47" class="edge">
<title>4&#45;&gt;2</title>
<path fill="none" stroke="black" d="M626.51,-114.71C675.25,-114.34 779.64,-109.7 861.17,-79.44 872.61,-75.2 872.54,-68.17 884.17,-64.44 973.76,-35.72 1213.73,-57.45 1307.17,-46.44 1331.78,-43.54 1359.19,-38.19 1380.24,-33.61"/>
<polygon fill="black" stroke="black" points="1381.02,-37.02 1390.02,-31.44 1379.5,-30.19 1381.02,-37.02"/>
<text text-anchor="middle" x="896.67" y="-68.24" font-family="Times,serif" font-size="14.00">{r3}</text>
</g>
<!-- 4&#45;&gt;2 -->
<g id="edge48" class="edge">
<title>4&#45;&gt;2</title>
<path fill="none" stroke="black" d="M626.39,-112.98C692.01,-109.21 857.31,-98.09 909.17,-79.44 920.65,-75.31 920.55,-68.2 932.17,-64.44 1011.54,-38.76 1224.34,-56.43 1307.17,-46.44 1331.77,-43.48 1359.18,-38.12 1380.23,-33.56"/>
<polygon fill="black" stroke="black" points="1381.01,-36.97 1390.02,-31.4 1379.5,-30.14 1381.01,-36.97"/>
<text text-anchor="middle" x="954.17" y="-68.24" font-family="Times,serif" font-size="14.00">{r1, r2}</text>
</g>
<!-- 4&#45;&gt;2 -->
<g id="edge49" class="edge">
<title>4&#45;&gt;2</title>
<path fill="none" stroke="black" d="M626.06,-113.62C701.07,-111.07 911.3,-102.04 976.17,-79.44 987.69,-75.43 987.57,-68.26 999.17,-64.44 1064.29,-43 1239.14,-55 1307.17,-46.44 1331.76,-43.35 1359.17,-37.99 1380.22,-33.47"/>
<polygon fill="black" stroke="black" points="1380.99,-36.88 1390.01,-31.33 1379.49,-30.05 1380.99,-36.88"/>
<text text-anchor="middle" x="1011.67" y="-68.24" font-family="Times,serif" font-size="14.00">{r2}</text>
</g>
<!-- 4&#45;&gt;4 -->
<g id="edge38" class="edge">
<title>4&#45;&gt;4</title>
<path fill="none" stroke="black" d="M623.7,-123.19C634.67,-123.93 644.17,-121.35 644.17,-115.44 644.17,-111.47 639.88,-109.01 633.74,-108.04"/>
<polygon fill="black" stroke="black" points="633.81,-104.54 623.7,-107.69 633.57,-111.53 633.81,-104.54"/>
<text text-anchor="middle" x="651.17" y="-111.74" font-family="Times,serif" font-size="14.00">{}</text>
</g>
<!-- 5 -->
<g id="node7" class="node">
<title>5</title>
<ellipse fill="none" stroke="black" cx="276.17" cy="-24.44" rx="18" ry="18"/>
<ellipse fill="none" stroke="black" cx="276.17" cy="-24.44" rx="22" ry="22"/>
<text text-anchor="middle" x="276.17" y="-20.74" font-family="Times,serif" font-size="14.00">5</text>
</g>
<!-- 4&#45;&gt;5 -->
<g id="edge34" class="edge">
<title>4&#45;&gt;5</title>
<path fill="none" stroke="black" d="M571.9,-113.87C457.82,-111.34 23.89,-100.36 4.17,-79.44 -29.59,-43.65 163.93,-30.59 243.34,-26.78"/>
<polygon fill="black" stroke="black" points="243.92,-30.25 253.75,-26.3 243.6,-23.26 243.92,-30.25"/>
<text text-anchor="middle" x="26.17" y="-68.24" font-family="Times,serif" font-size="14.00">{r0, r2}</text>
</g>
<!-- 4&#45;&gt;5 -->
<g id="edge35" class="edge">
<title>4&#45;&gt;5</title>
<path fill="none" stroke="black" d="M572.13,-114.76C469.16,-115.67 105.61,-116.25 71.17,-79.44 66.61,-74.58 66.92,-69.58 71.17,-64.44 92.72,-38.4 191.81,-29.6 243.92,-26.74"/>
<polygon fill="black" stroke="black" points="244.17,-30.24 253.98,-26.24 243.82,-23.25 244.17,-30.24"/>
<text text-anchor="middle" x="112.17" y="-68.24" font-family="Times,serif" font-size="14.00">{r0, r1, r2, r3}</text>
</g>
<!-- 4&#45;&gt;5 -->
<g id="edge36" class="edge">
<title>4&#45;&gt;5</title>
<path fill="none" stroke="black" d="M572.16,-114.28C483.12,-113.46 202.99,-108.58 176.17,-79.44 152.96,-54.23 207.26,-38.38 244.59,-30.78"/>
<polygon fill="black" stroke="black" points="245.43,-34.19 254.59,-28.86 244.11,-27.31 245.43,-34.19"/>
<text text-anchor="middle" x="198.17" y="-68.24" font-family="Times,serif" font-size="14.00">{r0, r3}</text>
</g>
<!-- 4&#45;&gt;5 -->
<g id="edge37" class="edge">
<title>4&#45;&gt;5</title>
<path fill="none" stroke="black" d="M572.07,-113.83C492.74,-111.75 265.17,-103.71 243.17,-79.44 233.99,-69.32 241.51,-56.3 251.67,-45.58"/>
<polygon fill="black" stroke="black" points="254.16,-48.03 258.96,-38.58 249.32,-42.98 254.16,-48.03"/>
<text text-anchor="middle" x="265.17" y="-68.24" font-family="Times,serif" font-size="14.00">{r0, r1}</text>
</g>
<!-- 4&#45;&gt;5 -->
<g id="edge39" class="edge">
<title>4&#45;&gt;5</title>
<path fill="none" stroke="black" d="M572.24,-114.08C509.06,-112.79 353.39,-106.83 310.17,-79.44 300.73,-73.47 293.46,-63.83 288.1,-54.33"/>
<polygon fill="black" stroke="black" points="291.21,-52.72 283.55,-45.4 284.97,-55.9 291.21,-52.72"/>
<text text-anchor="middle" x="341.67" y="-68.24" font-family="Times,serif" font-size="14.00">{r0, r2, r3}</text>
</g>
<!-- 4&#45;&gt;5 -->
<g id="edge40" class="edge">
<title>4&#45;&gt;5</title>
<path fill="none" stroke="black" d="M572.29,-113.26C532.52,-110.76 456.25,-103.05 396.17,-79.44 384.81,-74.98 383.99,-70.08 373.17,-64.44 351.51,-53.16 325.82,-42.97 306.32,-35.83"/>
<polygon fill="black" stroke="black" points="307.34,-32.48 296.74,-32.39 304.97,-39.07 307.34,-32.48"/>
<text text-anchor="middle" x="427.67" y="-68.24" font-family="Times,serif" font-size="14.00">{r0, r1, r3}</text>
</g>
<!-- 4&#45;&gt;5 -->
<g id="edge41" class="edge">
<title>4&#45;&gt;5</title>
<path fill="none" stroke="black" d="M573.75,-109.07C549.53,-103.44 512.36,-93.45 482.17,-79.44 471.09,-74.31 470.44,-69.13 459.17,-64.44 408.8,-43.51 345.77,-33.26 308.36,-28.68"/>
<polygon fill="black" stroke="black" points="308.4,-25.16 298.07,-27.49 307.6,-32.12 308.4,-25.16"/>
<text text-anchor="middle" x="494.67" y="-68.24" font-family="Times,serif" font-size="14.00">{r0}</text>
</g>
<!-- 4&#45;&gt;5 -->
<g id="edge42" class="edge">
<title>4&#45;&gt;5</title>
<path fill="none" stroke="black" d="M577.71,-104.3C563.93,-97.61 545.75,-88.44 530.17,-79.44 519.6,-73.34 518.53,-68.89 507.17,-64.44 439.66,-38.06 354.19,-29.51 308.49,-26.75"/>
<polygon fill="black" stroke="black" points="308.47,-23.24 298.29,-26.19 308.09,-30.23 308.47,-23.24"/>
<text text-anchor="middle" x="561.67" y="-68.24" font-family="Times,serif" font-size="14.00">{r0, r1, r2}</text>
</g>
<!-- 5&#45;&gt;5 -->
<g id="edge18" class="edge">
<title>5&#45;&gt;5</title>
<path fill="none" stroke="black" d="M298.38,-25.92C307.96,-26.05 316.17,-25.55 316.17,-24.44 316.17,-23.77 313.12,-23.32 308.57,-23.1"/>
<polygon fill="black" stroke="black" points="308.43,-19.6 298.38,-22.96 308.33,-26.6 308.43,-19.6"/>
<text text-anchor="middle" x="338.17" y="-20.74" font-family="Times,serif" font-size="14.00">{r2, r3}</text>
</g>
<!-- 5&#45;&gt;5 -->
<g id="edge19" class="edge">
<title>5&#45;&gt;5</title>
<path fill="none" stroke="black" d="M298.27,-26.74C324.54,-28.18 360.17,-27.41 360.17,-24.44 360.17,-21.85 332.89,-20.93 308.48,-21.71"/>
<polygon fill="black" stroke="black" points="308.12,-18.22 298.27,-22.15 308.41,-25.22 308.12,-18.22"/>
<text text-anchor="middle" x="382.17" y="-20.74" font-family="Times,serif" font-size="14.00">{r0, r1}</text>
</g>
<!-- 5&#45;&gt;5 -->
<g id="edge20" class="edge">
<title>5&#45;&gt;5</title>
<path fill="none" stroke="black" d="M298.23,-27.25C337.36,-30.22 404.17,-29.28 404.17,-24.44 404.17,-20 347.87,-18.85 308.37,-20.98"/>
<polygon fill="black" stroke="black" points="307.99,-17.5 298.23,-21.64 308.44,-24.49 307.99,-17.5"/>
<text text-anchor="middle" x="435.67" y="-20.74" font-family="Times,serif" font-size="14.00">{r0, r1, r2}</text>
</g>
<!-- 5&#45;&gt;5 -->
<g id="edge21" class="edge">
<title>5&#45;&gt;5</title>
<path fill="none" stroke="black" d="M298.03,-27.51C351.91,-32.26 467.17,-31.24 467.17,-24.44 467.17,-18.04 365.02,-16.76 308.1,-20.6"/>
<polygon fill="black" stroke="black" points="307.73,-17.12 298.03,-21.38 308.27,-24.1 307.73,-17.12"/>
<text text-anchor="middle" x="489.17" y="-20.74" font-family="Times,serif" font-size="14.00">{r1, r2}</text>
</g>
<!-- 5&#45;&gt;5 -->
<g id="edge22" class="edge">
<title>5&#45;&gt;5</title>
<path fill="none" stroke="black" d="M298.26,-27.85C361.85,-34.27 511.17,-33.13 511.17,-24.44 511.17,-16.19 376.63,-14.75 308.58,-20.11"/>
<polygon fill="black" stroke="black" points="307.91,-16.66 298.26,-21.03 308.53,-23.63 307.91,-16.66"/>
<text text-anchor="middle" x="542.67" y="-20.74" font-family="Times,serif" font-size="14.00">{r0, r1, r3}</text>
</g>
<!-- 5&#45;&gt;5 -->
<g id="edge23" class="edge">
<title>5&#45;&gt;5</title>
<path fill="none" stroke="black" d="M298.35,-28.06C373.93,-36.29 574.17,-35.08 574.17,-24.44 574.17,-14.25 390.39,-12.71 308.51,-19.84"/>
<polygon fill="black" stroke="black" points="307.97,-16.38 298.35,-20.83 308.64,-23.34 307.97,-16.38"/>
<text text-anchor="middle" x="586.67" y="-20.74" font-family="Times,serif" font-size="14.00">{r2}</text>
</g>
<!-- 5&#45;&gt;5 -->
<g id="edge24" class="edge">
<title>5&#45;&gt;5</title>
<path fill="none" stroke="black" d="M297.88,-28.31C378.74,-38.3 599.17,-37.01 599.17,-24.44 599.17,-12.37 395.63,-10.71 307.97,-19.46"/>
<polygon fill="black" stroke="black" points="307.43,-16 297.88,-20.58 308.21,-22.95 307.43,-16"/>
<text text-anchor="middle" x="630.67" y="-20.74" font-family="Times,serif" font-size="14.00">{r0, r2, r3}</text>
</g>
<!-- 5&#45;&gt;5 -->
<g id="edge25" class="edge">
<title>5&#45;&gt;5</title>
<path fill="none" stroke="black" d="M297.9,-28.44C389.42,-40.31 662.17,-38.97 662.17,-24.44 662.17,-10.41 407.75,-8.68 307.9,-19.27"/>
<polygon fill="black" stroke="black" points="307.42,-15.8 297.9,-20.44 308.23,-22.76 307.42,-15.8"/>
<text text-anchor="middle" x="669.17" y="-20.74" font-family="Times,serif" font-size="14.00">{}</text>
</g>
<!-- 5&#45;&gt;5 -->
<g id="edge26" class="edge">
<title>5&#45;&gt;5</title>
<path fill="none" stroke="black" d="M297.82,-28.68C393.86,-42.31 680.17,-40.9 680.17,-24.44 680.17,-8.54 412.56,-6.69 307.99,-18.89"/>
<polygon fill="black" stroke="black" points="307.29,-15.46 297.82,-20.2 308.18,-22.4 307.29,-15.46"/>
<text text-anchor="middle" x="692.67" y="-20.74" font-family="Times,serif" font-size="14.00">{r0}</text>
</g>
<!-- 5&#45;&gt;5 -->
<g id="edge27" class="edge">
<title>5&#45;&gt;5</title>
<path fill="none" stroke="black" d="M297.99,-28.91C399.75,-44.31 705.17,-42.82 705.17,-24.44 705.17,-6.64 418.54,-4.68 308.11,-18.58"/>
<polygon fill="black" stroke="black" points="307.42,-15.14 297.99,-19.97 308.37,-22.08 307.42,-15.14"/>
<text text-anchor="middle" x="717.67" y="-20.74" font-family="Times,serif" font-size="14.00">{r1}</text>
</g>
<!-- 5&#45;&gt;5 -->
<g id="edge28" class="edge">
<title>5&#45;&gt;5</title>
<path fill="none" stroke="black" d="M297.97,-29.09C405.28,-46.32 730.17,-44.77 730.17,-24.44 730.17,-4.71 424.04,-2.68 307.95,-18.33"/>
<polygon fill="black" stroke="black" points="307.35,-14.88 297.97,-19.8 308.37,-21.81 307.35,-14.88"/>
<text text-anchor="middle" x="752.17" y="-20.74" font-family="Times,serif" font-size="14.00">{r0, r3}</text>
</g>
<!-- 5&#45;&gt;5 -->
<g id="edge29" class="edge">
<title>5&#45;&gt;5</title>
<path fill="none" stroke="black" d="M297.67,-29.15C412.3,-48.32 774.17,-46.76 774.17,-24.44 774.17,-2.74 431.82,-0.66 307.62,-18.21"/>
<polygon fill="black" stroke="black" points="307.02,-14.76 297.67,-19.74 308.08,-21.68 307.02,-14.76"/>
<text text-anchor="middle" x="815.17" y="-20.74" font-family="Times,serif" font-size="14.00">{r0, r1, r2, r3}</text>
</g>
<!-- 5&#45;&gt;5 -->
<g id="edge30" class="edge">
<title>5&#45;&gt;5</title>
<path fill="none" stroke="black" d="M297.92,-29.21C424.11,-50.33 856.17,-48.74 856.17,-24.44 856.17,-0.76 445.77,1.35 308.11,-18.11"/>
<polygon fill="black" stroke="black" points="307.27,-14.7 297.92,-19.67 308.34,-21.61 307.27,-14.7"/>
<text text-anchor="middle" x="878.17" y="-20.74" font-family="Times,serif" font-size="14.00">{r0, r2}</text>
</g>
<!-- 5&#45;&gt;5 -->
<g id="edge31" class="edge">
<title>5&#45;&gt;5</title>
<path fill="none" stroke="black" d="M297.81,-29.29C431.03,-52.34 900.17,-50.72 900.17,-24.44 900.17,1.22 452.76,3.36 307.72,-18.01"/>
<polygon fill="black" stroke="black" points="307.13,-14.56 297.81,-19.59 308.23,-21.47 307.13,-14.56"/>
<text text-anchor="middle" x="931.67" y="-20.74" font-family="Times,serif" font-size="14.00">{r1, r2, r3}</text>
</g>
<!-- 5&#45;&gt;5 -->
<g id="edge32" class="edge">
<title>5&#45;&gt;5</title>
<path fill="none" stroke="black" d="M297.69,-29.33C439.49,-54.34 963.17,-52.71 963.17,-24.44 963.17,3.19 462.75,5.37 307.81,-17.91"/>
<polygon fill="black" stroke="black" points="307,-14.5 297.69,-19.56 308.12,-21.41 307,-14.5"/>
<text text-anchor="middle" x="985.17" y="-20.74" font-family="Times,serif" font-size="14.00">{r1, r3}</text>
</g>
<!-- 5&#45;&gt;5 -->
<g id="edge33" class="edge">
<title>5&#45;&gt;5</title>
<path fill="none" stroke="black" d="M297.64,-29.41C446.27,-56.35 1007.17,-54.69 1007.17,-24.44 1007.17,5.16 470.12,7.38 307.78,-17.78"/>
<polygon fill="black" stroke="black" points="306.92,-14.38 297.64,-19.48 308.08,-21.28 306.92,-14.38"/>
<text text-anchor="middle" x="1019.67" y="-20.74" font-family="Times,serif" font-size="14.00">{r3}</text>
</g>
</g>
</svg>
