<?xml version="1.0" encoding="UTF-8" standalone="no"?>
<!DOCTYPE svg PUBLIC "-//W3C//DTD SVG 1.1//EN"
 "http://www.w3.org/Graphics/SVG/1.1/DTD/svg11.dtd">
<!-- Generated by graphviz version 2.43.0 (0)
 -->
<!-- Title: %3 Pages: 1 -->
<svg width="2556pt" height="475pt"
 viewBox="0.00 0.00 2556.07 475.44" xmlns="http://www.w3.org/2000/svg" xmlns:xlink="http://www.w3.org/1999/xlink">
<g id="graph0" class="graph" transform="scale(1 1) rotate(0) translate(4 471.44)">
<title>%3</title>
<polygon fill="white" stroke="transparent" points="-4,4 -4,-471.44 2552.07,-471.44 2552.07,4 -4,4"/>
<!-- fake -->
<g id="node1" class="node">
<title>fake</title>
</g>
<!-- 0 -->
<g id="node2" class="node">
<title>0</title>
<ellipse fill="none" stroke="black" cx="1846.07" cy="-376.44" rx="27" ry="18"/>
<text text-anchor="middle" x="1846.07" y="-372.74" font-family="Times,serif" font-size="14.00">0</text>
</g>
<!-- fake&#45;&gt;0 -->
<g id="edge1" class="edge">
<title>fake&#45;&gt;0</title>
<path fill="none" stroke="black" stroke-width="2" d="M1846.07,-431.25C1846.07,-423.23 1846.07,-413.49 1846.07,-404.51"/>
<polygon fill="black" stroke="black" stroke-width="2" points="1849.57,-404.47 1846.07,-394.47 1842.57,-404.47 1849.57,-404.47"/>
</g>
<!-- 0&#45;&gt;0 -->
<g id="edge2" class="edge">
<title>0&#45;&gt;0</title>
<path fill="none" stroke="black" d="M1871.52,-383.13C1882.1,-383.59 1891.07,-381.36 1891.07,-376.44 1891.07,-373.21 1887.21,-371.14 1881.56,-370.23"/>
<polygon fill="black" stroke="black" points="1881.67,-366.73 1871.52,-369.75 1881.34,-373.72 1881.67,-366.73"/>
<text text-anchor="middle" x="1898.07" y="-372.74" font-family="Times,serif" font-size="14.00">{}</text>
</g>
<!-- 1 -->
<g id="node3" class="node">
<title>1</title>
<ellipse fill="none" stroke="black" cx="1504.07" cy="-289.44" rx="27" ry="18"/>
<text text-anchor="middle" x="1504.07" y="-285.74" font-family="Times,serif" font-size="14.00">1</text>
</g>
<!-- 0&#45;&gt;1 -->
<g id="edge3" class="edge">
<title>0&#45;&gt;1</title>
<path fill="none" stroke="black" d="M1819,-375.83C1713.26,-377.08 1332.12,-378.86 1296.07,-340.44 1291.51,-335.58 1291.77,-330.53 1296.07,-325.44 1317.52,-300.08 1413.02,-293.09 1466.85,-291.16"/>
<polygon fill="black" stroke="black" points="1467.14,-294.66 1477.03,-290.84 1466.92,-287.66 1467.14,-294.66"/>
<text text-anchor="middle" x="1340.07" y="-329.24" font-family="Times,serif" font-size="14.00">{c0, c1, c2, c3}</text>
</g>
<!-- 0&#45;&gt;1 -->
<g id="edge4" class="edge">
<title>0&#45;&gt;1</title>
<path fill="none" stroke="black" d="M1819.01,-375.36C1727.68,-374.83 1435.05,-370.74 1407.07,-340.44 1385.9,-317.51 1432.15,-303.39 1467.81,-296.23"/>
<polygon fill="black" stroke="black" points="1468.81,-299.6 1477.99,-294.31 1467.51,-292.72 1468.81,-299.6"/>
<text text-anchor="middle" x="1440.57" y="-329.24" font-family="Times,serif" font-size="14.00">{c1, c2, c3}</text>
</g>
<!-- 0&#45;&gt;1 -->
<g id="edge5" class="edge">
<title>0&#45;&gt;1</title>
<path fill="none" stroke="black" d="M1818.96,-374.77C1740.68,-372.55 1518.57,-364.2 1497.07,-340.44 1491.24,-333.99 1490.98,-325.03 1492.85,-316.48"/>
<polygon fill="black" stroke="black" points="1496.23,-317.38 1495.81,-306.8 1489.54,-315.34 1496.23,-317.38"/>
<text text-anchor="middle" x="1520.57" y="-329.24" font-family="Times,serif" font-size="14.00">{c1, c3}</text>
</g>
<!-- 0&#45;&gt;1 -->
<g id="edge6" class="edge">
<title>0&#45;&gt;1</title>
<path fill="none" stroke="black" d="M1819.24,-373.92C1758.5,-370.18 1612.3,-359.45 1567.07,-340.44 1558.47,-336.82 1541.66,-323.34 1527.56,-311.28"/>
<polygon fill="black" stroke="black" points="1529.51,-308.34 1519.66,-304.43 1524.93,-313.63 1529.51,-308.34"/>
<text text-anchor="middle" x="1600.57" y="-329.24" font-family="Times,serif" font-size="14.00">{c0, c2, c3}</text>
</g>
<!-- 0&#45;&gt;1 -->
<g id="edge7" class="edge">
<title>0&#45;&gt;1</title>
<path fill="none" stroke="black" d="M1819.17,-373.79C1781.66,-370.76 1712.07,-362.44 1657.07,-340.44 1645.74,-335.91 1645.22,-330.42 1634.07,-325.44 1603.75,-311.88 1567.02,-302.59 1540.35,-297"/>
<polygon fill="black" stroke="black" points="1540.8,-293.52 1530.3,-294.98 1539.41,-300.38 1540.8,-293.52"/>
<text text-anchor="middle" x="1680.57" y="-329.24" font-family="Times,serif" font-size="14.00">{c2, c3}</text>
</g>
<!-- 0&#45;&gt;1 -->
<g id="edge8" class="edge">
<title>0&#45;&gt;1</title>
<path fill="none" stroke="black" d="M1820.69,-370.24C1796.06,-364.68 1757.97,-354.68 1727.07,-340.44 1715.99,-335.33 1715.43,-329.92 1704.07,-325.44 1649.77,-304.03 1582.04,-295.67 1540.97,-292.44"/>
<polygon fill="black" stroke="black" points="1541.11,-288.94 1530.88,-291.71 1540.6,-295.92 1541.11,-288.94"/>
<text text-anchor="middle" x="1750.57" y="-329.24" font-family="Times,serif" font-size="14.00">{c0, c3}</text>
</g>
<!-- 0&#45;&gt;1 -->
<g id="edge9" class="edge">
<title>0&#45;&gt;1</title>
<path fill="none" stroke="black" d="M1828.18,-362.7C1807.85,-348.27 1777.09,-326.6 1774.07,-325.44 1695.1,-294.99 1594.51,-290.02 1541.18,-289.77"/>
<polygon fill="black" stroke="black" points="1541.16,-286.27 1531.16,-289.78 1541.17,-293.27 1541.16,-286.27"/>
<text text-anchor="middle" x="1808.57" y="-329.24" font-family="Times,serif" font-size="14.00">{c3}</text>
</g>
<!-- 0&#45;&gt;1 -->
<g id="edge10" class="edge">
<title>0&#45;&gt;1</title>
<path fill="none" stroke="black" d="M1843.09,-358.29C1840.2,-347.1 1834.63,-333.18 1824.07,-325.44 1779.93,-293.08 1616.01,-289.75 1541.44,-289.97"/>
<polygon fill="black" stroke="black" points="1541.09,-286.47 1531.11,-290.02 1541.13,-293.47 1541.09,-286.47"/>
<text text-anchor="middle" x="1869.57" y="-329.24" font-family="Times,serif" font-size="14.00">{c0, c1, c3}</text>
</g>
<!-- 2 -->
<g id="node4" class="node">
<title>2</title>
<ellipse fill="none" stroke="black" cx="1473.07" cy="-24.44" rx="27" ry="18"/>
<text text-anchor="middle" x="1473.07" y="-20.74" font-family="Times,serif" font-size="14.00">2</text>
</g>
<!-- 0&#45;&gt;2 -->
<g id="edge11" class="edge">
<title>0&#45;&gt;2</title>
<path fill="none" stroke="black" d="M1870.39,-368.21C1883.75,-362.85 1899.18,-354.07 1907.07,-340.44 1910.42,-334.67 1908.56,-331.94 1907.07,-325.44 1880.66,-209.97 1863.54,-168.9 1769.07,-97.44 1690.89,-38.29 1570.73,-27.05 1510.38,-25.35"/>
<polygon fill="black" stroke="black" points="1510.25,-21.85 1500.18,-25.14 1510.11,-28.84 1510.25,-21.85"/>
<text text-anchor="middle" x="1908.57" y="-198.74" font-family="Times,serif" font-size="14.00">{c0, c1, c2}</text>
</g>
<!-- 0&#45;&gt;2 -->
<g id="edge12" class="edge">
<title>0&#45;&gt;2</title>
<path fill="none" stroke="black" d="M1871.76,-370.68C1909.64,-362.02 1976.07,-339.79 1976.07,-290.44 1976.07,-290.44 1976.07,-290.44 1976.07,-114.44 1976.07,-67.09 1625.95,-36.8 1509.93,-28.06"/>
<polygon fill="black" stroke="black" points="1509.99,-24.55 1499.76,-27.3 1509.48,-31.54 1509.99,-24.55"/>
<text text-anchor="middle" x="1999.57" y="-198.74" font-family="Times,serif" font-size="14.00">{c0, c1}</text>
</g>
<!-- 0&#45;&gt;2 -->
<g id="edge13" class="edge">
<title>0&#45;&gt;2</title>
<path fill="none" stroke="black" d="M1871.77,-370.81C1928.42,-359.89 2059.07,-330.35 2059.07,-290.44 2059.07,-290.44 2059.07,-290.44 2059.07,-114.44 2059.07,-58.7 1639.34,-33.56 1510.34,-27.15"/>
<polygon fill="black" stroke="black" points="1510.32,-23.64 1500.16,-26.65 1509.98,-30.64 1510.32,-23.64"/>
<text text-anchor="middle" x="2072.57" y="-198.74" font-family="Times,serif" font-size="14.00">{c2}</text>
</g>
<!-- 0&#45;&gt;2 -->
<g id="edge14" class="edge">
<title>0&#45;&gt;2</title>
<path fill="none" stroke="black" d="M1872.79,-372.97C1942.05,-365.82 2122.07,-342.27 2122.07,-290.44 2122.07,-290.44 2122.07,-290.44 2122.07,-114.44 2122.07,-52.23 1647.99,-31.35 1510.2,-26.59"/>
<polygon fill="black" stroke="black" points="1510.25,-23.09 1500.13,-26.25 1510.01,-30.09 1510.25,-23.09"/>
<text text-anchor="middle" x="2135.57" y="-198.74" font-family="Times,serif" font-size="14.00">{c1}</text>
</g>
<!-- 0&#45;&gt;2 -->
<g id="edge15" class="edge">
<title>0&#45;&gt;2</title>
<path fill="none" stroke="black" d="M1872.96,-374.46C1953.14,-370.8 2185.07,-354.68 2185.07,-290.44 2185.07,-290.44 2185.07,-290.44 2185.07,-114.44 2185.07,-45.77 1656.94,-29.37 1510.39,-26.14"/>
<polygon fill="black" stroke="black" points="1510.19,-22.63 1500.12,-25.92 1510.04,-29.63 1510.19,-22.63"/>
<text text-anchor="middle" x="2208.57" y="-198.74" font-family="Times,serif" font-size="14.00">{c1, c2}</text>
</g>
<!-- 0&#45;&gt;2 -->
<g id="edge16" class="edge">
<title>0&#45;&gt;2</title>
<path fill="none" stroke="black" d="M1873.11,-375.77C1966.25,-376.2 2268.07,-371.34 2268.07,-290.44 2268.07,-290.44 2268.07,-290.44 2268.07,-114.44 2268.07,-37.22 1668.12,-27 1510.59,-25.65"/>
<polygon fill="black" stroke="black" points="1510.47,-22.14 1500.44,-25.57 1510.41,-29.14 1510.47,-22.14"/>
<text text-anchor="middle" x="2281.57" y="-198.74" font-family="Times,serif" font-size="14.00">{c0}</text>
</g>
<!-- 0&#45;&gt;2 -->
<g id="edge17" class="edge">
<title>0&#45;&gt;2</title>
<path fill="none" stroke="black" d="M1873.06,-374.51C1950.44,-371.61 2171.97,-361.64 2241.07,-340.44 2284.82,-327.02 2331.07,-336.2 2331.07,-290.44 2331.07,-290.44 2331.07,-290.44 2331.07,-114.44 2331.07,-30.64 1675.13,-25.34 1510.3,-25.33"/>
<polygon fill="black" stroke="black" points="1510.17,-21.83 1500.17,-25.34 1510.17,-28.83 1510.17,-21.83"/>
<text text-anchor="middle" x="2354.57" y="-198.74" font-family="Times,serif" font-size="14.00">{c0, c2}</text>
</g>
<!-- 1&#45;&gt;1 -->
<g id="edge69" class="edge">
<title>1&#45;&gt;1</title>
<path fill="none" stroke="black" d="M1528.61,-297.19C1539.58,-297.93 1549.07,-295.35 1549.07,-289.44 1549.07,-285.47 1544.79,-283 1538.65,-282.03"/>
<polygon fill="black" stroke="black" points="1538.72,-278.53 1528.61,-281.69 1538.48,-285.53 1538.72,-278.53"/>
<text text-anchor="middle" x="1556.07" y="-285.74" font-family="Times,serif" font-size="14.00">{}</text>
</g>
<!-- 1&#45;&gt;2 -->
<g id="edge75" class="edge">
<title>1&#45;&gt;2</title>
<path fill="none" stroke="black" d="M1499.69,-271.62C1493.83,-248.23 1483.78,-204.47 1480.07,-166.44 1479.43,-159.8 1477.15,-157.43 1480.07,-151.44 1485.76,-139.77 1497.39,-145.11 1503.07,-133.44 1510.08,-119.06 1506.21,-113.13 1503.07,-97.44 1499.85,-81.3 1492.93,-64.27 1486.54,-50.82"/>
<polygon fill="black" stroke="black" points="1489.62,-49.14 1482.05,-41.72 1483.34,-52.24 1489.62,-49.14"/>
<text text-anchor="middle" x="1493.57" y="-155.24" font-family="Times,serif" font-size="14.00">{c3}</text>
</g>
<!-- 1&#45;&gt;2 -->
<g id="edge76" class="edge">
<title>1&#45;&gt;2</title>
<path fill="none" stroke="black" d="M1507.49,-271.53C1513.74,-238.15 1525.73,-161.49 1518.07,-97.44 1516.28,-82.45 1517.29,-77.69 1510.07,-64.44 1506.6,-58.05 1501.81,-51.94 1496.83,-46.52"/>
<polygon fill="black" stroke="black" points="1499.05,-43.79 1489.52,-39.14 1494.07,-48.71 1499.05,-43.79"/>
<text text-anchor="middle" x="1543.57" y="-155.24" font-family="Times,serif" font-size="14.00">{c0, c1}</text>
</g>
<!-- 1&#45;&gt;2 -->
<g id="edge77" class="edge">
<title>1&#45;&gt;2</title>
<path fill="none" stroke="black" d="M1518.97,-274.04C1542.07,-249.93 1582.72,-199.29 1571.07,-151.44 1560.78,-109.14 1554.35,-97.54 1526.07,-64.44 1519.06,-56.23 1510.01,-48.77 1501.37,-42.62"/>
<polygon fill="black" stroke="black" points="1503.21,-39.64 1492.96,-36.93 1499.28,-45.43 1503.21,-39.64"/>
<text text-anchor="middle" x="1595.57" y="-155.24" font-family="Times,serif" font-size="14.00">{c1, c3}</text>
</g>
<!-- 1&#45;&gt;2 -->
<g id="edge78" class="edge">
<title>1&#45;&gt;2</title>
<path fill="none" stroke="black" d="M1525.44,-278.28C1565.23,-257.8 1644.73,-208.59 1623.07,-151.44 1602.3,-96.61 1541.48,-58.49 1503.97,-39.44"/>
<polygon fill="black" stroke="black" points="1505.5,-36.28 1494.98,-35 1502.4,-42.56 1505.5,-36.28"/>
<text text-anchor="middle" x="1639.57" y="-155.24" font-family="Times,serif" font-size="14.00">{c1}</text>
</g>
<!-- 1&#45;&gt;2 -->
<g id="edge79" class="edge">
<title>1&#45;&gt;2</title>
<path fill="none" stroke="black" d="M1528.35,-281.1C1546.39,-275.08 1571.21,-265.58 1591.07,-253.44 1637.14,-225.27 1674.89,-202.41 1657.07,-151.44 1634.28,-86.23 1553.89,-50.72 1507.26,-35.18"/>
<polygon fill="black" stroke="black" points="1508.16,-31.79 1497.57,-32.07 1506.03,-38.46 1508.16,-31.79"/>
<text text-anchor="middle" x="1683.57" y="-155.24" font-family="Times,serif" font-size="14.00">{c0, c3}</text>
</g>
<!-- 1&#45;&gt;2 -->
<g id="edge80" class="edge">
<title>1&#45;&gt;2</title>
<path fill="none" stroke="black" d="M1529.84,-283.85C1593.04,-271.27 1747.99,-231.7 1711.07,-151.44 1674.94,-72.87 1566.75,-42.06 1509.51,-31.01"/>
<polygon fill="black" stroke="black" points="1509.91,-27.52 1499.45,-29.17 1508.65,-34.41 1509.91,-27.52"/>
<text text-anchor="middle" x="1748.57" y="-155.24" font-family="Times,serif" font-size="14.00">{c0, c1, c3}</text>
</g>
<!-- 1&#45;&gt;2 -->
<g id="edge81" class="edge">
<title>1&#45;&gt;2</title>
<path fill="none" stroke="black" d="M1530.91,-286.64C1611.51,-280.07 1842.49,-252.25 1786.07,-151.44 1730.84,-52.74 1580.86,-31.25 1510.48,-26.64"/>
<polygon fill="black" stroke="black" points="1510.48,-23.14 1500.3,-26.06 1510.08,-30.13 1510.48,-23.14"/>
<text text-anchor="middle" x="1805.57" y="-155.24" font-family="Times,serif" font-size="14.00">{c0}</text>
</g>
<!-- 3 -->
<g id="node5" class="node">
<title>3</title>
<ellipse fill="none" stroke="black" cx="1031.07" cy="-202.44" rx="27" ry="18"/>
<text text-anchor="middle" x="1031.07" y="-198.74" font-family="Times,serif" font-size="14.00">3</text>
</g>
<!-- 1&#45;&gt;3 -->
<g id="edge66" class="edge">
<title>1&#45;&gt;3</title>
<path fill="none" stroke="black" d="M1477.12,-287.97C1359.15,-285.78 893.17,-275.74 872.07,-253.44 835.1,-214.36 935.7,-205.67 993.55,-203.84"/>
<polygon fill="black" stroke="black" points="993.9,-207.33 1003.81,-203.57 993.72,-200.34 993.9,-207.33"/>
<text text-anchor="middle" x="905.57" y="-242.24" font-family="Times,serif" font-size="14.00">{c0, c1, c2}</text>
</g>
<!-- 1&#45;&gt;3 -->
<g id="edge67" class="edge">
<title>1&#45;&gt;3</title>
<path fill="none" stroke="black" d="M1477.04,-288.8C1372.33,-289.93 997.54,-291.27 962.07,-253.44 946.98,-237.34 972.91,-223.02 997.18,-213.88"/>
<polygon fill="black" stroke="black" points="998.4,-217.16 1006.66,-210.52 996.06,-210.56 998.4,-217.16"/>
<text text-anchor="middle" x="985.57" y="-242.24" font-family="Times,serif" font-size="14.00">{c1, c2}</text>
</g>
<!-- 1&#45;&gt;3 -->
<g id="edge68" class="edge">
<title>1&#45;&gt;3</title>
<path fill="none" stroke="black" d="M1477.01,-288.5C1381.29,-288.45 1062.77,-285.84 1032.07,-253.44 1026.36,-247.41 1024.78,-238.91 1025.04,-230.63"/>
<polygon fill="black" stroke="black" points="1028.54,-230.77 1026.17,-220.45 1021.59,-230 1028.54,-230.77"/>
<text text-anchor="middle" x="1065.57" y="-242.24" font-family="Times,serif" font-size="14.00">{c0, c2, c3}</text>
</g>
<!-- 1&#45;&gt;3 -->
<g id="edge70" class="edge">
<title>1&#45;&gt;3</title>
<path fill="none" stroke="black" d="M1477.09,-287.65C1401.33,-285.18 1187.89,-276.32 1122.07,-253.44 1110.55,-249.43 1109.62,-244.57 1099.07,-238.44 1087.03,-231.44 1073.43,-224.29 1061.58,-218.3"/>
<polygon fill="black" stroke="black" points="1063.02,-215.11 1052.51,-213.77 1059.89,-221.37 1063.02,-215.11"/>
<text text-anchor="middle" x="1145.57" y="-242.24" font-family="Times,serif" font-size="14.00">{c2, c3}</text>
</g>
<!-- 1&#45;&gt;3 -->
<g id="edge71" class="edge">
<title>1&#45;&gt;3</title>
<path fill="none" stroke="black" d="M1477.16,-287.02C1411.45,-283.3 1244.4,-272.23 1192.07,-253.44 1180.59,-249.31 1180.25,-243.34 1169.07,-238.44 1135.91,-223.9 1095.51,-214.54 1067.01,-209.19"/>
<polygon fill="black" stroke="black" points="1067.55,-205.73 1057.09,-207.4 1066.31,-212.62 1067.55,-205.73"/>
<text text-anchor="middle" x="1225.57" y="-242.24" font-family="Times,serif" font-size="14.00">{c1, c2, c3}</text>
</g>
<!-- 1&#45;&gt;3 -->
<g id="edge72" class="edge">
<title>1&#45;&gt;3</title>
<path fill="none" stroke="black" d="M1477.17,-287.81C1434.45,-286.02 1349.08,-279.21 1282.07,-253.44 1270.68,-249.06 1270.47,-242.8 1259.07,-238.44 1194.87,-213.9 1114.27,-206.53 1068.12,-204.34"/>
<polygon fill="black" stroke="black" points="1068.13,-200.84 1057.99,-203.92 1067.84,-207.83 1068.13,-200.84"/>
<text text-anchor="middle" x="1326.07" y="-242.24" font-family="Times,serif" font-size="14.00">{c0, c1, c2, c3}</text>
</g>
<!-- 1&#45;&gt;3 -->
<g id="edge73" class="edge">
<title>1&#45;&gt;3</title>
<path fill="none" stroke="black" d="M1478.65,-282.53C1455.66,-276.7 1421.21,-266.74 1393.07,-253.44 1382.04,-248.22 1381.58,-242.51 1370.07,-238.44 1315.14,-218.98 1144.03,-208.75 1068.06,-205.06"/>
<polygon fill="black" stroke="black" points="1068.14,-201.56 1057.99,-204.58 1067.81,-208.55 1068.14,-201.56"/>
<text text-anchor="middle" x="1416.57" y="-242.24" font-family="Times,serif" font-size="14.00">{c0, c2}</text>
</g>
<!-- 1&#45;&gt;3 -->
<g id="edge74" class="edge">
<title>1&#45;&gt;3</title>
<path fill="none" stroke="black" d="M1488.54,-274.61C1473.23,-261.29 1450.64,-242.59 1440.07,-238.44 1372.83,-212.02 1155.54,-205.5 1068.06,-203.92"/>
<polygon fill="black" stroke="black" points="1068.11,-200.42 1058.06,-203.75 1068,-207.42 1068.11,-200.42"/>
<text text-anchor="middle" x="1475.57" y="-242.24" font-family="Times,serif" font-size="14.00">{c2}</text>
</g>
<!-- 2&#45;&gt;2 -->
<g id="edge82" class="edge">
<title>2&#45;&gt;2</title>
<path fill="none" stroke="black" d="M1500.31,-25.94C1510.1,-25.97 1518.07,-25.47 1518.07,-24.44 1518.07,-23.81 1515.11,-23.38 1510.58,-23.15"/>
<polygon fill="black" stroke="black" points="1510.38,-19.64 1500.31,-22.94 1510.24,-26.64 1510.38,-19.64"/>
<text text-anchor="middle" x="1562.07" y="-20.74" font-family="Times,serif" font-size="14.00">{c0, c1, c2, c3}</text>
</g>
<!-- 2&#45;&gt;2 -->
<g id="edge83" class="edge">
<title>2&#45;&gt;2</title>
<path fill="none" stroke="black" d="M1499.92,-26.58C1540.09,-28.22 1606.07,-27.51 1606.07,-24.44 1606.07,-21.61 1550.23,-20.78 1510.02,-21.95"/>
<polygon fill="black" stroke="black" points="1509.79,-18.45 1499.92,-22.3 1510.03,-25.45 1509.79,-18.45"/>
<text text-anchor="middle" x="1619.57" y="-20.74" font-family="Times,serif" font-size="14.00">{c3}</text>
</g>
<!-- 2&#45;&gt;2 -->
<g id="edge84" class="edge">
<title>2&#45;&gt;2</title>
<path fill="none" stroke="black" d="M1499.94,-27.31C1547.79,-30.2 1633.07,-29.24 1633.07,-24.44 1633.07,-19.95 1558.74,-18.82 1509.93,-21.04"/>
<polygon fill="black" stroke="black" points="1509.74,-17.55 1499.94,-21.57 1510.11,-24.54 1509.74,-17.55"/>
<text text-anchor="middle" x="1666.57" y="-20.74" font-family="Times,serif" font-size="14.00">{c0, c1, c2}</text>
</g>
<!-- 2&#45;&gt;2 -->
<g id="edge85" class="edge">
<title>2&#45;&gt;2</title>
<path fill="none" stroke="black" d="M1499.86,-27.67C1563.24,-32.23 1700.07,-31.16 1700.07,-24.44 1700.07,-18.06 1576.78,-16.77 1510.06,-20.56"/>
<polygon fill="black" stroke="black" points="1509.62,-17.08 1499.86,-21.21 1510.06,-24.07 1509.62,-17.08"/>
<text text-anchor="middle" x="1723.57" y="-20.74" font-family="Times,serif" font-size="14.00">{c0, c1}</text>
</g>
<!-- 2&#45;&gt;2 -->
<g id="edge86" class="edge">
<title>2&#45;&gt;2</title>
<path fill="none" stroke="black" d="M1499.96,-28.06C1573.52,-34.24 1747.07,-33.03 1747.07,-24.44 1747.07,-16.21 1588.12,-14.75 1509.97,-20.06"/>
<polygon fill="black" stroke="black" points="1509.67,-16.57 1499.96,-20.81 1510.19,-23.55 1509.67,-16.57"/>
<text text-anchor="middle" x="1770.57" y="-20.74" font-family="Times,serif" font-size="14.00">{c1, c3}</text>
</g>
<!-- 2&#45;&gt;2 -->
<g id="edge87" class="edge">
<title>2&#45;&gt;2</title>
<path fill="none" stroke="black" d="M1499.51,-28.35C1582.29,-36.25 1794.07,-34.95 1794.07,-24.44 1794.07,-14.33 1598.11,-12.74 1509.51,-19.66"/>
<polygon fill="black" stroke="black" points="1509.17,-16.18 1499.51,-20.53 1509.77,-23.15 1509.17,-16.18"/>
<text text-anchor="middle" x="1817.57" y="-20.74" font-family="Times,serif" font-size="14.00">{c2, c3}</text>
</g>
<!-- 2&#45;&gt;2 -->
<g id="edge88" class="edge">
<title>2&#45;&gt;2</title>
<path fill="none" stroke="black" d="M1499.5,-28.63C1591.28,-38.26 1841.07,-36.87 1841.07,-24.44 1841.07,-12.45 1608.53,-10.73 1509.74,-19.28"/>
<polygon fill="black" stroke="black" points="1509.12,-15.82 1499.5,-20.25 1509.78,-22.79 1509.12,-15.82"/>
<text text-anchor="middle" x="1874.57" y="-20.74" font-family="Times,serif" font-size="14.00">{c0, c2, c3}</text>
</g>
<!-- 2&#45;&gt;2 -->
<g id="edge89" class="edge">
<title>2&#45;&gt;2</title>
<path fill="none" stroke="black" d="M1499.31,-28.78C1602.29,-40.28 1908.07,-38.83 1908.07,-24.44 1908.07,-10.5 1621.11,-8.7 1509.54,-19.06"/>
<polygon fill="black" stroke="black" points="1508.9,-15.6 1499.31,-20.1 1509.61,-22.57 1508.9,-15.6"/>
<text text-anchor="middle" x="1941.57" y="-20.74" font-family="Times,serif" font-size="14.00">{c1, c2, c3}</text>
</g>
<!-- 2&#45;&gt;2 -->
<g id="edge90" class="edge">
<title>2&#45;&gt;2</title>
<path fill="none" stroke="black" d="M1499.3,-28.94C1612.97,-42.29 1975.07,-40.79 1975.07,-24.44 1975.07,-8.55 1633.19,-6.69 1509.54,-18.84"/>
<polygon fill="black" stroke="black" points="1508.87,-15.39 1499.3,-19.94 1509.61,-22.35 1508.87,-15.39"/>
<text text-anchor="middle" x="1988.57" y="-20.74" font-family="Times,serif" font-size="14.00">{c2}</text>
</g>
<!-- 2&#45;&gt;2 -->
<g id="edge91" class="edge">
<title>2&#45;&gt;2</title>
<path fill="none" stroke="black" d="M1499.37,-29.2C1618.56,-44.29 2002.07,-42.7 2002.07,-24.44 2002.07,-6.66 1638.52,-4.69 1509.34,-18.52"/>
<polygon fill="black" stroke="black" points="1508.9,-15.05 1499.37,-19.68 1509.7,-22 1508.9,-15.05"/>
<text text-anchor="middle" x="2015.57" y="-20.74" font-family="Times,serif" font-size="14.00">{c1}</text>
</g>
<!-- 2&#45;&gt;2 -->
<g id="edge92" class="edge">
<title>2&#45;&gt;2</title>
<path fill="none" stroke="black" d="M1499.24,-29.41C1623.75,-46.29 2029.07,-44.63 2029.07,-24.44 2029.07,-4.76 1644.07,-2.68 1509.25,-18.22"/>
<polygon fill="black" stroke="black" points="1508.73,-14.76 1499.24,-19.47 1509.59,-21.7 1508.73,-14.76"/>
<text text-anchor="middle" x="2052.57" y="-20.74" font-family="Times,serif" font-size="14.00">{c0, c3}</text>
</g>
<!-- 2&#45;&gt;2 -->
<g id="edge93" class="edge">
<title>2&#45;&gt;2</title>
<path fill="none" stroke="black" d="M1499.25,-29.56C1631.51,-48.3 2076.07,-46.59 2076.07,-24.44 2076.07,-2.83 1652.95,-0.68 1509.49,-17.98"/>
<polygon fill="black" stroke="black" points="1508.72,-14.55 1499.25,-19.31 1509.62,-21.49 1508.72,-14.55"/>
<text text-anchor="middle" x="2099.57" y="-20.74" font-family="Times,serif" font-size="14.00">{c1, c2}</text>
</g>
<!-- 2&#45;&gt;2 -->
<g id="edge94" class="edge">
<title>2&#45;&gt;2</title>
<path fill="none" stroke="black" d="M1499,-29.67C1638.51,-50.3 2123.07,-48.56 2123.07,-24.44 2123.07,-0.86 1660.03,1.34 1508.91,-17.85"/>
<polygon fill="black" stroke="black" points="1508.43,-14.39 1499,-19.21 1509.38,-21.32 1508.43,-14.39"/>
<text text-anchor="middle" x="2130.07" y="-20.74" font-family="Times,serif" font-size="14.00">{}</text>
</g>
<!-- 2&#45;&gt;2 -->
<g id="edge95" class="edge">
<title>2&#45;&gt;2</title>
<path fill="none" stroke="black" d="M1499.02,-29.86C1643.05,-52.3 2141.07,-50.5 2141.07,-24.44 2141.07,1.03 1665.17,3.33 1509.25,-17.54"/>
<polygon fill="black" stroke="black" points="1508.42,-14.13 1499.02,-19.02 1509.42,-21.05 1508.42,-14.13"/>
<text text-anchor="middle" x="2174.57" y="-20.74" font-family="Times,serif" font-size="14.00">{c0, c1, c3}</text>
</g>
<!-- 2&#45;&gt;2 -->
<g id="edge96" class="edge">
<title>2&#45;&gt;2</title>
<path fill="none" stroke="black" d="M1499.08,-29.94C1652.58,-54.31 2208.07,-52.48 2208.07,-24.44 2208.07,3.02 1675.13,5.35 1509.02,-17.47"/>
<polygon fill="black" stroke="black" points="1508.46,-14.01 1499.08,-18.94 1509.48,-20.94 1508.46,-14.01"/>
<text text-anchor="middle" x="2221.57" y="-20.74" font-family="Times,serif" font-size="14.00">{c0}</text>
</g>
<!-- 2&#45;&gt;2 -->
<g id="edge97" class="edge">
<title>2&#45;&gt;2</title>
<path fill="none" stroke="black" d="M1498.94,-30.06C1657.63,-56.31 2235.07,-54.44 2235.07,-24.44 2235.07,4.96 1680.52,7.35 1508.96,-17.27"/>
<polygon fill="black" stroke="black" points="1508.29,-13.83 1498.94,-18.81 1509.35,-20.75 1508.29,-13.83"/>
<text text-anchor="middle" x="2258.57" y="-20.74" font-family="Times,serif" font-size="14.00">{c0, c2}</text>
</g>
<!-- 3&#45;&gt;2 -->
<g id="edge27" class="edge">
<title>3&#45;&gt;2</title>
<path fill="none" stroke="black" d="M1026.14,-184.48C1023.08,-174.67 1018.83,-162.17 1014.07,-151.44 1010.36,-143.07 1006.37,-142.3 1004.07,-133.44 1000.06,-117.95 994.29,-110.1 1004.07,-97.44 1023.45,-72.36 1043.57,-91 1073.07,-79.44 1086.22,-74.29 1087.48,-68.26 1101.07,-64.44 1236.92,-26.22 1280.08,-75.96 1418.07,-46.44 1426.09,-44.73 1434.47,-42.03 1442.21,-39.13"/>
<polygon fill="black" stroke="black" points="1443.59,-42.34 1451.6,-35.4 1441.01,-35.84 1443.59,-42.34"/>
<text text-anchor="middle" x="1017.57" y="-111.74" font-family="Times,serif" font-size="14.00">{c3}</text>
</g>
<!-- 3&#45;&gt;2 -->
<g id="edge28" class="edge">
<title>3&#45;&gt;2</title>
<path fill="none" stroke="black" d="M1033.16,-184.49C1036.67,-162.26 1045.61,-123.08 1067.07,-97.44 1068.28,-96 1124.27,-64.97 1126.07,-64.44 1250.83,-27.79 1290.99,-73.94 1418.07,-46.44 1426.08,-44.71 1434.47,-42 1442.21,-39.1"/>
<polygon fill="black" stroke="black" points="1443.59,-42.32 1451.59,-35.38 1441.01,-35.81 1443.59,-42.32"/>
<text text-anchor="middle" x="1090.57" y="-111.74" font-family="Times,serif" font-size="14.00">{c2, c3}</text>
</g>
<!-- 3&#45;&gt;2 -->
<g id="edge29" class="edge">
<title>3&#45;&gt;2</title>
<path fill="none" stroke="black" d="M1048.02,-188.36C1065.08,-175.01 1091.98,-153.45 1114.07,-133.44 1130.85,-118.25 1131.4,-110.21 1150.07,-97.44 1250.15,-28.98 1299.99,-73.95 1418.07,-46.44 1425.98,-44.6 1434.28,-41.87 1441.96,-39"/>
<polygon fill="black" stroke="black" points="1443.27,-42.24 1451.29,-35.32 1440.7,-35.73 1443.27,-42.24"/>
<text text-anchor="middle" x="1183.57" y="-111.74" font-family="Times,serif" font-size="14.00">{c0, c2, c3}</text>
</g>
<!-- 3&#45;&gt;2 -->
<g id="edge30" class="edge">
<title>3&#45;&gt;2</title>
<path fill="none" stroke="black" d="M1056.41,-195.89C1093.75,-186.93 1164.76,-166.82 1217.07,-133.44 1254.17,-109.77 1248.39,-83.45 1288.07,-64.44 1340.68,-39.24 1361.58,-60.94 1418.07,-46.44 1425.94,-44.42 1434.22,-41.63 1441.9,-38.75"/>
<polygon fill="black" stroke="black" points="1443.2,-42 1451.23,-35.09 1440.65,-35.48 1443.2,-42"/>
<text text-anchor="middle" x="1264.57" y="-111.74" font-family="Times,serif" font-size="14.00">{c2}</text>
</g>
<!-- 3&#45;&gt;2 -->
<g id="edge31" class="edge">
<title>3&#45;&gt;2</title>
<path fill="none" stroke="black" d="M1056.65,-196.3C1086.84,-190.06 1138.45,-178.81 1182.07,-166.44 1226.29,-153.9 1241.02,-157.66 1280.07,-133.44 1299.3,-121.51 1298.24,-111.36 1316.07,-97.44 1338.54,-79.9 1345.44,-76.91 1371.07,-64.44 1371.5,-64.23 1410.98,-49.15 1440.69,-37.8"/>
<polygon fill="black" stroke="black" points="1442.22,-40.96 1450.32,-34.13 1439.73,-34.42 1442.22,-40.96"/>
<text text-anchor="middle" x="1339.57" y="-111.74" font-family="Times,serif" font-size="14.00">{c0, c3}</text>
</g>
<!-- 3&#45;&gt;2 -->
<g id="edge32" class="edge">
<title>3&#45;&gt;2</title>
<path fill="none" stroke="black" d="M1058.39,-201.34C1117.72,-200.01 1261.25,-190.63 1363.07,-133.44 1382.8,-122.36 1382.96,-113.33 1399.07,-97.44 1416.46,-80.29 1436.3,-61 1451.06,-46.7"/>
<polygon fill="black" stroke="black" points="1453.52,-49.19 1458.27,-39.72 1448.65,-44.16 1453.52,-49.19"/>
<text text-anchor="middle" x="1412.57" y="-111.74" font-family="Times,serif" font-size="14.00">{c0}</text>
</g>
<!-- 3&#45;&gt;2 -->
<g id="edge33" class="edge">
<title>3&#45;&gt;2</title>
<path fill="none" stroke="black" d="M1058.04,-200.42C1137.95,-196.87 1371.29,-182.44 1426.07,-133.44 1449.71,-112.3 1461.95,-77.15 1467.94,-52.71"/>
<polygon fill="black" stroke="black" points="1471.42,-53.17 1470.2,-42.65 1464.59,-51.64 1471.42,-53.17"/>
<text text-anchor="middle" x="1475.57" y="-111.74" font-family="Times,serif" font-size="14.00">{c0, c2}</text>
</g>
<!-- 3&#45;&gt;3 -->
<g id="edge21" class="edge">
<title>3&#45;&gt;3</title>
<path fill="none" stroke="black" d="M1055.61,-210.19C1066.58,-210.93 1076.07,-208.35 1076.07,-202.44 1076.07,-198.47 1071.79,-196 1065.65,-195.03"/>
<polygon fill="black" stroke="black" points="1065.72,-191.53 1055.61,-194.69 1065.48,-198.53 1065.72,-191.53"/>
<text text-anchor="middle" x="1083.07" y="-198.74" font-family="Times,serif" font-size="14.00">{}</text>
</g>
<!-- 4 -->
<g id="node6" class="node">
<title>4</title>
<ellipse fill="none" stroke="black" cx="645.07" cy="-115.44" rx="27" ry="18"/>
<text text-anchor="middle" x="645.07" y="-111.74" font-family="Times,serif" font-size="14.00">4</text>
</g>
<!-- 3&#45;&gt;4 -->
<g id="edge18" class="edge">
<title>3&#45;&gt;4</title>
<path fill="none" stroke="black" d="M1003.99,-200.97C885.46,-198.8 417.28,-188.84 396.07,-166.44 391.49,-161.6 391.7,-156.47 396.07,-151.44 423.01,-120.45 544.82,-116.1 607.52,-115.98"/>
<polygon fill="black" stroke="black" points="607.77,-119.48 617.78,-116 607.78,-112.48 607.77,-119.48"/>
<text text-anchor="middle" x="429.57" y="-155.24" font-family="Times,serif" font-size="14.00">{c1, c2, c3}</text>
</g>
<!-- 3&#45;&gt;4 -->
<g id="edge19" class="edge">
<title>3&#45;&gt;4</title>
<path fill="none" stroke="black" d="M1003.89,-201.81C898.6,-202.99 521.75,-204.48 486.07,-166.44 449.27,-127.2 549.8,-118.58 607.59,-116.81"/>
<polygon fill="black" stroke="black" points="607.93,-120.3 617.84,-116.55 607.75,-113.3 607.93,-120.3"/>
<text text-anchor="middle" x="509.57" y="-155.24" font-family="Times,serif" font-size="14.00">{c0, c1}</text>
</g>
<!-- 3&#45;&gt;4 -->
<g id="edge20" class="edge">
<title>3&#45;&gt;4</title>
<path fill="none" stroke="black" d="M1003.82,-201.54C907.41,-201.61 586.64,-199.34 556.07,-166.44 536.62,-145.49 577.02,-131.09 609.57,-123.3"/>
<polygon fill="black" stroke="black" points="610.36,-126.71 619.34,-121.1 608.82,-119.88 610.36,-126.71"/>
<text text-anchor="middle" x="589.57" y="-155.24" font-family="Times,serif" font-size="14.00">{c0, c1, c3}</text>
</g>
<!-- 3&#45;&gt;4 -->
<g id="edge22" class="edge">
<title>3&#45;&gt;4</title>
<path fill="none" stroke="black" d="M1003.9,-201.02C920.2,-199.44 670.41,-192.56 646.07,-166.44 640.41,-160.36 638.84,-151.85 639.1,-143.57"/>
<polygon fill="black" stroke="black" points="642.6,-143.73 640.22,-133.4 635.64,-142.96 642.6,-143.73"/>
<text text-anchor="middle" x="659.57" y="-155.24" font-family="Times,serif" font-size="14.00">{c1}</text>
</g>
<!-- 3&#45;&gt;4 -->
<g id="edge23" class="edge">
<title>3&#45;&gt;4</title>
<path fill="none" stroke="black" d="M1003.97,-200.89C934.28,-199.12 750.57,-192.08 696.07,-166.44 683.15,-160.36 671.53,-149.62 662.66,-139.66"/>
<polygon fill="black" stroke="black" points="665.27,-137.33 656.16,-131.93 659.92,-141.84 665.27,-137.33"/>
<text text-anchor="middle" x="719.57" y="-155.24" font-family="Times,serif" font-size="14.00">{c1, c2}</text>
</g>
<!-- 3&#45;&gt;4 -->
<g id="edge24" class="edge">
<title>3&#45;&gt;4</title>
<path fill="none" stroke="black" d="M1003.8,-201.76C954.68,-201.5 848.76,-197.05 766.07,-166.44 754.63,-162.2 754.01,-156.86 743.07,-151.44 722.54,-141.25 698.29,-132.57 679.04,-126.39"/>
<polygon fill="black" stroke="black" points="680.07,-123.05 669.49,-123.4 677.98,-129.73 680.07,-123.05"/>
<text text-anchor="middle" x="799.57" y="-155.24" font-family="Times,serif" font-size="14.00">{c0, c1, c2}</text>
</g>
<!-- 3&#45;&gt;4 -->
<g id="edge25" class="edge">
<title>3&#45;&gt;4</title>
<path fill="none" stroke="black" d="M1004.38,-199.27C969.26,-195.71 906.13,-186.88 856.07,-166.44 844.78,-161.83 844.4,-155.98 833.07,-151.44 783.07,-131.41 720.94,-122.71 682.13,-119.02"/>
<polygon fill="black" stroke="black" points="682.1,-115.51 671.83,-118.11 681.49,-122.48 682.1,-115.51"/>
<text text-anchor="middle" x="879.57" y="-155.24" font-family="Times,serif" font-size="14.00">{c1, c3}</text>
</g>
<!-- 3&#45;&gt;4 -->
<g id="edge26" class="edge">
<title>3&#45;&gt;4</title>
<path fill="none" stroke="black" d="M1006.19,-195.09C984.46,-189.1 952.38,-179.14 926.07,-166.44 915.08,-161.13 914.51,-155.7 903.07,-151.44 828.33,-123.61 734.05,-117.52 682.68,-116.42"/>
<polygon fill="black" stroke="black" points="682.44,-112.91 672.39,-116.25 682.33,-119.91 682.44,-112.91"/>
<text text-anchor="middle" x="970.07" y="-155.24" font-family="Times,serif" font-size="14.00">{c0, c1, c2, c3}</text>
</g>
<!-- 4&#45;&gt;2 -->
<g id="edge43" class="edge">
<title>4&#45;&gt;2</title>
<path fill="none" stroke="black" d="M640.03,-97.29C637.98,-86.39 637.74,-72.8 646.07,-64.44 676.36,-34.05 1375.98,-54.71 1418.07,-46.44 1426.11,-44.86 1434.51,-42.21 1442.25,-39.32"/>
<polygon fill="black" stroke="black" points="1443.64,-42.53 1451.63,-35.58 1441.05,-36.03 1443.64,-42.53"/>
<text text-anchor="middle" x="659.57" y="-68.24" font-family="Times,serif" font-size="14.00">{c3}</text>
</g>
<!-- 4&#45;&gt;2 -->
<g id="edge44" class="edge">
<title>4&#45;&gt;2</title>
<path fill="none" stroke="black" d="M656,-98.58C665.16,-86.76 679.4,-71.49 696.07,-64.44 769.98,-33.17 1339.35,-61.97 1418.07,-46.44 1426.11,-44.85 1434.51,-42.2 1442.25,-39.31"/>
<polygon fill="black" stroke="black" points="1443.64,-42.52 1451.63,-35.57 1441.05,-36.02 1443.64,-42.52"/>
<text text-anchor="middle" x="719.57" y="-68.24" font-family="Times,serif" font-size="14.00">{c1, c3}</text>
</g>
<!-- 4&#45;&gt;2 -->
<g id="edge45" class="edge">
<title>4&#45;&gt;2</title>
<path fill="none" stroke="black" d="M669.49,-107.48C689.72,-101.29 718.96,-91.4 743.07,-79.44 754.01,-74.02 754.43,-68.08 766.07,-64.44 904.43,-21.22 1275.91,-74.69 1418.07,-46.44 1426.11,-44.84 1434.51,-42.19 1442.25,-39.29"/>
<polygon fill="black" stroke="black" points="1443.63,-42.51 1451.63,-35.56 1441.04,-36 1443.63,-42.51"/>
<text text-anchor="middle" x="789.57" y="-68.24" font-family="Times,serif" font-size="14.00">{c2, c3}</text>
</g>
<!-- 4&#45;&gt;2 -->
<g id="edge46" class="edge">
<title>4&#45;&gt;2</title>
<path fill="none" stroke="black" d="M671.58,-111.99C705.46,-108.18 765.44,-99.11 813.07,-79.44 824.35,-74.78 824.43,-68.1 836.07,-64.44 959.52,-25.66 1291.2,-71.87 1418.07,-46.44 1426.11,-44.83 1434.5,-42.17 1442.24,-39.27"/>
<polygon fill="black" stroke="black" points="1443.63,-42.49 1451.63,-35.54 1441.04,-35.98 1443.63,-42.49"/>
<text text-anchor="middle" x="869.57" y="-68.24" font-family="Times,serif" font-size="14.00">{c1, c2, c3}</text>
</g>
<!-- 4&#45;&gt;2 -->
<g id="edge47" class="edge">
<title>4&#45;&gt;2</title>
<path fill="none" stroke="black" d="M672.39,-114.63C720.54,-114.12 823.01,-109.24 903.07,-79.44 914.51,-75.18 914.44,-68.13 926.07,-64.44 1030.36,-31.35 1310.86,-68.24 1418.07,-46.44 1426.1,-44.81 1434.5,-42.14 1442.24,-39.24"/>
<polygon fill="black" stroke="black" points="1443.62,-42.46 1451.62,-35.51 1441.03,-35.95 1443.62,-42.46"/>
<text text-anchor="middle" x="939.57" y="-68.24" font-family="Times,serif" font-size="14.00">{c2}</text>
</g>
<!-- 4&#45;&gt;2 -->
<g id="edge48" class="edge">
<title>4&#45;&gt;2</title>
<path fill="none" stroke="black" d="M672.12,-112.97C737.32,-109.16 901.55,-97.98 953.07,-79.44 964.56,-75.31 964.45,-68.15 976.07,-64.44 1069.71,-34.52 1321.78,-66.23 1418.07,-46.44 1426.1,-44.79 1434.49,-42.11 1442.23,-39.22"/>
<polygon fill="black" stroke="black" points="1443.61,-42.43 1451.62,-35.49 1441.03,-35.93 1443.61,-42.43"/>
<text text-anchor="middle" x="989.57" y="-68.24" font-family="Times,serif" font-size="14.00">{c1}</text>
</g>
<!-- 4&#45;&gt;2 -->
<g id="edge49" class="edge">
<title>4&#45;&gt;2</title>
<path fill="none" stroke="black" d="M672.17,-113.46C744.71,-110.57 941.94,-100.9 1003.07,-79.44 1014.59,-75.4 1014.46,-68.18 1026.07,-64.44 1109.07,-37.68 1332.7,-64.22 1418.07,-46.44 1426.09,-44.77 1434.48,-42.09 1442.23,-39.19"/>
<polygon fill="black" stroke="black" points="1443.61,-42.41 1451.61,-35.46 1441.02,-35.9 1443.61,-42.41"/>
<text text-anchor="middle" x="1049.57" y="-68.24" font-family="Times,serif" font-size="14.00">{c1, c2}</text>
</g>
<!-- 4&#45;&gt;4 -->
<g id="edge42" class="edge">
<title>4&#45;&gt;4</title>
<path fill="none" stroke="black" d="M669.61,-123.19C680.58,-123.93 690.07,-121.35 690.07,-115.44 690.07,-111.47 685.79,-109 679.65,-108.03"/>
<polygon fill="black" stroke="black" points="679.72,-104.53 669.61,-107.69 679.48,-111.53 679.72,-104.53"/>
<text text-anchor="middle" x="697.07" y="-111.74" font-family="Times,serif" font-size="14.00">{}</text>
</g>
<!-- 5 -->
<g id="node7" class="node">
<title>5</title>
<ellipse fill="none" stroke="black" cx="339.07" cy="-24.44" rx="18" ry="18"/>
<ellipse fill="none" stroke="black" cx="339.07" cy="-24.44" rx="22" ry="22"/>
<text text-anchor="middle" x="339.07" y="-20.74" font-family="Times,serif" font-size="14.00">5</text>
</g>
<!-- 4&#45;&gt;5 -->
<g id="edge34" class="edge">
<title>4&#45;&gt;5</title>
<path fill="none" stroke="black" d="M617.78,-113.98C498.32,-111.85 26.45,-102.01 5.07,-79.44 -37.37,-34.61 215.02,-26.99 306.72,-25.7"/>
<polygon fill="black" stroke="black" points="306.88,-29.2 316.83,-25.58 306.79,-22.2 306.88,-29.2"/>
<text text-anchor="middle" x="49.07" y="-68.24" font-family="Times,serif" font-size="14.00">{c0, c1, c2, c3}</text>
</g>
<!-- 4&#45;&gt;5 -->
<g id="edge35" class="edge">
<title>4&#45;&gt;5</title>
<path fill="none" stroke="black" d="M617.98,-114.76C514.82,-115.68 150.59,-116.31 116.07,-79.44 111.52,-74.57 111.79,-69.54 116.07,-64.44 140.07,-35.89 251.03,-28.24 306.84,-26.19"/>
<polygon fill="black" stroke="black" points="307.02,-29.68 316.9,-25.86 306.79,-22.69 307.02,-29.68"/>
<text text-anchor="middle" x="149.57" y="-68.24" font-family="Times,serif" font-size="14.00">{c0, c1, c3}</text>
</g>
<!-- 4&#45;&gt;5 -->
<g id="edge36" class="edge">
<title>4&#45;&gt;5</title>
<path fill="none" stroke="black" d="M618.01,-114.36C526.68,-113.83 234.05,-109.74 206.07,-79.44 174.81,-45.58 258.12,-32.46 306.79,-27.79"/>
<polygon fill="black" stroke="black" points="307.23,-31.26 316.88,-26.89 306.61,-24.29 307.23,-31.26"/>
<text text-anchor="middle" x="239.57" y="-68.24" font-family="Times,serif" font-size="14.00">{c0, c2, c3}</text>
</g>
<!-- 4&#45;&gt;5 -->
<g id="edge37" class="edge">
<title>4&#45;&gt;5</title>
<path fill="none" stroke="black" d="M617.96,-113.77C539.68,-111.55 317.57,-103.2 296.07,-79.44 285.25,-67.48 297.69,-53.17 311.93,-42.29"/>
<polygon fill="black" stroke="black" points="314.22,-44.95 320.36,-36.32 310.17,-39.24 314.22,-44.95"/>
<text text-anchor="middle" x="319.57" y="-68.24" font-family="Times,serif" font-size="14.00">{c0, c1}</text>
</g>
<!-- 4&#45;&gt;5 -->
<g id="edge38" class="edge">
<title>4&#45;&gt;5</title>
<path fill="none" stroke="black" d="M617.98,-114.22C556.02,-113.22 406.22,-107.85 366.07,-79.44 357.82,-73.6 351.95,-64.49 347.84,-55.4"/>
<polygon fill="black" stroke="black" points="351.1,-54.11 344.18,-46.08 344.58,-56.67 351.1,-54.11"/>
<text text-anchor="middle" x="389.57" y="-68.24" font-family="Times,serif" font-size="14.00">{c0, c2}</text>
</g>
<!-- 4&#45;&gt;5 -->
<g id="edge39" class="edge">
<title>4&#45;&gt;5</title>
<path fill="none" stroke="black" d="M618.08,-113.44C577.34,-111.16 498.28,-103.7 436.07,-79.44 424.7,-75 423.59,-70.62 413.07,-64.44 398.33,-55.77 381.48,-46.82 367.59,-39.68"/>
<polygon fill="black" stroke="black" points="369.01,-36.48 358.51,-35.06 365.83,-42.71 369.01,-36.48"/>
<text text-anchor="middle" x="469.57" y="-68.24" font-family="Times,serif" font-size="14.00">{c0, c1, c2}</text>
</g>
<!-- 4&#45;&gt;5 -->
<g id="edge40" class="edge">
<title>4&#45;&gt;5</title>
<path fill="none" stroke="black" d="M619.69,-109.24C595.06,-103.68 556.97,-93.68 526.07,-79.44 514.99,-74.33 514.29,-69.26 503.07,-64.44 459.28,-45.63 404.83,-34.97 371,-29.7"/>
<polygon fill="black" stroke="black" points="371.2,-26.19 360.79,-28.17 370.16,-33.11 371.2,-26.19"/>
<text text-anchor="middle" x="539.57" y="-68.24" font-family="Times,serif" font-size="14.00">{c0}</text>
</g>
<!-- 4&#45;&gt;5 -->
<g id="edge41" class="edge">
<title>4&#45;&gt;5</title>
<path fill="none" stroke="black" d="M623.62,-104.3C609.84,-97.61 591.66,-88.44 576.07,-79.44 565.51,-73.34 564.41,-68.96 553.07,-64.44 491.62,-39.96 414.08,-30.72 371.23,-27.33"/>
<polygon fill="black" stroke="black" points="371.35,-23.83 361.12,-26.58 370.84,-30.81 371.35,-23.83"/>
<text text-anchor="middle" x="599.57" y="-68.24" font-family="Times,serif" font-size="14.00">{c0, c3}</text>
</g>
<!-- 5&#45;&gt;5 -->
<g id="edge50" class="edge">
<title>5&#45;&gt;5</title>
<path fill="none" stroke="black" d="M361.29,-25.92C370.87,-26.04 379.07,-25.55 379.07,-24.44 379.07,-23.76 376.03,-23.32 371.48,-23.1"/>
<polygon fill="black" stroke="black" points="371.33,-19.59 361.29,-22.96 371.24,-26.59 371.33,-19.59"/>
<text text-anchor="middle" x="402.57" y="-20.74" font-family="Times,serif" font-size="14.00">{c0, c3}</text>
</g>
<!-- 5&#45;&gt;5 -->
<g id="edge51" class="edge">
<title>5&#45;&gt;5</title>
<path fill="none" stroke="black" d="M361.25,-26.71C388.41,-28.18 426.07,-27.42 426.07,-24.44 426.07,-21.82 396.98,-20.91 371.49,-21.73"/>
<polygon fill="black" stroke="black" points="371.09,-18.24 361.25,-22.17 371.39,-25.24 371.09,-18.24"/>
<text text-anchor="middle" x="449.57" y="-20.74" font-family="Times,serif" font-size="14.00">{c2, c3}</text>
</g>
<!-- 5&#45;&gt;5 -->
<g id="edge52" class="edge">
<title>5&#45;&gt;5</title>
<path fill="none" stroke="black" d="M361.14,-27.2C401.68,-30.22 473.07,-29.3 473.07,-24.44 473.07,-19.96 412.4,-18.82 371.16,-21.04"/>
<polygon fill="black" stroke="black" points="370.9,-17.55 361.14,-21.67 371.34,-24.53 370.9,-17.55"/>
<text text-anchor="middle" x="486.57" y="-20.74" font-family="Times,serif" font-size="14.00">{c0}</text>
</g>
<!-- 5&#45;&gt;5 -->
<g id="edge53" class="edge">
<title>5&#45;&gt;5</title>
<path fill="none" stroke="black" d="M361.09,-27.7C409.04,-32.23 500.07,-31.14 500.07,-24.44 500.07,-18.18 420.73,-16.82 371.18,-20.35"/>
<polygon fill="black" stroke="black" points="370.77,-16.87 361.09,-21.18 371.35,-23.85 370.77,-16.87"/>
<text text-anchor="middle" x="523.57" y="-20.74" font-family="Times,serif" font-size="14.00">{c1, c2}</text>
</g>
<!-- 5&#45;&gt;5 -->
<g id="edge54" class="edge">
<title>5&#45;&gt;5</title>
<path fill="none" stroke="black" d="M361.09,-27.98C419.88,-34.25 547.07,-33.07 547.07,-24.44 547.07,-16.28 433.42,-14.78 371.31,-19.94"/>
<polygon fill="black" stroke="black" points="370.71,-16.48 361.09,-20.9 371.37,-23.45 370.71,-16.48"/>
<text text-anchor="middle" x="570.57" y="-20.74" font-family="Times,serif" font-size="14.00">{c1, c3}</text>
</g>
<!-- 5&#45;&gt;5 -->
<g id="edge55" class="edge">
<title>5&#45;&gt;5</title>
<path fill="none" stroke="black" d="M361.09,-28.22C429.84,-36.27 594.07,-35.01 594.07,-24.44 594.07,-14.36 444.88,-12.75 371.36,-19.59"/>
<polygon fill="black" stroke="black" points="370.67,-16.14 361.09,-20.66 371.4,-23.1 370.67,-16.14"/>
<text text-anchor="middle" x="627.57" y="-20.74" font-family="Times,serif" font-size="14.00">{c0, c1, c3}</text>
</g>
<!-- 5&#45;&gt;5 -->
<g id="edge56" class="edge">
<title>5&#45;&gt;5</title>
<path fill="none" stroke="black" d="M360.76,-28.3C441.46,-38.29 661.07,-37 661.07,-24.44 661.07,-12.37 458.28,-10.7 370.83,-19.45"/>
<polygon fill="black" stroke="black" points="370.31,-15.99 360.76,-20.57 371.09,-22.95 370.31,-15.99"/>
<text text-anchor="middle" x="668.07" y="-20.74" font-family="Times,serif" font-size="14.00">{}</text>
</g>
<!-- 5&#45;&gt;5 -->
<g id="edge57" class="edge">
<title>5&#45;&gt;5</title>
<path fill="none" stroke="black" d="M360.81,-28.59C446.29,-40.29 679.07,-38.91 679.07,-24.44 679.07,-10.51 463.24,-8.71 370.92,-19.04"/>
<polygon fill="black" stroke="black" points="370.31,-15.58 360.81,-20.28 371.17,-22.53 370.31,-15.58"/>
<text text-anchor="middle" x="692.57" y="-20.74" font-family="Times,serif" font-size="14.00">{c3}</text>
</g>
<!-- 5&#45;&gt;5 -->
<g id="edge58" class="edge">
<title>5&#45;&gt;5</title>
<path fill="none" stroke="black" d="M360.83,-28.81C452.32,-42.3 706.07,-40.84 706.07,-24.44 706.07,-8.6 469.37,-6.7 370.76,-18.74"/>
<polygon fill="black" stroke="black" points="370.28,-15.27 360.83,-20.07 371.2,-22.21 370.28,-15.27"/>
<text text-anchor="middle" x="739.57" y="-20.74" font-family="Times,serif" font-size="14.00">{c1, c2, c3}</text>
</g>
<!-- 5&#45;&gt;5 -->
<g id="edge59" class="edge">
<title>5&#45;&gt;5</title>
<path fill="none" stroke="black" d="M360.67,-28.86C462.78,-44.31 773.07,-42.84 773.07,-24.44 773.07,-6.62 481.87,-4.68 370.83,-18.62"/>
<polygon fill="black" stroke="black" points="370.1,-15.19 360.67,-20.02 371.05,-22.12 370.1,-15.19"/>
<text text-anchor="middle" x="817.07" y="-20.74" font-family="Times,serif" font-size="14.00">{c0, c1, c2, c3}</text>
</g>
<!-- 5&#45;&gt;5 -->
<g id="edge60" class="edge">
<title>5&#45;&gt;5</title>
<path fill="none" stroke="black" d="M360.9,-28.92C475.72,-46.32 861.07,-44.83 861.07,-24.44 861.07,-4.61 496.51,-2.65 370.92,-18.57"/>
<polygon fill="black" stroke="black" points="370.33,-15.12 360.9,-19.96 371.29,-22.06 370.33,-15.12"/>
<text text-anchor="middle" x="874.57" y="-20.74" font-family="Times,serif" font-size="14.00">{c1}</text>
</g>
<!-- 5&#45;&gt;5 -->
<g id="edge61" class="edge">
<title>5&#45;&gt;5</title>
<path fill="none" stroke="black" d="M360.92,-29.08C481.28,-48.32 888.07,-46.77 888.07,-24.44 888.07,-2.69 502.45,-0.65 371.02,-18.31"/>
<polygon fill="black" stroke="black" points="370.31,-14.88 360.92,-19.79 371.32,-21.81 370.31,-14.88"/>
<text text-anchor="middle" x="921.57" y="-20.74" font-family="Times,serif" font-size="14.00">{c0, c1, c2}</text>
</g>
<!-- 5&#45;&gt;5 -->
<g id="edge62" class="edge">
<title>5&#45;&gt;5</title>
<path fill="none" stroke="black" d="M360.86,-29.14C490.61,-50.33 955.07,-48.76 955.07,-24.44 955.07,-0.71 513.01,1.36 370.95,-18.22"/>
<polygon fill="black" stroke="black" points="370.23,-14.79 360.86,-19.74 371.27,-21.72 370.23,-14.79"/>
<text text-anchor="middle" x="978.57" y="-20.74" font-family="Times,serif" font-size="14.00">{c0, c2}</text>
</g>
<!-- 5&#45;&gt;5 -->
<g id="edge63" class="edge">
<title>5&#45;&gt;5</title>
<path fill="none" stroke="black" d="M360.71,-29.22C497.54,-52.34 1002.07,-50.74 1002.07,-24.44 1002.07,1.25 520.91,3.37 370.93,-18.08"/>
<polygon fill="black" stroke="black" points="370.06,-14.67 360.71,-19.66 371.13,-21.59 370.06,-14.67"/>
<text text-anchor="middle" x="1015.57" y="-20.74" font-family="Times,serif" font-size="14.00">{c2}</text>
</g>
<!-- 5&#45;&gt;5 -->
<g id="edge64" class="edge">
<title>5&#45;&gt;5</title>
<path fill="none" stroke="black" d="M360.62,-29.33C502.74,-54.34 1029.07,-52.71 1029.07,-24.44 1029.07,3.2 526.11,5.37 370.77,-17.91"/>
<polygon fill="black" stroke="black" points="369.93,-14.5 360.62,-19.55 371.05,-21.41 369.93,-14.5"/>
<text text-anchor="middle" x="1062.57" y="-20.74" font-family="Times,serif" font-size="14.00">{c0, c2, c3}</text>
</g>
<!-- 5&#45;&gt;5 -->
<g id="edge65" class="edge">
<title>5&#45;&gt;5</title>
<path fill="none" stroke="black" d="M360.77,-29.4C511.95,-56.34 1096.07,-54.69 1096.07,-24.44 1096.07,5.16 536.78,7.38 371.1,-17.78"/>
<polygon fill="black" stroke="black" points="370.07,-14.4 360.77,-19.48 371.2,-21.31 370.07,-14.4"/>
<text text-anchor="middle" x="1119.57" y="-20.74" font-family="Times,serif" font-size="14.00">{c0, c1}</text>
</g>
</g>
</svg>
