<?xml version="1.0" encoding="UTF-8" standalone="no"?>
<!DOCTYPE svg PUBLIC "-//W3C//DTD SVG 1.1//EN"
 "http://www.w3.org/Graphics/SVG/1.1/DTD/svg11.dtd">
<!-- Generated by graphviz version 2.43.0 (0)
 -->
<!-- Title: %3 Pages: 1 -->
<svg width="5117pt" height="412pt"
 viewBox="0.00 0.00 5117.45 412.25" xmlns="http://www.w3.org/2000/svg" xmlns:xlink="http://www.w3.org/1999/xlink">
<g id="graph0" class="graph" transform="scale(1 1) rotate(0) translate(4 408.25)">
<title>%3</title>
<polygon fill="white" stroke="transparent" points="-4,4 -4,-408.25 5113.45,-408.25 5113.45,4 -4,4"/>
<!-- fake -->
<g id="node1" class="node">
<title>fake</title>
</g>
<!-- 0 -->
<g id="node2" class="node">
<title>0</title>
<ellipse fill="none" stroke="black" cx="2870.45" cy="-313.25" rx="27" ry="18"/>
<text text-anchor="middle" x="2870.45" y="-309.55" font-family="Times,serif" font-size="14.00">0</text>
</g>
<!-- fake&#45;&gt;0 -->
<g id="edge1" class="edge">
<title>fake&#45;&gt;0</title>
<path fill="none" stroke="black" stroke-width="2" d="M2870.45,-368.06C2870.45,-360.04 2870.45,-350.3 2870.45,-341.32"/>
<polygon fill="black" stroke="black" stroke-width="2" points="2873.95,-341.28 2870.45,-331.28 2866.95,-341.28 2873.95,-341.28"/>
</g>
<!-- 0&#45;&gt;0 -->
<g id="edge6" class="edge">
<title>0&#45;&gt;0</title>
<path fill="none" stroke="black" d="M2897.69,-314.94C2907.47,-314.97 2915.45,-314.41 2915.45,-313.25 2915.45,-312.54 2912.49,-312.06 2907.96,-311.79"/>
<polygon fill="black" stroke="black" points="2907.77,-308.29 2897.69,-311.56 2907.61,-315.29 2907.77,-308.29"/>
<text text-anchor="middle" x="2927.95" y="-309.55" font-family="Times,serif" font-size="14.00">{r4}</text>
</g>
<!-- 0&#45;&gt;0 -->
<g id="edge8" class="edge">
<title>0&#45;&gt;0</title>
<path fill="none" stroke="black" d="M2897.44,-316.23C2918.33,-317.26 2940.45,-316.27 2940.45,-313.25 2940.45,-310.72 2924.99,-309.61 2907.72,-309.93"/>
<polygon fill="black" stroke="black" points="2907.32,-306.44 2897.44,-310.27 2907.56,-313.43 2907.32,-306.44"/>
<text text-anchor="middle" x="2947.45" y="-309.55" font-family="Times,serif" font-size="14.00">{}</text>
</g>
<!-- 0&#45;&gt;0 -->
<g id="edge15" class="edge">
<title>0&#45;&gt;0</title>
<path fill="none" stroke="black" d="M2896.93,-317.16C2925.2,-319.54 2958.45,-318.23 2958.45,-313.25 2958.45,-308.85 2932.54,-307.32 2907.01,-308.65"/>
<polygon fill="black" stroke="black" points="2906.67,-305.17 2896.93,-309.34 2907.14,-312.15 2906.67,-305.17"/>
<text text-anchor="middle" x="2970.95" y="-309.55" font-family="Times,serif" font-size="14.00">{r3}</text>
</g>
<!-- 0&#45;&gt;0 -->
<g id="edge21" class="edge">
<title>0&#45;&gt;0</title>
<path fill="none" stroke="black" d="M2896.69,-317.77C2933.88,-321.84 2983.45,-320.33 2983.45,-313.25 2983.45,-306.8 2942.39,-304.97 2906.97,-307.76"/>
<polygon fill="black" stroke="black" points="2906.32,-304.31 2896.69,-308.73 2906.97,-311.28 2906.32,-304.31"/>
<text text-anchor="middle" x="3005.45" y="-309.55" font-family="Times,serif" font-size="14.00">{r3, r4}</text>
</g>
<!-- 1 -->
<g id="node3" class="node">
<title>1</title>
<ellipse fill="none" stroke="black" cx="2157.45" cy="-226.25" rx="27" ry="18"/>
<text text-anchor="middle" x="2157.45" y="-222.55" font-family="Times,serif" font-size="14.00">1</text>
</g>
<!-- 0&#45;&gt;1 -->
<g id="edge2" class="edge">
<title>0&#45;&gt;1</title>
<path fill="none" stroke="black" d="M2843.46,-311.95C2671.17,-309.97 1731.82,-298.24 1711.45,-277.25 1706.81,-272.46 1706.92,-267.14 1711.45,-262.25 1738.95,-232.51 2017.81,-228 2120.09,-227.35"/>
<polygon fill="black" stroke="black" points="2120.29,-230.85 2130.27,-227.29 2120.25,-223.85 2120.29,-230.85"/>
<text text-anchor="middle" x="1742.95" y="-266.05" font-family="Times,serif" font-size="14.00">{r0, r2, r4}</text>
</g>
<!-- 0&#45;&gt;1 -->
<g id="edge3" class="edge">
<title>0&#45;&gt;1</title>
<path fill="none" stroke="black" d="M2843.35,-312.42C2680.25,-313.29 1834.92,-315.96 1797.45,-277.25 1751.67,-229.96 2019.57,-226.54 2120.31,-226.89"/>
<polygon fill="black" stroke="black" points="2120.34,-230.39 2130.36,-226.94 2120.37,-223.39 2120.34,-230.39"/>
<text text-anchor="middle" x="1828.95" y="-266.05" font-family="Times,serif" font-size="14.00">{r1, r2, r3}</text>
</g>
<!-- 0&#45;&gt;1 -->
<g id="edge4" class="edge">
<title>0&#45;&gt;1</title>
<path fill="none" stroke="black" d="M2843.29,-312.34C2687.93,-312.71 1917.7,-312.74 1883.45,-277.25 1849.71,-242.29 2037.75,-231.41 2120.2,-228.34"/>
<polygon fill="black" stroke="black" points="2120.53,-231.83 2130.4,-227.98 2120.28,-224.84 2120.53,-231.83"/>
<text text-anchor="middle" x="1924.45" y="-266.05" font-family="Times,serif" font-size="14.00">{r0, r1, r2, r4}</text>
</g>
<!-- 0&#45;&gt;1 -->
<g id="edge5" class="edge">
<title>0&#45;&gt;1</title>
<path fill="none" stroke="black" d="M2843.15,-312.22C2697.65,-311.91 2018.78,-308.81 1988.45,-277.25 1948.46,-235.65 2059.11,-228.2 2120.15,-227.17"/>
<polygon fill="black" stroke="black" points="2120.25,-230.67 2130.2,-227.05 2120.16,-223.67 2120.25,-230.67"/>
<text text-anchor="middle" x="2010.45" y="-266.05" font-family="Times,serif" font-size="14.00">{r2, r3}</text>
</g>
<!-- 0&#45;&gt;1 -->
<g id="edge7" class="edge">
<title>0&#45;&gt;1</title>
<path fill="none" stroke="black" d="M2843.43,-312.13C2705.29,-311.37 2083.31,-306.33 2055.45,-277.25 2032.63,-253.43 2083.18,-239.39 2120.96,-232.52"/>
<polygon fill="black" stroke="black" points="2121.94,-235.9 2131.21,-230.77 2120.76,-229 2121.94,-235.9"/>
<text text-anchor="middle" x="2086.95" y="-266.05" font-family="Times,serif" font-size="14.00">{r1, r2, r4}</text>
</g>
<!-- 0&#45;&gt;1 -->
<g id="edge9" class="edge">
<title>0&#45;&gt;1</title>
<path fill="none" stroke="black" d="M2843.35,-311.98C2714.17,-310.58 2166.12,-303.13 2141.45,-277.25 2134.82,-270.3 2136.36,-260.59 2140.47,-251.58"/>
<polygon fill="black" stroke="black" points="2143.67,-253.04 2145.44,-242.59 2137.54,-249.65 2143.67,-253.04"/>
<text text-anchor="middle" x="2163.45" y="-266.05" font-family="Times,serif" font-size="14.00">{r1, r2}</text>
</g>
<!-- 0&#45;&gt;1 -->
<g id="edge10" class="edge">
<title>0&#45;&gt;1</title>
<path fill="none" stroke="black" d="M2843.21,-311.94C2725.92,-310.46 2267.19,-303.07 2208.45,-277.25 2195.37,-271.5 2183.74,-260.8 2174.89,-250.77"/>
<polygon fill="black" stroke="black" points="2177.5,-248.44 2168.42,-242.98 2172.12,-252.91 2177.5,-248.44"/>
<text text-anchor="middle" x="2249.45" y="-266.05" font-family="Times,serif" font-size="14.00">{r1, r2, r3, r4}</text>
</g>
<!-- 0&#45;&gt;1 -->
<g id="edge11" class="edge">
<title>0&#45;&gt;1</title>
<path fill="none" stroke="black" d="M2843.23,-312.36C2745.59,-312.49 2413.46,-310.43 2313.45,-277.25 2301.86,-273.41 2301.6,-267.2 2290.45,-262.25 2259,-248.3 2220.82,-238.96 2193.45,-233.47"/>
<polygon fill="black" stroke="black" points="2194,-230.01 2183.52,-231.55 2192.67,-236.88 2194,-230.01"/>
<text text-anchor="middle" x="2354.45" y="-266.05" font-family="Times,serif" font-size="14.00">{r0, r1, r2, r3}</text>
</g>
<!-- 0&#45;&gt;1 -->
<g id="edge12" class="edge">
<title>0&#45;&gt;1</title>
<path fill="none" stroke="black" d="M2843.49,-311.91C2758.63,-310.55 2497.91,-304.25 2418.45,-277.25 2406.89,-273.32 2406.86,-266.57 2395.45,-262.25 2327.73,-236.61 2242.56,-229.64 2194.65,-227.82"/>
<polygon fill="black" stroke="black" points="2194.55,-224.32 2184.44,-227.49 2194.32,-231.31 2194.55,-224.32"/>
<text text-anchor="middle" x="2430.95" y="-266.05" font-family="Times,serif" font-size="14.00">{r2}</text>
</g>
<!-- 0&#45;&gt;1 -->
<g id="edge13" class="edge">
<title>0&#45;&gt;1</title>
<path fill="none" stroke="black" d="M2843.34,-311.62C2764.5,-309.5 2536.5,-301.41 2466.45,-277.25 2454.91,-273.27 2454.91,-266.43 2443.45,-262.25 2358.46,-231.24 2250.82,-226.58 2194.95,-226.51"/>
<polygon fill="black" stroke="black" points="2194.8,-223.01 2184.81,-226.55 2194.82,-230.01 2194.8,-223.01"/>
<text text-anchor="middle" x="2516.45" y="-266.05" font-family="Times,serif" font-size="14.00">{r0, r1, r2, r3, r4}</text>
</g>
<!-- 0&#45;&gt;1 -->
<g id="edge14" class="edge">
<title>0&#45;&gt;1</title>
<path fill="none" stroke="black" d="M2843.16,-312.86C2791.83,-313.16 2678.09,-309.7 2589.45,-277.25 2577.99,-273.05 2577.99,-266.22 2566.45,-262.25 2498.22,-238.75 2281.98,-230.53 2194.61,-228.12"/>
<polygon fill="black" stroke="black" points="2194.7,-224.62 2184.61,-227.85 2194.51,-231.62 2194.7,-224.62"/>
<text text-anchor="middle" x="2611.45" y="-266.05" font-family="Times,serif" font-size="14.00">{r0, r2}</text>
</g>
<!-- 0&#45;&gt;1 -->
<g id="edge16" class="edge">
<title>0&#45;&gt;1</title>
<path fill="none" stroke="black" d="M2843.5,-311.39C2801.99,-309.3 2720.5,-302.09 2656.45,-277.25 2645.07,-272.84 2645.01,-266.15 2633.45,-262.25 2552.39,-234.88 2292.36,-228.89 2194.85,-227.6"/>
<polygon fill="black" stroke="black" points="2194.63,-224.1 2184.59,-227.47 2194.54,-231.1 2194.63,-224.1"/>
<text text-anchor="middle" x="2687.95" y="-266.05" font-family="Times,serif" font-size="14.00">{r2, r3, r4}</text>
</g>
<!-- 0&#45;&gt;1 -->
<g id="edge17" class="edge">
<title>0&#45;&gt;1</title>
<path fill="none" stroke="black" d="M2844.63,-307.65C2818.18,-302.38 2776.28,-292.46 2742.45,-277.25 2731.32,-272.25 2731.03,-266.09 2719.45,-262.25 2621.67,-229.84 2304.05,-227.07 2194.78,-227.11"/>
<polygon fill="black" stroke="black" points="2194.57,-223.61 2184.57,-227.12 2194.58,-230.61 2194.57,-223.61"/>
<text text-anchor="middle" x="2773.95" y="-266.05" font-family="Times,serif" font-size="14.00">{r0, r1, r2}</text>
</g>
<!-- 0&#45;&gt;1 -->
<g id="edge18" class="edge">
<title>0&#45;&gt;1</title>
<path fill="none" stroke="black" d="M2854.05,-298.82C2836.67,-284.72 2810.99,-264.3 2805.45,-262.25 2748.23,-241.05 2323.72,-230.66 2194.6,-227.97"/>
<polygon fill="black" stroke="black" points="2194.5,-224.47 2184.43,-227.76 2194.35,-231.47 2194.5,-224.47"/>
<text text-anchor="middle" x="2857.95" y="-266.05" font-family="Times,serif" font-size="14.00">{r0, r2, r3}</text>
</g>
<!-- 0&#45;&gt;1 -->
<g id="edge19" class="edge">
<title>0&#45;&gt;1</title>
<path fill="none" stroke="black" d="M2884.36,-297.55C2892.99,-286.66 2900.8,-272.06 2891.45,-262.25 2867.21,-236.83 2341.42,-229.24 2195,-227.62"/>
<polygon fill="black" stroke="black" points="2194.77,-224.12 2184.73,-227.51 2194.69,-231.12 2194.77,-224.12"/>
<text text-anchor="middle" x="2917.45" y="-266.05" font-family="Times,serif" font-size="14.00">{r2, r4}</text>
</g>
<!-- 0&#45;&gt;1 -->
<g id="edge20" class="edge">
<title>0&#45;&gt;1</title>
<path fill="none" stroke="black" d="M2895.25,-305.65C2922.93,-297.16 2961.6,-281.23 2943.45,-262.25 2917.31,-234.93 2348.31,-228.68 2195.14,-227.5"/>
<polygon fill="black" stroke="black" points="2194.86,-223.99 2184.84,-227.42 2194.81,-230.99 2194.86,-223.99"/>
<text text-anchor="middle" x="2988.45" y="-266.05" font-family="Times,serif" font-size="14.00">{r0, r2, r3, r4}</text>
</g>
<!-- 2 -->
<g id="node4" class="node">
<title>2</title>
<ellipse fill="none" stroke="black" cx="2787.45" cy="-48.25" rx="27" ry="18"/>
<text text-anchor="middle" x="2787.45" y="-44.55" font-family="Times,serif" font-size="14.00">2</text>
</g>
<!-- 0&#45;&gt;2 -->
<g id="edge22" class="edge">
<title>0&#45;&gt;2</title>
<path fill="none" stroke="black" d="M2897.22,-310.47C2938.99,-307.08 3016.62,-298.07 3033.45,-277.25 3036.77,-273.14 3046.14,-156.23 3017.45,-121.25 2970.04,-63.44 2876.75,-51.25 2824.74,-49.17"/>
<polygon fill="black" stroke="black" points="2824.7,-45.66 2814.6,-48.87 2824.49,-52.66 2824.7,-45.66"/>
<text text-anchor="middle" x="3057.45" y="-179.05" font-family="Times,serif" font-size="14.00">{r1, r3}</text>
</g>
<!-- 0&#45;&gt;2 -->
<g id="edge23" class="edge">
<title>0&#45;&gt;2</title>
<path fill="none" stroke="black" d="M2897.39,-310.16C2941.39,-306.23 3026.04,-296.36 3048.45,-277.25 3084.6,-246.42 3095.87,-220.19 3080.45,-175.25 3063.59,-126.13 3048.97,-111.34 3002.45,-88.25 2944.72,-59.6 2868.93,-51.8 2824.47,-49.79"/>
<polygon fill="black" stroke="black" points="2824.53,-46.29 2814.41,-49.42 2824.27,-53.29 2824.53,-46.29"/>
<text text-anchor="middle" x="3096.95" y="-179.05" font-family="Times,serif" font-size="14.00">{r0}</text>
</g>
<!-- 0&#45;&gt;2 -->
<g id="edge24" class="edge">
<title>0&#45;&gt;2</title>
<path fill="none" stroke="black" d="M2897.2,-309.86C2944.5,-305.27 3040.61,-294.13 3069.45,-277.25 3112.06,-252.31 3128.05,-222.41 3113.45,-175.25 3097.55,-123.91 3079.24,-108.48 3029.45,-88.25 2960.76,-60.34 2873.49,-52.35 2824.73,-50.1"/>
<polygon fill="black" stroke="black" points="2824.78,-46.6 2814.64,-49.69 2824.49,-53.6 2824.78,-46.6"/>
<text text-anchor="middle" x="3147.95" y="-179.05" font-family="Times,serif" font-size="14.00">{r0, r3, r4}</text>
</g>
<!-- 0&#45;&gt;2 -->
<g id="edge25" class="edge">
<title>0&#45;&gt;2</title>
<path fill="none" stroke="black" d="M2897.6,-311.53C2983.6,-308.12 3240.96,-288.41 3183.45,-175.25 3152.78,-114.91 3121.83,-112.01 3058.45,-88.25 2978.75,-58.38 2877.96,-51.21 2824.57,-49.61"/>
<polygon fill="black" stroke="black" points="2824.63,-46.11 2814.55,-49.35 2824.46,-53.1 2824.63,-46.11"/>
<text text-anchor="middle" x="3229.45" y="-179.05" font-family="Times,serif" font-size="14.00">{r0, r1, r3, r4}</text>
</g>
<!-- 0&#45;&gt;2 -->
<g id="edge26" class="edge">
<title>0&#45;&gt;2</title>
<path fill="none" stroke="black" d="M2897.64,-312.75C2948.23,-312.83 3059.57,-308.99 3146.45,-277.25 3171.81,-267.99 3175.06,-259.34 3197.45,-244.25 3235.56,-218.57 3298.38,-214.48 3274.45,-175.25 3247.11,-130.45 3216.93,-143.6 3169.45,-121.25 3135.76,-105.39 3128.37,-98.04 3092.45,-88.25 2998.14,-62.55 2882.71,-53.66 2824.62,-50.68"/>
<polygon fill="black" stroke="black" points="2824.61,-47.18 2814.45,-50.19 2824.27,-54.17 2824.61,-47.18"/>
<text text-anchor="middle" x="3310.95" y="-179.05" font-family="Times,serif" font-size="14.00">{r1, r3, r4}</text>
</g>
<!-- 0&#45;&gt;2 -->
<g id="edge27" class="edge">
<title>0&#45;&gt;2</title>
<path fill="none" stroke="black" d="M2897.73,-311.9C2951.48,-310.61 3074.43,-304.63 3173.45,-277.25 3207.77,-267.76 3214.54,-260.05 3246.45,-244.25 3294.84,-220.28 3375.62,-220.69 3346.45,-175.25 3289.18,-86.06 2939.92,-58.05 2824.46,-51.16"/>
<polygon fill="black" stroke="black" points="2824.53,-47.66 2814.35,-50.58 2824.13,-54.65 2824.53,-47.66"/>
<text text-anchor="middle" x="3374.45" y="-179.05" font-family="Times,serif" font-size="14.00">{r0, r4}</text>
</g>
<!-- 0&#45;&gt;2 -->
<g id="edge28" class="edge">
<title>0&#45;&gt;2</title>
<path fill="none" stroke="black" d="M2897.5,-312.91C2968.34,-313.63 3163.82,-309.15 3308.45,-244.25 3355.08,-223.32 3425.52,-219.79 3400.45,-175.25 3343.09,-73.36 2948.89,-53.73 2824.78,-50.07"/>
<polygon fill="black" stroke="black" points="2824.72,-46.56 2814.63,-49.78 2824.53,-53.56 2824.72,-46.56"/>
<text text-anchor="middle" x="3427.45" y="-179.05" font-family="Times,serif" font-size="14.00">{r0, r3}</text>
</g>
<!-- 0&#45;&gt;2 -->
<g id="edge29" class="edge">
<title>0&#45;&gt;2</title>
<path fill="none" stroke="black" d="M2897.68,-311.19C3019.81,-305.83 3508.75,-277.88 3453.45,-175.25 3392.91,-62.9 2956.85,-50.48 2825.07,-49.31"/>
<polygon fill="black" stroke="black" points="2824.72,-45.8 2814.69,-49.23 2824.67,-52.8 2824.72,-45.8"/>
<text text-anchor="middle" x="3488.95" y="-179.05" font-family="Times,serif" font-size="14.00">{r0, r1, r3}</text>
</g>
<!-- 0&#45;&gt;2 -->
<g id="edge30" class="edge">
<title>0&#45;&gt;2</title>
<path fill="none" stroke="black" d="M2897.63,-311.69C3029.3,-308.42 3591.91,-287.81 3524.45,-175.25 3451.45,-53.44 2964.86,-47.81 2824.99,-48.74"/>
<polygon fill="black" stroke="black" points="2824.75,-45.24 2814.78,-48.83 2824.8,-52.24 2824.75,-45.24"/>
<text text-anchor="middle" x="3551.45" y="-179.05" font-family="Times,serif" font-size="14.00">{r0, r1}</text>
</g>
<!-- 0&#45;&gt;2 -->
<g id="edge31" class="edge">
<title>0&#45;&gt;2</title>
<path fill="none" stroke="black" d="M2897.75,-312.19C3035.47,-311.3 3644.83,-300.31 3577.45,-175.25 3533.2,-93.13 3478.23,-104.9 3386.45,-88.25 3176.64,-50.18 2919.55,-48.05 2824.8,-48.73"/>
<polygon fill="black" stroke="black" points="2824.55,-45.23 2814.58,-48.82 2824.61,-52.23 2824.55,-45.23"/>
<text text-anchor="middle" x="3593.95" y="-179.05" font-family="Times,serif" font-size="14.00">{r1}</text>
</g>
<!-- 0&#45;&gt;2 -->
<g id="edge32" class="edge">
<title>0&#45;&gt;2</title>
<path fill="none" stroke="black" d="M2897.71,-312.72C2981.41,-313.73 3241.82,-313.51 3453.45,-277.25 3535.46,-263.2 3640.02,-253.03 3610.45,-175.25 3581.4,-98.86 3528.99,-102.1 3448.45,-88.25 3327.06,-67.37 2945.76,-54.12 2824.72,-50.36"/>
<polygon fill="black" stroke="black" points="2824.58,-46.85 2814.48,-50.04 2824.37,-53.85 2824.58,-46.85"/>
<text text-anchor="middle" x="3644.95" y="-179.05" font-family="Times,serif" font-size="14.00">{r0, r1, r4}</text>
</g>
<!-- 0&#45;&gt;2 -->
<g id="edge33" class="edge">
<title>0&#45;&gt;2</title>
<path fill="none" stroke="black" d="M2897.58,-311.64C3003.28,-309.13 3387.52,-298.7 3507.45,-277.25 3595.31,-261.53 3722.34,-254.07 3680.45,-175.25 3639.5,-98.2 3590.09,-104.96 3504.45,-88.25 3372.2,-62.44 2952.04,-52.41 2824.51,-49.91"/>
<polygon fill="black" stroke="black" points="2824.52,-46.41 2814.46,-49.72 2824.39,-53.41 2824.52,-46.41"/>
<text text-anchor="middle" x="3707.45" y="-179.05" font-family="Times,serif" font-size="14.00">{r1, r4}</text>
</g>
<!-- 1&#45;&gt;1 -->
<g id="edge40" class="edge">
<title>1&#45;&gt;1</title>
<path fill="none" stroke="black" d="M2184.69,-228.22C2194.47,-228.26 2202.45,-227.6 2202.45,-226.25 2202.45,-225.42 2199.49,-224.86 2194.96,-224.55"/>
<polygon fill="black" stroke="black" points="2194.78,-221.05 2184.69,-224.28 2194.59,-228.04 2194.78,-221.05"/>
<text text-anchor="middle" x="2214.95" y="-222.55" font-family="Times,serif" font-size="14.00">{r4}</text>
</g>
<!-- 1&#45;&gt;1 -->
<g id="edge45" class="edge">
<title>1&#45;&gt;1</title>
<path fill="none" stroke="black" d="M2184.08,-229.7C2205.07,-230.95 2227.45,-229.8 2227.45,-226.25 2227.45,-223.28 2211.81,-221.99 2194.42,-222.38"/>
<polygon fill="black" stroke="black" points="2193.93,-218.9 2184.08,-222.8 2194.21,-225.89 2193.93,-218.9"/>
<text text-anchor="middle" x="2249.45" y="-222.55" font-family="Times,serif" font-size="14.00">{r3, r4}</text>
</g>
<!-- 1&#45;&gt;1 -->
<g id="edge49" class="edge">
<title>1&#45;&gt;1</title>
<path fill="none" stroke="black" d="M2183.88,-230.44C2219.93,-233.71 2271.45,-232.31 2271.45,-226.25 2271.45,-220.73 2228.77,-219.08 2193.92,-221.29"/>
<polygon fill="black" stroke="black" points="2193.58,-217.81 2183.88,-222.06 2194.11,-224.79 2193.58,-217.81"/>
<text text-anchor="middle" x="2278.45" y="-222.55" font-family="Times,serif" font-size="14.00">{}</text>
</g>
<!-- 1&#45;&gt;1 -->
<g id="edge53" class="edge">
<title>1&#45;&gt;1</title>
<path fill="none" stroke="black" d="M2183.42,-231.24C2225.65,-236.34 2289.45,-234.68 2289.45,-226.25 2289.45,-218.46 2235,-216.45 2193.41,-220.21"/>
<polygon fill="black" stroke="black" points="2193,-216.74 2183.42,-221.26 2193.73,-223.7 2193,-216.74"/>
<text text-anchor="middle" x="2301.95" y="-222.55" font-family="Times,serif" font-size="14.00">{r3}</text>
</g>
<!-- 1&#45;&gt;2 -->
<g id="edge54" class="edge">
<title>1&#45;&gt;2</title>
<path fill="none" stroke="black" d="M2164.1,-208.35C2167.05,-197.83 2168.48,-184.57 2161.45,-175.25 2143.91,-152 2115.98,-180.5 2098.45,-157.25 2088.81,-144.48 2087.9,-133.28 2098.45,-121.25 2118.7,-98.17 2206.22,-112.65 2235.45,-103.25 2248.89,-98.93 2249.82,-91.94 2263.45,-88.25 2368.2,-59.9 2647.23,-100.5 2751.45,-70.25 2754.48,-69.37 2757.52,-68.18 2760.48,-66.81"/>
<polygon fill="black" stroke="black" points="2762.36,-69.78 2769.56,-62 2759.08,-63.59 2762.36,-69.78"/>
<text text-anchor="middle" x="2120.45" y="-135.55" font-family="Times,serif" font-size="14.00">{r0, r2}</text>
</g>
<!-- 1&#45;&gt;2 -->
<g id="edge55" class="edge">
<title>1&#45;&gt;2</title>
<path fill="none" stroke="black" d="M2168.62,-209.62C2172.15,-203.82 2175.6,-197 2177.45,-190.25 2185.53,-160.66 2159.05,-145.01 2178.45,-121.25 2202.04,-92.34 2225.45,-116.18 2260.45,-103.25 2273.69,-98.36 2274.82,-91.95 2288.45,-88.25 2387.81,-61.25 2652.59,-99.05 2751.45,-70.25 2754.48,-69.37 2757.52,-68.18 2760.48,-66.81"/>
<polygon fill="black" stroke="black" points="2762.36,-69.77 2769.55,-61.99 2759.08,-63.59 2762.36,-69.77"/>
<text text-anchor="middle" x="2190.95" y="-135.55" font-family="Times,serif" font-size="14.00">{r0}</text>
</g>
<!-- 1&#45;&gt;2 -->
<g id="edge56" class="edge">
<title>1&#45;&gt;2</title>
<path fill="none" stroke="black" d="M2172.23,-211.1C2178.41,-204.91 2185.52,-197.44 2191.45,-190.25 2215.21,-161.42 2210.12,-144.39 2239.45,-121.25 2256.68,-107.65 2265.51,-112.45 2285.45,-103.25 2298.27,-97.33 2299.83,-91.97 2313.45,-88.25 2407.43,-62.6 2657.95,-97.6 2751.45,-70.25 2754.48,-69.36 2757.52,-68.17 2760.48,-66.8"/>
<polygon fill="black" stroke="black" points="2762.36,-69.76 2769.55,-61.98 2759.08,-63.58 2762.36,-69.76"/>
<text text-anchor="middle" x="2270.95" y="-135.55" font-family="Times,serif" font-size="14.00">{r0, r3, r4}</text>
</g>
<!-- 1&#45;&gt;2 -->
<g id="edge57" class="edge">
<title>1&#45;&gt;2</title>
<path fill="none" stroke="black" d="M2180.87,-217.15C2210.7,-206.22 2263.08,-184.88 2302.45,-157.25 2320.97,-144.25 2319.9,-134.22 2338.45,-121.25 2490.02,-15.26 2574.24,-123.19 2751.45,-70.25 2754.47,-69.35 2757.51,-68.14 2760.47,-66.77"/>
<polygon fill="black" stroke="black" points="2762.36,-69.72 2769.54,-61.94 2759.07,-63.55 2762.36,-69.72"/>
<text text-anchor="middle" x="2369.95" y="-135.55" font-family="Times,serif" font-size="14.00">{r0, r2, r4}</text>
</g>
<!-- 1&#45;&gt;2 -->
<g id="edge58" class="edge">
<title>1&#45;&gt;2</title>
<path fill="none" stroke="black" d="M2184.09,-222.33C2230.89,-216.25 2329.68,-199.17 2401.45,-157.25 2420.99,-145.84 2418.9,-134.22 2437.45,-121.25 2465.96,-101.31 2474.77,-97.01 2508.45,-88.25 2613.26,-60.98 2648.02,-102.36 2751.45,-70.25 2754.46,-69.31 2757.49,-68.09 2760.45,-66.7"/>
<polygon fill="black" stroke="black" points="2762.34,-69.65 2769.51,-61.85 2759.04,-63.48 2762.34,-69.65"/>
<text text-anchor="middle" x="2468.95" y="-135.55" font-family="Times,serif" font-size="14.00">{r2, r3, r4}</text>
</g>
<!-- 1&#45;&gt;2 -->
<g id="edge59" class="edge">
<title>1&#45;&gt;2</title>
<path fill="none" stroke="black" d="M2183.69,-221.2C2222.31,-215.14 2296.67,-203.02 2359.45,-190.25 2422.52,-177.42 2444.2,-188.54 2500.45,-157.25 2538.35,-136.17 2530.25,-106.8 2569.45,-88.25 2642.92,-53.48 2674.12,-95.3 2751.45,-70.25 2754.45,-69.28 2757.47,-68.03 2760.42,-66.62"/>
<polygon fill="black" stroke="black" points="2762.33,-69.57 2769.48,-61.76 2759.02,-63.4 2762.33,-69.57"/>
<text text-anchor="middle" x="2546.95" y="-135.55" font-family="Times,serif" font-size="14.00">{r2}</text>
</g>
<!-- 1&#45;&gt;2 -->
<g id="edge60" class="edge">
<title>1&#45;&gt;2</title>
<path fill="none" stroke="black" d="M2184.15,-223.1C2263.41,-216.36 2495.85,-193.87 2561.45,-157.25 2581.2,-146.22 2579.79,-135.4 2597.45,-121.25 2618.81,-104.14 2623.93,-98.15 2649.45,-88.25 2692.37,-71.6 2708.23,-86.09 2751.45,-70.25 2754.34,-69.19 2757.27,-67.9 2760.14,-66.48"/>
<polygon fill="black" stroke="black" points="2761.89,-69.52 2769.01,-61.68 2758.55,-63.37 2761.89,-69.52"/>
<text text-anchor="middle" x="2619.45" y="-135.55" font-family="Times,serif" font-size="14.00">{r0, r4}</text>
</g>
<!-- 1&#45;&gt;2 -->
<g id="edge61" class="edge">
<title>1&#45;&gt;2</title>
<path fill="none" stroke="black" d="M2184.25,-223.97C2273.79,-219.32 2561.41,-201.22 2641.45,-157.25 2661.28,-146.35 2659.89,-135.52 2677.45,-121.25 2691.77,-109.61 2731.89,-83.94 2759.51,-66.62"/>
<polygon fill="black" stroke="black" points="2761.71,-69.36 2768.33,-61.09 2758,-63.43 2761.71,-69.36"/>
<text text-anchor="middle" x="2708.95" y="-135.55" font-family="Times,serif" font-size="14.00">{r0, r2, r3}</text>
</g>
<!-- 1&#45;&gt;2 -->
<g id="edge62" class="edge">
<title>1&#45;&gt;2</title>
<path fill="none" stroke="black" d="M2184.66,-225.78C2287.82,-227.22 2653.39,-227.24 2740.45,-157.25 2765.41,-137.18 2777.42,-101.24 2782.98,-76.37"/>
<polygon fill="black" stroke="black" points="2786.44,-76.96 2784.99,-66.46 2779.57,-75.56 2786.44,-76.96"/>
<text text-anchor="middle" x="2788.45" y="-135.55" font-family="Times,serif" font-size="14.00">{r2, r4}</text>
</g>
<!-- 1&#45;&gt;2 -->
<g id="edge63" class="edge">
<title>1&#45;&gt;2</title>
<path fill="none" stroke="black" d="M2184.66,-224.72C2303.9,-222.08 2775.95,-208.47 2814.45,-157.25 2832.9,-132.7 2818.04,-97.01 2804.12,-73.48"/>
<polygon fill="black" stroke="black" points="2806.96,-71.43 2798.7,-64.8 2801.03,-75.14 2806.96,-71.43"/>
<text text-anchor="middle" x="2844.45" y="-135.55" font-family="Times,serif" font-size="14.00">{r0, r3}</text>
</g>
<!-- 1&#45;&gt;2 -->
<g id="edge64" class="edge">
<title>1&#45;&gt;2</title>
<path fill="none" stroke="black" d="M2184.44,-224.96C2309.51,-223.33 2828.49,-213.21 2870.45,-157.25 2894.82,-124.74 2849.08,-87.21 2816.36,-66.05"/>
<polygon fill="black" stroke="black" points="2817.88,-62.87 2807.55,-60.53 2814.17,-68.81 2817.88,-62.87"/>
<text text-anchor="middle" x="2898.45" y="-135.55" font-family="Times,serif" font-size="14.00">{r2, r3}</text>
</g>
<!-- 1&#45;&gt;2 -->
<g id="edge65" class="edge">
<title>1&#45;&gt;2</title>
<path fill="none" stroke="black" d="M2184.72,-225.17C2316.13,-224.46 2879.44,-217.9 2924.45,-157.25 2957.7,-112.44 2872.15,-76.2 2821.56,-59.39"/>
<polygon fill="black" stroke="black" points="2822.55,-56.03 2811.96,-56.29 2820.4,-62.7 2822.55,-56.03"/>
<text text-anchor="middle" x="2972.45" y="-135.55" font-family="Times,serif" font-size="14.00">{r0, r2, r3, r4}</text>
</g>
<!-- 3 -->
<g id="node5" class="node">
<title>3</title>
<ellipse fill="none" stroke="black" cx="1297.45" cy="-139.25" rx="27" ry="18"/>
<text text-anchor="middle" x="1297.45" y="-135.55" font-family="Times,serif" font-size="14.00">3</text>
</g>
<!-- 1&#45;&gt;3 -->
<g id="edge34" class="edge">
<title>1&#45;&gt;3</title>
<path fill="none" stroke="black" d="M2130.43,-225.07C1942.19,-223.73 833.37,-214.8 809.45,-190.25 804.8,-185.47 804.91,-180.13 809.45,-175.25 839.97,-142.46 1151.62,-139.94 1260.3,-140.07"/>
<polygon fill="black" stroke="black" points="1260.46,-143.57 1270.47,-140.09 1260.47,-136.57 1260.46,-143.57"/>
<text text-anchor="middle" x="831.45" y="-179.05" font-family="Times,serif" font-size="14.00">{r1, r2}</text>
</g>
<!-- 1&#45;&gt;3 -->
<g id="edge35" class="edge">
<title>1&#45;&gt;3</title>
<path fill="none" stroke="black" d="M2130.32,-225.03C1947.27,-223.47 899.1,-213.53 876.45,-190.25 871.8,-185.47 871.93,-180.15 876.45,-175.25 902.18,-147.29 1162.05,-141.66 1260.19,-140.53"/>
<polygon fill="black" stroke="black" points="1260.29,-144.03 1270.26,-140.43 1260.22,-137.03 1260.29,-144.03"/>
<text text-anchor="middle" x="907.95" y="-179.05" font-family="Times,serif" font-size="14.00">{r1, r3, r4}</text>
</g>
<!-- 1&#45;&gt;3 -->
<g id="edge36" class="edge">
<title>1&#45;&gt;3</title>
<path fill="none" stroke="black" d="M2130.47,-224.97C1955.11,-223.13 983.49,-211.92 962.45,-190.25 920.1,-146.64 1164.65,-140.86 1260.32,-140.25"/>
<polygon fill="black" stroke="black" points="1260.44,-143.75 1270.43,-140.2 1260.41,-136.75 1260.44,-143.75"/>
<text text-anchor="middle" x="1003.45" y="-179.05" font-family="Times,serif" font-size="14.00">{r0, r1, r2, r3}</text>
</g>
<!-- 1&#45;&gt;3 -->
<g id="edge37" class="edge">
<title>1&#45;&gt;3</title>
<path fill="none" stroke="black" d="M2130.46,-225.43C1966.09,-226.4 1105.56,-229.61 1067.45,-190.25 1062.81,-185.46 1063.1,-180.31 1067.45,-175.25 1091.8,-146.92 1201.05,-141.25 1259.79,-140.29"/>
<polygon fill="black" stroke="black" points="1260.19,-143.79 1270.14,-140.17 1260.1,-136.79 1260.19,-143.79"/>
<text text-anchor="middle" x="1079.95" y="-179.05" font-family="Times,serif" font-size="14.00">{r1}</text>
</g>
<!-- 1&#45;&gt;3 -->
<g id="edge38" class="edge">
<title>1&#45;&gt;3</title>
<path fill="none" stroke="black" d="M2130.36,-225.39C1970.08,-226.09 1151.76,-227.8 1115.45,-190.25 1071.86,-145.18 1195.11,-139.55 1260.15,-139.58"/>
<polygon fill="black" stroke="black" points="1260.41,-143.08 1270.43,-139.63 1260.45,-136.08 1260.41,-143.08"/>
<text text-anchor="middle" x="1165.45" y="-179.05" font-family="Times,serif" font-size="14.00">{r0, r1, r2, r3, r4}</text>
</g>
<!-- 1&#45;&gt;3 -->
<g id="edge39" class="edge">
<title>1&#45;&gt;3</title>
<path fill="none" stroke="black" d="M2130.48,-225.26C1982.06,-225.21 1270.18,-223.21 1238.45,-190.25 1225.21,-176.49 1244.89,-162.59 1265,-152.95"/>
<polygon fill="black" stroke="black" points="1266.46,-156.13 1274.15,-148.83 1263.59,-149.74 1266.46,-156.13"/>
<text text-anchor="middle" x="1260.45" y="-179.05" font-family="Times,serif" font-size="14.00">{r1, r4}</text>
</g>
<!-- 1&#45;&gt;3 -->
<g id="edge41" class="edge">
<title>1&#45;&gt;3</title>
<path fill="none" stroke="black" d="M2130.23,-225.09C1988.16,-224.14 1336.98,-218.28 1305.45,-190.25 1299,-184.52 1296.32,-175.84 1295.47,-167.31"/>
<polygon fill="black" stroke="black" points="1298.96,-167.09 1295.2,-157.19 1291.97,-167.28 1298.96,-167.09"/>
<text text-anchor="middle" x="1336.95" y="-179.05" font-family="Times,serif" font-size="14.00">{r1, r2, r3}</text>
</g>
<!-- 1&#45;&gt;3 -->
<g id="edge42" class="edge">
<title>1&#45;&gt;3</title>
<path fill="none" stroke="black" d="M2130.46,-224.86C2002.82,-222.89 1462.88,-213.27 1391.45,-190.25 1379.83,-186.51 1379.05,-181.29 1368.45,-175.25 1355.6,-167.93 1341.02,-160.58 1328.42,-154.52"/>
<polygon fill="black" stroke="black" points="1329.77,-151.29 1319.24,-150.16 1326.77,-157.61 1329.77,-151.29"/>
<text text-anchor="middle" x="1422.95" y="-179.05" font-family="Times,serif" font-size="14.00">{r1, r2, r4}</text>
</g>
<!-- 1&#45;&gt;3 -->
<g id="edge43" class="edge">
<title>1&#45;&gt;3</title>
<path fill="none" stroke="black" d="M2130.39,-224.69C2011.7,-222.12 1540.26,-210.69 1477.45,-190.25 1465.84,-186.47 1465.7,-179.99 1454.45,-175.25 1414.97,-158.62 1366.43,-149.35 1333.87,-144.6"/>
<polygon fill="black" stroke="black" points="1334.27,-141.12 1323.89,-143.21 1333.31,-148.05 1334.27,-141.12"/>
<text text-anchor="middle" x="1518.45" y="-179.05" font-family="Times,serif" font-size="14.00">{r1, r2, r3, r4}</text>
</g>
<!-- 1&#45;&gt;3 -->
<g id="edge44" class="edge">
<title>1&#45;&gt;3</title>
<path fill="none" stroke="black" d="M2130.39,-225.43C2030.93,-225.79 1686.07,-224.51 1582.45,-190.25 1570.86,-186.42 1570.89,-179.5 1559.45,-175.25 1483.17,-146.94 1386.89,-141.06 1334.89,-140.11"/>
<polygon fill="black" stroke="black" points="1334.84,-136.61 1324.8,-139.98 1334.75,-143.61 1334.84,-136.61"/>
<text text-anchor="middle" x="1613.95" y="-179.05" font-family="Times,serif" font-size="14.00">{r0, r1, r2}</text>
</g>
<!-- 1&#45;&gt;3 -->
<g id="edge46" class="edge">
<title>1&#45;&gt;3</title>
<path fill="none" stroke="black" d="M2130.2,-225.09C2040.47,-224.27 1755.06,-219.4 1668.45,-190.25 1656.88,-186.36 1656.96,-179.31 1645.45,-175.25 1588.84,-155.29 1412.12,-145.28 1334.56,-141.76"/>
<polygon fill="black" stroke="black" points="1334.45,-138.25 1324.3,-141.31 1334.14,-145.25 1334.45,-138.25"/>
<text text-anchor="middle" x="1699.95" y="-179.05" font-family="Times,serif" font-size="14.00">{r0, r1, r3}</text>
</g>
<!-- 1&#45;&gt;3 -->
<g id="edge47" class="edge">
<title>1&#45;&gt;3</title>
<path fill="none" stroke="black" d="M2130.4,-224.61C2051.76,-222.48 1824.32,-214.36 1754.45,-190.25 1742.91,-186.27 1743,-179.19 1731.45,-175.25 1658.42,-150.3 1425.83,-142.89 1334.64,-140.9"/>
<polygon fill="black" stroke="black" points="1334.56,-137.4 1324.49,-140.69 1334.42,-144.4 1334.56,-137.4"/>
<text text-anchor="middle" x="1785.95" y="-179.05" font-family="Times,serif" font-size="14.00">{r0, r1, r4}</text>
</g>
<!-- 1&#45;&gt;3 -->
<g id="edge48" class="edge">
<title>1&#45;&gt;3</title>
<path fill="none" stroke="black" d="M2130.59,-223.89C2064.18,-220.26 1893.75,-209.34 1840.45,-190.25 1828.96,-186.13 1829.02,-179.12 1817.45,-175.25 1727.83,-145.3 1438.32,-140.92 1334.74,-140.33"/>
<polygon fill="black" stroke="black" points="1334.47,-136.82 1324.45,-140.28 1334.44,-143.82 1334.47,-136.82"/>
<text text-anchor="middle" x="1881.45" y="-179.05" font-family="Times,serif" font-size="14.00">{r0, r1, r3, r4}</text>
</g>
<!-- 1&#45;&gt;3 -->
<g id="edge50" class="edge">
<title>1&#45;&gt;3</title>
<path fill="none" stroke="black" d="M2130.41,-224.33C2089.18,-222.16 2008.73,-214.85 1945.45,-190.25 1934.07,-185.83 1934.04,-179.05 1922.45,-175.25 1812.42,-139.16 1452.5,-138.9 1334.95,-139.83"/>
<polygon fill="black" stroke="black" points="1334.64,-136.33 1324.67,-139.92 1334.7,-143.33 1334.64,-136.33"/>
<text text-anchor="middle" x="1967.45" y="-179.05" font-family="Times,serif" font-size="14.00">{r1, r3}</text>
</g>
<!-- 1&#45;&gt;3 -->
<g id="edge51" class="edge">
<title>1&#45;&gt;3</title>
<path fill="none" stroke="black" d="M2131.19,-221.67C2101.47,-217 2052.04,-207.33 2012.45,-190.25 2001.24,-185.41 2001.05,-179.02 1989.45,-175.25 1927.14,-155 1469.76,-143.87 1334.82,-141"/>
<polygon fill="black" stroke="black" points="1334.65,-137.5 1324.58,-140.79 1334.5,-144.49 1334.65,-137.5"/>
<text text-anchor="middle" x="2034.45" y="-179.05" font-family="Times,serif" font-size="14.00">{r0, r1}</text>
</g>
<!-- 1&#45;&gt;3 -->
<g id="edge52" class="edge">
<title>1&#45;&gt;3</title>
<path fill="none" stroke="black" d="M2134.81,-216.2C2118.99,-209.61 2097.55,-200.14 2079.45,-190.25 2068.74,-184.4 2068.06,-179 2056.45,-175.25 1987.48,-153 1477.64,-143.16 1334.64,-140.82"/>
<polygon fill="black" stroke="black" points="1334.67,-137.32 1324.61,-140.66 1334.55,-144.32 1334.67,-137.32"/>
<text text-anchor="middle" x="2120.45" y="-179.05" font-family="Times,serif" font-size="14.00">{r0, r1, r2, r4}</text>
</g>
<!-- 2&#45;&gt;2 -->
<g id="edge130" class="edge">
<title>2&#45;&gt;2</title>
<path fill="none" stroke="black" d="M2814.69,-49.75C2824.47,-49.78 2832.45,-49.28 2832.45,-48.25 2832.45,-47.62 2829.49,-47.19 2824.96,-46.96"/>
<polygon fill="black" stroke="black" points="2824.76,-43.45 2814.69,-46.75 2824.62,-50.45 2824.76,-43.45"/>
<text text-anchor="middle" x="2863.95" y="-44.55" font-family="Times,serif" font-size="14.00">{r0, r1, r2}</text>
</g>
<!-- 2&#45;&gt;2 -->
<g id="edge131" class="edge">
<title>2&#45;&gt;2</title>
<path fill="none" stroke="black" d="M2814.23,-50.55C2847.52,-51.98 2895.45,-51.22 2895.45,-48.25 2895.45,-45.57 2856.43,-44.69 2824.34,-45.6"/>
<polygon fill="black" stroke="black" points="2824.1,-42.1 2814.23,-45.95 2824.35,-49.1 2824.1,-42.1"/>
<text text-anchor="middle" x="2917.45" y="-44.55" font-family="Times,serif" font-size="14.00">{r0, r2}</text>
</g>
<!-- 2&#45;&gt;2 -->
<g id="edge132" class="edge">
<title>2&#45;&gt;2</title>
<path fill="none" stroke="black" d="M2814.16,-51.16C2860.07,-54 2939.45,-53.03 2939.45,-48.25 2939.45,-43.8 2870.84,-42.65 2824.3,-44.79"/>
<polygon fill="black" stroke="black" points="2823.96,-41.31 2814.16,-45.34 2824.34,-48.3 2823.96,-41.31"/>
<text text-anchor="middle" x="2961.45" y="-44.55" font-family="Times,serif" font-size="14.00">{r1, r3}</text>
</g>
<!-- 2&#45;&gt;2 -->
<g id="edge133" class="edge">
<title>2&#45;&gt;2</title>
<path fill="none" stroke="black" d="M2814.09,-51.63C2871.14,-56.02 2983.45,-54.89 2983.45,-48.25 2983.45,-41.98 2883.5,-40.63 2824.29,-44.17"/>
<polygon fill="black" stroke="black" points="2823.83,-40.7 2814.09,-44.86 2824.31,-47.68 2823.83,-40.7"/>
<text text-anchor="middle" x="2995.95" y="-44.55" font-family="Times,serif" font-size="14.00">{r0}</text>
</g>
<!-- 2&#45;&gt;2 -->
<g id="edge134" class="edge">
<title>2&#45;&gt;2</title>
<path fill="none" stroke="black" d="M2814.08,-52.12C2877.68,-58.02 3008.45,-56.73 3008.45,-48.25 3008.45,-40.2 2890.62,-38.63 2824.26,-43.53"/>
<polygon fill="black" stroke="black" points="2823.76,-40.06 2814.08,-44.38 2824.33,-47.04 2823.76,-40.06"/>
<text text-anchor="middle" x="3058.45" y="-44.55" font-family="Times,serif" font-size="14.00">{r0, r1, r2, r3, r4}</text>
</g>
<!-- 2&#45;&gt;2 -->
<g id="edge135" class="edge">
<title>2&#45;&gt;2</title>
<path fill="none" stroke="black" d="M2813.88,-52.16C2896.66,-60.06 3108.45,-58.76 3108.45,-48.25 3108.45,-38.14 2912.49,-36.55 2823.88,-43.48"/>
<polygon fill="black" stroke="black" points="2823.55,-39.99 2813.88,-44.34 2824.15,-46.97 2823.55,-39.99"/>
<text text-anchor="middle" x="3139.95" y="-44.55" font-family="Times,serif" font-size="14.00">{r1, r2, r4}</text>
</g>
<!-- 2&#45;&gt;2 -->
<g id="edge136" class="edge">
<title>2&#45;&gt;2</title>
<path fill="none" stroke="black" d="M2813.81,-52.37C2907.89,-62.08 3171.45,-60.7 3171.45,-48.25 3171.45,-36.22 2925.6,-34.53 2824.03,-43.17"/>
<polygon fill="black" stroke="black" points="2823.44,-39.71 2813.81,-44.13 2824.09,-46.68 2823.44,-39.71"/>
<text text-anchor="middle" x="3202.95" y="-44.55" font-family="Times,serif" font-size="14.00">{r0, r3, r4}</text>
</g>
<!-- 2&#45;&gt;2 -->
<g id="edge137" class="edge">
<title>2&#45;&gt;2</title>
<path fill="none" stroke="black" d="M2813.68,-52.55C2918.27,-64.09 3234.45,-62.66 3234.45,-48.25 3234.45,-34.28 2937.13,-32.51 2823.75,-42.93"/>
<polygon fill="black" stroke="black" points="2823.28,-39.46 2813.68,-43.94 2823.98,-46.43 2823.28,-39.46"/>
<text text-anchor="middle" x="3275.45" y="-44.55" font-family="Times,serif" font-size="14.00">{r0, r1, r3, r4}</text>
</g>
<!-- 2&#45;&gt;2 -->
<g id="edge138" class="edge">
<title>2&#45;&gt;2</title>
<path fill="none" stroke="black" d="M2813.93,-52.71C2931.25,-66.1 3316.45,-64.61 3316.45,-48.25 3316.45,-32.33 2952.03,-30.49 2824.15,-42.73"/>
<polygon fill="black" stroke="black" points="2823.52,-39.27 2813.93,-43.79 2824.24,-46.23 2823.52,-39.27"/>
<text text-anchor="middle" x="3347.95" y="-44.55" font-family="Times,serif" font-size="14.00">{r1, r3, r4}</text>
</g>
<!-- 2&#45;&gt;2 -->
<g id="edge139" class="edge">
<title>2&#45;&gt;2</title>
<path fill="none" stroke="black" d="M2813.86,-52.87C2940.61,-68.11 3379.45,-66.57 3379.45,-48.25 3379.45,-30.39 2962.61,-28.48 2824.11,-42.5"/>
<polygon fill="black" stroke="black" points="2823.42,-39.06 2813.86,-43.63 2824.18,-46.02 2823.42,-39.06"/>
<text text-anchor="middle" x="3410.95" y="-44.55" font-family="Times,serif" font-size="14.00">{r0, r2, r4}</text>
</g>
<!-- 2&#45;&gt;2 -->
<g id="edge140" class="edge">
<title>2&#45;&gt;2</title>
<path fill="none" stroke="black" d="M2813.76,-53C2949.53,-70.12 3442.45,-68.53 3442.45,-48.25 3442.45,-28.44 2972.37,-26.47 2823.88,-42.32"/>
<polygon fill="black" stroke="black" points="2823.29,-38.87 2813.76,-43.5 2824.09,-45.82 2823.29,-38.87"/>
<text text-anchor="middle" x="3473.95" y="-44.55" font-family="Times,serif" font-size="14.00">{r2, r3, r4}</text>
</g>
<!-- 2&#45;&gt;2 -->
<g id="edge141" class="edge">
<title>2&#45;&gt;2</title>
<path fill="none" stroke="black" d="M2813.72,-53.14C2958.34,-72.12 3505.45,-70.49 3505.45,-48.25 3505.45,-26.51 2982.64,-24.46 2824.07,-42.11"/>
<polygon fill="black" stroke="black" points="2823.23,-38.69 2813.72,-43.36 2824.07,-45.64 2823.23,-38.69"/>
<text text-anchor="middle" x="3517.95" y="-44.55" font-family="Times,serif" font-size="14.00">{r2}</text>
</g>
<!-- 2&#45;&gt;2 -->
<g id="edge142" class="edge">
<title>2&#45;&gt;2</title>
<path fill="none" stroke="black" d="M2813.81,-53.35C2963.45,-74.12 3530.45,-72.42 3530.45,-48.25 3530.45,-24.6 2987.56,-22.46 2824.03,-41.84"/>
<polygon fill="black" stroke="black" points="2823.29,-38.41 2813.81,-43.15 2824.18,-45.35 2823.29,-38.41"/>
<text text-anchor="middle" x="3552.45" y="-44.55" font-family="Times,serif" font-size="14.00">{r0, r4}</text>
</g>
<!-- 2&#45;&gt;2 -->
<g id="edge143" class="edge">
<title>2&#45;&gt;2</title>
<path fill="none" stroke="black" d="M2813.55,-53.46C2969.56,-76.13 3574.45,-74.39 3574.45,-48.25 3574.45,-22.64 2994.11,-20.45 2823.7,-41.68"/>
<polygon fill="black" stroke="black" points="2822.99,-38.24 2813.55,-43.04 2823.92,-45.18 2822.99,-38.24"/>
<text text-anchor="middle" x="3605.95" y="-44.55" font-family="Times,serif" font-size="14.00">{r0, r2, r3}</text>
</g>
<!-- 2&#45;&gt;2 -->
<g id="edge144" class="edge">
<title>2&#45;&gt;2</title>
<path fill="none" stroke="black" d="M2813.31,-53.52C2977.39,-78.13 3637.45,-76.37 3637.45,-48.25 3637.45,-20.66 3002.29,-18.44 2823.21,-41.6"/>
<polygon fill="black" stroke="black" points="2822.73,-38.13 2813.31,-42.98 2823.7,-45.07 2822.73,-38.13"/>
<text text-anchor="middle" x="3678.45" y="-44.55" font-family="Times,serif" font-size="14.00">{r0, r1, r2, r3}</text>
</g>
<!-- 2&#45;&gt;2 -->
<g id="edge145" class="edge">
<title>2&#45;&gt;2</title>
<path fill="none" stroke="black" d="M2813.3,-53.59C2987.28,-80.14 3719.45,-78.36 3719.45,-48.25 3719.45,-18.68 3013.5,-16.43 2823.27,-41.5"/>
<polygon fill="black" stroke="black" points="2822.71,-38.05 2813.3,-42.91 2823.69,-44.98 2822.71,-38.05"/>
<text text-anchor="middle" x="3750.95" y="-44.55" font-family="Times,serif" font-size="14.00">{r1, r2, r3}</text>
</g>
<!-- 2&#45;&gt;2 -->
<g id="edge146" class="edge">
<title>2&#45;&gt;2</title>
<path fill="none" stroke="black" d="M2813.45,-53.7C2995.75,-82.14 3782.45,-80.32 3782.45,-48.25 3782.45,-16.74 3023.17,-14.43 2823.61,-41.33"/>
<polygon fill="black" stroke="black" points="2822.84,-37.9 2813.45,-42.8 2823.85,-44.83 2822.84,-37.9"/>
<text text-anchor="middle" x="3804.45" y="-44.55" font-family="Times,serif" font-size="14.00">{r2, r4}</text>
</g>
<!-- 2&#45;&gt;2 -->
<g id="edge147" class="edge">
<title>2&#45;&gt;2</title>
<path fill="none" stroke="black" d="M2813.29,-53.79C3001.68,-84.14 3826.45,-82.3 3826.45,-48.25 3826.45,-14.77 3028.84,-12.43 2823.19,-41.23"/>
<polygon fill="black" stroke="black" points="2822.66,-37.77 2813.29,-42.71 2823.7,-44.69 2822.66,-37.77"/>
<text text-anchor="middle" x="3848.45" y="-44.55" font-family="Times,serif" font-size="14.00">{r0, r3}</text>
</g>
<!-- 2&#45;&gt;2 -->
<g id="edge148" class="edge">
<title>2&#45;&gt;2</title>
<path fill="none" stroke="black" d="M2813.32,-53.89C3008.14,-86.15 3870.45,-84.26 3870.45,-48.25 3870.45,-12.82 3035.71,-10.42 2823.26,-41.07"/>
<polygon fill="black" stroke="black" points="2822.67,-37.62 2813.32,-42.6 2823.74,-44.54 2822.67,-37.62"/>
<text text-anchor="middle" x="3892.45" y="-44.55" font-family="Times,serif" font-size="14.00">{r1, r2}</text>
</g>
<!-- 2&#45;&gt;2 -->
<g id="edge149" class="edge">
<title>2&#45;&gt;2</title>
<path fill="none" stroke="black" d="M2813.27,-53.98C3014.31,-88.15 3914.45,-86.24 3914.45,-48.25 3914.45,-10.85 3042.22,-8.42 2823.2,-40.94"/>
<polygon fill="black" stroke="black" points="2822.6,-37.49 2813.27,-42.52 2823.69,-44.41 2822.6,-37.49"/>
<text text-anchor="middle" x="3926.95" y="-44.55" font-family="Times,serif" font-size="14.00">{r3}</text>
</g>
<!-- 2&#45;&gt;2 -->
<g id="edge150" class="edge">
<title>2&#45;&gt;2</title>
<path fill="none" stroke="black" d="M2813.31,-54.1C3019.34,-90.15 3939.45,-88.2 3939.45,-48.25 3939.45,-8.92 3047.87,-6.42 2823.49,-40.74"/>
<polygon fill="black" stroke="black" points="2822.62,-37.33 2813.31,-42.4 2823.74,-44.24 2822.62,-37.33"/>
<text text-anchor="middle" x="3961.45" y="-44.55" font-family="Times,serif" font-size="14.00">{r3, r4}</text>
</g>
<!-- 2&#45;&gt;2 -->
<g id="edge151" class="edge">
<title>2&#45;&gt;2</title>
<path fill="none" stroke="black" d="M2813.1,-54.15C3025.04,-92.15 3983.45,-90.19 3983.45,-48.25 3983.45,-6.95 3053.83,-4.41 2823.23,-40.65"/>
<polygon fill="black" stroke="black" points="2822.38,-37.25 2813.1,-42.35 2823.54,-44.15 2822.38,-37.25"/>
<text text-anchor="middle" x="3995.95" y="-44.55" font-family="Times,serif" font-size="14.00">{r4}</text>
</g>
<!-- 2&#45;&gt;2 -->
<g id="edge152" class="edge">
<title>2&#45;&gt;2</title>
<path fill="none" stroke="black" d="M2813.02,-54.23C3029.77,-94.15 4008.45,-92.16 4008.45,-48.25 4008.45,-4.98 3058.24,-2.41 2823.03,-40.54"/>
<polygon fill="black" stroke="black" points="2822.28,-37.12 2813.02,-42.27 2823.47,-44.02 2822.28,-37.12"/>
<text text-anchor="middle" x="4039.95" y="-44.55" font-family="Times,serif" font-size="14.00">{r0, r1, r3}</text>
</g>
<!-- 2&#45;&gt;2 -->
<g id="edge153" class="edge">
<title>2&#45;&gt;2</title>
<path fill="none" stroke="black" d="M2813.11,-54.3C3037.67,-96.16 4071.45,-94.14 4071.45,-48.25 4071.45,-3.01 3066.74,-0.41 2823.13,-40.45"/>
<polygon fill="black" stroke="black" points="2822.35,-37.03 2813.11,-42.2 2823.56,-43.93 2822.35,-37.03"/>
<text text-anchor="middle" x="4093.45" y="-44.55" font-family="Times,serif" font-size="14.00">{r0, r1}</text>
</g>
<!-- 2&#45;&gt;2 -->
<g id="edge154" class="edge">
<title>2&#45;&gt;2</title>
<path fill="none" stroke="black" d="M2813.01,-54.35C3043.66,-98.16 4115.45,-96.13 4115.45,-48.25 4115.45,-1.03 3072.76,1.6 2822.94,-40.38"/>
<polygon fill="black" stroke="black" points="2822.24,-36.95 2813.01,-42.15 2823.47,-43.84 2822.24,-36.95"/>
<text text-anchor="middle" x="4127.95" y="-44.55" font-family="Times,serif" font-size="14.00">{r1}</text>
</g>
<!-- 2&#45;&gt;2 -->
<g id="edge155" class="edge">
<title>2&#45;&gt;2</title>
<path fill="none" stroke="black" d="M2813.12,-54.46C3049.01,-100.16 4140.45,-98.09 4140.45,-48.25 4140.45,0.91 3078.65,3.6 2823.27,-40.2"/>
<polygon fill="black" stroke="black" points="2822.33,-36.81 2813.12,-42.04 2823.59,-43.7 2822.33,-36.81"/>
<text text-anchor="middle" x="4162.45" y="-44.55" font-family="Times,serif" font-size="14.00">{r2, r3}</text>
</g>
<!-- 2&#45;&gt;2 -->
<g id="edge156" class="edge">
<title>2&#45;&gt;2</title>
<path fill="none" stroke="black" d="M2812.92,-54.48C3054.66,-102.16 4184.45,-100.09 4184.45,-48.25 4184.45,2.91 3084.25,5.6 2822.93,-40.16"/>
<polygon fill="black" stroke="black" points="2822.11,-36.76 2812.92,-42.02 2823.39,-43.64 2822.11,-36.76"/>
<text text-anchor="middle" x="4191.45" y="-44.55" font-family="Times,serif" font-size="14.00">{}</text>
</g>
<!-- 2&#45;&gt;2 -->
<g id="edge157" class="edge">
<title>2&#45;&gt;2</title>
<path fill="none" stroke="black" d="M2812.91,-54.56C3059.28,-104.16 4202.45,-102.06 4202.45,-48.25 4202.45,4.85 3089.22,7.6 2823.12,-40.01"/>
<polygon fill="black" stroke="black" points="2822.08,-36.64 2812.91,-41.94 2823.39,-43.52 2822.08,-36.64"/>
<text text-anchor="middle" x="4233.95" y="-44.55" font-family="Times,serif" font-size="14.00">{r0, r1, r4}</text>
</g>
<!-- 2&#45;&gt;2 -->
<g id="edge158" class="edge">
<title>2&#45;&gt;2</title>
<path fill="none" stroke="black" d="M2813.06,-54.62C3067.21,-106.17 4265.45,-104.04 4265.45,-48.25 4265.45,6.83 3097.44,9.6 2823.19,-39.94"/>
<polygon fill="black" stroke="black" points="2822.23,-36.56 2813.06,-41.87 2823.54,-43.43 2822.23,-36.56"/>
<text text-anchor="middle" x="4306.45" y="-44.55" font-family="Times,serif" font-size="14.00">{r0, r1, r2, r4}</text>
</g>
<!-- 2&#45;&gt;2 -->
<g id="edge159" class="edge">
<title>2&#45;&gt;2</title>
<path fill="none" stroke="black" d="M2812.84,-54.6C3075.02,-108.17 4347.45,-106.05 4347.45,-48.25 4347.45,8.85 3105.9,11.61 2822.89,-39.96"/>
<polygon fill="black" stroke="black" points="2822,-36.57 2812.84,-41.9 2823.32,-43.44 2822,-36.57"/>
<text text-anchor="middle" x="4388.45" y="-44.55" font-family="Times,serif" font-size="14.00">{r0, r2, r3, r4}</text>
</g>
<!-- 2&#45;&gt;2 -->
<g id="edge160" class="edge">
<title>2&#45;&gt;2</title>
<path fill="none" stroke="black" d="M2812.95,-54.64C3083.76,-110.17 4429.45,-108.04 4429.45,-48.25 4429.45,10.84 3115.12,13.61 2822.91,-39.93"/>
<polygon fill="black" stroke="black" points="2822.1,-36.52 2812.95,-41.86 2823.43,-43.39 2822.1,-36.52"/>
<text text-anchor="middle" x="4451.45" y="-44.55" font-family="Times,serif" font-size="14.00">{r1, r4}</text>
</g>
<!-- 2&#45;&gt;2 -->
<g id="edge161" class="edge">
<title>2&#45;&gt;2</title>
<path fill="none" stroke="black" d="M2812.87,-54.67C3089.63,-112.17 4473.45,-110.03 4473.45,-48.25 4473.45,12.81 3121.87,15.62 2823.05,-39.83"/>
<polygon fill="black" stroke="black" points="2822.01,-36.46 2812.87,-41.82 2823.35,-43.33 2822.01,-36.46"/>
<text text-anchor="middle" x="4514.45" y="-44.55" font-family="Times,serif" font-size="14.00">{r1, r2, r3, r4}</text>
</g>
<!-- 3&#45;&gt;2 -->
<g id="edge118" class="edge">
<title>3&#45;&gt;2</title>
<path fill="none" stroke="black" d="M1316.06,-126.03C1337.8,-111.87 1371.66,-90.22 1378.45,-88.25 1524.94,-45.64 2604.43,-111.03 2751.45,-70.25 2754.49,-69.41 2757.54,-68.24 2760.5,-66.89"/>
<polygon fill="black" stroke="black" points="2762.38,-69.86 2769.58,-62.09 2759.11,-63.67 2762.38,-69.86"/>
<text text-anchor="middle" x="1400.45" y="-92.05" font-family="Times,serif" font-size="14.00">{r1, r3}</text>
</g>
<!-- 3&#45;&gt;2 -->
<g id="edge119" class="edge">
<title>3&#45;&gt;2</title>
<path fill="none" stroke="black" d="M1323.14,-133.45C1348.99,-128.08 1389.6,-118.13 1422.45,-103.25 1433.56,-98.21 1433.77,-91.81 1445.45,-88.25 1584.27,-45.94 2611.62,-109.09 2751.45,-70.25 2754.49,-69.41 2757.54,-68.24 2760.5,-66.89"/>
<polygon fill="black" stroke="black" points="2762.38,-69.85 2769.58,-62.09 2759.11,-63.67 2762.38,-69.85"/>
<text text-anchor="middle" x="1476.95" y="-92.05" font-family="Times,serif" font-size="14.00">{r1, r2, r4}</text>
</g>
<!-- 3&#45;&gt;2 -->
<g id="edge120" class="edge">
<title>3&#45;&gt;2</title>
<path fill="none" stroke="black" d="M1324.36,-137.31C1365.39,-135.11 1445.47,-127.76 1508.45,-103.25 1519.82,-98.82 1519.78,-91.81 1531.45,-88.25 1661.11,-48.66 2620.84,-106.59 2751.45,-70.25 2754.49,-69.4 2757.53,-68.24 2760.5,-66.88"/>
<polygon fill="black" stroke="black" points="2762.37,-69.85 2769.58,-62.09 2759.1,-63.66 2762.37,-69.85"/>
<text text-anchor="middle" x="1562.95" y="-92.05" font-family="Times,serif" font-size="14.00">{r1, r3, r4}</text>
</g>
<!-- 3&#45;&gt;2 -->
<g id="edge121" class="edge">
<title>3&#45;&gt;2</title>
<path fill="none" stroke="black" d="M1324.46,-136.65C1387.96,-132.63 1545.02,-121.16 1594.45,-103.25 1605.92,-99.09 1605.78,-91.82 1617.45,-88.25 1737.95,-51.38 2630.06,-104.1 2751.45,-70.25 2754.49,-69.4 2757.53,-68.23 2760.5,-66.88"/>
<polygon fill="black" stroke="black" points="2762.37,-69.85 2769.58,-62.08 2759.1,-63.66 2762.37,-69.85"/>
<text text-anchor="middle" x="1648.95" y="-92.05" font-family="Times,serif" font-size="14.00">{r2, r3, r4}</text>
</g>
<!-- 3&#45;&gt;2 -->
<g id="edge122" class="edge">
<title>3&#45;&gt;2</title>
<path fill="none" stroke="black" d="M1324.5,-137.47C1400.46,-135.01 1614.46,-126.18 1680.45,-103.25 1691.98,-99.24 1691.78,-91.83 1703.45,-88.25 1814.79,-54.11 2639.29,-101.61 2751.45,-70.25 2754.49,-69.4 2757.53,-68.23 2760.5,-66.88"/>
<polygon fill="black" stroke="black" points="2762.37,-69.84 2769.58,-62.08 2759.1,-63.65 2762.37,-69.84"/>
<text text-anchor="middle" x="1715.95" y="-92.05" font-family="Times,serif" font-size="14.00">{r2}</text>
</g>
<!-- 3&#45;&gt;2 -->
<g id="edge123" class="edge">
<title>3&#45;&gt;2</title>
<path fill="none" stroke="black" d="M1324.59,-137.78C1406.99,-136.1 1653.15,-129 1728.45,-103.25 1740,-99.3 1739.78,-91.83 1751.45,-88.25 1857.68,-55.63 2644.44,-100.22 2751.45,-70.25 2754.49,-69.4 2757.53,-68.23 2760.5,-66.87"/>
<polygon fill="black" stroke="black" points="2762.37,-69.84 2769.58,-62.07 2759.1,-63.65 2762.37,-69.84"/>
<text text-anchor="middle" x="1782.95" y="-92.05" font-family="Times,serif" font-size="14.00">{r1, r2, r3}</text>
</g>
<!-- 3&#45;&gt;2 -->
<g id="edge124" class="edge">
<title>3&#45;&gt;2</title>
<path fill="none" stroke="black" d="M1324.62,-138.21C1417.59,-137.8 1722.31,-134.07 1814.45,-103.25 1826.02,-99.38 1825.78,-91.84 1837.45,-88.25 1934.52,-58.35 2653.66,-97.72 2751.45,-70.25 2754.48,-69.4 2757.53,-68.22 2760.5,-66.87"/>
<polygon fill="black" stroke="black" points="2762.37,-69.84 2769.58,-62.07 2759.1,-63.65 2762.37,-69.84"/>
<text text-anchor="middle" x="1859.45" y="-92.05" font-family="Times,serif" font-size="14.00">{r2, r4}</text>
</g>
<!-- 3&#45;&gt;2 -->
<g id="edge125" class="edge">
<title>3&#45;&gt;2</title>
<path fill="none" stroke="black" d="M1324.59,-138.46C1425.14,-138.94 1776.08,-138.04 1881.45,-103.25 1893.04,-99.42 1892.79,-91.85 1904.45,-88.25 1994.39,-60.47 2660.84,-95.78 2751.45,-70.25 2754.48,-69.39 2757.53,-68.22 2760.49,-66.86"/>
<polygon fill="black" stroke="black" points="2762.37,-69.83 2769.57,-62.06 2759.1,-63.64 2762.37,-69.83"/>
<text text-anchor="middle" x="1926.45" y="-92.05" font-family="Times,serif" font-size="14.00">{r1, r2}</text>
</g>
<!-- 3&#45;&gt;2 -->
<g id="edge126" class="edge">
<title>3&#45;&gt;2</title>
<path fill="none" stroke="black" d="M1324.69,-138.65C1432.58,-139.96 1829.83,-142.01 1948.45,-103.25 1960.05,-99.46 1959.79,-91.86 1971.45,-88.25 2137.06,-36.93 2584.61,-117.43 2751.45,-70.25 2754.48,-69.39 2757.53,-68.22 2760.49,-66.86"/>
<polygon fill="black" stroke="black" points="2762.37,-69.82 2769.57,-62.05 2759.1,-63.64 2762.37,-69.82"/>
<text text-anchor="middle" x="1983.95" y="-92.05" font-family="Times,serif" font-size="14.00">{r1}</text>
</g>
<!-- 3&#45;&gt;2 -->
<g id="edge127" class="edge">
<title>3&#45;&gt;2</title>
<path fill="none" stroke="black" d="M1324.45,-137.73C1445.1,-135.3 1931.73,-124.26 1996.45,-103.25 2008.06,-99.48 2007.79,-91.87 2019.45,-88.25 2174.84,-39.97 2594.9,-114.64 2751.45,-70.25 2754.48,-69.39 2757.53,-68.21 2760.49,-66.85"/>
<polygon fill="black" stroke="black" points="2762.37,-69.82 2769.57,-62.05 2759.09,-63.63 2762.37,-69.82"/>
<text text-anchor="middle" x="2041.45" y="-92.05" font-family="Times,serif" font-size="14.00">{r2, r3}</text>
</g>
<!-- 3&#45;&gt;2 -->
<g id="edge128" class="edge">
<title>3&#45;&gt;2</title>
<path fill="none" stroke="black" d="M1324.43,-137.86C1452.08,-135.89 1992.02,-126.27 2063.45,-103.25 2075.06,-99.51 2074.8,-91.88 2086.45,-88.25 2227.57,-44.21 2609.27,-110.76 2751.45,-70.25 2754.48,-69.39 2757.53,-68.21 2760.49,-66.84"/>
<polygon fill="black" stroke="black" points="2762.37,-69.81 2769.57,-62.04 2759.09,-63.62 2762.37,-69.81"/>
<text text-anchor="middle" x="2108.45" y="-92.05" font-family="Times,serif" font-size="14.00">{r1, r4}</text>
</g>
<!-- 3&#45;&gt;2 -->
<g id="edge129" class="edge">
<title>3&#45;&gt;2</title>
<path fill="none" stroke="black" d="M1324.53,-137.96C1459.07,-136.43 2052.31,-128.28 2130.45,-103.25 2142.07,-99.53 2141.8,-91.9 2153.45,-88.25 2280.3,-48.45 2623.64,-106.87 2751.45,-70.25 2754.48,-69.38 2757.52,-68.2 2760.49,-66.84"/>
<polygon fill="black" stroke="black" points="2762.37,-69.8 2769.56,-62.03 2759.09,-63.61 2762.37,-69.8"/>
<text text-anchor="middle" x="2194.45" y="-92.05" font-family="Times,serif" font-size="14.00">{r1, r2, r3, r4}</text>
</g>
<!-- 3&#45;&gt;3 -->
<g id="edge100" class="edge">
<title>3&#45;&gt;3</title>
<path fill="none" stroke="black" d="M1324.69,-141.22C1334.47,-141.26 1342.45,-140.6 1342.45,-139.25 1342.45,-138.42 1339.49,-137.86 1334.96,-137.55"/>
<polygon fill="black" stroke="black" points="1334.78,-134.05 1324.69,-137.28 1334.59,-141.04 1334.78,-134.05"/>
<text text-anchor="middle" x="1354.95" y="-135.55" font-family="Times,serif" font-size="14.00">{r3}</text>
</g>
<!-- 3&#45;&gt;3 -->
<g id="edge103" class="edge">
<title>3&#45;&gt;3</title>
<path fill="none" stroke="black" d="M1324.08,-142.7C1345.07,-143.95 1367.45,-142.8 1367.45,-139.25 1367.45,-136.28 1351.81,-134.99 1334.42,-135.38"/>
<polygon fill="black" stroke="black" points="1333.93,-131.9 1324.08,-135.8 1334.21,-138.89 1333.93,-131.9"/>
<text text-anchor="middle" x="1389.45" y="-135.55" font-family="Times,serif" font-size="14.00">{r3, r4}</text>
</g>
<!-- 3&#45;&gt;3 -->
<g id="edge107" class="edge">
<title>3&#45;&gt;3</title>
<path fill="none" stroke="black" d="M1323.88,-143.44C1359.93,-146.71 1411.45,-145.31 1411.45,-139.25 1411.45,-133.73 1368.77,-132.08 1333.92,-134.29"/>
<polygon fill="black" stroke="black" points="1333.58,-130.81 1323.88,-135.06 1334.11,-137.79 1333.58,-130.81"/>
<text text-anchor="middle" x="1423.95" y="-135.55" font-family="Times,serif" font-size="14.00">{r4}</text>
</g>
<!-- 3&#45;&gt;3 -->
<g id="edge109" class="edge">
<title>3&#45;&gt;3</title>
<path fill="none" stroke="black" d="M1323.48,-144.16C1367.48,-149.36 1436.45,-147.72 1436.45,-139.25 1436.45,-131.41 1377.33,-129.42 1333.65,-133.29"/>
<polygon fill="black" stroke="black" points="1333.07,-129.83 1323.48,-134.34 1333.79,-136.8 1333.07,-129.83"/>
<text text-anchor="middle" x="1443.45" y="-135.55" font-family="Times,serif" font-size="14.00">{}</text>
</g>
<!-- 4 -->
<g id="node6" class="node">
<title>4</title>
<ellipse fill="none" stroke="black" cx="425.45" cy="-48.25" rx="18" ry="18"/>
<ellipse fill="none" stroke="black" cx="425.45" cy="-48.25" rx="22" ry="22"/>
<text text-anchor="middle" x="425.45" y="-44.55" font-family="Times,serif" font-size="14.00">4</text>
</g>
<!-- 3&#45;&gt;4 -->
<g id="edge98" class="edge">
<title>3&#45;&gt;4</title>
<path fill="none" stroke="black" d="M1270.34,-138.04C1086.27,-136.52 26.35,-126.78 3.45,-103.25 -1.2,-98.47 -1.04,-93.18 3.45,-88.25 29.58,-59.59 299,-51.68 393.17,-49.79"/>
<polygon fill="black" stroke="black" points="393.32,-53.28 403.25,-49.59 393.19,-46.29 393.32,-53.28"/>
<text text-anchor="middle" x="25.45" y="-92.05" font-family="Times,serif" font-size="14.00">{r0, r4}</text>
</g>
<!-- 3&#45;&gt;4 -->
<g id="edge99" class="edge">
<title>3&#45;&gt;4</title>
<path fill="none" stroke="black" d="M1270.33,-137.99C1091.83,-136.25 92.09,-125.52 70.45,-103.25 24.48,-55.95 297.03,-49.95 392.96,-49.29"/>
<polygon fill="black" stroke="black" points="393.26,-52.79 403.24,-49.24 393.22,-45.79 393.26,-52.79"/>
<text text-anchor="middle" x="111.45" y="-92.05" font-family="Times,serif" font-size="14.00">{r0, r2, r3, r4}</text>
</g>
<!-- 3&#45;&gt;4 -->
<g id="edge101" class="edge">
<title>3&#45;&gt;4</title>
<path fill="none" stroke="black" d="M1270.21,-138.46C1102.39,-139.61 214.74,-143.79 175.45,-103.25 170.81,-98.46 171.11,-93.31 175.45,-88.25 203.07,-55.98 331.63,-50.21 392.86,-49.32"/>
<polygon fill="black" stroke="black" points="393.16,-52.81 403.12,-49.2 393.08,-45.81 393.16,-52.81"/>
<text text-anchor="middle" x="216.45" y="-92.05" font-family="Times,serif" font-size="14.00">{r0, r1, r2, r4}</text>
</g>
<!-- 3&#45;&gt;4 -->
<g id="edge102" class="edge">
<title>3&#45;&gt;4</title>
<path fill="none" stroke="black" d="M1270.24,-138.37C1111.98,-138.92 315.82,-139.86 280.45,-103.25 245.26,-66.83 340.52,-54.77 393.19,-50.94"/>
<polygon fill="black" stroke="black" points="393.67,-54.41 403.42,-50.26 393.21,-47.43 393.67,-54.41"/>
<text text-anchor="middle" x="321.45" y="-92.05" font-family="Times,serif" font-size="14.00">{r0, r1, r2, r3}</text>
</g>
<!-- 3&#45;&gt;4 -->
<g id="edge104" class="edge">
<title>3&#45;&gt;4</title>
<path fill="none" stroke="black" d="M1270.2,-138.25C1121.85,-138.15 416.9,-135.93 385.45,-103.25 374.8,-92.18 385.68,-78.21 398.77,-67.26"/>
<polygon fill="black" stroke="black" points="401.26,-69.76 407.03,-60.88 396.98,-64.22 401.26,-69.76"/>
<text text-anchor="middle" x="407.45" y="-92.05" font-family="Times,serif" font-size="14.00">{r0, r2}</text>
</g>
<!-- 3&#45;&gt;4 -->
<g id="edge105" class="edge">
<title>3&#45;&gt;4</title>
<path fill="none" stroke="black" d="M1270.13,-137.89C1128.99,-135.96 487.54,-125.96 452.45,-103.25 443.89,-97.71 437.94,-88.59 433.85,-79.41"/>
<polygon fill="black" stroke="black" points="437.08,-78.05 430.23,-69.97 430.54,-80.56 437.08,-78.05"/>
<text text-anchor="middle" x="483.95" y="-92.05" font-family="Times,serif" font-size="14.00">{r0, r1, r4}</text>
</g>
<!-- 3&#45;&gt;4 -->
<g id="edge106" class="edge">
<title>3&#45;&gt;4</title>
<path fill="none" stroke="black" d="M1270.29,-137.84C1143.04,-135.82 609.14,-126.05 538.45,-103.25 526.83,-99.5 526.2,-94.03 515.45,-88.25 495.96,-77.77 473.07,-67.88 455.25,-60.68"/>
<polygon fill="black" stroke="black" points="456.51,-57.42 445.93,-56.97 453.92,-63.92 456.51,-57.42"/>
<text text-anchor="middle" x="560.45" y="-92.05" font-family="Times,serif" font-size="14.00">{r0, r3}</text>
</g>
<!-- 3&#45;&gt;4 -->
<g id="edge108" class="edge">
<title>3&#45;&gt;4</title>
<path fill="none" stroke="black" d="M1270.32,-137.71C1150.2,-135.23 669.44,-124.05 605.45,-103.25 593.84,-99.48 593.64,-93.12 582.45,-88.25 541.15,-70.27 489.98,-59.51 457.52,-53.98"/>
<polygon fill="black" stroke="black" points="457.7,-50.47 447.26,-52.31 456.57,-57.37 457.7,-50.47"/>
<text text-anchor="middle" x="655.45" y="-92.05" font-family="Times,serif" font-size="14.00">{r0, r1, r2, r3, r4}</text>
</g>
<!-- 3&#45;&gt;4 -->
<g id="edge110" class="edge">
<title>3&#45;&gt;4</title>
<path fill="none" stroke="black" d="M1270.33,-138.41C1171.47,-138.69 830.86,-137.15 728.45,-103.25 716.86,-99.41 716.88,-92.53 705.45,-88.25 620.09,-56.3 511.23,-50.18 457.88,-49.23"/>
<polygon fill="black" stroke="black" points="457.71,-45.73 447.67,-49.1 457.63,-52.73 457.71,-45.73"/>
<text text-anchor="middle" x="769.45" y="-92.05" font-family="Times,serif" font-size="14.00">{r0, r1, r3, r4}</text>
</g>
<!-- 3&#45;&gt;4 -->
<g id="edge111" class="edge">
<title>3&#45;&gt;4</title>
<path fill="none" stroke="black" d="M1270.39,-137.97C1183.92,-136.79 915.22,-130.95 833.45,-103.25 821.89,-99.33 821.96,-92.31 810.45,-88.25 745.58,-65.34 538.09,-54.13 457.7,-50.56"/>
<polygon fill="black" stroke="black" points="457.8,-47.06 447.66,-50.12 457.5,-54.05 457.8,-47.06"/>
<text text-anchor="middle" x="864.95" y="-92.05" font-family="Times,serif" font-size="14.00">{r0, r1, r2}</text>
</g>
<!-- 3&#45;&gt;4 -->
<g id="edge112" class="edge">
<title>3&#45;&gt;4</title>
<path fill="none" stroke="black" d="M1270.48,-137.43C1195.27,-134.89 984.49,-125.9 919.45,-103.25 907.92,-99.24 907.99,-92.21 896.45,-88.25 814.97,-60.32 550.37,-51.97 457.79,-49.87"/>
<polygon fill="black" stroke="black" points="457.7,-46.37 447.63,-49.65 457.55,-53.37 457.7,-46.37"/>
<text text-anchor="middle" x="950.95" y="-92.05" font-family="Times,serif" font-size="14.00">{r0, r3, r4}</text>
</g>
<!-- 3&#45;&gt;4 -->
<g id="edge113" class="edge">
<title>3&#45;&gt;4</title>
<path fill="none" stroke="black" d="M1270.34,-139.04C1217.61,-139.72 1098.3,-137 1005.45,-103.25 993.98,-99.08 994.02,-92.13 982.45,-88.25 884.15,-55.25 561.17,-50.17 457.67,-49.39"/>
<polygon fill="black" stroke="black" points="457.55,-45.89 447.52,-49.32 457.5,-52.89 457.55,-45.89"/>
<text text-anchor="middle" x="1017.95" y="-92.05" font-family="Times,serif" font-size="14.00">{r0}</text>
</g>
<!-- 3&#45;&gt;4 -->
<g id="edge114" class="edge">
<title>3&#45;&gt;4</title>
<path fill="none" stroke="black" d="M1270.15,-138.14C1224.01,-137.13 1128.34,-131.45 1053.45,-103.25 1042.03,-98.95 1042.03,-92.1 1030.45,-88.25 922.68,-52.4 566.65,-49.28 457.53,-49.18"/>
<polygon fill="black" stroke="black" points="457.46,-45.68 447.46,-49.18 457.46,-52.68 457.46,-45.68"/>
<text text-anchor="middle" x="1075.45" y="-92.05" font-family="Times,serif" font-size="14.00">{r0, r1}</text>
</g>
<!-- 3&#45;&gt;4 -->
<g id="edge115" class="edge">
<title>3&#45;&gt;4</title>
<path fill="none" stroke="black" d="M1270.75,-136.16C1235.29,-132.68 1171.22,-123.92 1120.45,-103.25 1109.14,-98.65 1109.04,-92.06 1097.45,-88.25 976.48,-48.44 574.42,-48.15 457.56,-48.94"/>
<polygon fill="black" stroke="black" points="457.44,-45.44 447.47,-49.02 457.49,-52.44 457.44,-45.44"/>
<text text-anchor="middle" x="1151.95" y="-92.05" font-family="Times,serif" font-size="14.00">{r0, r2, r3}</text>
</g>
<!-- 3&#45;&gt;4 -->
<g id="edge116" class="edge">
<title>3&#45;&gt;4</title>
<path fill="none" stroke="black" d="M1273.67,-130.65C1254.96,-124.3 1228.45,-114.5 1206.45,-103.25 1195.58,-97.69 1195.05,-92.03 1183.45,-88.25 1113.83,-65.59 593.87,-52.88 457.9,-49.92"/>
<polygon fill="black" stroke="black" points="457.79,-46.42 447.72,-49.7 457.64,-53.42 457.79,-46.42"/>
<text text-anchor="middle" x="1237.95" y="-92.05" font-family="Times,serif" font-size="14.00">{r0, r1, r3}</text>
</g>
<!-- 3&#45;&gt;4 -->
<g id="edge117" class="edge">
<title>3&#45;&gt;4</title>
<path fill="none" stroke="black" d="M1292.71,-121.26C1288.56,-109.84 1281.3,-95.57 1269.45,-88.25 1199.44,-45.01 603.75,-47.61 457.68,-48.91"/>
<polygon fill="black" stroke="black" points="457.54,-45.41 447.58,-49 457.61,-52.41 457.54,-45.41"/>
<text text-anchor="middle" x="1314.95" y="-92.05" font-family="Times,serif" font-size="14.00">{r0, r2, r4}</text>
</g>
<!-- 4&#45;&gt;4 -->
<g id="edge66" class="edge">
<title>4&#45;&gt;4</title>
<path fill="none" stroke="black" d="M447.66,-49.73C457.24,-49.85 465.45,-49.36 465.45,-48.25 465.45,-47.57 462.4,-47.13 457.85,-46.91"/>
<polygon fill="black" stroke="black" points="457.71,-43.4 447.66,-46.77 457.61,-50.4 457.71,-43.4"/>
<text text-anchor="middle" x="506.45" y="-44.55" font-family="Times,serif" font-size="14.00">{r0, r1, r3, r4}</text>
</g>
<!-- 4&#45;&gt;4 -->
<g id="edge67" class="edge">
<title>4&#45;&gt;4</title>
<path fill="none" stroke="black" d="M447.6,-50.27C484.16,-52.06 547.45,-51.39 547.45,-48.25 547.45,-45.39 495.02,-44.58 458.04,-45.8"/>
<polygon fill="black" stroke="black" points="457.45,-42.32 447.6,-46.23 457.74,-49.32 457.45,-42.32"/>
<text text-anchor="middle" x="569.45" y="-44.55" font-family="Times,serif" font-size="14.00">{r0, r2}</text>
</g>
<!-- 4&#45;&gt;4 -->
<g id="edge68" class="edge">
<title>4&#45;&gt;4</title>
<path fill="none" stroke="black" d="M447.43,-50.81C494.98,-54.07 591.45,-53.22 591.45,-48.25 591.45,-43.61 507.37,-42.56 457.51,-45.09"/>
<polygon fill="black" stroke="black" points="457.21,-41.6 447.43,-45.69 457.62,-48.59 457.21,-41.6"/>
<text text-anchor="middle" x="613.45" y="-44.55" font-family="Times,serif" font-size="14.00">{r3, r4}</text>
</g>
<!-- 4&#45;&gt;4 -->
<g id="edge69" class="edge">
<title>4&#45;&gt;4</title>
<path fill="none" stroke="black" d="M447.28,-51.22C504.69,-56.08 635.45,-55.09 635.45,-48.25 635.45,-41.78 518.6,-40.54 457.33,-44.54"/>
<polygon fill="black" stroke="black" points="457,-41.05 447.28,-45.28 457.51,-48.03 457,-41.05"/>
<text text-anchor="middle" x="657.45" y="-44.55" font-family="Times,serif" font-size="14.00">{r1, r4}</text>
</g>
<!-- 4&#45;&gt;4 -->
<g id="edge70" class="edge">
<title>4&#45;&gt;4</title>
<path fill="none" stroke="black" d="M447.53,-51.57C514.3,-58.09 679.45,-56.98 679.45,-48.25 679.45,-39.93 529.42,-38.53 457.54,-44.06"/>
<polygon fill="black" stroke="black" points="457.19,-40.58 447.53,-44.92 457.79,-47.55 457.19,-40.58"/>
<text text-anchor="middle" x="701.45" y="-44.55" font-family="Times,serif" font-size="14.00">{r0, r1}</text>
</g>
<!-- 4&#45;&gt;4 -->
<g id="edge71" class="edge">
<title>4&#45;&gt;4</title>
<path fill="none" stroke="black" d="M447.63,-51.87C523.21,-60.1 723.45,-58.89 723.45,-48.25 723.45,-38.06 539.67,-36.52 457.79,-43.65"/>
<polygon fill="black" stroke="black" points="457.25,-40.18 447.63,-44.63 457.92,-47.15 457.25,-40.18"/>
<text text-anchor="middle" x="745.45" y="-44.55" font-family="Times,serif" font-size="14.00">{r0, r3}</text>
</g>
<!-- 4&#45;&gt;4 -->
<g id="edge72" class="edge">
<title>4&#45;&gt;4</title>
<path fill="none" stroke="black" d="M447.17,-52.05C530.7,-62.11 767.45,-60.84 767.45,-48.25 767.45,-36.14 548.39,-34.5 457.36,-43.35"/>
<polygon fill="black" stroke="black" points="456.74,-39.9 447.17,-44.45 457.49,-46.86 456.74,-39.9"/>
<text text-anchor="middle" x="798.95" y="-44.55" font-family="Times,serif" font-size="14.00">{r0, r1, r2}</text>
</g>
<!-- 4&#45;&gt;4 -->
<g id="edge73" class="edge">
<title>4&#45;&gt;4</title>
<path fill="none" stroke="black" d="M447.32,-52.21C541.41,-64.12 830.45,-62.8 830.45,-48.25 830.45,-34.19 560.29,-32.48 457.32,-43.14"/>
<polygon fill="black" stroke="black" points="456.86,-39.67 447.32,-44.29 457.66,-46.63 456.86,-39.67"/>
<text text-anchor="middle" x="861.95" y="-44.55" font-family="Times,serif" font-size="14.00">{r2, r3, r4}</text>
</g>
<!-- 4&#45;&gt;4 -->
<g id="edge74" class="edge">
<title>4&#45;&gt;4</title>
<path fill="none" stroke="black" d="M447.1,-52.32C550.76,-66.13 893.45,-64.77 893.45,-48.25 893.45,-32.23 571.2,-30.47 457.15,-42.97"/>
<polygon fill="black" stroke="black" points="456.61,-39.51 447.1,-44.18 457.45,-46.46 456.61,-39.51"/>
<text text-anchor="middle" x="905.95" y="-44.55" font-family="Times,serif" font-size="14.00">{r0}</text>
</g>
<!-- 4&#45;&gt;4 -->
<g id="edge75" class="edge">
<title>4&#45;&gt;4</title>
<path fill="none" stroke="black" d="M447.07,-52.52C555.93,-68.13 918.45,-66.71 918.45,-48.25 918.45,-30.33 576.86,-28.47 457.28,-42.65"/>
<polygon fill="black" stroke="black" points="456.53,-39.22 447.07,-43.98 457.44,-46.16 456.53,-39.22"/>
<text text-anchor="middle" x="949.95" y="-44.55" font-family="Times,serif" font-size="14.00">{r0, r2, r3}</text>
</g>
<!-- 4&#45;&gt;4 -->
<g id="edge76" class="edge">
<title>4&#45;&gt;4</title>
<path fill="none" stroke="black" d="M447.05,-52.62C565.15,-70.14 981.45,-68.68 981.45,-48.25 981.45,-28.36 586.81,-26.45 457,-42.53"/>
<polygon fill="black" stroke="black" points="456.49,-39.07 447.05,-43.88 457.43,-46.01 456.49,-39.07"/>
<text text-anchor="middle" x="1003.45" y="-44.55" font-family="Times,serif" font-size="14.00">{r2, r4}</text>
</g>
<!-- 4&#45;&gt;4 -->
<g id="edge77" class="edge">
<title>4&#45;&gt;4</title>
<path fill="none" stroke="black" d="M447.2,-52.77C572.59,-72.14 1025.45,-70.63 1025.45,-48.25 1025.45,-26.43 595.29,-24.45 457.37,-42.29"/>
<polygon fill="black" stroke="black" points="456.62,-38.86 447.2,-43.72 457.59,-45.79 456.62,-38.86"/>
<text text-anchor="middle" x="1032.45" y="-44.55" font-family="Times,serif" font-size="14.00">{}</text>
</g>
<!-- 4&#45;&gt;4 -->
<g id="edge78" class="edge">
<title>4&#45;&gt;4</title>
<path fill="none" stroke="black" d="M447.26,-52.95C577.23,-74.14 1043.45,-72.57 1043.45,-48.25 1043.45,-24.52 599.72,-22.45 457.37,-42.03"/>
<polygon fill="black" stroke="black" points="456.63,-38.61 447.26,-43.55 457.67,-45.53 456.63,-38.61"/>
<text text-anchor="middle" x="1074.95" y="-44.55" font-family="Times,serif" font-size="14.00">{r0, r3, r4}</text>
</g>
<!-- 4&#45;&gt;4 -->
<g id="edge79" class="edge">
<title>4&#45;&gt;4</title>
<path fill="none" stroke="black" d="M447.28,-53.03C586.02,-76.15 1106.45,-74.55 1106.45,-48.25 1106.45,-22.54 609.14,-20.44 457.19,-41.95"/>
<polygon fill="black" stroke="black" points="456.63,-38.5 447.28,-43.47 457.69,-45.42 456.63,-38.5"/>
<text text-anchor="middle" x="1118.95" y="-44.55" font-family="Times,serif" font-size="14.00">{r3}</text>
</g>
<!-- 4&#45;&gt;4 -->
<g id="edge80" class="edge">
<title>4&#45;&gt;4</title>
<path fill="none" stroke="black" d="M447.15,-53.14C590.9,-78.15 1131.45,-76.52 1131.45,-48.25 1131.45,-20.61 614.91,-18.44 457.43,-41.72"/>
<polygon fill="black" stroke="black" points="456.47,-38.33 447.15,-43.36 457.58,-45.24 456.47,-38.33"/>
<text text-anchor="middle" x="1172.45" y="-44.55" font-family="Times,serif" font-size="14.00">{r0, r2, r3, r4}</text>
</g>
<!-- 4&#45;&gt;4 -->
<g id="edge81" class="edge">
<title>4&#45;&gt;4</title>
<path fill="none" stroke="black" d="M446.93,-53.13C600.35,-80.16 1213.45,-78.53 1213.45,-48.25 1213.45,-18.59 625.24,-16.42 456.94,-41.74"/>
<polygon fill="black" stroke="black" points="456.24,-38.31 446.93,-43.37 457.37,-45.22 456.24,-38.31"/>
<text text-anchor="middle" x="1235.45" y="-44.55" font-family="Times,serif" font-size="14.00">{r0, r4}</text>
</g>
<!-- 4&#45;&gt;4 -->
<g id="edge82" class="edge">
<title>4&#45;&gt;4</title>
<path fill="none" stroke="black" d="M447.17,-53.26C607.65,-82.16 1257.45,-80.49 1257.45,-48.25 1257.45,-16.64 632.79,-14.42 457.12,-41.58"/>
<polygon fill="black" stroke="black" points="456.46,-38.15 447.17,-43.24 457.61,-45.05 456.46,-38.15"/>
<text text-anchor="middle" x="1288.95" y="-44.55" font-family="Times,serif" font-size="14.00">{r0, r1, r3}</text>
</g>
<!-- 4&#45;&gt;4 -->
<g id="edge83" class="edge">
<title>4&#45;&gt;4</title>
<path fill="none" stroke="black" d="M446.93,-53.27C615.06,-84.16 1320.45,-82.49 1320.45,-48.25 1320.45,-14.64 641,-12.41 456.83,-41.55"/>
<polygon fill="black" stroke="black" points="456.2,-38.1 446.93,-43.23 457.37,-45.01 456.2,-38.1"/>
<text text-anchor="middle" x="1351.95" y="-44.55" font-family="Times,serif" font-size="14.00">{r1, r2, r3}</text>
</g>
<!-- 4&#45;&gt;4 -->
<g id="edge84" class="edge">
<title>4&#45;&gt;4</title>
<path fill="none" stroke="black" d="M447.07,-53.34C623.38,-86.17 1383.45,-84.47 1383.45,-48.25 1383.45,-12.69 650.6,-10.41 457.19,-41.41"/>
<polygon fill="black" stroke="black" points="456.33,-38.01 447.07,-43.16 457.52,-44.91 456.33,-38.01"/>
<text text-anchor="middle" x="1414.95" y="-44.55" font-family="Times,serif" font-size="14.00">{r0, r2, r4}</text>
</g>
<!-- 4&#45;&gt;4 -->
<g id="edge85" class="edge">
<title>4&#45;&gt;4</title>
<path fill="none" stroke="black" d="M447.1,-53.4C631.27,-88.17 1446.45,-86.45 1446.45,-48.25 1446.45,-10.7 658.89,-8.4 457.08,-41.35"/>
<polygon fill="black" stroke="black" points="456.34,-37.93 447.1,-43.1 457.55,-44.82 456.34,-37.93"/>
<text text-anchor="middle" x="1487.45" y="-44.55" font-family="Times,serif" font-size="14.00">{r0, r1, r2, r4}</text>
</g>
<!-- 4&#45;&gt;4 -->
<g id="edge86" class="edge">
<title>4&#45;&gt;4</title>
<path fill="none" stroke="black" d="M447.12,-53.43C640.32,-90.17 1528.45,-88.44 1528.45,-48.25 1528.45,-8.7 668.71,-6.39 457,-41.32"/>
<polygon fill="black" stroke="black" points="456.36,-37.88 447.12,-43.07 457.58,-44.77 456.36,-37.88"/>
<text text-anchor="middle" x="1550.45" y="-44.55" font-family="Times,serif" font-size="14.00">{r1, r3}</text>
</g>
<!-- 4&#45;&gt;4 -->
<g id="edge87" class="edge">
<title>4&#45;&gt;4</title>
<path fill="none" stroke="black" d="M446.85,-53.44C645.75,-92.18 1572.45,-90.44 1572.45,-48.25 1572.45,-6.71 674.48,-4.39 456.7,-41.27"/>
<polygon fill="black" stroke="black" points="456.06,-37.83 446.85,-43.06 457.31,-44.72 456.06,-37.83"/>
<text text-anchor="middle" x="1613.45" y="-44.55" font-family="Times,serif" font-size="14.00">{r1, r2, r3, r4}</text>
</g>
<!-- 4&#45;&gt;4 -->
<g id="edge88" class="edge">
<title>4&#45;&gt;4</title>
<path fill="none" stroke="black" d="M446.97,-53.49C654.81,-94.18 1654.45,-92.43 1654.45,-48.25 1654.45,-4.74 684.84,-2.38 456.95,-41.19"/>
<polygon fill="black" stroke="black" points="456.18,-37.77 446.97,-43.01 457.44,-44.66 456.18,-37.77"/>
<text text-anchor="middle" x="1676.45" y="-44.55" font-family="Times,serif" font-size="14.00">{r2, r3}</text>
</g>
<!-- 4&#45;&gt;4 -->
<g id="edge89" class="edge">
<title>4&#45;&gt;4</title>
<path fill="none" stroke="black" d="M446.85,-53.52C660.59,-96.18 1698.45,-94.42 1698.45,-48.25 1698.45,-2.75 690.78,-0.38 456.76,-41.13"/>
<polygon fill="black" stroke="black" points="456.04,-37.7 446.85,-42.97 457.32,-44.59 456.04,-37.7"/>
<text text-anchor="middle" x="1729.95" y="-44.55" font-family="Times,serif" font-size="14.00">{r1, r2, r4}</text>
</g>
<!-- 4&#45;&gt;4 -->
<g id="edge90" class="edge">
<title>4&#45;&gt;4</title>
<path fill="none" stroke="black" d="M447.07,-53.61C668.64,-98.18 1761.45,-96.39 1761.45,-48.25 1761.45,-0.79 699.37,1.62 457,-41.02"/>
<polygon fill="black" stroke="black" points="456.25,-37.6 447.07,-42.89 457.54,-44.48 456.25,-37.6"/>
<text text-anchor="middle" x="1792.95" y="-44.55" font-family="Times,serif" font-size="14.00">{r1, r3, r4}</text>
</g>
<!-- 4&#45;&gt;4 -->
<g id="edge91" class="edge">
<title>4&#45;&gt;4</title>
<path fill="none" stroke="black" d="M446.9,-53.61C675.3,-100.18 1824.45,-98.4 1824.45,-48.25 1824.45,1.21 706.51,3.63 456.78,-41"/>
<polygon fill="black" stroke="black" points="456.06,-37.58 446.9,-42.89 457.38,-44.45 456.06,-37.58"/>
<text text-anchor="middle" x="1846.45" y="-44.55" font-family="Times,serif" font-size="14.00">{r1, r2}</text>
</g>
<!-- 4&#45;&gt;4 -->
<g id="edge92" class="edge">
<title>4&#45;&gt;4</title>
<path fill="none" stroke="black" d="M446.94,-53.67C681.56,-102.18 1868.45,-100.38 1868.45,-48.25 1868.45,3.17 713.79,5.63 457.09,-40.87"/>
<polygon fill="black" stroke="black" points="456.1,-37.49 446.94,-42.83 457.42,-44.37 456.1,-37.49"/>
<text text-anchor="middle" x="1880.95" y="-44.55" font-family="Times,serif" font-size="14.00">{r2}</text>
</g>
<!-- 4&#45;&gt;4 -->
<g id="edge93" class="edge">
<title>4&#45;&gt;4</title>
<path fill="none" stroke="black" d="M446.88,-53.72C686.42,-104.19 1893.45,-102.36 1893.45,-48.25 1893.45,5.15 718.03,7.63 456.86,-40.81"/>
<polygon fill="black" stroke="black" points="456.02,-37.41 446.88,-42.78 457.37,-44.28 456.02,-37.41"/>
<text text-anchor="middle" x="1905.95" y="-44.55" font-family="Times,serif" font-size="14.00">{r4}</text>
</g>
<!-- 4&#45;&gt;4 -->
<g id="edge94" class="edge">
<title>4&#45;&gt;4</title>
<path fill="none" stroke="black" d="M446.79,-53.76C691.2,-106.19 1918.45,-104.35 1918.45,-48.25 1918.45,7.11 723.35,9.63 456.96,-40.7"/>
<polygon fill="black" stroke="black" points="455.9,-37.34 446.79,-42.74 457.28,-44.2 455.9,-37.34"/>
<text text-anchor="middle" x="1930.95" y="-44.55" font-family="Times,serif" font-size="14.00">{r1}</text>
</g>
<!-- 4&#45;&gt;4 -->
<g id="edge95" class="edge">
<title>4&#45;&gt;4</title>
<path fill="none" stroke="black" d="M447.04,-53.86C697.16,-108.19 1943.45,-106.32 1943.45,-48.25 1943.45,9.08 728.61,11.63 457.04,-40.59"/>
<polygon fill="black" stroke="black" points="456.14,-37.21 447.04,-42.64 457.54,-44.06 456.14,-37.21"/>
<text text-anchor="middle" x="1993.45" y="-44.55" font-family="Times,serif" font-size="14.00">{r0, r1, r2, r3, r4}</text>
</g>
<!-- 4&#45;&gt;4 -->
<g id="edge96" class="edge">
<title>4&#45;&gt;4</title>
<path fill="none" stroke="black" d="M447.1,-53.88C706.43,-110.19 2043.45,-108.31 2043.45,-48.25 2043.45,11.08 738.87,13.64 457.07,-40.58"/>
<polygon fill="black" stroke="black" points="456.2,-37.19 447.1,-42.62 457.6,-44.05 456.2,-37.19"/>
<text text-anchor="middle" x="2084.45" y="-44.55" font-family="Times,serif" font-size="14.00">{r0, r1, r2, r3}</text>
</g>
<!-- 4&#45;&gt;4 -->
<g id="edge97" class="edge">
<title>4&#45;&gt;4</title>
<path fill="none" stroke="black" d="M447.05,-53.89C714.27,-112.19 2125.45,-110.31 2125.45,-48.25 2125.45,13.09 747.15,15.64 456.91,-40.59"/>
<polygon fill="black" stroke="black" points="456.14,-37.17 447.05,-42.61 457.55,-44.03 456.14,-37.17"/>
<text text-anchor="middle" x="2156.95" y="-44.55" font-family="Times,serif" font-size="14.00">{r0, r1, r4}</text>
</g>
</g>
</svg>
