<?xml version="1.0" encoding="UTF-8" standalone="no"?>
<!DOCTYPE svg PUBLIC "-//W3C//DTD SVG 1.1//EN"
 "http://www.w3.org/Graphics/SVG/1.1/DTD/svg11.dtd">
<!-- Generated by graphviz version 2.43.0 (0)
 -->
<!-- Title: %3 Pages: 1 -->
<svg width="5107pt" height="412pt"
 viewBox="0.00 0.00 5107.32 412.25" xmlns="http://www.w3.org/2000/svg" xmlns:xlink="http://www.w3.org/1999/xlink">
<g id="graph0" class="graph" transform="scale(1 1) rotate(0) translate(4 408.25)">
<title>%3</title>
<polygon fill="white" stroke="transparent" points="-4,4 -4,-408.25 5103.32,-408.25 5103.32,4 -4,4"/>
<!-- fake -->
<g id="node1" class="node">
<title>fake</title>
</g>
<!-- 0 -->
<g id="node2" class="node">
<title>0</title>
<ellipse fill="none" stroke="black" cx="2891.32" cy="-313.25" rx="27" ry="18"/>
<text text-anchor="middle" x="2891.32" y="-309.55" font-family="Times,serif" font-size="14.00">0</text>
</g>
<!-- fake&#45;&gt;0 -->
<g id="edge1" class="edge">
<title>fake&#45;&gt;0</title>
<path fill="none" stroke="black" stroke-width="2" d="M2891.32,-368.06C2891.32,-360.04 2891.32,-350.3 2891.32,-341.32"/>
<polygon fill="black" stroke="black" stroke-width="2" points="2894.82,-341.28 2891.32,-331.28 2887.82,-341.28 2894.82,-341.28"/>
</g>
<!-- 0&#45;&gt;0 -->
<g id="edge6" class="edge">
<title>0&#45;&gt;0</title>
<path fill="none" stroke="black" d="M2918.56,-314.94C2928.34,-314.97 2936.32,-314.41 2936.32,-313.25 2936.32,-312.54 2933.36,-312.06 2928.83,-311.79"/>
<polygon fill="black" stroke="black" points="2928.64,-308.29 2918.56,-311.56 2928.48,-315.29 2928.64,-308.29"/>
<text text-anchor="middle" x="2943.32" y="-309.55" font-family="Times,serif" font-size="14.00">{}</text>
</g>
<!-- 0&#45;&gt;0 -->
<g id="edge9" class="edge">
<title>0&#45;&gt;0</title>
<path fill="none" stroke="black" d="M2918.19,-316.31C2936.45,-317.21 2954.32,-316.18 2954.32,-313.25 2954.32,-310.86 2942.52,-309.74 2928.3,-309.89"/>
<polygon fill="black" stroke="black" points="2928.08,-306.39 2918.19,-310.19 2928.29,-313.39 2928.08,-306.39"/>
<text text-anchor="middle" x="2966.82" y="-309.55" font-family="Times,serif" font-size="14.00">{r4}</text>
</g>
<!-- 0&#45;&gt;0 -->
<g id="edge13" class="edge">
<title>0&#45;&gt;0</title>
<path fill="none" stroke="black" d="M2917.8,-317.16C2946.07,-319.54 2979.32,-318.23 2979.32,-313.25 2979.32,-308.85 2953.41,-307.32 2927.88,-308.65"/>
<polygon fill="black" stroke="black" points="2927.54,-305.17 2917.8,-309.34 2928.02,-312.15 2927.54,-305.17"/>
<text text-anchor="middle" x="3001.32" y="-309.55" font-family="Times,serif" font-size="14.00">{r3, r4}</text>
</g>
<!-- 0&#45;&gt;0 -->
<g id="edge20" class="edge">
<title>0&#45;&gt;0</title>
<path fill="none" stroke="black" d="M2917.6,-317.56C2959.84,-321.89 3023.32,-320.46 3023.32,-313.25 3023.32,-306.59 2969.14,-304.86 2927.58,-308.05"/>
<polygon fill="black" stroke="black" points="2927.24,-304.57 2917.6,-308.94 2927.87,-311.54 2927.24,-304.57"/>
<text text-anchor="middle" x="3035.82" y="-309.55" font-family="Times,serif" font-size="14.00">{r3}</text>
</g>
<!-- 1 -->
<g id="node3" class="node">
<title>1</title>
<ellipse fill="none" stroke="black" cx="2174.32" cy="-226.25" rx="27" ry="18"/>
<text text-anchor="middle" x="2174.32" y="-222.55" font-family="Times,serif" font-size="14.00">1</text>
</g>
<!-- 0&#45;&gt;1 -->
<g id="edge2" class="edge">
<title>0&#45;&gt;1</title>
<path fill="none" stroke="black" d="M2864.12,-311.95C2690.49,-310 1743.85,-298.4 1723.32,-277.25 1718.68,-272.47 1718.79,-267.14 1723.32,-262.25 1751.17,-232.15 2033.77,-227.87 2136.9,-227.31"/>
<polygon fill="black" stroke="black" points="2137.18,-230.81 2147.16,-227.27 2137.15,-223.81 2137.18,-230.81"/>
<text text-anchor="middle" x="1764.32" y="-266.05" font-family="Times,serif" font-size="14.00">{r0, r1, r3, r4}</text>
</g>
<!-- 0&#45;&gt;1 -->
<g id="edge3" class="edge">
<title>0&#45;&gt;1</title>
<path fill="none" stroke="black" d="M2864.21,-312.41C2701.99,-313.23 1865.41,-315.59 1828.32,-277.25 1784.54,-232.01 2038.9,-227.26 2136.97,-227.08"/>
<polygon fill="black" stroke="black" points="2137.05,-230.58 2147.05,-227.08 2137.04,-223.58 2137.05,-230.58"/>
<text text-anchor="middle" x="1850.32" y="-266.05" font-family="Times,serif" font-size="14.00">{r0, r4}</text>
</g>
<!-- 0&#45;&gt;1 -->
<g id="edge4" class="edge">
<title>0&#45;&gt;1</title>
<path fill="none" stroke="black" d="M2864.16,-312.35C2707.99,-312.77 1929.91,-313.08 1895.32,-277.25 1860.86,-241.56 2053.75,-231.07 2137.24,-228.23"/>
<polygon fill="black" stroke="black" points="2137.45,-231.72 2147.33,-227.9 2137.22,-224.73 2137.45,-231.72"/>
<text text-anchor="middle" x="1945.32" y="-266.05" font-family="Times,serif" font-size="14.00">{r0, r1, r2, r3, r4}</text>
</g>
<!-- 0&#45;&gt;1 -->
<g id="edge5" class="edge">
<title>0&#45;&gt;1</title>
<path fill="none" stroke="black" d="M2864.3,-312.21C2720.28,-311.85 2048.33,-308.49 2018.32,-277.25 1981.78,-239.21 2080.05,-230.05 2136.99,-227.88"/>
<polygon fill="black" stroke="black" points="2137.21,-231.38 2147.09,-227.55 2136.99,-224.38 2137.21,-231.38"/>
<text text-anchor="middle" x="2030.82" y="-266.05" font-family="Times,serif" font-size="14.00">{r0}</text>
</g>
<!-- 0&#45;&gt;1 -->
<g id="edge7" class="edge">
<title>0&#45;&gt;1</title>
<path fill="none" stroke="black" d="M2863.97,-312.14C2724.13,-311.44 2094.53,-306.68 2066.32,-277.25 2041.99,-251.86 2097.74,-238.13 2137.85,-231.78"/>
<polygon fill="black" stroke="black" points="2138.52,-235.22 2147.9,-230.29 2137.5,-228.29 2138.52,-235.22"/>
<text text-anchor="middle" x="2097.82" y="-266.05" font-family="Times,serif" font-size="14.00">{r0, r1, r3}</text>
</g>
<!-- 0&#45;&gt;1 -->
<g id="edge8" class="edge">
<title>0&#45;&gt;1</title>
<path fill="none" stroke="black" d="M2864.28,-312C2734.13,-310.68 2177.36,-303.51 2152.32,-277.25 2145.1,-269.68 2148.18,-259.36 2154.03,-250.06"/>
<polygon fill="black" stroke="black" points="2156.9,-252.06 2159.96,-241.91 2151.24,-247.94 2156.9,-252.06"/>
<text text-anchor="middle" x="2193.32" y="-266.05" font-family="Times,serif" font-size="14.00">{r0, r1, r2, r3}</text>
</g>
<!-- 0&#45;&gt;1 -->
<g id="edge10" class="edge">
<title>0&#45;&gt;1</title>
<path fill="none" stroke="black" d="M2864.07,-312.61C2757.95,-313.71 2372.56,-314.99 2257.32,-277.25 2245.72,-273.45 2244.7,-268.66 2234.32,-262.25 2224.18,-255.99 2212.94,-249.36 2202.95,-243.56"/>
<polygon fill="black" stroke="black" points="2204.6,-240.48 2194.19,-238.51 2201.11,-246.54 2204.6,-240.48"/>
<text text-anchor="middle" x="2288.82" y="-266.05" font-family="Times,serif" font-size="14.00">{r0, r1, r2}</text>
</g>
<!-- 0&#45;&gt;1 -->
<g id="edge11" class="edge">
<title>0&#45;&gt;1</title>
<path fill="none" stroke="black" d="M2864.21,-312.33C2767.73,-312.34 2441.59,-309.91 2343.32,-277.25 2331.74,-273.4 2331.53,-267.08 2320.32,-262.25 2284.56,-246.85 2240.81,-237.5 2210.59,-232.39"/>
<polygon fill="black" stroke="black" points="2210.92,-228.9 2200.49,-230.76 2209.8,-235.81 2210.92,-228.9"/>
<text text-anchor="middle" x="2374.82" y="-266.05" font-family="Times,serif" font-size="14.00">{r0, r3, r4}</text>
</g>
<!-- 0&#45;&gt;1 -->
<g id="edge12" class="edge">
<title>0&#45;&gt;1</title>
<path fill="none" stroke="black" d="M2864.37,-311.96C2778.28,-310.76 2510.74,-304.84 2429.32,-277.25 2417.76,-273.33 2417.72,-266.59 2406.32,-262.25 2340.67,-237.25 2258.18,-230.05 2211.34,-228.01"/>
<polygon fill="black" stroke="black" points="2211.47,-224.51 2201.35,-227.63 2211.21,-231.51 2211.47,-224.51"/>
<text text-anchor="middle" x="2460.82" y="-266.05" font-family="Times,serif" font-size="14.00">{r0, r1, r4}</text>
</g>
<!-- 0&#45;&gt;1 -->
<g id="edge14" class="edge">
<title>0&#45;&gt;1</title>
<path fill="none" stroke="black" d="M2864.22,-311.41C2789.18,-308.84 2579.94,-299.77 2515.32,-277.25 2503.79,-273.23 2503.81,-266.36 2492.32,-262.25 2441.36,-244.01 2283.65,-233.25 2211.29,-229.16"/>
<polygon fill="black" stroke="black" points="2211.44,-225.66 2201.26,-228.61 2211.05,-232.65 2211.44,-225.66"/>
<text text-anchor="middle" x="2546.82" y="-266.05" font-family="Times,serif" font-size="14.00">{r0, r2, r3}</text>
</g>
<!-- 0&#45;&gt;1 -->
<g id="edge15" class="edge">
<title>0&#45;&gt;1</title>
<path fill="none" stroke="black" d="M2863.98,-313.01C2811.42,-313.62 2693.29,-310.72 2601.32,-277.25 2589.85,-273.08 2589.86,-266.23 2578.32,-262.25 2511.08,-239.05 2298.27,-230.67 2211.6,-228.17"/>
<polygon fill="black" stroke="black" points="2211.52,-224.66 2201.43,-227.88 2211.33,-231.66 2211.52,-224.66"/>
<text text-anchor="middle" x="2623.32" y="-266.05" font-family="Times,serif" font-size="14.00">{r0, r3}</text>
</g>
<!-- 0&#45;&gt;1 -->
<g id="edge16" class="edge">
<title>0&#45;&gt;1</title>
<path fill="none" stroke="black" d="M2864.3,-311.64C2821.38,-309.88 2735.63,-303.11 2668.32,-277.25 2656.93,-272.87 2656.88,-266.16 2645.32,-262.25 2565.21,-235.16 2308.42,-229 2211.67,-227.63"/>
<polygon fill="black" stroke="black" points="2211.53,-224.13 2201.48,-227.5 2211.43,-231.13 2211.53,-224.13"/>
<text text-anchor="middle" x="2690.32" y="-266.05" font-family="Times,serif" font-size="14.00">{r0, r2}</text>
</g>
<!-- 0&#45;&gt;1 -->
<g id="edge17" class="edge">
<title>0&#45;&gt;1</title>
<path fill="none" stroke="black" d="M2864.77,-309.23C2833,-304.95 2778.67,-295.54 2735.32,-277.25 2724.07,-272.5 2723.9,-266.11 2712.32,-262.25 2619.27,-231.27 2318.07,-227.55 2211.83,-227.23"/>
<polygon fill="black" stroke="black" points="2211.6,-223.73 2201.59,-227.21 2211.59,-230.73 2211.6,-223.73"/>
<text text-anchor="middle" x="2776.32" y="-266.05" font-family="Times,serif" font-size="14.00">{r0, r1, r2, r4}</text>
</g>
<!-- 0&#45;&gt;1 -->
<g id="edge18" class="edge">
<title>0&#45;&gt;1</title>
<path fill="none" stroke="black" d="M2873.16,-299.8C2851.76,-285.17 2818.9,-262.78 2817.32,-262.25 2759.99,-242.98 2340.06,-231.28 2211.57,-228.12"/>
<polygon fill="black" stroke="black" points="2211.52,-224.62 2201.44,-227.87 2211.35,-231.61 2211.52,-224.62"/>
<text text-anchor="middle" x="2878.32" y="-266.05" font-family="Times,serif" font-size="14.00">{r0, r2, r3, r4}</text>
</g>
<!-- 0&#45;&gt;1 -->
<g id="edge19" class="edge">
<title>0&#45;&gt;1</title>
<path fill="none" stroke="black" d="M2908.79,-298.9C2920.76,-288.19 2932.75,-273.19 2922.32,-262.25 2897.58,-236.33 2360.61,-229.1 2212.09,-227.59"/>
<polygon fill="black" stroke="black" points="2211.72,-224.08 2201.68,-227.48 2211.65,-231.08 2211.72,-224.08"/>
<text text-anchor="middle" x="2947.32" y="-266.05" font-family="Times,serif" font-size="14.00">{r0, r1}</text>
</g>
<!-- 0&#45;&gt;1 -->
<g id="edge21" class="edge">
<title>0&#45;&gt;1</title>
<path fill="none" stroke="black" d="M2916.55,-306.8C2947.51,-299.04 2993.55,-283.39 2973.32,-262.25 2946.72,-234.45 2367.06,-228.55 2212.12,-227.47"/>
<polygon fill="black" stroke="black" points="2211.73,-223.97 2201.71,-227.4 2211.68,-230.97 2211.73,-223.97"/>
<text text-anchor="middle" x="3008.82" y="-266.05" font-family="Times,serif" font-size="14.00">{r0, r2, r4}</text>
</g>
<!-- 2 -->
<g id="node4" class="node">
<title>2</title>
<ellipse fill="none" stroke="black" cx="2777.32" cy="-48.25" rx="27" ry="18"/>
<text text-anchor="middle" x="2777.32" y="-44.55" font-family="Times,serif" font-size="14.00">2</text>
</g>
<!-- 0&#45;&gt;2 -->
<g id="edge22" class="edge">
<title>0&#45;&gt;2</title>
<path fill="none" stroke="black" d="M2918.08,-310.06C2957.66,-306.2 3028.82,-296.69 3044.32,-277.25 3045.94,-275.22 3045.5,-138.82 3031.32,-121.25 3003.91,-87.3 2876.77,-64.02 2813.41,-54.32"/>
<polygon fill="black" stroke="black" points="2813.86,-50.85 2803.45,-52.83 2812.82,-57.77 2813.86,-50.85"/>
<text text-anchor="middle" x="3064.32" y="-179.05" font-family="Times,serif" font-size="14.00">{r1, r4}</text>
</g>
<!-- 0&#45;&gt;2 -->
<g id="edge23" class="edge">
<title>0&#45;&gt;2</title>
<path fill="none" stroke="black" d="M2917.95,-309.8C2959.6,-305.46 3037.58,-295.16 3058.32,-277.25 3094.27,-246.19 3105.48,-220.28 3090.32,-175.25 3053.67,-66.38 2889.5,-50.37 2814.68,-48.83"/>
<polygon fill="black" stroke="black" points="2814.36,-45.33 2804.32,-48.7 2814.27,-52.33 2814.36,-45.33"/>
<text text-anchor="middle" x="3106.82" y="-179.05" font-family="Times,serif" font-size="14.00">{r1}</text>
</g>
<!-- 0&#45;&gt;2 -->
<g id="edge24" class="edge">
<title>0&#45;&gt;2</title>
<path fill="none" stroke="black" d="M2918.56,-312.87C2957.04,-312.55 3028.33,-307.44 3079.32,-277.25 3121.8,-252.1 3138.79,-222.13 3123.32,-175.25 3105.88,-122.42 3085.24,-108.23 3033.32,-88.25 2959.28,-59.77 2865.69,-52.02 2814.67,-49.96"/>
<polygon fill="black" stroke="black" points="2814.57,-46.45 2804.45,-49.6 2814.32,-53.45 2814.57,-46.45"/>
<text text-anchor="middle" x="3148.32" y="-179.05" font-family="Times,serif" font-size="14.00">{r2, r3}</text>
</g>
<!-- 0&#45;&gt;2 -->
<g id="edge25" class="edge">
<title>0&#45;&gt;2</title>
<path fill="none" stroke="black" d="M2918.39,-312.94C2960.36,-312.92 3042.6,-308.44 3103.32,-277.25 3152.45,-252.01 3195.92,-226.09 3174.32,-175.25 3149.81,-117.56 3122.45,-109.03 3063.32,-88.25 2977.82,-58.2 2870.39,-51.14 2814.69,-49.59"/>
<polygon fill="black" stroke="black" points="2814.66,-46.09 2804.58,-49.35 2814.5,-53.09 2814.66,-46.09"/>
<text text-anchor="middle" x="3190.82" y="-179.05" font-family="Times,serif" font-size="14.00">{r2}</text>
</g>
<!-- 0&#45;&gt;2 -->
<g id="edge26" class="edge">
<title>0&#45;&gt;2</title>
<path fill="none" stroke="black" d="M2918.33,-312.13C3002.1,-310.52 3249.39,-295.62 3207.32,-175.25 3186.75,-116.41 3157.06,-106.04 3097.32,-88.25 2998.14,-58.71 2875.3,-51.5 2814.71,-49.77"/>
<polygon fill="black" stroke="black" points="2814.57,-46.26 2804.49,-49.51 2814.4,-53.26 2814.57,-46.26"/>
<text text-anchor="middle" x="3232.32" y="-179.05" font-family="Times,serif" font-size="14.00">{r2, r4}</text>
</g>
<!-- 0&#45;&gt;2 -->
<g id="edge27" class="edge">
<title>0&#45;&gt;2</title>
<path fill="none" stroke="black" d="M2918.19,-310.58C2979.01,-306.54 3125.48,-295.21 3171.32,-277.25 3226.8,-255.52 3282.1,-229.88 3258.32,-175.25 3231.3,-113.19 3198.31,-107.18 3133.32,-88.25 3020.79,-55.48 2880.95,-49.82 2815.04,-49.12"/>
<polygon fill="black" stroke="black" points="2814.76,-45.62 2804.74,-49.04 2814.71,-52.62 2814.76,-45.62"/>
<text text-anchor="middle" x="3293.82" y="-179.05" font-family="Times,serif" font-size="14.00">{r1, r3, r4}</text>
</g>
<!-- 0&#45;&gt;2 -->
<g id="edge28" class="edge">
<title>0&#45;&gt;2</title>
<path fill="none" stroke="black" d="M2918.64,-312.58C2973.64,-312.51 3101.12,-308.62 3202.32,-277.25 3271.47,-255.81 3363.66,-238.98 3329.32,-175.25 3308.62,-136.83 3285.7,-142.02 3247.32,-121.25 3214.93,-103.72 3206.96,-97.51 3171.32,-88.25 3043.49,-55.04 2885.6,-49.71 2814.78,-49.12"/>
<polygon fill="black" stroke="black" points="2814.6,-45.62 2804.58,-49.06 2814.56,-52.62 2814.6,-45.62"/>
<text text-anchor="middle" x="3365.82" y="-179.05" font-family="Times,serif" font-size="14.00">{r1, r2, r4}</text>
</g>
<!-- 0&#45;&gt;2 -->
<g id="edge29" class="edge">
<title>0&#45;&gt;2</title>
<path fill="none" stroke="black" d="M2918.39,-311.78C2977.52,-310.26 3122.42,-303.88 3240.32,-277.25 3282.69,-267.68 3294.29,-265.24 3332.32,-244.25 3370.29,-223.3 3423.98,-212.23 3401.32,-175.25 3373.69,-130.17 3343.74,-142.48 3295.32,-121.25 3256.68,-104.31 3247.46,-97.57 3206.32,-88.25 3064.16,-56.03 2889.78,-50.27 2814.66,-49.35"/>
<polygon fill="black" stroke="black" points="2814.34,-45.84 2804.31,-49.25 2814.27,-52.84 2814.34,-45.84"/>
<text text-anchor="middle" x="3428.32" y="-179.05" font-family="Times,serif" font-size="14.00">{r1, r2}</text>
</g>
<!-- 0&#45;&gt;2 -->
<g id="edge30" class="edge">
<title>0&#45;&gt;2</title>
<path fill="none" stroke="black" d="M2918.59,-312C2982.62,-310.93 3147.27,-305.42 3281.32,-277.25 3326.29,-267.8 3338.44,-265.24 3379.32,-244.25 3419.61,-223.56 3477.52,-214.15 3454.32,-175.25 3387.76,-63.66 2946.16,-50.73 2814.38,-49.37"/>
<polygon fill="black" stroke="black" points="2814.4,-45.87 2804.37,-49.28 2814.34,-52.87 2814.4,-45.87"/>
<text text-anchor="middle" x="3481.32" y="-179.05" font-family="Times,serif" font-size="14.00">{r1, r3}</text>
</g>
<!-- 0&#45;&gt;2 -->
<g id="edge31" class="edge">
<title>0&#45;&gt;2</title>
<path fill="none" stroke="black" d="M2918.46,-312.15C2987.1,-311.46 3172.94,-306.77 3324.32,-277.25 3372.33,-267.89 3385.38,-265.75 3429.32,-244.25 3470.89,-223.91 3529.61,-215.81 3507.32,-175.25 3439.57,-51.94 2954.37,-47.37 2814.79,-48.65"/>
<polygon fill="black" stroke="black" points="2814.56,-45.15 2804.6,-48.76 2814.64,-52.15 2814.56,-45.15"/>
<text text-anchor="middle" x="3542.82" y="-179.05" font-family="Times,serif" font-size="14.00">{r1, r2, r3}</text>
</g>
<!-- 0&#45;&gt;2 -->
<g id="edge32" class="edge">
<title>0&#45;&gt;2</title>
<path fill="none" stroke="black" d="M2918.48,-311.94C3054.12,-309.86 3648.78,-293.95 3578.32,-175.25 3528.42,-91.19 3472.36,-106.47 3376.32,-88.25 3166.82,-48.49 2909.55,-47.37 2814.71,-48.53"/>
<polygon fill="black" stroke="black" points="2814.43,-45.03 2804.48,-48.67 2814.53,-52.03 2814.43,-45.03"/>
<text text-anchor="middle" x="3614.82" y="-179.05" font-family="Times,serif" font-size="14.00">{r2, r3, r4}</text>
</g>
<!-- 0&#45;&gt;2 -->
<g id="edge33" class="edge">
<title>0&#45;&gt;2</title>
<path fill="none" stroke="black" d="M2918.31,-312.46C3061.75,-313.04 3725.36,-308.56 3650.32,-175.25 3600.76,-87.21 3540.01,-104.59 3440.32,-88.25 3204.32,-49.56 2915.53,-47.96 2814.4,-48.75"/>
<polygon fill="black" stroke="black" points="2814.35,-45.25 2804.38,-48.84 2814.41,-52.25 2814.35,-45.25"/>
<text text-anchor="middle" x="3696.32" y="-179.05" font-family="Times,serif" font-size="14.00">{r1, r2, r3, r4}</text>
</g>
<!-- 1&#45;&gt;1 -->
<g id="edge73" class="edge">
<title>1&#45;&gt;1</title>
<path fill="none" stroke="black" d="M2201.56,-228.22C2211.34,-228.26 2219.32,-227.6 2219.32,-226.25 2219.32,-225.42 2216.36,-224.86 2211.83,-224.55"/>
<polygon fill="black" stroke="black" points="2211.65,-221.05 2201.56,-224.28 2211.46,-228.04 2211.65,-221.05"/>
<text text-anchor="middle" x="2231.82" y="-222.55" font-family="Times,serif" font-size="14.00">{r3}</text>
</g>
<!-- 1&#45;&gt;1 -->
<g id="edge80" class="edge">
<title>1&#45;&gt;1</title>
<path fill="none" stroke="black" d="M2200.95,-229.7C2221.94,-230.95 2244.32,-229.8 2244.32,-226.25 2244.32,-223.28 2228.68,-221.99 2211.29,-222.38"/>
<polygon fill="black" stroke="black" points="2210.8,-218.9 2200.95,-222.8 2211.08,-225.89 2210.8,-218.9"/>
<text text-anchor="middle" x="2251.32" y="-222.55" font-family="Times,serif" font-size="14.00">{}</text>
</g>
<!-- 1&#45;&gt;1 -->
<g id="edge83" class="edge">
<title>1&#45;&gt;1</title>
<path fill="none" stroke="black" d="M2200.8,-230.81C2229.07,-233.59 2262.32,-232.06 2262.32,-226.25 2262.32,-221.12 2236.41,-219.33 2210.88,-220.89"/>
<polygon fill="black" stroke="black" points="2210.49,-217.41 2200.8,-221.68 2211.05,-224.39 2210.49,-217.41"/>
<text text-anchor="middle" x="2274.82" y="-222.55" font-family="Times,serif" font-size="14.00">{r4}</text>
</g>
<!-- 1&#45;&gt;1 -->
<g id="edge85" class="edge">
<title>1&#45;&gt;1</title>
<path fill="none" stroke="black" d="M2200.28,-231.49C2237.51,-236.28 2287.32,-234.53 2287.32,-226.25 2287.32,-218.71 2246.06,-216.58 2210.58,-219.87"/>
<polygon fill="black" stroke="black" points="2209.84,-216.43 2200.28,-221.01 2210.61,-223.39 2209.84,-216.43"/>
<text text-anchor="middle" x="2309.32" y="-222.55" font-family="Times,serif" font-size="14.00">{r3, r4}</text>
</g>
<!-- 1&#45;&gt;2 -->
<g id="edge86" class="edge">
<title>1&#45;&gt;2</title>
<path fill="none" stroke="black" d="M2183.15,-209.22C2187.74,-198.52 2190.95,-184.73 2183.32,-175.25 2159.93,-146.17 2124.7,-186.32 2101.32,-157.25 2091.29,-144.78 2090.77,-133.28 2101.32,-121.25 2121.57,-98.17 2209.09,-112.65 2238.32,-103.25 2251.76,-98.93 2252.69,-91.94 2266.32,-88.25 2368.27,-60.6 2639.89,-99.74 2741.32,-70.25 2744.35,-69.37 2747.39,-68.18 2750.35,-66.81"/>
<polygon fill="black" stroke="black" points="2752.23,-69.77 2759.43,-61.99 2748.95,-63.59 2752.23,-69.77"/>
<text text-anchor="middle" x="2123.32" y="-135.55" font-family="Times,serif" font-size="14.00">{r0, r4}</text>
</g>
<!-- 1&#45;&gt;2 -->
<g id="edge87" class="edge">
<title>1&#45;&gt;2</title>
<path fill="none" stroke="black" d="M2188.05,-210.37C2192.55,-204.53 2196.99,-197.5 2199.32,-190.25 2201.35,-183.9 2201.87,-181.41 2199.32,-175.25 2194.99,-164.8 2185.65,-167.7 2181.32,-157.25 2175.2,-142.47 2171.29,-133.72 2181.32,-121.25 2204.7,-92.17 2228.32,-116.18 2263.32,-103.25 2276.56,-98.36 2277.7,-91.96 2291.32,-88.25 2387.88,-61.95 2645.25,-98.29 2741.32,-70.25 2744.35,-69.37 2747.39,-68.17 2750.35,-66.8"/>
<polygon fill="black" stroke="black" points="2752.23,-69.77 2759.42,-61.99 2748.95,-63.58 2752.23,-69.77"/>
<text text-anchor="middle" x="2203.32" y="-135.55" font-family="Times,serif" font-size="14.00">{r2, r3}</text>
</g>
<!-- 1&#45;&gt;2 -->
<g id="edge88" class="edge">
<title>1&#45;&gt;2</title>
<path fill="none" stroke="black" d="M2191.05,-211.73C2198.26,-205.54 2206.57,-197.89 2213.32,-190.25 2238.05,-162.25 2234.03,-146.76 2261.32,-121.25 2266.53,-116.38 2309.49,-90.3 2316.32,-88.25 2406.86,-61.09 2650.61,-96.85 2741.32,-70.25 2744.35,-69.36 2747.39,-68.17 2750.35,-66.8"/>
<polygon fill="black" stroke="black" points="2752.23,-69.76 2759.42,-61.98 2748.95,-63.58 2752.23,-69.76"/>
<text text-anchor="middle" x="2283.32" y="-135.55" font-family="Times,serif" font-size="14.00">{r0, r2}</text>
</g>
<!-- 1&#45;&gt;2 -->
<g id="edge89" class="edge">
<title>1&#45;&gt;2</title>
<path fill="none" stroke="black" d="M2196.84,-216.1C2223.94,-204.53 2270.17,-182.99 2305.32,-157.25 2323.57,-143.88 2323.66,-135.4 2341.32,-121.25 2362.68,-104.14 2367.24,-96.56 2393.32,-88.25 2540.88,-41.21 2592.91,-114.52 2741.32,-70.25 2744.34,-69.35 2747.38,-68.14 2750.34,-66.77"/>
<polygon fill="black" stroke="black" points="2752.23,-69.73 2759.41,-61.94 2748.94,-63.55 2752.23,-69.73"/>
<text text-anchor="middle" x="2363.32" y="-135.55" font-family="Times,serif" font-size="14.00">{r0, r3}</text>
</g>
<!-- 1&#45;&gt;2 -->
<g id="edge90" class="edge">
<title>1&#45;&gt;2</title>
<path fill="none" stroke="black" d="M2200.32,-220.96C2241.88,-213.25 2324.73,-194.28 2385.32,-157.25 2422.32,-134.63 2414.79,-106.09 2454.32,-88.25 2512.56,-61.96 2680.18,-88.85 2741.32,-70.25 2744.34,-69.33 2747.37,-68.12 2750.33,-66.73"/>
<polygon fill="black" stroke="black" points="2752.22,-69.69 2759.4,-61.9 2748.93,-63.51 2752.22,-69.69"/>
<text text-anchor="middle" x="2430.82" y="-135.55" font-family="Times,serif" font-size="14.00">{r2}</text>
</g>
<!-- 1&#45;&gt;2 -->
<g id="edge91" class="edge">
<title>1&#45;&gt;2</title>
<path fill="none" stroke="black" d="M2200.18,-220.97C2234.03,-215.14 2295.07,-203.87 2346.32,-190.25 2391.55,-178.23 2406.47,-181.79 2446.32,-157.25 2465.58,-145.38 2464.66,-135.4 2482.32,-121.25 2503.68,-104.14 2508.39,-97.02 2534.32,-88.25 2621.8,-58.66 2653.3,-98.19 2741.32,-70.25 2744.33,-69.29 2747.35,-68.06 2750.3,-66.66"/>
<polygon fill="black" stroke="black" points="2752.21,-69.61 2759.37,-61.8 2748.9,-63.44 2752.21,-69.61"/>
<text text-anchor="middle" x="2504.32" y="-135.55" font-family="Times,serif" font-size="14.00">{r2, r4}</text>
</g>
<!-- 1&#45;&gt;2 -->
<g id="edge92" class="edge">
<title>1&#45;&gt;2</title>
<path fill="none" stroke="black" d="M2200.49,-221.72C2241.4,-216.04 2322.87,-204.11 2391.32,-190.25 2451.86,-177.99 2472.49,-187.54 2526.32,-157.25 2546.04,-146.15 2543.78,-134.22 2562.32,-121.25 2590.84,-101.31 2600.08,-98.54 2633.32,-88.25 2679.81,-73.86 2695.55,-86.78 2741.32,-70.25 2744.22,-69.2 2747.15,-67.92 2750.03,-66.51"/>
<polygon fill="black" stroke="black" points="2751.76,-69.55 2758.89,-61.72 2748.43,-63.4 2751.76,-69.55"/>
<text text-anchor="middle" x="2593.82" y="-135.55" font-family="Times,serif" font-size="14.00">{r0, r2, r4}</text>
</g>
<!-- 1&#45;&gt;2 -->
<g id="edge93" class="edge">
<title>1&#45;&gt;2</title>
<path fill="none" stroke="black" d="M2201.3,-223.52C2286.82,-217.67 2550.59,-196.76 2625.32,-157.25 2625.92,-156.93 2693.75,-88.62 2694.32,-88.25 2713.08,-76.07 2721.15,-79.92 2741.32,-70.25 2743.95,-68.99 2746.64,-67.6 2749.32,-66.17"/>
<polygon fill="black" stroke="black" points="2751.2,-69.12 2758.2,-61.17 2747.77,-63.02 2751.2,-69.12"/>
<text text-anchor="middle" x="2672.82" y="-135.55" font-family="Times,serif" font-size="14.00">{r0}</text>
</g>
<!-- 1&#45;&gt;2 -->
<g id="edge94" class="edge">
<title>1&#45;&gt;2</title>
<path fill="none" stroke="black" d="M2201.24,-224.56C2294.7,-221.72 2603.92,-208.56 2686.32,-157.25 2704.14,-146.15 2738.85,-101.56 2759.87,-73.26"/>
<polygon fill="black" stroke="black" points="2762.81,-75.18 2765.92,-65.05 2757.17,-71.02 2762.81,-75.18"/>
<text text-anchor="middle" x="2752.82" y="-135.55" font-family="Times,serif" font-size="14.00">{r0, r3, r4}</text>
</g>
<!-- 1&#45;&gt;2 -->
<g id="edge95" class="edge">
<title>1&#45;&gt;2</title>
<path fill="none" stroke="black" d="M2201.43,-224.42C2314.96,-220.65 2747.98,-203.32 2785.32,-157.25 2803.86,-134.37 2796.72,-99.06 2788.38,-75.1"/>
<polygon fill="black" stroke="black" points="2791.6,-73.72 2784.81,-65.59 2785.05,-76.18 2791.6,-73.72"/>
<text text-anchor="middle" x="2827.82" y="-135.55" font-family="Times,serif" font-size="14.00">{r0, r2, r3}</text>
</g>
<!-- 1&#45;&gt;2 -->
<g id="edge96" class="edge">
<title>1&#45;&gt;2</title>
<path fill="none" stroke="black" d="M2201.55,-224.81C2324.24,-222.53 2821.45,-210.05 2863.32,-157.25 2889.16,-124.67 2840.47,-86.64 2806.41,-65.52"/>
<polygon fill="black" stroke="black" points="2808.07,-62.43 2797.69,-60.28 2804.46,-68.43 2808.07,-62.43"/>
<text text-anchor="middle" x="2901.82" y="-135.55" font-family="Times,serif" font-size="14.00">{r2, r3, r4}</text>
</g>
<!-- 1&#45;&gt;2 -->
<g id="edge97" class="edge">
<title>1&#45;&gt;2</title>
<path fill="none" stroke="black" d="M2201.39,-225.11C2331.83,-224.13 2891.08,-216.47 2937.32,-157.25 2976.23,-107.41 2870.88,-72.37 2812.77,-57.39"/>
<polygon fill="black" stroke="black" points="2813.41,-53.94 2802.86,-54.91 2811.71,-60.73 2813.41,-53.94"/>
<text text-anchor="middle" x="2986.32" y="-135.55" font-family="Times,serif" font-size="14.00">{r0, r2, r3, r4}</text>
</g>
<!-- 3 -->
<g id="node5" class="node">
<title>3</title>
<ellipse fill="none" stroke="black" cx="1282.32" cy="-139.25" rx="27" ry="18"/>
<text text-anchor="middle" x="1282.32" y="-135.55" font-family="Times,serif" font-size="14.00">3</text>
</g>
<!-- 1&#45;&gt;3 -->
<g id="edge66" class="edge">
<title>1&#45;&gt;3</title>
<path fill="none" stroke="black" d="M2147.1,-225.06C1958.68,-223.7 855.14,-214.69 831.32,-190.25 826.67,-185.47 826.79,-180.14 831.32,-175.25 859.17,-145.15 1141.77,-140.87 1244.9,-140.31"/>
<polygon fill="black" stroke="black" points="1245.18,-143.81 1255.16,-140.27 1245.15,-136.81 1245.18,-143.81"/>
<text text-anchor="middle" x="862.82" y="-179.05" font-family="Times,serif" font-size="14.00">{r1, r2, r3}</text>
</g>
<!-- 1&#45;&gt;3 -->
<g id="edge67" class="edge">
<title>1&#45;&gt;3</title>
<path fill="none" stroke="black" d="M2147.12,-225.01C1965.88,-223.37 939.52,-213.08 917.32,-190.25 870.75,-142.37 1143.12,-139.33 1245.01,-139.84"/>
<polygon fill="black" stroke="black" points="1245.14,-143.34 1255.16,-139.91 1245.19,-136.34 1245.14,-143.34"/>
<text text-anchor="middle" x="939.32" y="-179.05" font-family="Times,serif" font-size="14.00">{r1, r4}</text>
</g>
<!-- 1&#45;&gt;3 -->
<g id="edge68" class="edge">
<title>1&#45;&gt;3</title>
<path fill="none" stroke="black" d="M2147.17,-224.97C1971.79,-223.1 1005.26,-211.82 984.32,-190.25 947.14,-151.96 1157.33,-142.95 1245.14,-140.86"/>
<polygon fill="black" stroke="black" points="1245.3,-144.36 1255.22,-140.64 1245.14,-137.36 1245.3,-144.36"/>
<text text-anchor="middle" x="1015.82" y="-179.05" font-family="Times,serif" font-size="14.00">{r0, r1, r2}</text>
</g>
<!-- 1&#45;&gt;3 -->
<g id="edge69" class="edge">
<title>1&#45;&gt;3</title>
<path fill="none" stroke="black" d="M2147.25,-225.44C1981.45,-226.5 1108.95,-230.13 1070.32,-190.25 1065.68,-185.46 1066.01,-180.33 1070.32,-175.25 1092.31,-149.33 1190.44,-142.58 1245.15,-140.84"/>
<polygon fill="black" stroke="black" points="1245.26,-144.33 1255.16,-140.56 1245.06,-137.34 1245.26,-144.33"/>
<text text-anchor="middle" x="1101.82" y="-179.05" font-family="Times,serif" font-size="14.00">{r0, r1, r4}</text>
</g>
<!-- 1&#45;&gt;3 -->
<g id="edge70" class="edge">
<title>1&#45;&gt;3</title>
<path fill="none" stroke="black" d="M2147.34,-225.37C1989.53,-225.92 1191.74,-226.91 1156.32,-190.25 1127.43,-160.35 1198.4,-147.91 1245.17,-143.07"/>
<polygon fill="black" stroke="black" points="1245.7,-146.53 1255.32,-142.09 1245.03,-139.56 1245.7,-146.53"/>
<text text-anchor="middle" x="1168.82" y="-179.05" font-family="Times,serif" font-size="14.00">{r1}</text>
</g>
<!-- 1&#45;&gt;3 -->
<g id="edge71" class="edge">
<title>1&#45;&gt;3</title>
<path fill="none" stroke="black" d="M2147.13,-225.32C1993.3,-225.58 1237.93,-225.1 1204.32,-190.25 1186.99,-172.28 1219.34,-157.72 1247.5,-149.04"/>
<polygon fill="black" stroke="black" points="1248.58,-152.38 1257.2,-146.22 1246.62,-145.65 1248.58,-152.38"/>
<text text-anchor="middle" x="1235.82" y="-179.05" font-family="Times,serif" font-size="14.00">{r1, r2, r4}</text>
</g>
<!-- 1&#45;&gt;3 -->
<g id="edge72" class="edge">
<title>1&#45;&gt;3</title>
<path fill="none" stroke="black" d="M2147.04,-225.13C2001.65,-224.39 1323.13,-219.37 1290.32,-190.25 1283.87,-184.52 1281.19,-175.84 1280.33,-167.31"/>
<polygon fill="black" stroke="black" points="1283.83,-167.1 1280.07,-157.19 1276.83,-167.28 1283.83,-167.1"/>
<text text-anchor="middle" x="1331.32" y="-179.05" font-family="Times,serif" font-size="14.00">{r0, r1, r3, r4}</text>
</g>
<!-- 1&#45;&gt;3 -->
<g id="edge74" class="edge">
<title>1&#45;&gt;3</title>
<path fill="none" stroke="black" d="M2147.31,-224.88C2018.28,-223 1468.05,-213.66 1395.32,-190.25 1383.7,-186.51 1383.18,-180.82 1372.32,-175.25 1354.24,-165.97 1333.11,-157.63 1315.86,-151.42"/>
<polygon fill="black" stroke="black" points="1316.81,-148.04 1306.21,-148.02 1314.48,-154.64 1316.81,-148.04"/>
<text text-anchor="middle" x="1445.32" y="-179.05" font-family="Times,serif" font-size="14.00">{r0, r1, r2, r3, r4}</text>
</g>
<!-- 1&#45;&gt;3 -->
<g id="edge75" class="edge">
<title>1&#45;&gt;3</title>
<path fill="none" stroke="black" d="M2147.05,-224.63C2030.66,-221.87 1578.69,-209.96 1518.32,-190.25 1506.72,-186.46 1506.7,-179.67 1495.32,-175.25 1436.58,-152.44 1363.12,-144.5 1319.61,-141.73"/>
<polygon fill="black" stroke="black" points="1319.67,-138.23 1309.49,-141.14 1319.27,-145.21 1319.67,-138.23"/>
<text text-anchor="middle" x="1559.32" y="-179.05" font-family="Times,serif" font-size="14.00">{r1, r2, r3, r4}</text>
</g>
<!-- 1&#45;&gt;3 -->
<g id="edge76" class="edge">
<title>1&#45;&gt;3</title>
<path fill="none" stroke="black" d="M2147.06,-225.34C2050.05,-225.39 1722.13,-223.07 1623.32,-190.25 1611.74,-186.4 1611.81,-179.36 1600.32,-175.25 1549.36,-157.01 1391.65,-146.25 1319.29,-142.16"/>
<polygon fill="black" stroke="black" points="1319.44,-138.66 1309.26,-141.61 1319.05,-145.65 1319.44,-138.66"/>
<text text-anchor="middle" x="1654.82" y="-179.05" font-family="Times,serif" font-size="14.00">{r1, r3, r4}</text>
</g>
<!-- 1&#45;&gt;3 -->
<g id="edge77" class="edge">
<title>1&#45;&gt;3</title>
<path fill="none" stroke="black" d="M2147.2,-224.97C2060.55,-223.81 1791.27,-218 1709.32,-190.25 1697.76,-186.34 1697.86,-179.23 1686.32,-175.25 1619.08,-152.05 1406.27,-143.67 1319.6,-141.17"/>
<polygon fill="black" stroke="black" points="1319.52,-137.66 1309.43,-140.88 1319.33,-144.66 1319.52,-137.66"/>
<text text-anchor="middle" x="1731.32" y="-179.05" font-family="Times,serif" font-size="14.00">{r0, r1}</text>
</g>
<!-- 1&#45;&gt;3 -->
<g id="edge78" class="edge">
<title>1&#45;&gt;3</title>
<path fill="none" stroke="black" d="M2147.33,-224.58C2069.41,-222.37 1845.24,-214.07 1776.32,-190.25 1764.78,-186.26 1764.88,-179.16 1753.32,-175.25 1673.21,-148.16 1416.42,-142 1319.67,-140.63"/>
<polygon fill="black" stroke="black" points="1319.53,-137.13 1309.48,-140.5 1319.43,-144.13 1319.53,-137.13"/>
<text text-anchor="middle" x="1807.82" y="-179.05" font-family="Times,serif" font-size="14.00">{r0, r1, r3}</text>
</g>
<!-- 1&#45;&gt;3 -->
<g id="edge79" class="edge">
<title>1&#45;&gt;3</title>
<path fill="none" stroke="black" d="M2147.41,-223.83C2081.7,-220.11 1914.64,-209.04 1862.32,-190.25 1850.83,-186.12 1850.9,-179.09 1839.32,-175.25 1742.53,-143.14 1428.34,-140.17 1319.69,-140.13"/>
<polygon fill="black" stroke="black" points="1319.54,-136.63 1309.54,-140.13 1319.54,-143.63 1319.54,-136.63"/>
<text text-anchor="middle" x="1903.32" y="-179.05" font-family="Times,serif" font-size="14.00">{r0, r1, r2, r3}</text>
</g>
<!-- 1&#45;&gt;3 -->
<g id="edge81" class="edge">
<title>1&#45;&gt;3</title>
<path fill="none" stroke="black" d="M2147.25,-224.18C2106.8,-221.82 2028.76,-214.27 1967.32,-190.25 1955.95,-185.81 1955.92,-179.03 1944.32,-175.25 1884.99,-155.89 1450.96,-144.21 1319.77,-141.09"/>
<polygon fill="black" stroke="black" points="1319.52,-137.59 1309.44,-140.85 1319.36,-144.59 1319.52,-137.59"/>
<text text-anchor="middle" x="1989.32" y="-179.05" font-family="Times,serif" font-size="14.00">{r1, r3}</text>
</g>
<!-- 1&#45;&gt;3 -->
<g id="edge82" class="edge">
<title>1&#45;&gt;3</title>
<path fill="none" stroke="black" d="M2148.19,-221.39C2119.41,-216.54 2072.21,-206.78 2034.32,-190.25 2023.13,-185.37 2022.93,-179.01 2011.32,-175.25 1945.38,-153.91 1459.63,-143.48 1319.85,-140.9"/>
<polygon fill="black" stroke="black" points="1319.7,-137.4 1309.64,-140.71 1319.58,-144.4 1319.7,-137.4"/>
<text text-anchor="middle" x="2056.32" y="-179.05" font-family="Times,serif" font-size="14.00">{r1, r2}</text>
</g>
<!-- 1&#45;&gt;3 -->
<g id="edge84" class="edge">
<title>1&#45;&gt;3</title>
<path fill="none" stroke="black" d="M2152.22,-215.57C2137.54,-208.91 2117.98,-199.62 2101.32,-190.25 2090.68,-184.27 2089.94,-178.98 2078.32,-175.25 2005.73,-151.92 1467.73,-142.81 1319.84,-140.74"/>
<polygon fill="black" stroke="black" points="1319.53,-137.23 1309.49,-140.59 1319.44,-144.23 1319.53,-137.23"/>
<text text-anchor="middle" x="2142.32" y="-179.05" font-family="Times,serif" font-size="14.00">{r0, r1, r2, r4}</text>
</g>
<!-- 2&#45;&gt;2 -->
<g id="edge130" class="edge">
<title>2&#45;&gt;2</title>
<path fill="none" stroke="black" d="M2804.56,-49.75C2814.34,-49.78 2822.32,-49.28 2822.32,-48.25 2822.32,-47.62 2819.36,-47.19 2814.83,-46.96"/>
<polygon fill="black" stroke="black" points="2814.63,-43.45 2804.56,-46.75 2814.49,-50.45 2814.63,-43.45"/>
<text text-anchor="middle" x="2834.82" y="-44.55" font-family="Times,serif" font-size="14.00">{r4}</text>
</g>
<!-- 2&#45;&gt;2 -->
<g id="edge131" class="edge">
<title>2&#45;&gt;2</title>
<path fill="none" stroke="black" d="M2804.31,-50.89C2825.2,-51.82 2847.32,-50.94 2847.32,-48.25 2847.32,-46 2831.86,-45.02 2814.59,-45.3"/>
<polygon fill="black" stroke="black" points="2814.2,-41.8 2804.31,-45.6 2814.42,-48.8 2814.2,-41.8"/>
<text text-anchor="middle" x="2897.32" y="-44.55" font-family="Times,serif" font-size="14.00">{r0, r1, r2, r3, r4}</text>
</g>
<!-- 2&#45;&gt;2 -->
<g id="edge132" class="edge">
<title>2&#45;&gt;2</title>
<path fill="none" stroke="black" d="M2804.12,-51.06C2854.27,-54.03 2947.32,-53.09 2947.32,-48.25 2947.32,-43.72 2865.88,-42.61 2814.32,-44.92"/>
<polygon fill="black" stroke="black" points="2813.93,-41.43 2804.12,-45.44 2814.29,-48.42 2813.93,-41.43"/>
<text text-anchor="middle" x="2969.32" y="-44.55" font-family="Times,serif" font-size="14.00">{r1, r4}</text>
</g>
<!-- 2&#45;&gt;2 -->
<g id="edge133" class="edge">
<title>2&#45;&gt;2</title>
<path fill="none" stroke="black" d="M2804.06,-51.54C2864.84,-56.03 2991.32,-54.94 2991.32,-48.25 2991.32,-41.91 2877.83,-40.6 2814.19,-44.29"/>
<polygon fill="black" stroke="black" points="2813.81,-40.81 2804.06,-44.96 2814.27,-47.8 2813.81,-40.81"/>
<text text-anchor="middle" x="3032.32" y="-44.55" font-family="Times,serif" font-size="14.00">{r0, r1, r2, r3}</text>
</g>
<!-- 2&#45;&gt;2 -->
<g id="edge134" class="edge">
<title>2&#45;&gt;2</title>
<path fill="none" stroke="black" d="M2804.06,-51.77C2881.35,-58.07 3073.32,-56.89 3073.32,-48.25 3073.32,-39.96 2896.78,-38.54 2814.13,-43.99"/>
<polygon fill="black" stroke="black" points="2813.78,-40.51 2804.06,-44.73 2814.29,-47.49 2813.78,-40.51"/>
<text text-anchor="middle" x="3095.32" y="-44.55" font-family="Times,serif" font-size="14.00">{r0, r1}</text>
</g>
<!-- 2&#45;&gt;2 -->
<g id="edge135" class="edge">
<title>2&#45;&gt;2</title>
<path fill="none" stroke="black" d="M2803.98,-52.11C2889.94,-60.07 3117.32,-58.78 3117.32,-48.25 3117.32,-38.11 2906.51,-36.54 2814.12,-43.54"/>
<polygon fill="black" stroke="black" points="2813.66,-40.07 2803.98,-44.39 2814.24,-47.05 2813.66,-40.07"/>
<text text-anchor="middle" x="3129.82" y="-44.55" font-family="Times,serif" font-size="14.00">{r1}</text>
</g>
<!-- 2&#45;&gt;2 -->
<g id="edge136" class="edge">
<title>2&#45;&gt;2</title>
<path fill="none" stroke="black" d="M2803.64,-52.44C2894.89,-62.07 3142.32,-60.68 3142.32,-48.25 3142.32,-36.26 2911.98,-34.54 2813.82,-43.09"/>
<polygon fill="black" stroke="black" points="2813.26,-39.62 2803.64,-44.06 2813.92,-46.59 2813.26,-39.62"/>
<text text-anchor="middle" x="3164.32" y="-44.55" font-family="Times,serif" font-size="14.00">{r0, r4}</text>
</g>
<!-- 2&#45;&gt;2 -->
<g id="edge137" class="edge">
<title>2&#45;&gt;2</title>
<path fill="none" stroke="black" d="M2803.79,-52.7C2903.42,-64.08 3186.32,-62.59 3186.32,-48.25 3186.32,-34.37 2921.36,-32.53 2813.97,-42.74"/>
<polygon fill="black" stroke="black" points="2813.37,-39.28 2803.79,-43.8 2814.09,-46.24 2813.37,-39.28"/>
<text text-anchor="middle" x="3217.82" y="-44.55" font-family="Times,serif" font-size="14.00">{r0, r1, r3}</text>
</g>
<!-- 2&#45;&gt;2 -->
<g id="edge138" class="edge">
<title>2&#45;&gt;2</title>
<path fill="none" stroke="black" d="M2803.54,-52.84C2913.41,-66.09 3249.32,-64.56 3249.32,-48.25 3249.32,-32.41 2932.81,-30.51 2813.76,-42.53"/>
<polygon fill="black" stroke="black" points="2813.1,-39.09 2803.54,-43.66 2813.86,-46.04 2813.1,-39.09"/>
<text text-anchor="middle" x="3280.82" y="-44.55" font-family="Times,serif" font-size="14.00">{r0, r1, r2}</text>
</g>
<!-- 2&#45;&gt;2 -->
<g id="edge139" class="edge">
<title>2&#45;&gt;2</title>
<path fill="none" stroke="black" d="M2803.74,-53.01C2923.8,-68.1 3312.32,-66.51 3312.32,-48.25 3312.32,-30.47 2944.02,-28.5 2813.79,-42.33"/>
<polygon fill="black" stroke="black" points="2813.27,-38.86 2803.74,-43.49 2814.08,-45.82 2813.27,-38.86"/>
<text text-anchor="middle" x="3353.32" y="-44.55" font-family="Times,serif" font-size="14.00">{r0, r1, r2, r4}</text>
</g>
<!-- 2&#45;&gt;2 -->
<g id="edge140" class="edge">
<title>2&#45;&gt;2</title>
<path fill="none" stroke="black" d="M2803.38,-53.06C2934.67,-70.11 3394.32,-68.51 3394.32,-48.25 3394.32,-28.48 2956.84,-26.48 2813.58,-42.23"/>
<polygon fill="black" stroke="black" points="2812.9,-38.78 2803.38,-43.44 2813.73,-45.73 2812.9,-38.78"/>
<text text-anchor="middle" x="3416.32" y="-44.55" font-family="Times,serif" font-size="14.00">{r2, r3}</text>
</g>
<!-- 2&#45;&gt;2 -->
<g id="edge141" class="edge">
<title>2&#45;&gt;2</title>
<path fill="none" stroke="black" d="M2803.6,-53.26C2942.27,-72.11 3438.32,-70.44 3438.32,-48.25 3438.32,-26.57 2965.25,-24.47 2813.93,-41.95"/>
<polygon fill="black" stroke="black" points="2813.09,-38.53 2803.6,-43.24 2813.95,-45.47 2813.09,-38.53"/>
<text text-anchor="middle" x="3460.32" y="-44.55" font-family="Times,serif" font-size="14.00">{r3, r4}</text>
</g>
<!-- 2&#45;&gt;2 -->
<g id="edge142" class="edge">
<title>2&#45;&gt;2</title>
<path fill="none" stroke="black" d="M2803.6,-53.41C2949.29,-74.12 3482.32,-72.4 3482.32,-48.25 3482.32,-24.62 2971.95,-22.47 2813.52,-41.78"/>
<polygon fill="black" stroke="black" points="2813.06,-38.31 2803.6,-43.09 2813.98,-45.25 2813.06,-38.31"/>
<text text-anchor="middle" x="3494.82" y="-44.55" font-family="Times,serif" font-size="14.00">{r3}</text>
</g>
<!-- 2&#45;&gt;2 -->
<g id="edge143" class="edge">
<title>2&#45;&gt;2</title>
<path fill="none" stroke="black" d="M2803.17,-53.53C2953.27,-76.12 3507.32,-74.36 3507.32,-48.25 3507.32,-22.7 2976.82,-20.46 2813.39,-41.55"/>
<polygon fill="black" stroke="black" points="2812.59,-38.13 2803.17,-42.97 2813.55,-45.06 2812.59,-38.13"/>
<text text-anchor="middle" x="3529.32" y="-44.55" font-family="Times,serif" font-size="14.00">{r0, r2}</text>
</g>
<!-- 2&#45;&gt;2 -->
<g id="edge144" class="edge">
<title>2&#45;&gt;2</title>
<path fill="none" stroke="black" d="M2803.31,-53.68C2960.53,-78.12 3551.32,-76.32 3551.32,-48.25 3551.32,-20.74 2983.94,-18.46 2813.26,-41.39"/>
<polygon fill="black" stroke="black" points="2812.7,-37.93 2803.31,-42.82 2813.7,-44.86 2812.7,-37.93"/>
<text text-anchor="middle" x="3573.32" y="-44.55" font-family="Times,serif" font-size="14.00">{r0, r3}</text>
</g>
<!-- 2&#45;&gt;2 -->
<g id="edge145" class="edge">
<title>2&#45;&gt;2</title>
<path fill="none" stroke="black" d="M2803.04,-53.75C2966.7,-80.13 3595.32,-78.3 3595.32,-48.25 3595.32,-18.79 2991.01,-16.45 2813.15,-41.23"/>
<polygon fill="black" stroke="black" points="2812.41,-37.81 2803.04,-42.75 2813.45,-44.73 2812.41,-37.81"/>
<text text-anchor="middle" x="3607.82" y="-44.55" font-family="Times,serif" font-size="14.00">{r2}</text>
</g>
<!-- 2&#45;&gt;2 -->
<g id="edge146" class="edge">
<title>2&#45;&gt;2</title>
<path fill="none" stroke="black" d="M2803.22,-53.92C2972.26,-82.13 3620.32,-80.24 3620.32,-48.25 3620.32,-16.85 2996.09,-14.45 2813.11,-41.04"/>
<polygon fill="black" stroke="black" points="2812.56,-37.58 2803.22,-42.58 2813.64,-44.5 2812.56,-37.58"/>
<text text-anchor="middle" x="3642.32" y="-44.55" font-family="Times,serif" font-size="14.00">{r2, r4}</text>
</g>
<!-- 2&#45;&gt;2 -->
<g id="edge147" class="edge">
<title>2&#45;&gt;2</title>
<path fill="none" stroke="black" d="M2802.95,-53.97C2978.37,-84.14 3664.32,-82.23 3664.32,-48.25 3664.32,-14.88 3002.93,-12.44 2812.95,-40.92"/>
<polygon fill="black" stroke="black" points="2812.27,-37.49 2802.95,-42.53 2813.38,-44.4 2812.27,-37.49"/>
<text text-anchor="middle" x="3695.82" y="-44.55" font-family="Times,serif" font-size="14.00">{r1, r3, r4}</text>
</g>
<!-- 2&#45;&gt;2 -->
<g id="edge148" class="edge">
<title>2&#45;&gt;2</title>
<path fill="none" stroke="black" d="M2802.99,-54.04C2986.77,-86.14 3727.32,-84.21 3727.32,-48.25 3727.32,-12.9 3011.87,-10.44 2812.9,-40.84"/>
<polygon fill="black" stroke="black" points="2812.3,-37.39 2802.99,-42.46 2813.43,-44.3 2812.3,-37.39"/>
<text text-anchor="middle" x="3758.82" y="-44.55" font-family="Times,serif" font-size="14.00">{r1, r2, r4}</text>
</g>
<!-- 2&#45;&gt;2 -->
<g id="edge149" class="edge">
<title>2&#45;&gt;2</title>
<path fill="none" stroke="black" d="M2802.89,-54.09C2994.64,-88.14 3790.32,-86.2 3790.32,-48.25 3790.32,-10.93 3020.84,-8.43 2812.94,-40.75"/>
<polygon fill="black" stroke="black" points="2812.19,-37.32 2802.89,-42.41 2813.33,-44.23 2812.19,-37.32"/>
<text text-anchor="middle" x="3812.32" y="-44.55" font-family="Times,serif" font-size="14.00">{r1, r2}</text>
</g>
<!-- 2&#45;&gt;2 -->
<g id="edge150" class="edge">
<title>2&#45;&gt;2</title>
<path fill="none" stroke="black" d="M2802.83,-54.16C3001.02,-90.15 3834.32,-88.18 3834.32,-48.25 3834.32,-8.96 3027.65,-6.42 2812.9,-40.63"/>
<polygon fill="black" stroke="black" points="2812.1,-37.22 2802.83,-42.34 2813.27,-44.12 2812.1,-37.22"/>
<text text-anchor="middle" x="3865.82" y="-44.55" font-family="Times,serif" font-size="14.00">{r0, r2, r4}</text>
</g>
<!-- 2&#45;&gt;2 -->
<g id="edge151" class="edge">
<title>2&#45;&gt;2</title>
<path fill="none" stroke="black" d="M2802.8,-54.21C3008.86,-92.15 3897.32,-90.17 3897.32,-48.25 3897.32,-6.99 3036.41,-4.42 2812.95,-40.54"/>
<polygon fill="black" stroke="black" points="2812.06,-37.15 2802.8,-42.29 2813.25,-44.04 2812.06,-37.15"/>
<text text-anchor="middle" x="3909.82" y="-44.55" font-family="Times,serif" font-size="14.00">{r0}</text>
</g>
<!-- 2&#45;&gt;2 -->
<g id="edge152" class="edge">
<title>2&#45;&gt;2</title>
<path fill="none" stroke="black" d="M2802.76,-54.29C3013.83,-94.15 3922.32,-92.14 3922.32,-48.25 3922.32,-5.03 3041.12,-2.42 2812.82,-40.42"/>
<polygon fill="black" stroke="black" points="2812,-37.02 2802.76,-42.21 2813.22,-43.91 2812,-37.02"/>
<text text-anchor="middle" x="3944.32" y="-44.55" font-family="Times,serif" font-size="14.00">{r1, r3}</text>
</g>
<!-- 2&#45;&gt;2 -->
<g id="edge153" class="edge">
<title>2&#45;&gt;2</title>
<path fill="none" stroke="black" d="M2802.78,-54.36C3020.34,-96.15 3966.32,-94.12 3966.32,-48.25 3966.32,-3.05 3047.85,-0.41 2812.8,-40.33"/>
<polygon fill="black" stroke="black" points="2812,-36.92 2802.78,-42.14 2813.24,-43.8 2812,-36.92"/>
<text text-anchor="middle" x="3997.82" y="-44.55" font-family="Times,serif" font-size="14.00">{r0, r3, r4}</text>
</g>
<!-- 2&#45;&gt;2 -->
<g id="edge154" class="edge">
<title>2&#45;&gt;2</title>
<path fill="none" stroke="black" d="M2802.83,-54.42C3028.23,-98.16 4029.32,-96.1 4029.32,-48.25 4029.32,-1.08 3056.38,1.59 2812.86,-40.25"/>
<polygon fill="black" stroke="black" points="2812.04,-36.84 2802.83,-42.08 2813.29,-43.73 2812.04,-36.84"/>
<text text-anchor="middle" x="4060.82" y="-44.55" font-family="Times,serif" font-size="14.00">{r0, r2, r3}</text>
</g>
<!-- 2&#45;&gt;2 -->
<g id="edge155" class="edge">
<title>2&#45;&gt;2</title>
<path fill="none" stroke="black" d="M2802.8,-54.46C3035.8,-100.16 4092.32,-98.09 4092.32,-48.25 4092.32,0.91 3064.49,3.6 2812.81,-40.2"/>
<polygon fill="black" stroke="black" points="2812,-36.79 2802.8,-42.04 2813.27,-43.67 2812,-36.79"/>
<text text-anchor="middle" x="4123.82" y="-44.55" font-family="Times,serif" font-size="14.00">{r1, r2, r3}</text>
</g>
<!-- 2&#45;&gt;2 -->
<g id="edge156" class="edge">
<title>2&#45;&gt;2</title>
<path fill="none" stroke="black" d="M2802.7,-54.48C3043.04,-102.16 4155.32,-100.09 4155.32,-48.25 4155.32,2.91 3072.17,5.6 2812.65,-40.16"/>
<polygon fill="black" stroke="black" points="2811.88,-36.75 2802.7,-42.02 2813.17,-43.63 2811.88,-36.75"/>
<text text-anchor="middle" x="4186.82" y="-44.55" font-family="Times,serif" font-size="14.00">{r2, r3, r4}</text>
</g>
<!-- 2&#45;&gt;2 -->
<g id="edge157" class="edge">
<title>2&#45;&gt;2</title>
<path fill="none" stroke="black" d="M2802.9,-54.56C3051.14,-104.16 4218.32,-102.06 4218.32,-48.25 4218.32,4.88 3080.59,7.6 2812.79,-40.08"/>
<polygon fill="black" stroke="black" points="2812.08,-36.65 2802.9,-41.94 2813.37,-43.53 2812.08,-36.65"/>
<text text-anchor="middle" x="4259.32" y="-44.55" font-family="Times,serif" font-size="14.00">{r1, r2, r3, r4}</text>
</g>
<!-- 2&#45;&gt;2 -->
<g id="edge158" class="edge">
<title>2&#45;&gt;2</title>
<path fill="none" stroke="black" d="M2802.73,-54.55C3059.19,-106.17 4300.32,-104.07 4300.32,-48.25 4300.32,6.89 3089.3,9.61 2812.56,-40.09"/>
<polygon fill="black" stroke="black" points="2811.91,-36.65 2802.73,-41.95 2813.21,-43.53 2811.91,-36.65"/>
<text text-anchor="middle" x="4331.82" y="-44.55" font-family="Times,serif" font-size="14.00">{r0, r1, r4}</text>
</g>
<!-- 2&#45;&gt;2 -->
<g id="edge159" class="edge">
<title>2&#45;&gt;2</title>
<path fill="none" stroke="black" d="M2802.82,-54.6C3066.76,-108.17 4363.32,-106.05 4363.32,-48.25 4363.32,8.85 3098.23,11.61 2812.94,-39.96"/>
<polygon fill="black" stroke="black" points="2811.98,-36.58 2802.82,-41.9 2813.29,-43.46 2811.98,-36.58"/>
<text text-anchor="middle" x="4404.32" y="-44.55" font-family="Times,serif" font-size="14.00">{r0, r2, r3, r4}</text>
</g>
<!-- 2&#45;&gt;2 -->
<g id="edge160" class="edge">
<title>2&#45;&gt;2</title>
<path fill="none" stroke="black" d="M2802.92,-54.64C3075.46,-110.17 4445.32,-108.04 4445.32,-48.25 4445.32,10.84 3107.37,13.61 2812.95,-39.93"/>
<polygon fill="black" stroke="black" points="2812.08,-36.53 2802.92,-41.86 2813.4,-43.4 2812.08,-36.53"/>
<text text-anchor="middle" x="4452.32" y="-44.55" font-family="Times,serif" font-size="14.00">{}</text>
</g>
<!-- 2&#45;&gt;2 -->
<g id="edge161" class="edge">
<title>2&#45;&gt;2</title>
<path fill="none" stroke="black" d="M2802.74,-54.67C3079.5,-112.17 4463.32,-110.03 4463.32,-48.25 4463.32,12.81 3111.74,15.62 2812.92,-39.83"/>
<polygon fill="black" stroke="black" points="2811.88,-36.46 2802.74,-41.82 2813.22,-43.33 2811.88,-36.46"/>
<text text-anchor="middle" x="4504.32" y="-44.55" font-family="Times,serif" font-size="14.00">{r0, r1, r3, r4}</text>
</g>
<!-- 3&#45;&gt;2 -->
<g id="edge118" class="edge">
<title>3&#45;&gt;2</title>
<path fill="none" stroke="black" d="M1303.9,-128.14C1318.28,-121.31 1337.55,-111.97 1354.32,-103.25 1366.5,-96.91 1368.05,-91.78 1381.32,-88.25 1527.36,-49.37 2595.7,-110.65 2741.32,-70.25 2744.36,-69.41 2747.41,-68.24 2750.37,-66.89"/>
<polygon fill="black" stroke="black" points="2752.25,-69.86 2759.45,-62.09 2748.98,-63.67 2752.25,-69.86"/>
<text text-anchor="middle" x="1403.32" y="-92.05" font-family="Times,serif" font-size="14.00">{r1, r4}</text>
</g>
<!-- 3&#45;&gt;2 -->
<g id="edge119" class="edge">
<title>3&#45;&gt;2</title>
<path fill="none" stroke="black" d="M1308.48,-134.57C1337.82,-129.83 1386.39,-120.12 1425.32,-103.25 1436.52,-98.4 1436.65,-91.81 1448.32,-88.25 1585.75,-46.35 2602.88,-108.71 2741.32,-70.25 2744.36,-69.41 2747.41,-68.24 2750.37,-66.89"/>
<polygon fill="black" stroke="black" points="2752.25,-69.85 2759.45,-62.09 2748.98,-63.66 2752.25,-69.85"/>
<text text-anchor="middle" x="1470.32" y="-92.05" font-family="Times,serif" font-size="14.00">{r0, r1}</text>
</g>
<!-- 3&#45;&gt;2 -->
<g id="edge120" class="edge">
<title>3&#45;&gt;2</title>
<path fill="none" stroke="black" d="M1309.44,-137.27C1350.38,-135.02 1429.81,-127.6 1492.32,-103.25 1503.69,-98.82 1503.65,-91.81 1515.32,-88.25 1645.62,-48.47 2610.07,-106.77 2741.32,-70.25 2744.36,-69.4 2747.41,-68.24 2750.37,-66.88"/>
<polygon fill="black" stroke="black" points="2752.25,-69.85 2759.45,-62.09 2748.98,-63.66 2752.25,-69.85"/>
<text text-anchor="middle" x="1527.82" y="-92.05" font-family="Times,serif" font-size="14.00">{r1}</text>
</g>
<!-- 3&#45;&gt;2 -->
<g id="edge121" class="edge">
<title>3&#45;&gt;2</title>
<path fill="none" stroke="black" d="M1309.63,-138.44C1357.79,-137.93 1460.25,-133.05 1540.32,-103.25 1551.76,-98.99 1551.65,-91.82 1563.32,-88.25 1688.51,-49.99 2615.22,-105.38 2741.32,-70.25 2744.36,-69.4 2747.41,-68.24 2750.37,-66.88"/>
<polygon fill="black" stroke="black" points="2752.25,-69.85 2759.45,-62.08 2748.98,-63.66 2752.25,-69.85"/>
<text text-anchor="middle" x="1585.32" y="-92.05" font-family="Times,serif" font-size="14.00">{r0, r4}</text>
</g>
<!-- 3&#45;&gt;2 -->
<g id="edge122" class="edge">
<title>3&#45;&gt;2</title>
<path fill="none" stroke="black" d="M1309.35,-136.96C1377.08,-133.48 1552.53,-122.79 1607.32,-103.25 1618.81,-99.15 1618.65,-91.82 1630.32,-88.25 1748.37,-52.11 2622.4,-103.43 2741.32,-70.25 2744.36,-69.4 2747.4,-68.23 2750.37,-66.88"/>
<polygon fill="black" stroke="black" points="2752.24,-69.85 2759.45,-62.08 2748.97,-63.66 2752.24,-69.85"/>
<text text-anchor="middle" x="1661.82" y="-92.05" font-family="Times,serif" font-size="14.00">{r0, r1, r3}</text>
</g>
<!-- 3&#45;&gt;2 -->
<g id="edge123" class="edge">
<title>3&#45;&gt;2</title>
<path fill="none" stroke="black" d="M1309.33,-137.66C1389,-135.67 1621.88,-127.83 1693.32,-103.25 1704.86,-99.28 1704.65,-91.83 1716.32,-88.25 1825.21,-54.83 2631.63,-100.94 2741.32,-70.25 2744.36,-69.4 2747.4,-68.23 2750.37,-66.87"/>
<polygon fill="black" stroke="black" points="2752.24,-69.84 2759.45,-62.07 2748.97,-63.65 2752.24,-69.84"/>
<text text-anchor="middle" x="1738.32" y="-92.05" font-family="Times,serif" font-size="14.00">{r0, r3}</text>
</g>
<!-- 3&#45;&gt;2 -->
<g id="edge124" class="edge">
<title>3&#45;&gt;2</title>
<path fill="none" stroke="black" d="M1309.26,-138.04C1397.32,-137.07 1675.76,-131.79 1760.32,-103.25 1771.88,-99.35 1771.65,-91.84 1783.32,-88.25 1885.08,-56.96 2638.81,-99 2741.32,-70.25 2744.36,-69.4 2747.4,-68.23 2750.37,-66.87"/>
<polygon fill="black" stroke="black" points="2752.24,-69.84 2759.45,-62.07 2748.97,-63.65 2752.24,-69.84"/>
<text text-anchor="middle" x="1814.82" y="-92.05" font-family="Times,serif" font-size="14.00">{r1, r3, r4}</text>
</g>
<!-- 3&#45;&gt;2 -->
<g id="edge125" class="edge">
<title>3&#45;&gt;2</title>
<path fill="none" stroke="black" d="M1309.54,-138.39C1407.97,-138.61 1744.93,-136.84 1846.32,-103.25 1857.9,-99.41 1857.66,-91.85 1869.32,-88.25 1961.92,-59.68 2648.03,-96.5 2741.32,-70.25 2744.36,-69.39 2747.4,-68.22 2750.37,-66.87"/>
<polygon fill="black" stroke="black" points="2752.24,-69.83 2759.45,-62.06 2748.97,-63.64 2752.24,-69.83"/>
<text text-anchor="middle" x="1881.82" y="-92.05" font-family="Times,serif" font-size="14.00">{r0}</text>
</g>
<!-- 3&#45;&gt;2 -->
<g id="edge126" class="edge">
<title>3&#45;&gt;2</title>
<path fill="none" stroke="black" d="M1309.33,-138.54C1412.75,-139.38 1783.36,-139.72 1894.32,-103.25 1905.91,-99.44 1905.66,-91.85 1917.32,-88.25 2004.81,-61.2 2653.18,-95.11 2741.32,-70.25 2744.35,-69.39 2747.4,-68.22 2750.36,-66.86"/>
<polygon fill="black" stroke="black" points="2752.24,-69.83 2759.44,-62.06 2748.97,-63.64 2752.24,-69.83"/>
<text text-anchor="middle" x="1939.32" y="-92.05" font-family="Times,serif" font-size="14.00">{r1, r3}</text>
</g>
<!-- 3&#45;&gt;2 -->
<g id="edge127" class="edge">
<title>3&#45;&gt;2</title>
<path fill="none" stroke="black" d="M1309.34,-137.69C1427.85,-135.11 1898.6,-123.66 1961.32,-103.25 1972.92,-99.47 1972.66,-91.87 1984.32,-88.25 2145.03,-38.39 2579.41,-116.09 2741.32,-70.25 2744.35,-69.39 2747.4,-68.21 2750.36,-66.86"/>
<polygon fill="black" stroke="black" points="2752.24,-69.82 2759.44,-62.05 2748.97,-63.63 2752.24,-69.82"/>
<text text-anchor="middle" x="2015.82" y="-92.05" font-family="Times,serif" font-size="14.00">{r0, r3, r4}</text>
</g>
<!-- 3&#45;&gt;2 -->
<g id="edge128" class="edge">
<title>3&#45;&gt;2</title>
<path fill="none" stroke="black" d="M1309.27,-137.86C1436.75,-135.89 1975.98,-126.24 2047.32,-103.25 2058.93,-99.51 2058.67,-91.88 2070.32,-88.25 2212.72,-43.83 2597.86,-111.11 2741.32,-70.25 2744.35,-69.39 2747.4,-68.21 2750.36,-66.85"/>
<polygon fill="black" stroke="black" points="2752.24,-69.81 2759.44,-62.04 2748.96,-63.62 2752.24,-69.81"/>
<text text-anchor="middle" x="2101.82" y="-92.05" font-family="Times,serif" font-size="14.00">{r0, r1, r4}</text>
</g>
<!-- 3&#45;&gt;2 -->
<g id="edge129" class="edge">
<title>3&#45;&gt;2</title>
<path fill="none" stroke="black" d="M1309.53,-137.99C1446.09,-136.56 2053.39,-128.81 2133.32,-103.25 2144.94,-99.53 2144.68,-91.91 2156.32,-88.25 2280.4,-49.28 2616.3,-106.12 2741.32,-70.25 2744.35,-69.38 2747.39,-68.2 2750.36,-66.83"/>
<polygon fill="black" stroke="black" points="2752.24,-69.8 2759.43,-62.02 2748.96,-63.61 2752.24,-69.8"/>
<text text-anchor="middle" x="2197.32" y="-92.05" font-family="Times,serif" font-size="14.00">{r0, r1, r3, r4}</text>
</g>
<!-- 3&#45;&gt;3 -->
<g id="edge100" class="edge">
<title>3&#45;&gt;3</title>
<path fill="none" stroke="black" d="M1309.56,-141.22C1319.34,-141.26 1327.32,-140.6 1327.32,-139.25 1327.32,-138.42 1324.36,-137.86 1319.83,-137.55"/>
<polygon fill="black" stroke="black" points="1319.65,-134.05 1309.56,-137.28 1319.46,-141.04 1319.65,-134.05"/>
<text text-anchor="middle" x="1339.82" y="-135.55" font-family="Times,serif" font-size="14.00">{r3}</text>
</g>
<!-- 3&#45;&gt;3 -->
<g id="edge103" class="edge">
<title>3&#45;&gt;3</title>
<path fill="none" stroke="black" d="M1308.95,-142.7C1329.94,-143.95 1352.32,-142.8 1352.32,-139.25 1352.32,-136.28 1336.68,-134.99 1319.29,-135.38"/>
<polygon fill="black" stroke="black" points="1318.8,-131.9 1308.95,-135.8 1319.08,-138.89 1318.8,-131.9"/>
<text text-anchor="middle" x="1374.32" y="-135.55" font-family="Times,serif" font-size="14.00">{r3, r4}</text>
</g>
<!-- 3&#45;&gt;3 -->
<g id="edge108" class="edge">
<title>3&#45;&gt;3</title>
<path fill="none" stroke="black" d="M1308.75,-143.44C1344.8,-146.71 1396.32,-145.31 1396.32,-139.25 1396.32,-133.73 1353.64,-132.08 1318.79,-134.29"/>
<polygon fill="black" stroke="black" points="1318.45,-130.81 1308.75,-135.06 1318.99,-137.79 1318.45,-130.81"/>
<text text-anchor="middle" x="1403.32" y="-135.55" font-family="Times,serif" font-size="14.00">{}</text>
</g>
<!-- 3&#45;&gt;3 -->
<g id="edge112" class="edge">
<title>3&#45;&gt;3</title>
<path fill="none" stroke="black" d="M1308.29,-144.24C1350.53,-149.34 1414.32,-147.68 1414.32,-139.25 1414.32,-131.46 1359.87,-129.45 1318.28,-133.21"/>
<polygon fill="black" stroke="black" points="1317.87,-129.74 1308.29,-134.26 1318.6,-136.7 1317.87,-129.74"/>
<text text-anchor="middle" x="1426.82" y="-135.55" font-family="Times,serif" font-size="14.00">{r4}</text>
</g>
<!-- 4 -->
<g id="node6" class="node">
<title>4</title>
<ellipse fill="none" stroke="black" cx="415.32" cy="-48.25" rx="18" ry="18"/>
<ellipse fill="none" stroke="black" cx="415.32" cy="-48.25" rx="22" ry="22"/>
<text text-anchor="middle" x="415.32" y="-44.55" font-family="Times,serif" font-size="14.00">4</text>
</g>
<!-- 3&#45;&gt;4 -->
<g id="edge98" class="edge">
<title>3&#45;&gt;4</title>
<path fill="none" stroke="black" d="M1255.3,-138.03C1072.96,-136.45 28.88,-126.44 6.32,-103.25 -47.4,-48.04 277.94,-47.48 383.24,-48.72"/>
<polygon fill="black" stroke="black" points="383.24,-52.22 393.29,-48.85 383.33,-45.22 383.24,-52.22"/>
<text text-anchor="middle" x="56.32" y="-92.05" font-family="Times,serif" font-size="14.00">{r0, r1, r2, r3, r4}</text>
</g>
<!-- 3&#45;&gt;4 -->
<g id="edge99" class="edge">
<title>3&#45;&gt;4</title>
<path fill="none" stroke="black" d="M1255.19,-137.94C1083.07,-135.94 149.57,-124.13 129.32,-103.25 93,-65.81 301.26,-53.64 383.24,-50.33"/>
<polygon fill="black" stroke="black" points="383.41,-53.82 393.26,-49.94 383.14,-46.83 383.41,-53.82"/>
<text text-anchor="middle" x="160.82" y="-92.05" font-family="Times,serif" font-size="14.00">{r0, r2, r4}</text>
</g>
<!-- 3&#45;&gt;4 -->
<g id="edge101" class="edge">
<title>3&#45;&gt;4</title>
<path fill="none" stroke="black" d="M1255.11,-138.41C1092.27,-139.26 252.56,-141.73 215.32,-103.25 165.46,-51.73 314.51,-47.7 382.93,-48.44"/>
<polygon fill="black" stroke="black" points="383.13,-51.95 393.18,-48.6 383.23,-44.95 383.13,-51.95"/>
<text text-anchor="middle" x="237.32" y="-92.05" font-family="Times,serif" font-size="14.00">{r2, r3}</text>
</g>
<!-- 3&#45;&gt;4 -->
<g id="edge102" class="edge">
<title>3&#45;&gt;4</title>
<path fill="none" stroke="black" d="M1255.31,-138.35C1099.1,-138.8 317.07,-139.24 282.32,-103.25 250.23,-70.01 334.37,-56.59 383.23,-51.72"/>
<polygon fill="black" stroke="black" points="383.72,-55.19 393.35,-50.78 383.07,-48.22 383.72,-55.19"/>
<text text-anchor="middle" x="323.32" y="-92.05" font-family="Times,serif" font-size="14.00">{r0, r1, r2, r3}</text>
</g>
<!-- 3&#45;&gt;4 -->
<g id="edge104" class="edge">
<title>3&#45;&gt;4</title>
<path fill="none" stroke="black" d="M1255.1,-138.23C1108.48,-138.02 418.14,-135.3 387.32,-103.25 378.57,-94.15 384.09,-81.78 392.47,-71.17"/>
<polygon fill="black" stroke="black" points="395.26,-73.3 399.25,-63.48 390.01,-68.67 395.26,-73.3"/>
<text text-anchor="middle" x="409.32" y="-92.05" font-family="Times,serif" font-size="14.00">{r0, r2}</text>
</g>
<!-- 3&#45;&gt;4 -->
<g id="edge105" class="edge">
<title>3&#45;&gt;4</title>
<path fill="none" stroke="black" d="M1255.17,-138.5C1120.33,-139.54 526.14,-141.91 454.32,-103.25 443.72,-97.54 435.29,-87.54 429.02,-77.69"/>
<polygon fill="black" stroke="black" points="431.91,-75.7 423.86,-68.81 425.85,-79.21 431.91,-75.7"/>
<text text-anchor="middle" x="476.32" y="-92.05" font-family="Times,serif" font-size="14.00">{r2, r4}</text>
</g>
<!-- 3&#45;&gt;4 -->
<g id="edge106" class="edge">
<title>3&#45;&gt;4</title>
<path fill="none" stroke="black" d="M1255.09,-137.85C1127.51,-135.84 592.2,-126.11 521.32,-103.25 509.7,-99.5 508.98,-94.19 498.32,-88.25 481.04,-78.62 460.99,-69.15 444.93,-61.96"/>
<polygon fill="black" stroke="black" points="446.06,-58.63 435.5,-57.79 443.23,-65.03 446.06,-58.63"/>
<text text-anchor="middle" x="552.82" y="-92.05" font-family="Times,serif" font-size="14.00">{r2, r3, r4}</text>
</g>
<!-- 3&#45;&gt;4 -->
<g id="edge107" class="edge">
<title>3&#45;&gt;4</title>
<path fill="none" stroke="black" d="M1255.06,-137.67C1136.59,-135.06 669.59,-123.53 607.32,-103.25 595.71,-99.47 595.55,-93.03 584.32,-88.25 538.75,-68.85 481.97,-58.28 447.2,-53.2"/>
<polygon fill="black" stroke="black" points="447.54,-49.72 437.15,-51.8 446.57,-56.65 447.54,-49.72"/>
<text text-anchor="middle" x="629.32" y="-92.05" font-family="Times,serif" font-size="14.00">{r1, r2}</text>
</g>
<!-- 3&#45;&gt;4 -->
<g id="edge109" class="edge">
<title>3&#45;&gt;4</title>
<path fill="none" stroke="black" d="M1255.13,-138.53C1151.9,-139.32 784.43,-139.46 674.32,-103.25 662.73,-99.44 662.69,-92.67 651.32,-88.25 581.84,-61.23 493.75,-52.93 447.32,-50.38"/>
<polygon fill="black" stroke="black" points="447.42,-46.88 437.26,-49.88 447.07,-53.87 447.42,-46.88"/>
<text text-anchor="middle" x="715.32" y="-92.05" font-family="Times,serif" font-size="14.00">{r0, r2, r3, r4}</text>
</g>
<!-- 3&#45;&gt;4 -->
<g id="edge110" class="edge">
<title>3&#45;&gt;4</title>
<path fill="none" stroke="black" d="M1255.25,-138.15C1164.05,-137.54 868.74,-133.25 779.32,-103.25 767.75,-99.37 767.8,-92.39 756.32,-88.25 699.82,-67.89 520.86,-55.41 447.33,-51.03"/>
<polygon fill="black" stroke="black" points="447.46,-47.53 437.27,-50.44 447.05,-54.52 447.46,-47.53"/>
<text text-anchor="middle" x="791.82" y="-92.05" font-family="Times,serif" font-size="14.00">{r2}</text>
</g>
<!-- 3&#45;&gt;4 -->
<g id="edge111" class="edge">
<title>3&#45;&gt;4</title>
<path fill="none" stroke="black" d="M1255.18,-137.92C1169.76,-136.61 907.31,-130.41 827.32,-103.25 815.76,-99.33 815.83,-92.31 804.32,-88.25 738.62,-65.09 528.15,-53.99 447.34,-50.51"/>
<polygon fill="black" stroke="black" points="447.4,-47.01 437.26,-50.08 447.1,-54 447.4,-47.01"/>
<text text-anchor="middle" x="868.32" y="-92.05" font-family="Times,serif" font-size="14.00">{r0, r1, r2, r4}</text>
</g>
<!-- 3&#45;&gt;4 -->
<g id="edge113" class="edge">
<title>3&#45;&gt;4</title>
<path fill="none" stroke="black" d="M1255.31,-137.2C1183.98,-134.17 991.93,-124.25 932.32,-103.25 920.81,-99.19 920.87,-92.18 909.32,-88.25 823.36,-58.97 543.22,-51.46 447.63,-49.73"/>
<polygon fill="black" stroke="black" points="447.48,-46.22 437.42,-49.55 447.36,-53.22 447.48,-46.22"/>
<text text-anchor="middle" x="963.82" y="-92.05" font-family="Times,serif" font-size="14.00">{r1, r2, r3}</text>
</g>
<!-- 3&#45;&gt;4 -->
<g id="edge114" class="edge">
<title>3&#45;&gt;4</title>
<path fill="none" stroke="black" d="M1255.15,-138.56C1206.21,-138.27 1100.69,-133.77 1018.32,-103.25 1006.88,-99.01 1006.89,-92.12 995.32,-88.25 892.48,-53.88 553.67,-49.73 447.46,-49.28"/>
<polygon fill="black" stroke="black" points="447.37,-45.78 437.36,-49.25 447.35,-52.78 447.37,-45.78"/>
<text text-anchor="middle" x="1049.82" y="-92.05" font-family="Times,serif" font-size="14.00">{r0, r1, r2}</text>
</g>
<!-- 3&#45;&gt;4 -->
<g id="edge115" class="edge">
<title>3&#45;&gt;4</title>
<path fill="none" stroke="black" d="M1255.47,-136.19C1219.81,-132.74 1155.38,-124 1104.32,-103.25 1093.01,-98.65 1092.91,-92.07 1081.32,-88.25 961.57,-48.81 563.85,-48.24 447.53,-48.96"/>
<polygon fill="black" stroke="black" points="447.45,-45.46 437.48,-49.03 447.5,-52.46 447.45,-45.46"/>
<text text-anchor="middle" x="1135.82" y="-92.05" font-family="Times,serif" font-size="14.00">{r1, r2, r4}</text>
</g>
<!-- 3&#45;&gt;4 -->
<g id="edge116" class="edge">
<title>3&#45;&gt;4</title>
<path fill="none" stroke="black" d="M1258.27,-130.68C1239.35,-124.36 1212.56,-114.56 1190.32,-103.25 1179.44,-97.71 1178.92,-92.03 1167.32,-88.25 1098.26,-65.76 582.4,-52.93 447.52,-49.93"/>
<polygon fill="black" stroke="black" points="447.49,-46.43 437.41,-49.71 447.33,-53.43 447.49,-46.43"/>
<text text-anchor="middle" x="1221.82" y="-92.05" font-family="Times,serif" font-size="14.00">{r0, r2, r3}</text>
</g>
<!-- 3&#45;&gt;4 -->
<g id="edge117" class="edge">
<title>3&#45;&gt;4</title>
<path fill="none" stroke="black" d="M1277.25,-121.25C1272.87,-109.81 1265.33,-95.54 1253.32,-88.25 1183.57,-45.88 593.56,-47.81 447.78,-48.94"/>
<polygon fill="black" stroke="black" points="447.66,-45.44 437.69,-49.03 447.72,-52.44 447.66,-45.44"/>
<text text-anchor="middle" x="1309.32" y="-92.05" font-family="Times,serif" font-size="14.00">{r1, r2, r3, r4}</text>
</g>
<!-- 4&#45;&gt;4 -->
<g id="edge34" class="edge">
<title>4&#45;&gt;4</title>
<path fill="none" stroke="black" d="M437.53,-49.73C447.11,-49.85 455.32,-49.36 455.32,-48.25 455.32,-47.57 452.27,-47.13 447.72,-46.91"/>
<polygon fill="black" stroke="black" points="447.58,-43.4 437.53,-46.77 447.48,-50.4 447.58,-43.4"/>
<text text-anchor="middle" x="486.82" y="-44.55" font-family="Times,serif" font-size="14.00">{r1, r2, r4}</text>
</g>
<!-- 4&#45;&gt;4 -->
<g id="edge35" class="edge">
<title>4&#45;&gt;4</title>
<path fill="none" stroke="black" d="M437.61,-50.4C469.28,-52.03 518.32,-51.31 518.32,-48.25 518.32,-45.5 478.73,-44.64 447.73,-45.67"/>
<polygon fill="black" stroke="black" points="447.45,-42.18 437.61,-46.1 447.75,-49.18 447.45,-42.18"/>
<text text-anchor="middle" x="559.32" y="-44.55" font-family="Times,serif" font-size="14.00">{r0, r1, r2, r3}</text>
</g>
<!-- 4&#45;&gt;4 -->
<g id="edge36" class="edge">
<title>4&#45;&gt;4</title>
<path fill="none" stroke="black" d="M437.34,-50.72C488.75,-54.09 600.32,-53.27 600.32,-48.25 600.32,-43.55 502.26,-42.53 447.64,-45.2"/>
<polygon fill="black" stroke="black" points="447.12,-41.72 437.34,-45.78 447.52,-48.71 447.12,-41.72"/>
<text text-anchor="middle" x="631.82" y="-44.55" font-family="Times,serif" font-size="14.00">{r0, r1, r2}</text>
</g>
<!-- 4&#45;&gt;4 -->
<g id="edge37" class="edge">
<title>4&#45;&gt;4</title>
<path fill="none" stroke="black" d="M437.54,-51.08C501.85,-56.1 663.32,-55.16 663.32,-48.25 663.32,-41.68 517.23,-40.51 447.62,-44.72"/>
<polygon fill="black" stroke="black" points="447.27,-41.24 437.54,-45.42 447.75,-48.22 447.27,-41.24"/>
<text text-anchor="middle" x="704.32" y="-44.55" font-family="Times,serif" font-size="14.00">{r0, r2, r3, r4}</text>
</g>
<!-- 4&#45;&gt;4 -->
<g id="edge38" class="edge">
<title>4&#45;&gt;4</title>
<path fill="none" stroke="black" d="M437.3,-51.29C515.71,-58.12 745.32,-57.11 745.32,-48.25 745.32,-39.75 533.73,-38.47 447.42,-44.43"/>
<polygon fill="black" stroke="black" points="447,-40.95 437.3,-45.21 447.54,-47.93 447,-40.95"/>
<text text-anchor="middle" x="767.32" y="-44.55" font-family="Times,serif" font-size="14.00">{r0, r3}</text>
</g>
<!-- 4&#45;&gt;4 -->
<g id="edge39" class="edge">
<title>4&#45;&gt;4</title>
<path fill="none" stroke="black" d="M437.33,-51.59C523.57,-60.12 789.32,-59.01 789.32,-48.25 789.32,-37.88 542.43,-36.47 447.36,-44.02"/>
<polygon fill="black" stroke="black" points="446.98,-40.54 437.33,-44.91 447.6,-47.51 446.98,-40.54"/>
<text text-anchor="middle" x="811.32" y="-44.55" font-family="Times,serif" font-size="14.00">{r1, r2}</text>
</g>
<!-- 4&#45;&gt;4 -->
<g id="edge40" class="edge">
<title>4&#45;&gt;4</title>
<path fill="none" stroke="black" d="M437.05,-51.82C530.54,-62.13 833.32,-60.94 833.32,-48.25 833.32,-35.98 550.31,-34.46 447.03,-43.69"/>
<polygon fill="black" stroke="black" points="446.65,-40.21 437.05,-44.68 447.34,-47.18 446.65,-40.21"/>
<text text-anchor="middle" x="864.82" y="-44.55" font-family="Times,serif" font-size="14.00">{r0, r2, r3}</text>
</g>
<!-- 4&#45;&gt;4 -->
<g id="edge41" class="edge">
<title>4&#45;&gt;4</title>
<path fill="none" stroke="black" d="M437.28,-52.02C540.67,-64.13 896.32,-62.87 896.32,-48.25 896.32,-34.07 561.88,-32.46 447.35,-43.42"/>
<polygon fill="black" stroke="black" points="446.86,-39.95 437.28,-44.48 447.6,-46.91 446.86,-39.95"/>
<text text-anchor="middle" x="918.32" y="-44.55" font-family="Times,serif" font-size="14.00">{r0, r1}</text>
</g>
<!-- 4&#45;&gt;4 -->
<g id="edge42" class="edge">
<title>4&#45;&gt;4</title>
<path fill="none" stroke="black" d="M437,-52.18C547.1,-66.14 940.32,-64.83 940.32,-48.25 940.32,-32.14 569.06,-30.45 447.02,-43.17"/>
<polygon fill="black" stroke="black" points="446.53,-39.7 437,-44.32 447.33,-46.65 446.53,-39.7"/>
<text text-anchor="middle" x="981.32" y="-44.55" font-family="Times,serif" font-size="14.00">{r0, r1, r2, r4}</text>
</g>
<!-- 4&#45;&gt;4 -->
<g id="edge43" class="edge">
<title>4&#45;&gt;4</title>
<path fill="none" stroke="black" d="M437.32,-52.32C558.81,-68.14 1022.32,-66.78 1022.32,-48.25 1022.32,-30.2 582.93,-28.44 447.63,-42.96"/>
<polygon fill="black" stroke="black" points="446.84,-39.53 437.32,-44.18 447.66,-46.48 446.84,-39.53"/>
<text text-anchor="middle" x="1029.32" y="-44.55" font-family="Times,serif" font-size="14.00">{}</text>
</g>
<!-- 4&#45;&gt;4 -->
<g id="edge44" class="edge">
<title>4&#45;&gt;4</title>
<path fill="none" stroke="black" d="M437.13,-52.51C562.5,-70.14 1040.32,-68.72 1040.32,-48.25 1040.32,-28.29 586.46,-26.44 447.35,-42.68"/>
<polygon fill="black" stroke="black" points="446.6,-39.25 437.13,-43.99 447.49,-46.19 446.6,-39.25"/>
<text text-anchor="middle" x="1052.82" y="-44.55" font-family="Times,serif" font-size="14.00">{r2}</text>
</g>
<!-- 4&#45;&gt;4 -->
<g id="edge45" class="edge">
<title>4&#45;&gt;4</title>
<path fill="none" stroke="black" d="M436.9,-52.65C566.89,-72.15 1065.32,-70.68 1065.32,-48.25 1065.32,-26.37 590.93,-24.44 447.07,-42.46"/>
<polygon fill="black" stroke="black" points="446.34,-39.02 436.9,-43.85 447.29,-45.96 446.34,-39.02"/>
<text text-anchor="middle" x="1096.82" y="-44.55" font-family="Times,serif" font-size="14.00">{r0, r2, r4}</text>
</g>
<!-- 4&#45;&gt;4 -->
<g id="edge46" class="edge">
<title>4&#45;&gt;4</title>
<path fill="none" stroke="black" d="M436.95,-52.75C575.51,-74.15 1128.32,-72.65 1128.32,-48.25 1128.32,-24.4 600.06,-22.43 446.91,-42.34"/>
<polygon fill="black" stroke="black" points="446.37,-38.88 436.95,-43.75 447.35,-45.81 446.37,-38.88"/>
<text text-anchor="middle" x="1159.82" y="-44.55" font-family="Times,serif" font-size="14.00">{r1, r2, r3}</text>
</g>
<!-- 4&#45;&gt;4 -->
<g id="edge47" class="edge">
<title>4&#45;&gt;4</title>
<path fill="none" stroke="black" d="M437.23,-52.88C584.54,-76.15 1191.32,-74.61 1191.32,-48.25 1191.32,-22.46 610.33,-20.42 447.35,-42.15"/>
<polygon fill="black" stroke="black" points="446.62,-38.72 437.23,-43.62 447.63,-45.65 446.62,-38.72"/>
<text text-anchor="middle" x="1203.82" y="-44.55" font-family="Times,serif" font-size="14.00">{r1}</text>
</g>
<!-- 4&#45;&gt;4 -->
<g id="edge48" class="edge">
<title>4&#45;&gt;4</title>
<path fill="none" stroke="black" d="M436.98,-52.98C588.81,-78.16 1216.32,-76.58 1216.32,-48.25 1216.32,-20.5 614.28,-18.42 446.91,-42"/>
<polygon fill="black" stroke="black" points="446.34,-38.55 436.98,-43.52 447.4,-45.47 446.34,-38.55"/>
<text text-anchor="middle" x="1238.32" y="-44.55" font-family="Times,serif" font-size="14.00">{r2, r3}</text>
</g>
<!-- 4&#45;&gt;4 -->
<g id="edge49" class="edge">
<title>4&#45;&gt;4</title>
<path fill="none" stroke="black" d="M437.28,-53.13C596.18,-80.16 1260.32,-78.53 1260.32,-48.25 1260.32,-18.56 621.87,-16.42 447.16,-41.82"/>
<polygon fill="black" stroke="black" points="446.62,-38.36 437.28,-43.37 447.7,-45.28 446.62,-38.36"/>
<text text-anchor="middle" x="1301.32" y="-44.55" font-family="Times,serif" font-size="14.00">{r0, r1, r3, r4}</text>
</g>
<!-- 4&#45;&gt;4 -->
<g id="edge50" class="edge">
<title>4&#45;&gt;4</title>
<path fill="none" stroke="black" d="M437,-53.12C604.83,-82.16 1342.32,-80.54 1342.32,-48.25 1342.32,-16.56 631.94,-14.41 446.92,-41.79"/>
<polygon fill="black" stroke="black" points="446.32,-38.34 437,-43.38 447.42,-45.26 446.32,-38.34"/>
<text text-anchor="middle" x="1354.82" y="-44.55" font-family="Times,serif" font-size="14.00">{r4}</text>
</g>
<!-- 4&#45;&gt;4 -->
<g id="edge51" class="edge">
<title>4&#45;&gt;4</title>
<path fill="none" stroke="black" d="M436.93,-53.22C609.59,-84.17 1367.32,-82.51 1367.32,-48.25 1367.32,-14.61 636.72,-12.4 446.85,-41.64"/>
<polygon fill="black" stroke="black" points="446.22,-38.19 436.93,-43.28 447.36,-45.1 446.22,-38.19"/>
<text text-anchor="middle" x="1379.82" y="-44.55" font-family="Times,serif" font-size="14.00">{r0}</text>
</g>
<!-- 4&#45;&gt;4 -->
<g id="edge52" class="edge">
<title>4&#45;&gt;4</title>
<path fill="none" stroke="black" d="M436.79,-53.29C614.19,-86.17 1392.32,-84.49 1392.32,-48.25 1392.32,-12.65 641.31,-10.4 446.69,-41.51"/>
<polygon fill="black" stroke="black" points="446.05,-38.06 436.79,-43.21 447.23,-44.96 446.05,-38.06"/>
<text text-anchor="middle" x="1423.82" y="-44.55" font-family="Times,serif" font-size="14.00">{r2, r3, r4}</text>
</g>
<!-- 4&#45;&gt;4 -->
<g id="edge53" class="edge">
<title>4&#45;&gt;4</title>
<path fill="none" stroke="black" d="M436.8,-53.34C621.96,-88.17 1455.32,-86.47 1455.32,-48.25 1455.32,-10.68 650.2,-8.4 446.85,-41.4"/>
<polygon fill="black" stroke="black" points="446.05,-37.99 436.8,-43.15 447.25,-44.88 446.05,-37.99"/>
<text text-anchor="middle" x="1477.32" y="-44.55" font-family="Times,serif" font-size="14.00">{r0, r4}</text>
</g>
<!-- 4&#45;&gt;4 -->
<g id="edge54" class="edge">
<title>4&#45;&gt;4</title>
<path fill="none" stroke="black" d="M436.89,-53.43C628.59,-90.17 1499.32,-88.44 1499.32,-48.25 1499.32,-8.72 657.27,-6.39 447,-41.27"/>
<polygon fill="black" stroke="black" points="446.13,-37.87 436.89,-43.07 447.35,-44.76 446.13,-37.87"/>
<text text-anchor="middle" x="1521.32" y="-44.55" font-family="Times,serif" font-size="14.00">{r3, r4}</text>
</g>
<!-- 4&#45;&gt;4 -->
<g id="edge55" class="edge">
<title>4&#45;&gt;4</title>
<path fill="none" stroke="black" d="M436.93,-53.5C635.02,-92.17 1543.32,-90.42 1543.32,-48.25 1543.32,-6.76 664.05,-4.39 447.05,-41.16"/>
<polygon fill="black" stroke="black" points="446.14,-37.77 436.93,-43 447.39,-44.66 446.14,-37.77"/>
<text text-anchor="middle" x="1565.32" y="-44.55" font-family="Times,serif" font-size="14.00">{r2, r4}</text>
</g>
<!-- 4&#45;&gt;4 -->
<g id="edge56" class="edge">
<title>4&#45;&gt;4</title>
<path fill="none" stroke="black" d="M436.89,-53.55C641.22,-94.18 1587.32,-92.41 1587.32,-48.25 1587.32,-4.78 670.55,-2.39 447.01,-41.07"/>
<polygon fill="black" stroke="black" points="446.09,-37.68 436.89,-42.95 447.36,-44.57 446.09,-37.68"/>
<text text-anchor="middle" x="1637.32" y="-44.55" font-family="Times,serif" font-size="14.00">{r0, r1, r2, r3, r4}</text>
</g>
<!-- 4&#45;&gt;4 -->
<g id="edge57" class="edge">
<title>4&#45;&gt;4</title>
<path fill="none" stroke="black" d="M436.71,-53.52C650.39,-96.18 1687.32,-94.42 1687.32,-48.25 1687.32,-2.75 680.55,-0.38 446.63,-41.13"/>
<polygon fill="black" stroke="black" points="445.9,-37.7 436.71,-42.97 447.18,-44.58 445.9,-37.7"/>
<text text-anchor="middle" x="1709.32" y="-44.55" font-family="Times,serif" font-size="14.00">{r1, r3}</text>
</g>
<!-- 4&#45;&gt;4 -->
<g id="edge58" class="edge">
<title>4&#45;&gt;4</title>
<path fill="none" stroke="black" d="M436.86,-53.61C657.05,-98.18 1731.32,-96.39 1731.32,-48.25 1731.32,-0.79 687.26,1.62 446.72,-41.02"/>
<polygon fill="black" stroke="black" points="446.04,-37.59 436.86,-42.89 447.34,-44.47 446.04,-37.59"/>
<text text-anchor="middle" x="1772.32" y="-44.55" font-family="Times,serif" font-size="14.00">{r1, r2, r3, r4}</text>
</g>
<!-- 4&#45;&gt;4 -->
<g id="edge59" class="edge">
<title>4&#45;&gt;4</title>
<path fill="none" stroke="black" d="M436.76,-53.61C665.1,-100.18 1813.32,-98.4 1813.32,-48.25 1813.32,1.21 696.28,3.63 446.64,-41"/>
<polygon fill="black" stroke="black" points="445.93,-37.58 436.76,-42.89 447.24,-44.45 445.93,-37.58"/>
<text text-anchor="middle" x="1844.82" y="-44.55" font-family="Times,serif" font-size="14.00">{r0, r1, r3}</text>
</g>
<!-- 4&#45;&gt;4 -->
<g id="edge60" class="edge">
<title>4&#45;&gt;4</title>
<path fill="none" stroke="black" d="M436.88,-53.67C672.66,-102.18 1876.32,-100.38 1876.32,-48.25 1876.32,3.19 704.19,5.63 446.7,-40.94"/>
<polygon fill="black" stroke="black" points="446.03,-37.5 436.88,-42.83 447.36,-44.37 446.03,-37.5"/>
<text text-anchor="middle" x="1888.82" y="-44.55" font-family="Times,serif" font-size="14.00">{r3}</text>
</g>
<!-- 4&#45;&gt;4 -->
<g id="edge61" class="edge">
<title>4&#45;&gt;4</title>
<path fill="none" stroke="black" d="M436.81,-53.72C677.48,-104.19 1901.32,-102.36 1901.32,-48.25 1901.32,5.15 709.54,7.63 446.84,-40.81"/>
<polygon fill="black" stroke="black" points="445.95,-37.42 436.81,-42.78 447.3,-44.29 445.95,-37.42"/>
<text text-anchor="middle" x="1932.82" y="-44.55" font-family="Times,serif" font-size="14.00">{r1, r3, r4}</text>
</g>
<!-- 4&#45;&gt;4 -->
<g id="edge62" class="edge">
<title>4&#45;&gt;4</title>
<path fill="none" stroke="black" d="M436.84,-53.76C684.67,-106.19 1964.32,-104.35 1964.32,-48.25 1964.32,7.14 716.96,9.63 446.77,-40.77"/>
<polygon fill="black" stroke="black" points="445.96,-37.36 436.84,-42.74 447.33,-44.23 445.96,-37.36"/>
<text text-anchor="middle" x="1986.32" y="-44.55" font-family="Times,serif" font-size="14.00">{r1, r4}</text>
</g>
<!-- 4&#45;&gt;4 -->
<g id="edge63" class="edge">
<title>4&#45;&gt;4</title>
<path fill="none" stroke="black" d="M436.75,-53.78C690.46,-108.19 2008.32,-106.35 2008.32,-48.25 2008.32,9.11 723.71,11.63 446.93,-40.67"/>
<polygon fill="black" stroke="black" points="445.87,-37.32 436.75,-42.72 447.25,-44.18 445.87,-37.32"/>
<text text-anchor="middle" x="2039.82" y="-44.55" font-family="Times,serif" font-size="14.00">{r0, r3, r4}</text>
</g>
<!-- 4&#45;&gt;4 -->
<g id="edge64" class="edge">
<title>4&#45;&gt;4</title>
<path fill="none" stroke="black" d="M436.68,-53.8C697.26,-110.19 2071.32,-108.34 2071.32,-48.25 2071.32,11.11 730.6,13.64 446.72,-40.66"/>
<polygon fill="black" stroke="black" points="445.79,-37.28 436.68,-42.7 447.18,-44.14 445.79,-37.28"/>
<text text-anchor="middle" x="2102.82" y="-44.55" font-family="Times,serif" font-size="14.00">{r0, r1, r4}</text>
</g>
<!-- 4&#45;&gt;4 -->
<g id="edge65" class="edge">
<title>4&#45;&gt;4</title>
<path fill="none" stroke="black" d="M436.97,-53.89C705.27,-112.19 2134.32,-110.31 2134.32,-48.25 2134.32,13.09 738.57,15.64 446.88,-40.59"/>
<polygon fill="black" stroke="black" points="446.07,-37.18 436.97,-42.61 447.47,-44.04 446.07,-37.18"/>
<text text-anchor="middle" x="2156.32" y="-44.55" font-family="Times,serif" font-size="14.00">{r0, r2}</text>
</g>
</g>
</svg>
