<?xml version="1.0" encoding="UTF-8" standalone="no"?>
<!DOCTYPE svg PUBLIC "-//W3C//DTD SVG 1.1//EN"
 "http://www.w3.org/Graphics/SVG/1.1/DTD/svg11.dtd">
<!-- Generated by graphviz version 2.43.0 (0)
 -->
<!-- Title: %3 Pages: 1 -->
<svg width="1017pt" height="386pt"
 viewBox="0.00 0.00 1017.33 386.00" xmlns="http://www.w3.org/2000/svg" xmlns:xlink="http://www.w3.org/1999/xlink">
<g id="graph0" class="graph" transform="scale(1 1) rotate(0) translate(4 382)">
<title>%3</title>
<polygon fill="white" stroke="transparent" points="-4,4 -4,-382 1013.33,-382 1013.33,4 -4,4"/>
<!-- fake -->
<g id="node1" class="node">
<title>fake</title>
</g>
<!-- 0 -->
<g id="node2" class="node">
<title>0</title>
<ellipse fill="none" stroke="black" cx="535.33" cy="-287" rx="27" ry="18"/>
<text text-anchor="middle" x="535.33" y="-283.3" font-family="Times,serif" font-size="14.00">0</text>
</g>
<!-- fake&#45;&gt;0 -->
<g id="edge1" class="edge">
<title>fake&#45;&gt;0</title>
<path fill="none" stroke="black" stroke-width="2" d="M535.33,-341.81C535.33,-333.79 535.33,-324.05 535.33,-315.07"/>
<polygon fill="black" stroke="black" stroke-width="2" points="538.83,-315.03 535.33,-305.03 531.83,-315.03 538.83,-315.03"/>
</g>
<!-- 0&#45;&gt;0 -->
<g id="edge6" class="edge">
<title>0&#45;&gt;0</title>
<path fill="none" stroke="black" d="M560.77,-293.69C571.36,-294.15 580.33,-291.92 580.33,-287 580.33,-283.77 576.47,-281.7 570.82,-280.79"/>
<polygon fill="black" stroke="black" points="570.93,-277.29 560.77,-280.31 570.6,-284.28 570.93,-277.29"/>
<text text-anchor="middle" x="587.33" y="-283.3" font-family="Times,serif" font-size="14.00">{}</text>
</g>
<!-- 1 -->
<g id="node3" class="node">
<title>1</title>
<ellipse fill="none" stroke="black" cx="420.33" cy="-200" rx="27" ry="18"/>
<text text-anchor="middle" x="420.33" y="-196.3" font-family="Times,serif" font-size="14.00">1</text>
</g>
<!-- 0&#45;&gt;1 -->
<g id="edge2" class="edge">
<title>0&#45;&gt;1</title>
<path fill="none" stroke="black" d="M508.52,-284.79C463.38,-282.13 375.3,-274.04 356.33,-251 343.45,-235.36 365.21,-221.52 386.77,-212.39"/>
<polygon fill="black" stroke="black" points="388.2,-215.58 396.21,-208.65 385.63,-209.08 388.2,-215.58"/>
<text text-anchor="middle" x="377.83" y="-239.8" font-family="Times,serif" font-size="14.00">{t0, t2}</text>
</g>
<!-- 0&#45;&gt;1 -->
<g id="edge3" class="edge">
<title>0&#45;&gt;1</title>
<path fill="none" stroke="black" d="M508.02,-285.92C481.49,-284.21 442.35,-277.06 422.33,-251 417.4,-244.58 415.79,-236.21 415.74,-228.16"/>
<polygon fill="black" stroke="black" points="419.25,-228.17 416.43,-217.95 412.27,-227.7 419.25,-228.17"/>
<text text-anchor="middle" x="443.83" y="-239.8" font-family="Times,serif" font-size="14.00">{t0, t1}</text>
</g>
<!-- 0&#45;&gt;1 -->
<g id="edge4" class="edge">
<title>0&#45;&gt;1</title>
<path fill="none" stroke="black" d="M517.86,-273.09C498.78,-258.99 468.02,-236.25 446.15,-220.09"/>
<polygon fill="black" stroke="black" points="448.08,-217.16 437.96,-214.03 443.92,-222.79 448.08,-217.16"/>
<text text-anchor="middle" x="496.83" y="-239.8" font-family="Times,serif" font-size="14.00">{t0}</text>
</g>
<!-- 0&#45;&gt;1 -->
<g id="edge5" class="edge">
<title>0&#45;&gt;1</title>
<path fill="none" stroke="black" d="M531.39,-268.71C528.15,-258.03 522.56,-244.74 513.33,-236 497.72,-221.22 475.27,-212.54 456.34,-207.52"/>
<polygon fill="black" stroke="black" points="457.08,-204.09 446.54,-205.15 455.44,-210.9 457.08,-204.09"/>
<text text-anchor="middle" x="553.83" y="-239.8" font-family="Times,serif" font-size="14.00">{t0, t1, t2}</text>
</g>
<!-- 2 -->
<g id="node4" class="node">
<title>2</title>
<ellipse fill="none" stroke="black" cx="559.33" cy="-22" rx="27" ry="18"/>
<text text-anchor="middle" x="559.33" y="-18.3" font-family="Times,serif" font-size="14.00">2</text>
</g>
<!-- 0&#45;&gt;2 -->
<g id="edge7" class="edge">
<title>0&#45;&gt;2</title>
<path fill="none" stroke="black" d="M558.18,-277.15C569.42,-271.49 581.9,-262.94 588.33,-251 623.92,-184.85 591.48,-92.69 571.82,-48.55"/>
<polygon fill="black" stroke="black" points="574.97,-47.01 567.62,-39.39 568.61,-49.94 574.97,-47.01"/>
<text text-anchor="middle" x="615.83" y="-152.8" font-family="Times,serif" font-size="14.00">{t1}</text>
</g>
<!-- 0&#45;&gt;2 -->
<g id="edge8" class="edge">
<title>0&#45;&gt;2</title>
<path fill="none" stroke="black" d="M559.74,-279.1C574.78,-273.7 593.4,-264.75 605.33,-251 610.91,-244.57 630.52,-176.45 632.33,-164 639,-118.02 605.24,-71.46 581.39,-45.02"/>
<polygon fill="black" stroke="black" points="583.75,-42.41 574.37,-37.48 578.63,-47.18 583.75,-42.41"/>
<text text-anchor="middle" x="644.83" y="-152.8" font-family="Times,serif" font-size="14.00">{t2}</text>
</g>
<!-- 0&#45;&gt;2 -->
<g id="edge9" class="edge">
<title>0&#45;&gt;2</title>
<path fill="none" stroke="black" d="M561.01,-281.1C580.02,-276.29 605.43,-267.25 622.33,-251 652.87,-221.63 652.47,-205.44 661.33,-164 671.77,-115.19 649.48,-97.44 614.33,-62 606.33,-53.94 596.5,-46.39 587.37,-40.12"/>
<polygon fill="black" stroke="black" points="589.19,-37.12 578.92,-34.52 585.32,-42.96 589.19,-37.12"/>
<text text-anchor="middle" x="684.83" y="-152.8" font-family="Times,serif" font-size="14.00">{t1, t2}</text>
</g>
<!-- 1&#45;&gt;1 -->
<g id="edge19" class="edge">
<title>1&#45;&gt;1</title>
<path fill="none" stroke="black" d="M444.86,-207.75C455.84,-208.49 465.33,-205.91 465.33,-200 465.33,-196.03 461.04,-193.56 454.9,-192.59"/>
<polygon fill="black" stroke="black" points="454.98,-189.09 444.86,-192.25 454.74,-196.09 454.98,-189.09"/>
<text text-anchor="middle" x="472.33" y="-196.3" font-family="Times,serif" font-size="14.00">{}</text>
</g>
<!-- 1&#45;&gt;2 -->
<g id="edge23" class="edge">
<title>1&#45;&gt;2</title>
<path fill="none" stroke="black" d="M419.37,-181.83C418.89,-160.38 420.43,-123.08 434.33,-95 443.53,-76.41 449.63,-72.81 467.33,-62 489.64,-48.38 499.45,-54.65 523.33,-44 525.99,-42.81 528.71,-41.48 531.4,-40.07"/>
<polygon fill="black" stroke="black" points="533.26,-43.04 540.31,-35.13 529.86,-36.92 533.26,-43.04"/>
<text text-anchor="middle" x="446.83" y="-109.3" font-family="Times,serif" font-size="14.00">{t2}</text>
</g>
<!-- 1&#45;&gt;2 -->
<g id="edge24" class="edge">
<title>1&#45;&gt;2</title>
<path fill="none" stroke="black" d="M431.03,-183.13C445.16,-162.41 471.1,-125.22 495.33,-95 509.06,-77.87 525.53,-59.38 538.33,-45.43"/>
<polygon fill="black" stroke="black" points="541.17,-47.5 545.39,-37.78 536.03,-42.76 541.17,-47.5"/>
<text text-anchor="middle" x="516.83" y="-109.3" font-family="Times,serif" font-size="14.00">{t0, t2}</text>
</g>
<!-- 1&#45;&gt;2 -->
<g id="edge25" class="edge">
<title>1&#45;&gt;2</title>
<path fill="none" stroke="black" d="M444.88,-191.71C472.16,-182.28 515.39,-163.14 538.33,-131 555.19,-107.38 559.44,-73.75 560.1,-50.32"/>
<polygon fill="black" stroke="black" points="563.6,-50.06 560.18,-40.03 556.6,-50 563.6,-50.06"/>
<text text-anchor="middle" x="565.83" y="-109.3" font-family="Times,serif" font-size="14.00">{t0}</text>
</g>
<!-- 3 -->
<g id="node5" class="node">
<title>3</title>
<ellipse fill="none" stroke="black" cx="212.33" cy="-113" rx="27" ry="18"/>
<text text-anchor="middle" x="212.33" y="-109.3" font-family="Times,serif" font-size="14.00">3</text>
</g>
<!-- 1&#45;&gt;3 -->
<g id="edge18" class="edge">
<title>1&#45;&gt;3</title>
<path fill="none" stroke="black" d="M393.28,-199.54C333.82,-200.1 194.7,-197.68 165.33,-164 155.05,-152.22 167.67,-139.37 182.4,-129.65"/>
<polygon fill="black" stroke="black" points="184.44,-132.51 191.16,-124.32 180.8,-126.53 184.44,-132.51"/>
<text text-anchor="middle" x="177.83" y="-152.8" font-family="Times,serif" font-size="14.00">{t1}</text>
</g>
<!-- 1&#45;&gt;3 -->
<g id="edge20" class="edge">
<title>1&#45;&gt;3</title>
<path fill="none" stroke="black" d="M393.06,-198.52C342.29,-197 236.3,-190.64 213.33,-164 207.91,-157.71 206.4,-149.15 206.63,-140.88"/>
<polygon fill="black" stroke="black" points="210.13,-141.08 207.7,-130.76 203.17,-140.34 210.13,-141.08"/>
<text text-anchor="middle" x="234.83" y="-152.8" font-family="Times,serif" font-size="14.00">{t1, t2}</text>
</g>
<!-- 1&#45;&gt;3 -->
<g id="edge21" class="edge">
<title>1&#45;&gt;3</title>
<path fill="none" stroke="black" d="M394.07,-195.67C364.93,-191.26 317.06,-181.86 279.33,-164 270.42,-159.78 252.1,-145.96 236.87,-133.92"/>
<polygon fill="black" stroke="black" points="238.8,-130.98 228.8,-127.48 234.43,-136.45 238.8,-130.98"/>
<text text-anchor="middle" x="300.83" y="-152.8" font-family="Times,serif" font-size="14.00">{t0, t1}</text>
</g>
<!-- 1&#45;&gt;3 -->
<g id="edge22" class="edge">
<title>1&#45;&gt;3</title>
<path fill="none" stroke="black" d="M397.93,-189.54C382.81,-182.91 362.54,-173.56 345.33,-164 334.66,-158.07 333.36,-154.23 322.33,-149 298.26,-137.58 269.52,-128.58 247.46,-122.57"/>
<polygon fill="black" stroke="black" points="248.09,-119.12 237.52,-119.94 246.29,-125.88 248.09,-119.12"/>
<text text-anchor="middle" x="375.83" y="-152.8" font-family="Times,serif" font-size="14.00">{t0, t1, t2}</text>
</g>
<!-- 2&#45;&gt;2 -->
<g id="edge34" class="edge">
<title>2&#45;&gt;2</title>
<path fill="none" stroke="black" d="M586.57,-23.5C596.35,-23.53 604.33,-23.03 604.33,-22 604.33,-21.37 601.37,-20.94 596.84,-20.71"/>
<polygon fill="black" stroke="black" points="596.64,-17.2 586.57,-20.5 596.5,-24.2 596.64,-17.2"/>
<text text-anchor="middle" x="616.83" y="-18.3" font-family="Times,serif" font-size="14.00">{t1}</text>
</g>
<!-- 2&#45;&gt;2 -->
<g id="edge35" class="edge">
<title>2&#45;&gt;2</title>
<path fill="none" stroke="black" d="M586.33,-24.65C607.21,-25.57 629.33,-24.69 629.33,-22 629.33,-19.75 613.87,-18.77 596.6,-19.05"/>
<polygon fill="black" stroke="black" points="596.22,-15.56 586.33,-19.35 596.43,-22.55 596.22,-15.56"/>
<text text-anchor="middle" x="659.83" y="-18.3" font-family="Times,serif" font-size="14.00">{t0, t1, t2}</text>
</g>
<!-- 2&#45;&gt;2 -->
<g id="edge36" class="edge">
<title>2&#45;&gt;2</title>
<path fill="none" stroke="black" d="M586.21,-25.08C626.85,-27.71 690.33,-26.69 690.33,-22 690.33,-17.69 636.61,-16.47 596.37,-18.36"/>
<polygon fill="black" stroke="black" points="596,-14.88 586.21,-18.92 596.39,-21.87 596,-14.88"/>
<text text-anchor="middle" x="702.83" y="-18.3" font-family="Times,serif" font-size="14.00">{t2}</text>
</g>
<!-- 2&#45;&gt;2 -->
<g id="edge37" class="edge">
<title>2&#45;&gt;2</title>
<path fill="none" stroke="black" d="M585.98,-25.66C634.13,-29.72 715.33,-28.5 715.33,-22 715.33,-15.93 644.56,-14.47 595.98,-17.6"/>
<polygon fill="black" stroke="black" points="595.7,-14.12 585.98,-18.34 596.21,-21.1 595.7,-14.12"/>
<text text-anchor="middle" x="736.83" y="-18.3" font-family="Times,serif" font-size="14.00">{t1, t2}</text>
</g>
<!-- 2&#45;&gt;2 -->
<g id="edge38" class="edge">
<title>2&#45;&gt;2</title>
<path fill="none" stroke="black" d="M585.81,-26C644.95,-31.75 758.33,-30.42 758.33,-22 758.33,-14.04 657.01,-12.42 595.97,-17.12"/>
<polygon fill="black" stroke="black" points="595.47,-13.65 585.81,-18 596.08,-20.63 595.47,-13.65"/>
<text text-anchor="middle" x="765.33" y="-18.3" font-family="Times,serif" font-size="14.00">{}</text>
</g>
<!-- 2&#45;&gt;2 -->
<g id="edge39" class="edge">
<title>2&#45;&gt;2</title>
<path fill="none" stroke="black" d="M585.9,-26.45C650.46,-33.75 776.33,-32.27 776.33,-22 776.33,-12.26 662.92,-10.42 596.18,-16.5"/>
<polygon fill="black" stroke="black" points="595.49,-13.06 585.9,-17.55 596.2,-20.02 595.49,-13.06"/>
<text text-anchor="middle" x="797.83" y="-18.3" font-family="Times,serif" font-size="14.00">{t0, t1}</text>
</g>
<!-- 2&#45;&gt;2 -->
<g id="edge40" class="edge">
<title>2&#45;&gt;2</title>
<path fill="none" stroke="black" d="M585.64,-26.66C660.03,-35.77 819.33,-34.22 819.33,-22 819.33,-10.3 673.42,-8.38 595.68,-16.23"/>
<polygon fill="black" stroke="black" points="595.19,-12.76 585.64,-17.34 595.97,-19.72 595.19,-12.76"/>
<text text-anchor="middle" x="840.83" y="-18.3" font-family="Times,serif" font-size="14.00">{t0, t2}</text>
</g>
<!-- 2&#45;&gt;2 -->
<g id="edge41" class="edge">
<title>2&#45;&gt;2</title>
<path fill="none" stroke="black" d="M585.34,-26.82C668.91,-37.79 862.33,-36.19 862.33,-22 862.33,-8.35 683.36,-6.35 595.35,-15.98"/>
<polygon fill="black" stroke="black" points="594.86,-12.51 585.34,-17.18 595.69,-19.46 594.86,-12.51"/>
<text text-anchor="middle" x="874.83" y="-18.3" font-family="Times,serif" font-size="14.00">{t0}</text>
</g>
<!-- 3&#45;&gt;2 -->
<g id="edge31" class="edge">
<title>3&#45;&gt;2</title>
<path fill="none" stroke="black" d="M226.5,-97.39C239.74,-84.11 258.84,-66.01 268.33,-62 372.99,-17.79 414.76,-77.5 523.33,-44 526.34,-43.07 529.38,-41.85 532.33,-40.46"/>
<polygon fill="black" stroke="black" points="534.23,-43.42 541.4,-35.62 530.93,-37.24 534.23,-43.42"/>
<text text-anchor="middle" x="280.83" y="-65.8" font-family="Times,serif" font-size="14.00">{t1}</text>
</g>
<!-- 3&#45;&gt;2 -->
<g id="edge32" class="edge">
<title>3&#45;&gt;2</title>
<path fill="none" stroke="black" d="M235.16,-103.34C251.66,-96.8 274.3,-87.22 293.33,-77 304.08,-71.23 304.79,-65.98 316.33,-62 403.62,-31.87 435.31,-71.94 523.33,-44 526.34,-43.05 529.36,-41.81 532.32,-40.41"/>
<polygon fill="black" stroke="black" points="534.22,-43.36 541.38,-35.55 530.91,-37.19 534.22,-43.36"/>
<text text-anchor="middle" x="337.83" y="-65.8" font-family="Times,serif" font-size="14.00">{t0, t1}</text>
</g>
<!-- 3&#45;&gt;2 -->
<g id="edge33" class="edge">
<title>3&#45;&gt;2</title>
<path fill="none" stroke="black" d="M238.68,-108.52C268.79,-103.92 319.08,-94.3 359.33,-77 370.54,-72.18 370.88,-66.21 382.33,-62 441.62,-40.19 463.51,-64.32 523.33,-44 526.25,-43.01 529.2,-41.76 532.08,-40.38"/>
<polygon fill="black" stroke="black" points="533.8,-43.43 540.96,-35.62 530.49,-37.26 533.8,-43.43"/>
<text text-anchor="middle" x="394.83" y="-65.8" font-family="Times,serif" font-size="14.00">{t0}</text>
</g>
<!-- 3&#45;&gt;3 -->
<g id="edge30" class="edge">
<title>3&#45;&gt;3</title>
<path fill="none" stroke="black" d="M236.86,-120.75C247.84,-121.49 257.33,-118.91 257.33,-113 257.33,-109.03 253.04,-106.56 246.9,-105.59"/>
<polygon fill="black" stroke="black" points="246.98,-102.09 236.86,-105.25 246.74,-109.09 246.98,-102.09"/>
<text text-anchor="middle" x="264.33" y="-109.3" font-family="Times,serif" font-size="14.00">{}</text>
</g>
<!-- 4 -->
<g id="node6" class="node">
<title>4</title>
<ellipse fill="none" stroke="black" cx="69.33" cy="-22" rx="18" ry="18"/>
<ellipse fill="none" stroke="black" cx="69.33" cy="-22" rx="22" ry="22"/>
<text text-anchor="middle" x="69.33" y="-18.3" font-family="Times,serif" font-size="14.00">4</text>
</g>
<!-- 3&#45;&gt;4 -->
<g id="edge26" class="edge">
<title>3&#45;&gt;4</title>
<path fill="none" stroke="black" d="M185.28,-111.6C134.34,-110.2 27.21,-104.05 4.33,-77 -10.16,-59.87 15.86,-43.94 39.16,-33.88"/>
<polygon fill="black" stroke="black" points="40.58,-37.08 48.52,-30.07 37.94,-30.6 40.58,-37.08"/>
<text text-anchor="middle" x="25.83" y="-65.8" font-family="Times,serif" font-size="14.00">{t0, t2}</text>
</g>
<!-- 3&#45;&gt;4 -->
<g id="edge27" class="edge">
<title>3&#45;&gt;4</title>
<path fill="none" stroke="black" d="M185.68,-109.26C148.64,-104.85 84.55,-94.81 70.33,-77 65.09,-70.44 63.39,-61.85 63.4,-53.47"/>
<polygon fill="black" stroke="black" points="66.89,-53.72 64.14,-43.49 59.91,-53.21 66.89,-53.72"/>
<text text-anchor="middle" x="91.83" y="-65.8" font-family="Times,serif" font-size="14.00">{t1, t2}</text>
</g>
<!-- 3&#45;&gt;4 -->
<g id="edge28" class="edge">
<title>3&#45;&gt;4</title>
<path fill="none" stroke="black" d="M189.3,-103.14C173.82,-96.77 153.24,-87.49 136.33,-77 120.91,-67.44 105.05,-54.81 92.63,-44.16"/>
<polygon fill="black" stroke="black" points="94.84,-41.44 85.01,-37.5 90.24,-46.72 94.84,-41.44"/>
<text text-anchor="middle" x="148.83" y="-65.8" font-family="Times,serif" font-size="14.00">{t2}</text>
</g>
<!-- 3&#45;&gt;4 -->
<g id="edge29" class="edge">
<title>3&#45;&gt;4</title>
<path fill="none" stroke="black" d="M199.71,-96.9C190.07,-86.09 175.98,-71.77 161.33,-62 142.25,-49.27 118.33,-39.29 99.67,-32.61"/>
<polygon fill="black" stroke="black" points="100.77,-29.28 90.17,-29.33 98.48,-35.9 100.77,-29.28"/>
<text text-anchor="middle" x="210.83" y="-65.8" font-family="Times,serif" font-size="14.00">{t0, t1, t2}</text>
</g>
<!-- 4&#45;&gt;4 -->
<g id="edge10" class="edge">
<title>4&#45;&gt;4</title>
<path fill="none" stroke="black" d="M91.54,-23.48C101.13,-23.6 109.33,-23.11 109.33,-22 109.33,-21.32 106.28,-20.88 101.73,-20.66"/>
<polygon fill="black" stroke="black" points="101.59,-17.16 91.54,-20.52 101.49,-24.15 101.59,-17.16"/>
<text text-anchor="middle" x="139.83" y="-18.3" font-family="Times,serif" font-size="14.00">{t0, t1, t2}</text>
</g>
<!-- 4&#45;&gt;4 -->
<g id="edge11" class="edge">
<title>4&#45;&gt;4</title>
<path fill="none" stroke="black" d="M91.34,-24.15C122.46,-25.78 170.33,-25.06 170.33,-22 170.33,-19.26 132.02,-18.4 101.67,-19.41"/>
<polygon fill="black" stroke="black" points="101.19,-15.93 91.34,-19.85 101.48,-22.92 101.19,-15.93"/>
<text text-anchor="middle" x="191.83" y="-18.3" font-family="Times,serif" font-size="14.00">{t1, t2}</text>
</g>
<!-- 4&#45;&gt;4 -->
<g id="edge12" class="edge">
<title>4&#45;&gt;4</title>
<path fill="none" stroke="black" d="M91.41,-24.7C134.24,-27.8 213.33,-26.9 213.33,-22 213.33,-17.47 145.54,-16.36 101.5,-18.68"/>
<polygon fill="black" stroke="black" points="101.17,-15.19 91.41,-19.3 101.61,-22.18 101.17,-15.19"/>
<text text-anchor="middle" x="234.83" y="-18.3" font-family="Times,serif" font-size="14.00">{t0, t2}</text>
</g>
<!-- 4&#45;&gt;4 -->
<g id="edge13" class="edge">
<title>4&#45;&gt;4</title>
<path fill="none" stroke="black" d="M91.32,-25.1C144.48,-29.81 256.33,-28.78 256.33,-22 256.33,-15.63 157.61,-14.33 101.58,-18.11"/>
<polygon fill="black" stroke="black" points="101.02,-14.64 91.32,-18.9 101.56,-21.62 101.02,-14.64"/>
<text text-anchor="middle" x="268.83" y="-18.3" font-family="Times,serif" font-size="14.00">{t2}</text>
</g>
<!-- 4&#45;&gt;4 -->
<g id="edge14" class="edge">
<title>4&#45;&gt;4</title>
<path fill="none" stroke="black" d="M91.14,-25.5C150.57,-31.82 281.33,-30.65 281.33,-22 281.33,-13.8 164,-12.33 101.11,-17.56"/>
<polygon fill="black" stroke="black" points="100.77,-14.08 91.14,-18.5 101.43,-21.05 100.77,-14.08"/>
<text text-anchor="middle" x="288.33" y="-18.3" font-family="Times,serif" font-size="14.00">{}</text>
</g>
<!-- 4&#45;&gt;4 -->
<g id="edge15" class="edge">
<title>4&#45;&gt;4</title>
<path fill="none" stroke="black" d="M91.22,-25.88C155.77,-33.82 299.33,-32.52 299.33,-22 299.33,-11.99 169.45,-10.33 101.22,-17.02"/>
<polygon fill="black" stroke="black" points="100.78,-13.55 91.22,-18.12 101.54,-20.5 100.78,-13.55"/>
<text text-anchor="middle" x="320.83" y="-18.3" font-family="Times,serif" font-size="14.00">{t0, t1}</text>
</g>
<!-- 4&#45;&gt;4 -->
<g id="edge16" class="edge">
<title>4&#45;&gt;4</title>
<path fill="none" stroke="black" d="M91.25,-26.09C164.91,-35.83 342.33,-34.47 342.33,-22 342.33,-10.07 179.83,-8.31 101.3,-16.71"/>
<polygon fill="black" stroke="black" points="100.77,-13.25 91.25,-17.91 101.6,-20.2 100.77,-13.25"/>
<text text-anchor="middle" x="354.83" y="-18.3" font-family="Times,serif" font-size="14.00">{t1}</text>
</g>
<!-- 4&#45;&gt;4 -->
<g id="edge17" class="edge">
<title>4&#45;&gt;4</title>
<path fill="none" stroke="black" d="M91.02,-26.3C170.6,-37.84 367.33,-36.41 367.33,-22 367.33,-8.17 186.04,-6.29 101.12,-16.37"/>
<polygon fill="black" stroke="black" points="100.48,-12.93 91.02,-17.7 101.39,-19.87 100.48,-12.93"/>
<text text-anchor="middle" x="379.83" y="-18.3" font-family="Times,serif" font-size="14.00">{t0}</text>
</g>
</g>
</svg>
